<mxfile host="app.diagrams.net" modified="2022-02-16T14:09:13.752Z" agent="5.0 (Macintosh; Intel Mac OS X 10_15_7) AppleWebKit/537.36 (KHTML, like Gecko) Chrome/98.0.4758.80 Safari/537.36" etag="hnHpTMaG1mRrC5gwKx2w" version="16.5.6" type="github" pages="2">
  <diagram id="3TKfQxMAESyT9L7t3y67" name="Page-1">
    <mxGraphModel dx="1113" dy="1795" grid="1" gridSize="10" guides="1" tooltips="1" connect="1" arrows="1" fold="1" page="1" pageScale="1" pageWidth="827" pageHeight="1169" math="0" shadow="0">
      <root>
        <mxCell id="0" />
        <mxCell id="1" parent="0" />
        <mxCell id="rlyiKwZ7DXv_Saovwe5j-86" value="" style="whiteSpace=wrap;html=1;fillColor=#ffe6cc;strokeColor=none;rounded=1;" parent="1" vertex="1">
          <mxGeometry x="60" width="740" height="270" as="geometry" />
        </mxCell>
        <mxCell id="rlyiKwZ7DXv_Saovwe5j-89" style="edgeStyle=none;rounded=0;orthogonalLoop=1;jettySize=auto;html=1;entryX=1;entryY=0.5;entryDx=0;entryDy=0;entryPerimeter=0;" parent="1" source="rlyiKwZ7DXv_Saovwe5j-2" target="rlyiKwZ7DXv_Saovwe5j-8" edge="1">
          <mxGeometry relative="1" as="geometry" />
        </mxCell>
        <mxCell id="rlyiKwZ7DXv_Saovwe5j-2" value="&lt;h1&gt;cNance&lt;/h1&gt;" style="aspect=fixed;perimeter=ellipsePerimeter;html=1;align=center;shadow=0;dashed=0;spacingTop=3;image;image=img/lib/active_directory/generic_server.svg;" parent="1" vertex="1">
          <mxGeometry x="368" y="280" width="112" height="200" as="geometry" />
        </mxCell>
        <mxCell id="rlyiKwZ7DXv_Saovwe5j-10" style="edgeStyle=none;rounded=0;orthogonalLoop=1;jettySize=auto;html=1;" parent="1" source="rlyiKwZ7DXv_Saovwe5j-3" target="rlyiKwZ7DXv_Saovwe5j-2" edge="1">
          <mxGeometry relative="1" as="geometry" />
        </mxCell>
        <mxCell id="rlyiKwZ7DXv_Saovwe5j-3" value="&lt;h2&gt;Bank&lt;/h2&gt;" style="shape=image;html=1;verticalAlign=top;verticalLabelPosition=bottom;labelBackgroundColor=none;imageAspect=0;aspect=fixed;image=https://cdn1.iconfinder.com/data/icons/2-building-line-filled/614/2334_-_Bank-128.png" parent="1" vertex="1">
          <mxGeometry x="90" y="30" width="128" height="128" as="geometry" />
        </mxCell>
        <mxCell id="rlyiKwZ7DXv_Saovwe5j-12" style="edgeStyle=none;rounded=0;orthogonalLoop=1;jettySize=auto;html=1;" parent="1" source="rlyiKwZ7DXv_Saovwe5j-5" target="rlyiKwZ7DXv_Saovwe5j-2" edge="1">
          <mxGeometry relative="1" as="geometry" />
        </mxCell>
        <mxCell id="rlyiKwZ7DXv_Saovwe5j-5" value="&lt;h2&gt;Investment&amp;nbsp;&lt;/h2&gt;&lt;h2&gt;Platforms&lt;/h2&gt;" style="shape=image;html=1;verticalAlign=top;verticalLabelPosition=bottom;labelBackgroundColor=none;imageAspect=0;aspect=fixed;image=https://cdn0.iconfinder.com/data/icons/business-collection-2027/60/investment-128.png" parent="1" vertex="1">
          <mxGeometry x="650" y="50" width="118" height="118" as="geometry" />
        </mxCell>
        <mxCell id="rlyiKwZ7DXv_Saovwe5j-8" value="&lt;h2&gt;User&lt;/h2&gt;&lt;div&gt;(with CPR)&lt;/div&gt;" style="fillColor=#28A8E0;verticalLabelPosition=bottom;sketch=0;html=1;strokeColor=#ffffff;verticalAlign=top;align=center;points=[[0.145,0.145,0],[0.5,0,0],[0.855,0.145,0],[1,0.5,0],[0.855,0.855,0],[0.5,1,0],[0.145,0.855,0],[0,0.5,0]];pointerEvents=1;shape=mxgraph.cisco_safe.compositeIcon;bgIcon=ellipse;resIcon=mxgraph.cisco_safe.capability.user;" parent="1" vertex="1">
          <mxGeometry x="70" y="360" width="90" height="90" as="geometry" />
        </mxCell>
        <mxCell id="rlyiKwZ7DXv_Saovwe5j-87" value="&lt;h3&gt;Integrations&lt;/h3&gt;" style="text;html=1;resizable=0;autosize=1;align=center;verticalAlign=middle;points=[];fillColor=none;strokeColor=none;rounded=0;labelBackgroundColor=none;" parent="1" vertex="1">
          <mxGeometry x="380" y="-5" width="100" height="50" as="geometry" />
        </mxCell>
        <mxCell id="rlyiKwZ7DXv_Saovwe5j-11" style="edgeStyle=none;rounded=0;orthogonalLoop=1;jettySize=auto;html=1;" parent="1" source="rlyiKwZ7DXv_Saovwe5j-4" target="rlyiKwZ7DXv_Saovwe5j-2" edge="1">
          <mxGeometry relative="1" as="geometry" />
        </mxCell>
        <mxCell id="rlyiKwZ7DXv_Saovwe5j-4" value="&lt;h2&gt;Tax&lt;/h2&gt;" style="shape=image;html=1;verticalAlign=top;verticalLabelPosition=bottom;labelBackgroundColor=none;imageAspect=0;aspect=fixed;image=https://cdn1.iconfinder.com/data/icons/heroicons-ui/24/receipt-tax-128.png" parent="1" vertex="1">
          <mxGeometry x="360" y="30" width="128" height="128" as="geometry" />
        </mxCell>
      </root>
    </mxGraphModel>
  </diagram>
  <diagram id="2RPbTBrgWYnYMaRB4-UK" name="Page-2">
    <mxGraphModel dx="1261" dy="709" grid="1" gridSize="10" guides="1" tooltips="1" connect="1" arrows="1" fold="1" page="1" pageScale="1" pageWidth="850" pageHeight="1100" math="0" shadow="0">
      <root>
        <mxCell id="79kG9cvK04CvXiZlhBy5-0" />
        <mxCell id="79kG9cvK04CvXiZlhBy5-1" parent="79kG9cvK04CvXiZlhBy5-0" />
        <mxCell id="79kG9cvK04CvXiZlhBy5-2" value="" style="shape=image;verticalLabelPosition=bottom;labelBackgroundColor=default;verticalAlign=top;aspect=fixed;imageAspect=0;image=data:image/png,iVBORw0KGgoAAAANSUhEUgAAAgAAAAIACAYAAAD0eNT6AAAABHNCSVQICAgIfAhkiAAAAAlwSFlzAAAN1wAADdcBQiibeAAAABl0RVh0U29mdHdhcmUAd3d3Lmlua3NjYXBlLm9yZ5vuPBoAACAASURBVHic7N15tF1Vlff970xCgAABQUB6sEITaZJAEgJIU0gnakQey1fhLaFQFJHC4rEBRTGFPCWgoKJ0BYLw8igiSCcoatGFAIEECAiIgkaQQGikCQQIJPP9Y+2E5Obm5t5z9tzr7LN/nzHOUMg5a84w9jhznrXXXsvcHakfM1sf2B4YA2wErFG83rHY/18DGJIrRxGpvfnAi4u9Xljs/z8J3Avc6+6PZ8tQWmZqADqfmb0D2Iu3C/4YYJ2sSYmIvO15imYAuAf4vbs/lzclWR41AB3KzNYCDgA+CrwPWCFvRiIi/TYfuBm4HLjS3WfnTUd6owaggxS/9D9GKvp7oOl7Eam/BcBkUjPwc3d/NnM+UlAD0AHMbD3gi8BngVUzpyMiEuU14MfAd7RuID81ABmZ2WbAV4B/A1bMnI6ISFXeBP4vcLK7P5I7maZSA5CBmY0Avgl8AhicOR0RkVwWAL8EJrn7g7mTaRo1ABUysyHAl4ETgJUypyMi0ineBE4BTnL3N3In0xRqACpiZuOA84BRuXMREelQjwCHu/vk3Ik0waDcCXQ7M1vFzE4H7kDFX0SkL1sCt5jZOWa2eu5kup1mAAKZ2SjgSmCz3LmIiNTMLOCj7n5H7kS6lWYAgpjZRGAKKv4iIq1YH7jJzA7KnUi3UgMQwMy+TPrlv0ruXEREamxF4P+a2YlmZrmT6Ta6BVAiM1sBOAc4LHcuIiJd5jLgUHd/LXci3UINQEnMbDXgWmD33LmIiHSpu4H3u/vzuRPpBmoASmBmKwG/Ju3fLyIice4G3ufuc3InUndaA9CmYnOfn6PiLyJShXHA1Wam7dPbpAagDcWilAuAiblzERFpkH8Gfl78AJMWqQFozw+Af82dhIhIA30Y+LGeDmidGoAWmdnxwL/nzkNEpME+CZyaO4m60iLAFpjZbsBNqIESEekEH3L3X+VOom7UAAyQma0BzAA2zp3LYt4A/gA8AMwG/gG8ULzeypiXiNTbEGANYM3itS6wLbANaZOeTvEssJ27P507kTpRAzBAZvZz4GOZ03gT+D1wBTAV+KO7q9CLSCWKxXdbATsCBwJ7AytkTQpuIO0RoKLWT2oABsDMDgUuzJjCZOAnwJXu/kLGPEREFilmRg8ADiHvI9HHuPv3M8avFTUA/WRmI4B7gVUzhL8O+La7T8kQW0Sk38xsJ+BrwAczhH8D2NHdZ2SIXTtqAPqheMxkMrBLxaEnA/+ui1lE6qY4Dv0MYLeKQ98P7KDbosunVez982mqLf4vA0cCu6v4i0gdFd9dewCfBV6qMPR2wDEVxqstzQAsh5mtA/wReEdFIW8CPunuf68onohIKDNbn7R+ap+KQs4F3uPuf6soXi1pBmD5Tqe64v/fwL4q/iLSTdx9FrA/8MOKQg4DzqwoVm1pBqAPZvY+0uN20eYDX9LqVRHpdmb2OdLagCr28f+ou19RQZxaUgOwDMVJUw8AmweHWgD8v+7+s+A4IiIdwcz+F+kU1cHBoZ4ERuro4N7pFsCyfY344g9plb+Kv4g0RvGr/LMVhNoAOKmCOLWkGYBemNmWpEdJhgaHOsHdvxUcQ0SkI5nZl4k/zGcBaW+AacFxakcNQC/M7Cbid7P6ubt/PDiGiEhHM7OfkHYQjHQPMN7d5wfHqRXdAujBzKrYyvJx4IjgGCIidfDvwGPBMbYHjgqOUTuaAViMma1Feub/nYFhFgB7uPvkwBgiIrVhZjsCtxH7ZMAc0oLAJwNj1IpmAJZ0KrHFH+A7Kv4iIm9z96nA/wkOsxrp8UMpaAagYGa7ATcDFhjmL8A27v5aYAwRkdoxs6GkxddbBoea6O7XBseoBTUALLrw7gNGBofaz91vCI4hIlJLZrYHaTv0SI+Ttgl+NThOx9MtgOTLxBf/n6v4i4gsm7vfDFwUHGZjYFJwjFpo/AyAmf0T8AdgpcAwLwFbufvTgTFERGrPzN5JWoy9VmCYt0hHBt8fGKPjaQYAziK2+AN8VcVfRGT53P050qxspCHAuWbW6BrY6L+8mX2C+OMppwLnBscQEekmPwFuDY4xgWq2I+5Yjb0FYGZrkKaZ1g0M8xYw1t1nBMYQEek6ZjaStDg7ckv2Rt+ebfIMwLeJLf4A31fxFxEZOHd/mPhzAlYHvhcco2M1cgbAzCYAtxP7zL8eNRERaYOZrUQ6ln1EcKh93f23wTE6TuNmAMxsCOmefGTxBzhKxV9EpHXu/jpwZAWhziqajUZpXAMAHANsFxzjl9ppSkSkfe7+O+CnwWH+CfhGcIyO06hbAGa2CfAgsEpgGB04ISJSIjNbl7Roe43AMG8Co939ocAYHaVpMwA/Irb4A3xDxV9EpDzuPhs4LjjMCsA5ZhZ9e7hjNGYGwMwOBK4IDjMd2NHd5wfHERFplKIwTwF2Cg71KXe/IDhGR2hEA2BmqwEPAxsEhlkAjHf36YExREQay8y2Be4h7eQX5R/AlsWOhF2tKbcATiK2+AP8SMVfRCSOuz8AnB4cZk3gtOAYHaHrZwDMbAfSdryDA8M8SVr4NycwhohI45nZMNJi7k2DQ+3p7tFHE2fV1TMAZjaY9Mx/ZPEH+IKKv4hIPHefCxxVQaizzSxyG+LsuroBAD4P7BAc41fuHr24UERECu5+HXB5cJgtiX/yIKuuvQVgZhuQFv6tFhhmLmm7378FxhARkR7MbH3Sd/zwwDBvANu6+58DY2TTzTMAZxBb/AEmqfiLiFTP3WcBXw8OsyJwdnCMbLpyBsDMPghEb8V7P7CDu78VHEdERHphZoNIi7zHBof6V3e/JDhG5bquAShWiD4EbBIYxoGd3f3OwBgiIrIcZrY9cBexi72fAbZy9xcCY1SuG28BTCK2+AOcq+IvIpKfu98D/DA4zDrAKcExKtdVMwBmth1pO97IXaKeJj3z/2JgDBER6SczW5W0IHDDwDAO7OruUwJjVKprZgCKfaLPJbb4Axyj4i8i0jnc/RXg34PDGOmwoBWC41SmaxoA4LPAhOAYv3X3S4NjiIjIALn7VcA1wWG2Ab4YHKMyXXELoKKzol8HtnH3xwJjiIhIi8xsY9Ii8Mhj318Dtnb3vwbGqES3zAB8j9jiD/AtFX8Rkc7l7o8DJwSHWRk4MzhGJWo/A2Bm+wA3BId5CBjt7m8GxxERkTYUZ8BMA0YHh/qYu/8iOEaoWjcAZrYS8AfgnwLDOLC7u08OjCEiIiUxs/HAHcTOcj9F2hvg5cAYoep+C+DrxBZ/gAtV/EVE6sPd7wLOCQ6zHvBfwTFC1XYGwMxGAvcBkcc1Pkvq8P4RGENEREpmZquT9gZYLzDMAmCCu98dGCNMLWcAimf+zyG2+AN8ScVfRKR+3P0l4D+CwwwCzi3WHdROLRsA4FBgt+AYN7n7xcExREQkiLtfBvwmOMwY4OjgGCFqdwvAzN5JeuZ/rcAwbwCj3P2RwBgiIhLMzDYDHiQ9vhflFeA97v5EYIzS1XEG4LvEFn+Ak1X8RUTqr9iw58TgMKsSfyBR6Wo1A2BmewA3BYf5E7Cdu78RHEdERCpQ7N9/L7B1cKgD3P3q4BilqU0DYGZDgRnAVsGh3ufuNwbHEBGRCpnZLsBk0qE+UZ4g3Qp4JTBGaep0C+BY4ov//6fiLyLSfYpjfM8PDrMR8J/BMUpTixkAM9scuB9YKTDMP0jP/D8bGENERDIxs3eQFpGvExhmPjDW3e8LjFGKuswAnEVs8Qc4VsVfRKR7ufsLxB/nO5i0N0DH19eOT9DMDgb2Cg5zG/Dj4BgiIpKZu18C/E9wmPHA54JjtK2jbwFUNF3zJjDG3R8MjCEiIh2iuK38ALBiYJiXSbeVnwqM0ZZOnwE4mdjiD/BdFX8RkeZw9z8Tf5DPcOD7wTHa0rEzAGa2M2lqPvKRjb8A27j7a4ExRESkwxSPlt8PbBkcan93/3VwjJZ05AyAmQ0BziW2+AN8XsVfRKR53H0ecEQFoc40s8htiFvWkQ0AaZXmNsExfu7u0YdEiIhIh3L3m4GLgsNsBpwQHKMlHXcLwMw2JR3cMCwwzEukxRlPB8YQEZEOV9EBcx252LwTZwDOJLb4A3xNxV9ERNz9OeArwWFWIO0NEH1be0A6agbAzP4FuCw4zFRgZ3dfEBxHRERqoCjMNwO7BYf6jLufFxyj3zqmATCz4cDDwPqBYd4ibdE4IzCGiIjUjJmNBO4DhgaGeYF0+/mZwBj91km3AP4PscUf4Acq/iIi0pO7Pwx8JzjMO4DTgmP0W0fMAJjZOOBOYhuSx0nHNL4aGENERGrKzFYC/gD8U3Covdw9ejvi5co+A2Bmg0nP/EfncpSKv4iILIu7vw4cWUGos80schvifsneAABHA2OCY1zp7tcGxxARkZpz998CPwsOsznwteAYy5X1FoCZbUha+LdqYJg5pKn/vwfGEBGRLmFm65L2BlgjMMwbwCh3fyQwRp9yzwD8kNjiD/ANFX8REekvd58NHBccZkXg7OAYfco2A2BmE4Grg8PcA4x39/nBcUREpIsUewNMAXYKDnWIu18cHKNXWRoAM1sFeAjYODDMAmBHd58WGENERLqUmW1L+iE5JDDMs6S9Af4RGKNXuW4BnEhs8Qc4U8VfRERa5e4PAN8LDrM28fsP9KryGQAzGw1MAwYHhnkSGOnucwJjiIhIlzOzYaQZ600Cwziwu7tPDoyxlEpnAMxsEOmZ/8jiD/AFFX8REWmXu88FPh8cxoBzzGyF4DhLqPoWwBHA+OAY17n7FcExRESkIdz9OiC6rrwH+HJwjCVUdgvAzNYjPfO/emCYuaRn/v8WGENERBrGzNYn7Q2wWmCY14Bt3P0vgTEWqXIG4HvEFn+ASSr+IiJSNnefBRwfHGZl4KzgGItUMgNgZvsBvw4Ocz+wg7u/FRxHREQaqFjHNhUYGxzqE+5+aXCM+AbAzFYmna707sAwDuzs7ncGxhARkYYzs+2Bu4hdzP40aW+AlwJjVHIL4BvEFn+Ac1X8RUQkmrvfQ9rGPtK7gG8Hx4idATCzrYF7gchHG2YDWwFvAhsUr7XJf86BiIh0hwWkHfueBGYV/+5hYMPgmDu7+9SoAGENQLGP8q3Ae0MCvO0V0n+o4cFxREREAF4mPbsf+UQAwAxgbNTatshfyZ8ivvhDOk1QxV9ERKoynPjiDzAK+I+owUNmAMxsbdLzkmuWPriIiEhzvEra3+bxsgeOmgE4DRV/ERGRdq0C/Chi4NJnAMxsT+B/Sh1URESk2Q509yvLHLDUBsDMViRtyLNFaYOKiIjI30m3Ako76K7sWwBfRcVfRESkbBsC3ypzwNJmAMxsC9Kv/xVLGVBEREQWNx8YX2xG1LYyZwDORsVfREQkymDg3OJMgraVMoiZ/SuwZxljiYiIyDKNBT5fxkBt3wIwszVJz/yvXUZCIiIi0qc5pMOCZi33nX0oYwbgVFT8RUREqrIacEa7g7Q1A2Bm7yXt92/tJiIiIiID8kF3v67VD7fcAJjZCqST/rZuNbiIiIi0bCawtbvPbeXD7dwC+BIq/iIiIrlsCnyz1Q+3NANgZu8G/gCs3GpgERERadtbwPbu/sBAP9jqDMCZqPiLiIjkNoS0N8CA1+INuAEws/8H2G+gnxMREZEQOwGfGeiHBnQLwMxWJz3z/66BBhIREZEwL5L2Bpjd3w8MdAbgv1DxFxER6TRrAKcP5AP9ngEwsx2B2yn/BEEREREpxz7u/rv+vLFfDYCZDQGmAaPaTKws84HbgBnAU728nveyjjkUEZFGKxbYrQWs18trFPBe0kE9neBRYFt3f315b+xvA/BF4LslJNaOucBvgauAX7n785nzERERwczWAj4EHADsQ/6n5E5y928s703LbQDMbGPgIWCVkhIbqOuBc4HfuftrmXIQERFZLjMbRmoCPlf8bw7zgFHu/se+3tSfBuBC4NDy8uq36cCX3f2mDLFFRETaYmZ7kQ7MG5Mh/C/d/X/19YY+GwAzG0H69b9CyYn1ZSZwPPAz3ccXEZE6K9YPHAycBGxSYei3gJHu/uiy3rC8Ff3/RXXFfz7wddJzjD9V8RcRkbrz5BJgS1KNm19R6CGkpmOZljkDYGbjgakBSfXmReDj7n5DRfFEREQqZ2b7ApeSntuP5sBYd7+ntz/sawbglJh8lvIIsKOKv4iIdLui1u1Iqn3RDPj2sv6w1wbAzPYH9ghKaHE3ABPc/U8VxBIREcmuqHkTSDUw2j5mtmdvf7DULQAzGwTcB2wbnNTFwGHuXtX9EBERkY5hZoOBC4BPBoe6293H9/yXvc0ATCS++E8BDlfxFxGRpipq4OGkmhhpnJlN7Pkve2sADgtO5HHgQHefFxxHRESkoxW18EBSbYz06Z7/YolbAGb2LuAJ0uMDEeYCu7j7fUHji4iI1I6ZjSbNBAwLCvEWsIG7P7PwX/ScAfhX4oq/A4eo+IuIiCypqI2HkGplhCGkDYkW6dkA/FtQYIAfu/vlgeOLiIjUVlEjfxwY4tDF/2HRLQAz2xG4MyjoXGCEuz8VNL6IiEjtmdl6pCN9o24FjFk4E7/4DEDk4r/TVPxFRET6VtTK0wJDHLrw/yw+A/A0sG5AsNmkX/+vBIwtIiLSVcxsVdIsQERNftLdN4RiBsDM3h0UCGCSir+IiEj/FDVzUtDwG5jZxvD2LYCdggL9FTg/aGwREZFudT6phkbYCeIbgMvd/a2gsUVERLpSUTt/GTT8BHj7mf+oBuDqoHHDmNlwYANg/R6vdYGXgFm9vJ7xZZ2rLFJTZrYasD0wFhgDrJo3I5F+eQW4F5gG3OPuczLn046rgS8GjLsTpKMCh5EKW9kbAD0DrOfuC0oet3Rmth1wQPEa08IQTwHXAFcBN2qbY6kzM9sWOIf0K6GvI8NFOt0C0uPtR7j7A7mTGajisKDZwFolDz0PGG7A7sDNJQ8OaeOfpfYe7hRmtivwEVLR36zEoecAvyY1A9e4+6slji0SxsyGAMcCJwBDM6cjUqZ5wInAKXW7LW1mFxFzWuDOg2jtF29/XBU0blvMbGczuw24FTiGcos/wGrAx4CfAo+Z2RHFF6tIxyoeO7odOAkVf+k+Q0nX9u3FtV4n1wSNu8MgYO2AgecBvw8Yt2VmNtLMriQdtrBLRWHXBc4GHjSzAyuKKdKKU4FxuZMQCTaOdK3XyQ2kWxllW3cQ5d9bAHjK3V8PGHfAzGwdMzsPeIA03Z/DFsAVZna7mU3IlINIr8xsT+CI3HmIVOSI4pqvhWJPgGeW+8aBWyusAQgYc8DMbAwwnXQO8uDM6UBaeTnZzI7MnYgIgJmtAlxAWhAs0gQGXFBc+3UxK2DM7m0Aiin324ANc+fSwxDgTDM7S2sDpAPsDmySOwmRim1CuvbrIqIBeOcgYM2AgZ8OGLPfzOx44HLiTlMqw+eAG8ws4r+/SH+NzZ2ASCZ1uvY1A7A8ZjbEzC4hrfasw5TmnsBUM9s8dyLSWHX6EhQpU52ufTUA/XAGcHCm2K0aAVyvmQDJpE5fgiJlqtO1H9YArBwwcOWn/5nZUaRp9ToaAfxCawJERKQXEdsZr9wV23ya2d7A93Pn0aY9gR/kTkIaZ1ruBEQyafy1X/sGwMy2BC6jMx7za9eRZlbXWQypp8Z/CUpjNf7ar3UDYGYrkrZJXCN3LiU6w8zG505CGqPxX4LSWI2/9mvdAACfJ+2y102GAKfnTkIa4xZgZu4kRCo2k3TtN1ptGwAzWx04PnceQXYxs1zbFkuDFKdVHgZ47lxEKuLAYTqptcYNAHAcMZsYdYpv66kAqYK73wT8KHceIhX5UXHNN14tGwAz2wD4Qu48gm0FfCp3EtIYx5FOyhTpZlNI17pQ0wYAmETM/gWdZlLNDqyQmnL3ucBuwJeAjjjJU6REbwBfAXYrrnWhhg1AURDrtttfq94FTMydhDSDuy9w99OA0cCNwJuZUxJp11ukxX7bu/t33H1B7oQ6SR3vMe9L9b/+nwTuBzYCRlLtngMTgZ9VGE8azt0fAd5XPGY7mrRl6hhg1ayJifTPK8C9pMf8Zri7ZrSWoY4NQBWr4+cDZwG/A+5290WnG5rZMNKX4XjSdOn6wbm838xWcHf9GpNKufsbwNTiJSJdpla3AIpV8R8IDvMgMMHdj3b3axcv/pDulbr7FHf/HrA1cHFwPqsDewTHEBGRhqlVA0BapBT56N+pwA7u3q8dotz9RXc/hDRN/1xgXloHICIipapbA/DhwLEvcfdji2nPAXH3a4FDy09pETUAIiJSqro1AKOCxp0FHN3OAO5+HXBhOeksZWMz66bzDkREJLO6NQBRC+4Od/cXShjnGOCJEsbpTfRiQxERaRA1AHCnu19fxkDu/hJwWhlj9UINgIiIlKY2DYCZDQcidsW7u8PHW0gNgIiIlKY2DQBxBbDsM6HvJe0jUDY1ACIiUho1ACU3AO7+GvBQmWMW1ACIiEhp6tQADA8a9+81GTPq7y8iIg1UpwZgdtC4EY8WRoz5TMCYIiLSUHVqAJ4MGndsmYOZ2XrETNc/FTCmiIg0VJ0agKcBDxi31AYgYLyF1ACIiEhpatMAuPs8Yvbb37U49rQse5c41uLUAIiISGlq0wAUZgWMuRHwn2UMZGZjgSPLGKsXTy//LSIiIv1TtwYgYnU9wJfMbMd2BihmEX4CDC4lo6VFND8iItJQdWsAbg4adzDwEzNbuY0xTgS2Limfnqa7+5ygsUVEpIHq1gBcFTj2VsA9A50JMLM1zewS4CsxaQGxf28REWmgWjUA7v4oMbvsLbQVMMXMTu7PwkAzmwg8CBwcmBPA1cHji4hIwwzJnUALrgLeEzj+YOBY4CAzm0w63GcacD9pweDY4jW+eEX7i7s/UEEcERFpkLo2AF+rIM5GwEHFKydN/0vlzOzdwG7ADsD2wGhgWNakRPpnLnAfcA8wHbjV3f+SN6XOVMcGYBrpaYANcydSkStzJyDNYWZDgOOAE4AVMqcj0ophwM7FC+BNMzsRONnd38qXVuep1RoAAHd34JTceVRksrvfljsJaQYzGwncDnwLFX/pHiuQrunbi2tcCrVrAArnAo/mTqICX86dgDRD8cU4HRiXOxeRIOOA6WoC3lbLBsDd36SadQA5XebuU3MnId3PzAYDFwHt7IMhUgcrAxcV13zj1bIBAHD3XwB35c4jSBMaHOkcx6Jf/tIc40jXfOPVtgEoRG6+k9NZ7v5Y7iSk+5nZJsA3c+chUrFvFtd+o9W6AXD3W4Af586jZI8Bk3InIY3xXmBo7iREKjaUdO03Wq0bgMKRQLeslH8Z+JC7v5g7EWmMsbkTEMmk8dd+7RsAd58HHAjMzJxKuxYAB7n7w7kTkUZp/JegNFbjr/2oBsCCxu2Vuz8LTAReqTJuyb7q7tflTkIaZ7vcCYhkUqdrP6SmDgIijpldK2DMPhX75R9M+iVdN5e4+6m5k5BGeiJ3AiKZ1Onaj6ipcwYBEfeb1wsYc7nc/RrgI9RrJuBM4N9yJyGNNS13AiKZ1Onaj6ipL3ZVAwCLmoCd6fw1AW8CR7j7UdqfWjKq05egSJnqdO2rAeiv4nbAeGByzjz68Bywl7ufmzsRabxu3UxLZHnqdO2rARiIYmHgXsB5uXPpYQYwzt1vzZ2IiLvfBVydOw+Ril1dXPt1oQZgoNx9nrt/BtgVuDNzOrOBzwFj3X1m5lxEFvdZ4PncSYhU5HnSNV8nYQ1AxErItc1s/YBxW+Lut7n7TsBHgT9XHH4u6SjKEe5+ju73S6dx99mkDbVEmuDI4pqvhaKWrh0w9BODSFPSZTPSc/kdxd2vALYGjgL+HhzuNdLthxHufoK71+nJBGkYd78M+ALpuhXpRq8B/1Fc63UykZh9AGYYsAXwSMDgN7j7fgHjlsLMDNgB+HDx2raEYZ8BfgVcA/zO3eeWMKZIZcxsc+BCYJfcuYiU6E7gUHePqHWhzOw3wL4BQ29ppM2AXgZWKXnwecDa7v5yyeOGMLPNSJ3W7sAGwPrAu4AhvbzdSfeRZhWv+0hFf6q713EjIpFFzGwQ8Clgb9LRqZtmTUikNTNJj/r9D3Ceu8/Pm87Amdlw4FnKP7DrVWC4uTtmdgcwoeQAAJ9w90sDxq1E8UW4NqkZWBd4iVTwnyrOIBDpema2FjAGWDV3LiL98Apwn7s/lzuRdpnZx4GfBQx9p7vvtPDX7QxiGoADgNo2AMWv+dnFS6SR3P154Pe58xBpoAOCxp0Bbx8GNDUoyMROehpARESkDoraGbWYfiq83QBcR8whOisDJwaMKyIi0s1OJNXQsi0g1XzM3QEws9uIWfk7Hxjl7g8GjC0iItJVzGxr0jT94IDhp7j7e+HtGQCI2w50MHBK0NgiIiLd5hRiij8sVusXnwHYHPhTUECAPdz9lsDxRUREas3MdgduDgyxhbv/GRZrAIrADwEjg4LeA+ykx+dERESWZmZDgTuA7YNCPOzu71n4D4N6/GHE84YLbQ+cGTi+iIhInZ1JXPGHHjW+5wzAO4HHiVl5uNAX3P2MwPFFRERqxcyOBn4QGOI1YOPFN0haYgag+IOLAxMAON3M9gqOISIiUgtFTTw9OMzFPXdHXGIGoEhkS+BhYk4fWugFYLy7PxoYQ0REpKOZ2QjgLuAdgWEcGNnzMKSeawAo3nBtYCKQ/qK/Lv7iIiIijVPUwF8TW/wBru3tJMSlGoDCacHJAIwA7tLtABERaZqi9t1FqoXReq3pvTYA7n4rcH1oOsk7gN8Uix9ERES6XlHzfkP8L3+A64uavnQePdcALPqDNDXxB2DFwMQWdz7wee0TICIi3ah4zv9M4NMVhXwD2GZZ6+2WdQuA4gPfjcqqF58G7jCzPSqMKSIiEq6obXdQXfEH+G5fi+2XOQMAYGbDSE8EbByQWF+uB45z9wcqjisiIlIaM9sWOBnYv+LQj5NW/s9d1huWjvVujwAAIABJREFUOQMAUHzwf5edVT/sD9xnZhea2YYZ4ouIiLTMzDY0swuB+6i++AN8sa/iD8uZAVj0JrNfAB8tK6sBep30mMRVwK/c/R+Z8hAREVkmM1sT+CBwAPB+YKVMqVzu7v+yvDf1twFYDZgGbFFCYu2YD0wmNQNXu/vMvOmIiEiTmdmmwIdJRX9X4o7x7a8/AWPdfc7y3tivBgAW3ce4ExjWXm6legmY1cvrWdLORyIiIu0yYG1g/V5eq2fMq6e5wIT+rp/rdwMAYGafBC5qMTERERGJc4i79/s8nz4XAfZUDHzegFMSERGRSOcNpPjDAGcAYNFGBlcD+w3ogyIiIhLhN8CHB7qR3oAbAAAzW5n0rP4eA/6wiIiIlOVmYH93f22gH2ypAQAws1WB3wI7tTSAiIiItOMOYB93f6WVD7fcAACY2RrAjcCYlgcRERGRgboX2NPdX2x1gAEtAuypCLwP6UhDERERiXcX6Zd/y8Uf2mwAANz9OWB34NJ2xxIREZE+XQrsXtTetrTdAAC4++vu/gngBLQBj4iISNkcOMHdP+Hur5cxYFtrAHod0OyjpM2COmnHQBERkbqaS9rk5/IyBy1lBqCHK0h79YuIiEj7rgJ+WfagpTYAZrYKqQE4qMxxRUREGuwg4JfF4/elKe0WgJltCFyDHgkUERGJcD/wIXd/vIzBSpkBMLNxpMcSVPxFRERibAfcbWY7lzFY2w2Ame0F3AKs1346IiIi0od1gBvNbP92B2p3J8BdSYcQaMW/iIhIdV4HPuDuN7Y6QDtnAYwDfg8MbzW4iIiItOxV0o6At7fy4VZPA9wOuAlYs5WgIiIiUoqXgPe5+/SBfnDADYCZbQ7cRroPISIiInk9D+zq7g8P5EMDagDMbBgwFdhmYLmJiIhIoIeB8QM5GnigTwGcg4q/iIhIpxkJ/PdAPtDvGQAz+wxwbgtJRZhPug0xA3iql9fzXvYhByIi0khmZsBapMfde75GAe8FBmdLcElHuvvZ/XljvxoAM9sBmAKs2GZi7ZgL/Ja0J/Kv3P35jLmIiIgAYGZrAR8CDgD2AVbOmM4bwC79WRS43Aag2N//AWCzcnIbsOtJMw+/c/fXMuUgIiKyXMVauX2AzxX/m8NfgW3d/dW+3tSfNQDfIE/xnw7s6e4fcPdrVPxFRKTTuftcd7/K3fcF9gbuzZDGZqTa3ac+ZwDMbAvSr/+h5eW1XDOB44Gf6T6+iIjUWbF+4GDgJGCTCkPPI80C/GlZb1jeDMAPqa74zwe+Dmzl7j9V8RcRkbrz5BJgS1KNm19R6KGkGr5My5wBMLOPAL8MSKo3LwIfd/cbKoonIiJSOTPbF7gUWKOikAe6+5W95tJbA2BmKwF/pJrpikeAiX1NU4iIiHSL4vb6NaRZgWh/I82sv97zD5Z1C+CTVFP8bwAmqPiLiEhTFDVvAqkGRtuEVNOXstQMQLFg4SFgq+CkLgYOc/eq7oeIiIh0DDMbDFzAMgp0iR4BRvZcW9fbDMAHiC/+U4DDVfxFRKSpihp4OKkmRtqSVNuX0FsD8MXgRB4nLUqYFxxHRESkoxW18EBSbYy0VG1f4hZAseXvtMAE5pK2KLwvMIaIiEitmNlo0kzAsMAwYxffIrjnDMBRgYEdOETFX0REZElFbTyEVCujLFHjF80AFIsRngHWDAp8vrsfHjS2iIhI7ZnZecCng4b/B7DOwvV3izcAewA3BQWdC4xw96eCxhcREak9M1sPeJS4WwH/7O43w5K3AA4ICgZwmoq/iIhI34paeVpgiEW1fvEZgL8CmwYEm0369f9KwNgiIiJdxcxWJc0CrBsw/Ex33wyKGQAzG0VM8QeYpOIvIiLSP0XNnBQ0/KZFzV90C2C/oEB/Bc4PGltERKRbnU+qoRH2g7cbgDFBQS5397eCxhYREelKRe2MOpF3DMCQ4h9GBwW5OmjcMGY2HNgAWL/Ha13gJWBWL69neu6xLFJ3ZrYasD0wlvSFsWrejET65RXgXtKmdve4+5zM+bTjamJ25x0NYKRHDeaw7JMBW/UMsJ67Lyh53NKZ2XaklZEH0NpsyFOkox2vAm7UNsdSZ2a2LXAO6bSysr8XRKq0ALgTOMLdH8idzEAV+/PMBtYqeegFwGoG7Ej6D1S2H7t71GYGbTOzXYGPkIr+ZiUOPQf4NakZuMbdXy1xbJEwZjYEOBY4ARiaOR2RMs0DTgROqdttaTO7iJjTAicMAkYFDAypAHYcM9vZzG4DbgWOodziD7Aa8DHgp8BjZnZE8cUq0rGKx45uB05CxV+6z1DStX17ca3XyTVB444aBGwbMPA84PcB47bMzEaa2ZWkwxZ2qSjsusDZwINmdmBFMUVacSowLncSIsHGka71OrmBNGVftm0HAe8MGPgpd389YNwBM7N1ir2VHyB2t8O+bAFcYWa3m9mETDmI9MrM9gSOyJ2HSEWOKK75Wij2BHgmYOh3DgLWCBi4I7b9NbMxwHTSwQqDM6cDsBMw2cyOzJ2ICICZrQJcQFoQLNIEBlxQXPt1MStgzDW6tgEoptxvAzbMnUsPQ4AzzewsrQ2QDrA7sEnuJEQqtgnp2q+LWjUATweM2W9mdjxwOXGnKZXhc8ANZhZ1/LJIf4zNnYBIJnW69mvVAGSZATCzIWZ2CWm1Zx2mNPcEpprZ5rkTkcaq05egSJnqdO2rAeiHM4CDM8Vu1Qjges0ESCZ1+hIUKVOdrv2wBmClgIErP/3PzI4iTavX0QjgF1oTICIivYjYznilrtjm08z2Br6fO4827Qn8IHcS0jjTcicgkknjr/3aNwBmtiVwGZ3xmF+7jjSzus5iSD01/ktQGqvx136tGwAzW5G0TWLEOoZczjCz8bmTkMZo/JegNFbjr/1aNwDA50m77HWTIcDpuZOQxrgFmJk7CZGKzSRd+41W2wbAzFYHjs+dR5BdzCzXtsXSIMVplYcBnjsXkYo4cJhOaq1xAwAcB3Tzo3Pf1lMBUgV3vwn4Ue48RCryo+Kab7xaNgBmtgHwhdx5BNsK+FTuJKQxjiOdlCnSzaaQrnWhpg0AMAlYOXcSFZhUswMrpKbcfS6wG/AloCNO8hQp0RvAV4DdimtdqGEDUBTEuu3216p3ARNzJyHN4O4L3P00YDRwI/Bm5pRE2vUWabHf9u7+HXdfkDuhTlLHe8z7Uv2v/yeB+4GNgJFUu+fAROBnFcaThnP3R4D3FY/ZjiZtmToGWDVrYiL98wpwL+kxvxnurhmtZahjA1DF6vj5wFnA74C73X3R6YZmNoz0ZTieNF26fnAu7zezFdxdv8akUu7+BjC1eIlIl6nVLYBiVfwHgsM8CExw96Pd/drFiz+ke6XuPsXdvwdsDVwcnM/qwB7BMUREpGFq1QCQFilFPvp3KrCDu/drhyh3f9HdDyFN0z8XmJfWAYiISKnq1gB8OHDsS9z92GLac0Dc/Vrg0PJTWkQNgIiIlKpuDcCooHFnAUe3M4C7XwdcWE46S9nYzLrpvAMREcmsbg1A1IK7w939hRLGOQZ4ooRxehO92FBERBpEDQDc6e7XlzGQu78EnFbGWL1QAyAiIqWpTQNgZsOBiF3x7u7w8RZSAyAiIqWpTQNAXAEs+0zoe0n7CJRNDYCIiJRGDUDJDYC7vwY8VOaYBTUAIiJSmjo1AMODxv17TcaM+vuLiEgD1akBmB00bsSjhRFjPhMwpoiINFSdGoAng8YdW+ZgZrYeMdP1TwWMKSIiDVWnBuBpwAPGLbUBCBhvITUAIiJSmto0AO4+j5j99nctjj0ty94ljrU4NQAiIlKa2jQAhVkBY24E/GcZA5nZWODIMsbqxdPLf4uIiEj/1K0BiFhdD/AlM9uxnQGKWYSfAINLyWhpEc2PiIg0VN0agJuDxh0M/MTMVm5jjBOBrUvKp6fp7j4naGwREWmgujUAVwWOvRVwz0BnAsxsTTO7BPhKTFpA7N9bREQaqFYNgLs/SswuewttBUwxs5P7szDQzCYCDwIHB+YEcHXw+CIi0jBDcifQgquA9wSOPxg4FjjIzCaTDveZBtxPWjA4tniNL17R/uLuD1QQR0REGqSuDcDXKoizEXBQ8cpJ0/9SOTN7N7AbsAOwPTAaGJY1KZH+mQvcB9wDTAdudfe/5E2pM9WxAZhGehpgw9yJVOTK3AlIc5jZEOA44ARghczpiLRiGLBz8QJ408xOBE5297fypdV5arUGAMDdHTgldx4Vmezut+VOQprBzEYCtwPfQsVfuscKpGv69uIal0LtGoDCucCjuZOowJdzJyDNUHwxTgfG5c5FJMg4YLqagLfVsgFw9zepZh1ATpe5+9TcSUj3M7PBwEVAO/tgiNTBysBFxTXfeLVsAADc/RfAXbnzCNKEBkc6x7Hol780xzjSNd94tW0ACpGb7+R0lrs/ljsJ6X5mtgnwzdx5iFTsm8W132i1bgDc/Rbgx7nzKNljwKTcSUhjvBcYmjsJkYoNJV37jVbrBqBwJNAtK+VfBj7k7i/mTkQaY2zuBEQyafy1X/sGwN3nAQcCMzOn0q4FwEHu/nDuRKRRGv8lKI3V+Gs/qgGwoHF75e7PAhOBV6qMW7Kvuvt1uZOQxtkudwIimdTp2g+pqYOAiGNm1woYs0/FfvkHk35J180l7n5q7iSkkZ7InYBIJnW69iNq6pxBQMT95vUCxlwud78G+Aj1mgk4E/i33ElIY03LnYBIJnW69iNq6otd1QDAoiZgZzp/TcCbwBHufpT2p5aM6vQlKFKmOl37agD6q7gdMB6YnDOPPjwH7OXu5+ZORBqvWzfTElmeOl37agAGolgYuBdwXu5cepgBjHP3W3MnIuLudwFX585DpGJXF9d+XagBGCh3n+funwF2Be7MnM5s4HPAWHefmTkXkcV9Fng+dxIiFXmedM3XSVgDELEScm0zWz9g3Ja4+23uvhPwUeDPFYefSzqKcoS7n6P7/dJp3H02aUMtkSY4srjma6GopWsHDP3EINKUdNmM9Fx+R3H3K4CtgaOAvweHe410+2GEu5/g7nV6MkEaxt0vA75Aum5FutFrwH8U13qdTCRmH4AZBmwBPBIw+A3uvl/AuKUwMwN2AD5cvLYtYdhngF8B1wC/c/e5JYwpUhkz2xy4ENgldy4iJboTONTdI2pdKDP7DbBvwNBbGmkzoJeBVUoefB6wtru/XPK4IcxsM1KntTuwAbA+8C5gSC9vd9J9pFnF6z5S0Z/q7nXciEhkETMbBHwK2Jt0dOqmWRMSac1M0qN+/wOc5+7z86YzcGY2HHiW8g/sehUYbu6Omd0BTCg5AMAn3P3SgHErUXwRrk1qBtYFXiIV/KeKMwhEup6ZrQWMAVbNnYtIP7wC3Ofuz+VOpF1m9nHgZwFD3+nuOy38dTuDmAbgAKC2DUDxa3528RJpJHd/Hvh97jxEGuiAoHFnwNuHAU0NCjKxk54GEBERqYOidkYtpp8KbzcA1xFziM7KwIkB44qIiHSzE0k1tGwLSDUfc3cAzOw2Ylb+zgdGufuDAWOLiIh0FTPbmjRNPzhg+Cnu/l54ewYA4rYDHQycEjS2iIhItzmFmOIPi9X6xWcANgf+FBQQYA93vyVwfBERkVozs92BmwNDbOHuf4bFGoAi8EPAyKCg9wA76fE5ERGRpZnZUOAOYPugEA+7+3sW/sOgHn8Y8bzhQtsDZwaOLyIiUmdnElf8oUeN7zkD8E7gcWJWHi70BXc/I3B8ERGRWjGzo4EfBIZ4Ddh48Q2SlpgBKP7g4sAEAE43s72CY4iIiNRCURNPDw5zcc/dEZeYASgS2RJ4mJjThxZ6ARjv7o8GxhAREeloZjYCuAt4R2AYB0b2PAyp5xoAijdcG5gIpL/or4u/uIiISOMUNfDXxBZ/gGt7OwlxqQagcFpwMgAjgLt0O0BERJqmqH13kWphtF5req8NgLvfClwfmk7yDuA3xeIHERGRrlfUvN8Q/8sf4Pqipi+dR881AIv+IE1N/AFYMTCxxZ0PfF77BIiISDcqnvM/E/h0RSHfALZZ1nq7Zd0CoPjAd6Oy6sWngTvMbI8KY4qIiIQratsdVFf8Ab7b12L7Zc4AAJjZMNITARsHJNaX64Hj3P2BiuOKiIiUxsy2BU4G9q849OOklf9zl/WGZc4AABQf/N9lZ9UP+wP3mdmFZrZhhvgiIiItM7MNzexC4D6qL/4AX+yr+MNyZgAWvcnsF8BHy8pqgF4nPSZxFfArd/9HpjxERESWyczWBD4IHAC8H1gpUyqXu/u/LO9N/W0AVgOmAVuUkFg75gOTSc3A1e4+M286IiLSZGa2KfBhUtHflbhjfPvrT8BYd5+zvDf2qwGARfcx7gSGtZdbqV4CZvXyepa085GIiEi7DFgbWL+X1+oZ8+ppLjChv+vn+t0AAJjZJ4GLWkxMRERE4hzi7v0+z6fPRYA9FQOfN+CUREREJNJ5Ayn+MMAZAFi0kcHVwH4D+qCIiIhE+A3w4YFupDfgBgDAzFYmPau/x4A/LCIiImW5Gdjf3V8b6AdbagAAzGxV4LfATi0NICIiIu24A9jH3V9p5cMtNwAAZrYGcCMwpuVBREREZKDuBfZ09xdbHWBAiwB7KgLvQzrSUEREROLdRfrl33LxhzYbAAB3fw7YHbi03bFERESkT5cCuxe1ty1tNwAA7v66u38COAFtwCMiIlI2B05w90+4++tlDNjWGoBeBzT7KGmzoE7aMVBERKSu5pI2+bm8zEFLmQHo4QrSXv0iIiLSvquAX5Y9aKkNgJmtQmoADipzXBERkQY7CPhl8fh9aUq7BWBmGwLXoEcCRUREItwPfMjdHy9jsFJmAMxsHOmxBBV/ERGRGNsBd5vZzmUM1nYDYGZ7AbcA67WfjoiIiPRhHeBGM9u/3YHa3QlwV9IhBFrxLyIiUp3XgQ+4+42tDtDOWQDjgN8Dw1sNLiIiIi17lbQj4O2tfLjV0wC3A24C1mwlqIiIiJTiJeB97j59oB8ccANgZpsDt5HuQ4iIiEhezwO7uvvDA/nQgBoAMxsGTAW2GVhuIiIiEuhhYPxAjgYe6FMA56DiLyIi0mlGAv89kA/0ewbAzD4DnNtCUhHmk25DzACe6uX1vJd9yIGIiDSSmRmwFulx956vUcB7gcHZElzSke5+dn/e2K8GwMx2AKYAK7aZWDvmAr8l7Yn8K3d/PmMuIiIiAJjZWsCHgAOAfYCVM6bzBrBLfxYFLrcBKPb3fwDYrJzcBux60szD79z9tUw5iIiILFexVm4f4HPF/+bwV2Bbd3+1rzf1Zw3AN8hT/KcDe7r7B9z9GhV/ERHpdO4+192vcvd9gb2BezOksRmpdvepzxkAM9uC9Ot/aHl5LddM4HjgZ7qPLyIidVasHzgYOAnYpMLQ80izAH9a1huWNwPwQ6or/vOBrwNbuftPVfxFRKTuPLkE2JJU4+ZXFHooqYYv0zJnAMzsI8AvA5LqzYvAx939horiiYiIVM7M9gUuBdaoKOSB7n5lr7n01gCY2UrAH6lmuuIRYGJf0xQiIiLdori9fg1pViDa30gz66/3/INl3QL4JNUU/xuACSr+IiLSFEXNm0CqgdE2IdX0pSw1A1AsWHgI2Co4qYuBw9y9qvshIiIiHcPMBgMXsIwCXaJHgJE919b1NgPwAeKL/xTgcBV/ERFpqqIGHk6qiZG2JNX2JfTWAHwxOJHHSYsS5gXHERER6WhFLTyQVBsjLVXbl7gFUGz5Oy0wgbmkLQrvC4whIiJSK2Y2mjQTMCwwzNjFtwjuOQNwVGBgBw5R8RcREVlSURsPIdXKKEvU+EUzAMVihGeANYMCn+/uhweNLSIiUntmdh7w6aDh/wGss3D93eINwB7ATUFB5wIj3P2poPFFRERqz8zWAx4l7lbAP7v7zbDkLYADgoIBnKbiLyIi0reiVp4WGGJRrV98BuCvwKYBwWaTfv2/EjC2iIhIVzGzVUmzAOsGDD/T3TeDYgbAzEYRU/wBJqn4i4iI9E9RMycFDb9pUfMX3QLYLyjQX4Hzg8YWERHpVueTamiE/eDtBmBMUJDL3f2toLFFRES6UlE7o07kHQMwpPiH0UFBrg4aN4yZDQc2ANbv8VoXeAmY1cvrmZ57LIvUnZmtBmwPjCV9YayaNyORfnkFuJe0qd097j4ncz7tuJqY3XlHAxjpUYM5LPtkwFY9A6zn7gtKHrd0ZrYdaWXkAbQ2G/IU6WjHq4Abtc2x1JmZbQucQzqtrOzvBZEqLQDuBI5w9wdyJzNQxf48s4G1Sh56AbCaATuS/gOV7cfuHrWZQdvMbFfgI6Siv1mJQ88Bfk1qBq5x91dLHFskjJkNAY4FTgCGZk5HpEzzgBOBU+p2W9rMLiLmtMAJg4BRAQNDKoAdx8x2NrPbgFuBYyi3+AOsBnwM+CnwmJkdUXyxinSs4rGj24GTUPGX7jOUdG3fXlzrdXJN0LijBgHbBgw8D/h9wLgtM7ORZnYl6bCFXSoKuy5wNvCgmR1YUUyRVpwKjMudhEiwcaRrvU5uIE3Zl23bQcA7AwZ+yt1fDxh3wMxsnWJv5QeI3e2wL1sAV5jZ7WY2IVMOIr0ysz2BI3LnIVKRI4prvhaKPQGeCRj6nYOANQIG7ohtf81sDDCddLDC4MzpAOwETDazI3MnIgJgZqsAF5AWBIs0gQEXFNd+XcwKGHONrm0Aiin324ANc+fSwxDgTDM7S2sDpAPsDmySOwmRim1CuvbrolYNwNMBY/abmR0PXE7caUpl+Bxwg5lFHb8s0h9jcycgkkmdrv1aNQBZZgDMbIiZXUJa7VmHKc09galmtnnuRKSx6vQlKFKmOl37agD64Qzg4EyxWzUCuF4zAZJJnb4ERcpUp2s/rAFYKWDgyk//M7OjSNPqdTQC+IXWBIiISC8itjNeqSu2+TSzvYHv586jTXsCP8idhDTOtNwJiGTS+Gu/9g2AmW0JXEZnPObXriPNrK6zGFJPjf8SlMZq/LVf6wbAzFYkbZMYsY4hlzPMbHzuJKQxGv8lKI3V+Gu/1g0A8HnSLnvdZAhweu4kpDFuAWbmTkKkYjNJ136j1bYBMLPVgeNz5xFkFzPLtW2xNEhxWuVhgOfORaQiDhymk1pr3AAAxwHd/Ojct/VUgFTB3W8CfpQ7D5GK/Ki45huvlg2AmW0AfCF3HsG2Aj6VOwlpjONIJ2WKdLMppGtdqGkDAEwCVs6dRAUm1ezACqkpd58L7AZ8CeiIkzxFSvQG8BVgt+JaF2rYABQFsW67/bXqXcDE3ElIM7j7Anc/DRgN3Ai8mTklkXa9RVrst727f8fdF+ROqJPU8R7zvlT/6/9J4H5gI2Ak1e45MBH4WYXxpOHc/RHgfcVjtqNJW6aOAVbNmphI/7wC3Et6zG+Gu2tGaxnq2ABUsTp+PnAW8DvgbndfdLqhmQ0jfRmOJ02Xrh+cy/vNbAV3168xqZS7vwFMLV4i0mVqdQugWBX/geAwDwIT3P1od7928eIP6V6pu09x9+8BWwMXB+ezOrBHcAwREWmYWjUApEVKkY/+nQrs4O792iHK3V9090NI0/TPBealdQAiIlKqujUAHw4c+xJ3P7aY9hwQd78WOLT8lBZRAyAiIqWqWwMwKmjcWcDR7Qzg7tcBF5aTzlI2NrNuOu9AREQyq1sDELXg7nB3f6GEcY4BnihhnN5ELzYUEZEGUQMAd7r79WUM5O4vAaeVMVYv1ACIiEhpatMAmNlwIGJXvLs7fLyF1ACIiEhpatMAEFcAyz4T+l7SPgJlUwMgIiKlUQNQcgPg7q8BD5U5ZkENgIiIlKZODcDwoHH/XpMxo/7+IiLSQHVqAGYHjRvxaGHEmM8EjCkiIg1VpwbgyaBxx5Y5mJmtR8x0/VMBY4qISEPVqQF4GvCAcUttAALGW0gNgIiIlKY2DYC7zyNmv/1di2NPy7J3iWMtTg2AiIiUpjYNQGFWwJgbAf9ZxkBmNhY4soyxevH08t8iIiLSP3VrACJW1wN8ycx2bGeAYhbhJ8DgUjJaWkTzIyIiDVW3BuDmoHEHAz8xs5XbGONEYOuS8ulpurvPCRpbREQaqG4NwFWBY28F3DPQmQAzW9PMLgG+EpMWEPv3FhGRBqpVA+DujxKzy95CWwFTzOzk/iwMNLOJwIPAwYE5AVwdPL6IiDTMkNwJtOAq4D2B4w8GjgUOMrPJpMN9pgH3kxYMji1e44tXtL+4+wMVxBERkQapawPwtQribAQcVLxy0vS/VM7M3g3sBuwAbA+MBoZlTUqkf+YC9wH3ANOBW939L3lT6kx1bACmkZ4G2DB3IhW5MncC0hxmNgQ4DjgBWCFzOiKtGAbsXLwA3jSzE4GT3f2tfGl1nlqtAQBwdwdOyZ1HRSa7+225k5BmMLORwO3At1Dxl+6xAumavr24xqVQuwagcC7waO4kKvDl3AlIMxRfjNOBcblzEQkyDpiuJuBttWwA3P1NqlkHkNNl7j41dxLS/cxsMHAR0M4+GCJ1sDJwUXHNN14tGwAAd/8FcFfuPII0ocGRznEs+uUvzTGOdM03Xm0bgELk5js5neXuj+VOQrqfmW0CfDN3HiIV+2Zx7TdarRsAd78F+HHuPEr2GDApdxLSGO8FhuZOQqRiQ0nXfqPVugEoHAl0y0r5l4EPufuLuRORxhibOwGRTBp/7de+AXD3ecCBwMzMqbRrAXCQuz+cOxFplMZ/CUpjNf7aj2oALGjcXrn7s8BE4JUq45bsq+5+Xe4kpHG2y52ASCZ1uvZDauog4NWAcdcKGLNPxX75B5N+SdfNJe5+au4kpJGe+P/bu/9QPcs6juPv7xRLnEXFQVuDVm5qjBU5HdtEXbGRzdRNSrJfFEm/kAz/yPonRBDbP4LBoFgwKMtYtNzQXGxtbiabS8dqSB0tWTTW1lygTtev8emP6zpnj895zq/n3Nd9n+c8nxfcf4w9dvO/AAAHWklEQVRzP9/r+8DNvt/nuq/7uptOwKwhvXTtl6ipr80CSrxn/p0FYo5L0lZgLb01E7Ae+ELTSVjfeqbpBMwa0kvXfoma+uqMagBguAlYzvRfE/Bf4CuS7vD+1NagXvpP0KxKvXTtuwGYqHw7YAnwZJN5jOElYKWkHzSdiPW9mbqZltl4eunaL9YAvFIgcKMNAAwvDFwJbGg6lza/B66StKfpRMwk7Qe2NJ2HWc225Gu/V5Soqa/MAo4VCNx4AwDpEUFJXwKuAfY1nM5x4KvAlZION5yLWasvAyebTsKsJidJ13wvKVFTj80CBgsEHoiIOQXidkXSbyUtAz4OvFDz8K+TXkU5X9L3fb/fphtJx0kbapn1g6/la74n5Fo6UCD0YKkGIEjP5U8rkn4BLATuAI4UHu406fbDfEnfkdRLTyZYn5G0CbiTdN2azUSngW/ka72X3ESZfQAGA/ggcKBA8F9Lur5A3EpERACLgZvzsaiCsP8AHgW2AtslvV5BTLPaRMQCYCNwddO5mFVoH/B5SSV+8BYVEduAjxQIfUUAF5CeBKi6w/gPMCCpxCLDykXEe0id1nXAu4A5wMXAuR1OF+k+0tF8HCQV/acl9eJGRGbDImIW8EVgFenVqfMaTcisO4dJj/r9Btgg6Uyz6UxeRLwFOEH1L+wScGFIIiL+Ary34gEAbpP0swJxa5H/IxwgNQMXAS+TCv7f8zsIzGa8iHgHaaZwdtO5mE3AKeCgpJeaTmSqIuKTwMMFQr8o6ZKhX7e7KdMArAF6tgHIv+aP58OsL0k6CexoOg+zPrSmUNzdcPZlQDsLDXLTdHoawMzMrBfk2llqMf1OONsA7Co0yPnAvYVim5mZzVT3kmpoCbsAQhIAETEIXFpgoDPAByQ9VyC2mZnZjBIRC0m7xp5TIPzzki6DszMAANsLDATpC6wrFNvMzGymWUeZ4g8ttb61ASix0nDIDRFxXcH4ZmZmPS/XyhsKDjFc64dvAeSBSz0OCGmzoWV+fM7MzGykiDgP2AtcUWiIFyVdMvSPWW1/fKjQoJC+0PqC8c3MzHrZesoVf2ir8e0zAPMp/7KcOyV9r/AYZmZmPSMivg48WHiYBZL+PDxmawOQk9gNXFswgTPA9ZK8sYiZmfW9iFgJbKPcwj+APZLesBav/RYAwP0FE4D0BTfl2QYzM7O+lWvhJsoWf+hQ20c0AJK2Ac8WTuRtwONuAszMrF/lGvg4qSaW9Gyu7W/QaQYA4L7CyQDMB/bnqQ8zM7O+kWvfflItLK1jTR+xBgAgIgI4BCwsnBSkNQF3eWGgmZn1g7zg7wHKT/sDPAcsUodi33EGIJ94d+mssnOAByNiQ34G0szMbMaJiPMiYgNptX8dxR/g7k7FH0a/BYCkx4DNxVIa6XZgb0SsqHFMMzOz4nJt20uqdXXZnGt5Rx1vAQz/MWIu8EdgdoHExvIr4FuSDtU8rpmZWWUiYhHwXWB1zUOfAt4n6choJ4w6AwCQP3hPxUlNxGrgYERszE2ImZlZz4iIuRGxEThI/cUf4J6xij+MMwMAEBHnAk8BSypMbDL+RXpM4hHgUUn/bCgPMzOzUUXE24GPAWuAjwJvbiiV/cDVkv431knjNgAAETEH+B0wp5rcunYGeJLUDGyRdLjZdMzMrJ9FxDzgZlLRv4b6FveN5ihwlaSj4504oQYAICKuBPYA508tt0q9TPqy7ccJYGJfzMzMbGwBDJB+BLcfb20wr3angWslPTORkyfcAABExG3AT7tMzMzMzMr5lKSHJ3rymIsA2+XAdewSaGZmZhN332SKP0xyBgCGdwncTLrfYWZmZs16BLhltA1/RjPpBgAgImaTngx4/6Q/bGZmZlX5A2nF/6nJfrCrBgAgIt5NejJgoKsAZmZmNhUnSCv+/9rNhye1BqBVHvDGnICZmZnV5wRwY7fFH6bQAABIepq0QZC37DUzM6vHIWBJrsFdm1IDAJA341kObJ1qLDMzMxvTVmB5FRvhTbkBAMiLD9YC66qIZ2ZmZiOsA9Z2s+Cvk64XAY4aMOIzwA+BN1Ua2MzMrD/9G7hd0kNVBq28AQCIiKXAL4GLKw9uZmbWP46RfvXvqzpwJbcA2uVElwAHSsQ3MzPrAwdIi/0qL/5QqAEAkPQ3YCnwTaCS+xVmZmZ94BSpdi7NtbSIIrcARgwSMRd4APhE8cHMzMx618+BuyQdKT1QsRmAVpKOSLoVWIVvC5iZmbU7AKySdGsdxR9qagCGSNohaTGwmvQuATMzs372FLBa0mJJO+ocuJZbAKMOHrEC+DZpZiAaS8TMzKw+ArYD90t6oqkkGm0AhpNILxb6LPA5YEHD6ZiZmZXwAvAj4MdT2cO/KtOiAWgVEcuAT5NmBS5tOB0zM7OpeJ70a/8nkvY2nUyradcAtMpPD3wI+DCwApjXZD5mZmbjOAw8AewEdtW1oK8b07oBaBcRs4HLWo7LgYuAC9uOC5rK0czMZqTXgFfbjuPAn4DBoaOqffrr8H800V9AMVfyRAAAAABJRU5ErkJggg==;" vertex="1" parent="79kG9cvK04CvXiZlhBy5-1">
          <mxGeometry x="380" y="306" width="116" height="116" as="geometry" />
        </mxCell>
        <mxCell id="79kG9cvK04CvXiZlhBy5-3" value="&lt;font style=&quot;font-size: 24px&quot;&gt;cNance&lt;/font&gt;" style="text;html=1;strokeColor=none;fillColor=none;align=center;verticalAlign=middle;whiteSpace=wrap;rounded=0;" vertex="1" parent="79kG9cvK04CvXiZlhBy5-1">
          <mxGeometry x="390.5" y="430" width="95" height="30" as="geometry" />
        </mxCell>
        <mxCell id="BW0WCOpWz5mmY5giLXIh-1" value="" style="group" vertex="1" connectable="0" parent="79kG9cvK04CvXiZlhBy5-1">
          <mxGeometry x="230" y="110" width="132" height="150" as="geometry" />
        </mxCell>
        <mxCell id="ItPSY5wFcEl1Enw_Cite-2" value="" style="group" vertex="1" connectable="0" parent="BW0WCOpWz5mmY5giLXIh-1">
          <mxGeometry x="10" width="122" height="120" as="geometry" />
        </mxCell>
        <mxCell id="ItPSY5wFcEl1Enw_Cite-0" value="" style="shape=image;verticalLabelPosition=bottom;labelBackgroundColor=default;verticalAlign=top;aspect=fixed;imageAspect=0;image=data:image/png,iVBORw0KGgoAAAANSUhEUgAAAgAAAAIACAYAAAD0eNT6AAAABHNCSVQICAgIfAhkiAAAAAlwSFlzAAAN1wAADdcBQiibeAAAABl0RVh0U29mdHdhcmUAd3d3Lmlua3NjYXBlLm9yZ5vuPBoAACAASURBVHic7N15tF1Vlff970xCgAABQUB6sEITaZJAEgJIU0gnakQey1fhLaFQFJHC4rEBRTGFPCWgoKJ0BYLw8igiSCcoatGFAIEECAiIgkaQQGikCQQIJPP9Y+2E5Obm5t5z9tzr7LN/nzHOUMg5a84w9jhznrXXXsvcHakfM1sf2B4YA2wErFG83rHY/18DGJIrRxGpvfnAi4u9Xljs/z8J3Avc6+6PZ8tQWmZqADqfmb0D2Iu3C/4YYJ2sSYmIvO15imYAuAf4vbs/lzclWR41AB3KzNYCDgA+CrwPWCFvRiIi/TYfuBm4HLjS3WfnTUd6owaggxS/9D9GKvp7oOl7Eam/BcBkUjPwc3d/NnM+UlAD0AHMbD3gi8BngVUzpyMiEuU14MfAd7RuID81ABmZ2WbAV4B/A1bMnI6ISFXeBP4vcLK7P5I7maZSA5CBmY0Avgl8AhicOR0RkVwWAL8EJrn7g7mTaRo1ABUysyHAl4ETgJUypyMi0ineBE4BTnL3N3In0xRqACpiZuOA84BRuXMREelQjwCHu/vk3Ik0waDcCXQ7M1vFzE4H7kDFX0SkL1sCt5jZOWa2eu5kup1mAAKZ2SjgSmCz3LmIiNTMLOCj7n5H7kS6lWYAgpjZRGAKKv4iIq1YH7jJzA7KnUi3UgMQwMy+TPrlv0ruXEREamxF4P+a2YlmZrmT6Ta6BVAiM1sBOAc4LHcuIiJd5jLgUHd/LXci3UINQEnMbDXgWmD33LmIiHSpu4H3u/vzuRPpBmoASmBmKwG/Ju3fLyIice4G3ufuc3InUndaA9CmYnOfn6PiLyJShXHA1Wam7dPbpAagDcWilAuAiblzERFpkH8Gfl78AJMWqQFozw+Af82dhIhIA30Y+LGeDmidGoAWmdnxwL/nzkNEpME+CZyaO4m60iLAFpjZbsBNqIESEekEH3L3X+VOom7UAAyQma0BzAA2zp3LYt4A/gA8AMwG/gG8ULzeypiXiNTbEGANYM3itS6wLbANaZOeTvEssJ27P507kTpRAzBAZvZz4GOZ03gT+D1wBTAV+KO7q9CLSCWKxXdbATsCBwJ7AytkTQpuIO0RoKLWT2oABsDMDgUuzJjCZOAnwJXu/kLGPEREFilmRg8ADiHvI9HHuPv3M8avFTUA/WRmI4B7gVUzhL8O+La7T8kQW0Sk38xsJ+BrwAczhH8D2NHdZ2SIXTtqAPqheMxkMrBLxaEnA/+ui1lE6qY4Dv0MYLeKQ98P7KDbosunVez982mqLf4vA0cCu6v4i0gdFd9dewCfBV6qMPR2wDEVxqstzQAsh5mtA/wReEdFIW8CPunuf68onohIKDNbn7R+ap+KQs4F3uPuf6soXi1pBmD5Tqe64v/fwL4q/iLSTdx9FrA/8MOKQg4DzqwoVm1pBqAPZvY+0uN20eYDX9LqVRHpdmb2OdLagCr28f+ou19RQZxaUgOwDMVJUw8AmweHWgD8v+7+s+A4IiIdwcz+F+kU1cHBoZ4ERuro4N7pFsCyfY344g9plb+Kv4g0RvGr/LMVhNoAOKmCOLWkGYBemNmWpEdJhgaHOsHdvxUcQ0SkI5nZl4k/zGcBaW+AacFxakcNQC/M7Cbid7P6ubt/PDiGiEhHM7OfkHYQjHQPMN7d5wfHqRXdAujBzKrYyvJx4IjgGCIidfDvwGPBMbYHjgqOUTuaAViMma1Feub/nYFhFgB7uPvkwBgiIrVhZjsCtxH7ZMAc0oLAJwNj1IpmAJZ0KrHFH+A7Kv4iIm9z96nA/wkOsxrp8UMpaAagYGa7ATcDFhjmL8A27v5aYAwRkdoxs6GkxddbBoea6O7XBseoBTUALLrw7gNGBofaz91vCI4hIlJLZrYHaTv0SI+Ttgl+NThOx9MtgOTLxBf/n6v4i4gsm7vfDFwUHGZjYFJwjFpo/AyAmf0T8AdgpcAwLwFbufvTgTFERGrPzN5JWoy9VmCYt0hHBt8fGKPjaQYAziK2+AN8VcVfRGT53P050qxspCHAuWbW6BrY6L+8mX2C+OMppwLnBscQEekmPwFuDY4xgWq2I+5Yjb0FYGZrkKaZ1g0M8xYw1t1nBMYQEek6ZjaStDg7ckv2Rt+ebfIMwLeJLf4A31fxFxEZOHd/mPhzAlYHvhcco2M1cgbAzCYAtxP7zL8eNRERaYOZrUQ6ln1EcKh93f23wTE6TuNmAMxsCOmefGTxBzhKxV9EpHXu/jpwZAWhziqajUZpXAMAHANsFxzjl9ppSkSkfe7+O+CnwWH+CfhGcIyO06hbAGa2CfAgsEpgGB04ISJSIjNbl7Roe43AMG8Co939ocAYHaVpMwA/Irb4A3xDxV9EpDzuPhs4LjjMCsA5ZhZ9e7hjNGYGwMwOBK4IDjMd2NHd5wfHERFplKIwTwF2Cg71KXe/IDhGR2hEA2BmqwEPAxsEhlkAjHf36YExREQay8y2Be4h7eQX5R/AlsWOhF2tKbcATiK2+AP8SMVfRCSOuz8AnB4cZk3gtOAYHaHrZwDMbAfSdryDA8M8SVr4NycwhohI45nZMNJi7k2DQ+3p7tFHE2fV1TMAZjaY9Mx/ZPEH+IKKv4hIPHefCxxVQaizzSxyG+LsuroBAD4P7BAc41fuHr24UERECu5+HXB5cJgtiX/yIKuuvQVgZhuQFv6tFhhmLmm7378FxhARkR7MbH3Sd/zwwDBvANu6+58DY2TTzTMAZxBb/AEmqfiLiFTP3WcBXw8OsyJwdnCMbLpyBsDMPghEb8V7P7CDu78VHEdERHphZoNIi7zHBof6V3e/JDhG5bquAShWiD4EbBIYxoGd3f3OwBgiIrIcZrY9cBexi72fAbZy9xcCY1SuG28BTCK2+AOcq+IvIpKfu98D/DA4zDrAKcExKtdVMwBmth1pO97IXaKeJj3z/2JgDBER6SczW5W0IHDDwDAO7OruUwJjVKprZgCKfaLPJbb4Axyj4i8i0jnc/RXg34PDGOmwoBWC41SmaxoA4LPAhOAYv3X3S4NjiIjIALn7VcA1wWG2Ab4YHKMyXXELoKKzol8HtnH3xwJjiIhIi8xsY9Ii8Mhj318Dtnb3vwbGqES3zAB8j9jiD/AtFX8Rkc7l7o8DJwSHWRk4MzhGJWo/A2Bm+wA3BId5CBjt7m8GxxERkTYUZ8BMA0YHh/qYu/8iOEaoWjcAZrYS8AfgnwLDOLC7u08OjCEiIiUxs/HAHcTOcj9F2hvg5cAYoep+C+DrxBZ/gAtV/EVE6sPd7wLOCQ6zHvBfwTFC1XYGwMxGAvcBkcc1Pkvq8P4RGENEREpmZquT9gZYLzDMAmCCu98dGCNMLWcAimf+zyG2+AN8ScVfRKR+3P0l4D+CwwwCzi3WHdROLRsA4FBgt+AYN7n7xcExREQkiLtfBvwmOMwY4OjgGCFqdwvAzN5JeuZ/rcAwbwCj3P2RwBgiIhLMzDYDHiQ9vhflFeA97v5EYIzS1XEG4LvEFn+Ak1X8RUTqr9iw58TgMKsSfyBR6Wo1A2BmewA3BYf5E7Cdu78RHEdERCpQ7N9/L7B1cKgD3P3q4BilqU0DYGZDgRnAVsGh3ufuNwbHEBGRCpnZLsBk0qE+UZ4g3Qp4JTBGaep0C+BY4ov//6fiLyLSfYpjfM8PDrMR8J/BMUpTixkAM9scuB9YKTDMP0jP/D8bGENERDIxs3eQFpGvExhmPjDW3e8LjFGKuswAnEVs8Qc4VsVfRKR7ufsLxB/nO5i0N0DH19eOT9DMDgb2Cg5zG/Dj4BgiIpKZu18C/E9wmPHA54JjtK2jbwFUNF3zJjDG3R8MjCEiIh2iuK38ALBiYJiXSbeVnwqM0ZZOnwE4mdjiD/BdFX8RkeZw9z8Tf5DPcOD7wTHa0rEzAGa2M2lqPvKRjb8A27j7a4ExRESkwxSPlt8PbBkcan93/3VwjJZ05AyAmQ0BziW2+AN8XsVfRKR53H0ecEQFoc40s8htiFvWkQ0AaZXmNsExfu7u0YdEiIhIh3L3m4GLgsNsBpwQHKMlHXcLwMw2JR3cMCwwzEukxRlPB8YQEZEOV9EBcx252LwTZwDOJLb4A3xNxV9ERNz9OeArwWFWIO0NEH1be0A6agbAzP4FuCw4zFRgZ3dfEBxHRERqoCjMNwO7BYf6jLufFxyj3zqmATCz4cDDwPqBYd4ibdE4IzCGiIjUjJmNBO4DhgaGeYF0+/mZwBj91km3AP4PscUf4Acq/iIi0pO7Pwx8JzjMO4DTgmP0W0fMAJjZOOBOYhuSx0nHNL4aGENERGrKzFYC/gD8U3Covdw9ejvi5co+A2Bmg0nP/EfncpSKv4iILIu7vw4cWUGos80schvifsneAABHA2OCY1zp7tcGxxARkZpz998CPwsOsznwteAYy5X1FoCZbUha+LdqYJg5pKn/vwfGEBGRLmFm65L2BlgjMMwbwCh3fyQwRp9yzwD8kNjiD/ANFX8REekvd58NHBccZkXg7OAYfco2A2BmE4Grg8PcA4x39/nBcUREpIsUewNMAXYKDnWIu18cHKNXWRoAM1sFeAjYODDMAmBHd58WGENERLqUmW1L+iE5JDDMs6S9Af4RGKNXuW4BnEhs8Qc4U8VfRERa5e4PAN8LDrM28fsP9KryGQAzGw1MAwYHhnkSGOnucwJjiIhIlzOzYaQZ600Cwziwu7tPDoyxlEpnAMxsEOmZ/8jiD/AFFX8REWmXu88FPh8cxoBzzGyF4DhLqPoWwBHA+OAY17n7FcExRESkIdz9OiC6rrwH+HJwjCVUdgvAzNYjPfO/emCYuaRn/v8WGENERBrGzNYn7Q2wWmCY14Bt3P0vgTEWqXIG4HvEFn+ASSr+IiJSNnefBRwfHGZl4KzgGItUMgNgZvsBvw4Ocz+wg7u/FRxHREQaqFjHNhUYGxzqE+5+aXCM+AbAzFYmna707sAwDuzs7ncGxhARkYYzs+2Bu4hdzP40aW+AlwJjVHIL4BvEFn+Ac1X8RUQkmrvfQ9rGPtK7gG8Hx4idATCzrYF7gchHG2YDWwFvAhsUr7XJf86BiIh0hwWkHfueBGYV/+5hYMPgmDu7+9SoAGENQLGP8q3Ae0MCvO0V0n+o4cFxREREAF4mPbsf+UQAwAxgbNTatshfyZ8ivvhDOk1QxV9ERKoynPjiDzAK+I+owUNmAMxsbdLzkmuWPriIiEhzvEra3+bxsgeOmgE4DRV/ERGRdq0C/Chi4NJnAMxsT+B/Sh1URESk2Q509yvLHLDUBsDMViRtyLNFaYOKiIjI30m3Ako76K7sWwBfRcVfRESkbBsC3ypzwNJmAMxsC9Kv/xVLGVBEREQWNx8YX2xG1LYyZwDORsVfREQkymDg3OJMgraVMoiZ/SuwZxljiYiIyDKNBT5fxkBt3wIwszVJz/yvXUZCIiIi0qc5pMOCZi33nX0oYwbgVFT8RUREqrIacEa7g7Q1A2Bm7yXt92/tJiIiIiID8kF3v67VD7fcAJjZCqST/rZuNbiIiIi0bCawtbvPbeXD7dwC+BIq/iIiIrlsCnyz1Q+3NANgZu8G/gCs3GpgERERadtbwPbu/sBAP9jqDMCZqPiLiIjkNoS0N8CA1+INuAEws/8H2G+gnxMREZEQOwGfGeiHBnQLwMxWJz3z/66BBhIREZEwL5L2Bpjd3w8MdAbgv1DxFxER6TRrAKcP5AP9ngEwsx2B2yn/BEEREREpxz7u/rv+vLFfDYCZDQGmAaPaTKws84HbgBnAU728nveyjjkUEZFGKxbYrQWs18trFPBe0kE9neBRYFt3f315b+xvA/BF4LslJNaOucBvgauAX7n785nzERERwczWAj4EHADsQ/6n5E5y928s703LbQDMbGPgIWCVkhIbqOuBc4HfuftrmXIQERFZLjMbRmoCPlf8bw7zgFHu/se+3tSfBuBC4NDy8uq36cCX3f2mDLFFRETaYmZ7kQ7MG5Mh/C/d/X/19YY+GwAzG0H69b9CyYn1ZSZwPPAz3ccXEZE6K9YPHAycBGxSYei3gJHu/uiy3rC8Ff3/RXXFfz7wddJzjD9V8RcRkbrz5BJgS1KNm19R6CGkpmOZljkDYGbjgakBSfXmReDj7n5DRfFEREQqZ2b7ApeSntuP5sBYd7+ntz/sawbglJh8lvIIsKOKv4iIdLui1u1Iqn3RDPj2sv6w1wbAzPYH9ghKaHE3ABPc/U8VxBIREcmuqHkTSDUw2j5mtmdvf7DULQAzGwTcB2wbnNTFwGHuXtX9EBERkY5hZoOBC4BPBoe6293H9/yXvc0ATCS++E8BDlfxFxGRpipq4OGkmhhpnJlN7Pkve2sADgtO5HHgQHefFxxHRESkoxW18EBSbYz06Z7/YolbAGb2LuAJ0uMDEeYCu7j7fUHji4iI1I6ZjSbNBAwLCvEWsIG7P7PwX/ScAfhX4oq/A4eo+IuIiCypqI2HkGplhCGkDYkW6dkA/FtQYIAfu/vlgeOLiIjUVlEjfxwY4tDF/2HRLQAz2xG4MyjoXGCEuz8VNL6IiEjtmdl6pCN9o24FjFk4E7/4DEDk4r/TVPxFRET6VtTK0wJDHLrw/yw+A/A0sG5AsNmkX/+vBIwtIiLSVcxsVdIsQERNftLdN4RiBsDM3h0UCGCSir+IiEj/FDVzUtDwG5jZxvD2LYCdggL9FTg/aGwREZFudT6phkbYCeIbgMvd/a2gsUVERLpSUTt/GTT8BHj7mf+oBuDqoHHDmNlwYANg/R6vdYGXgFm9vJ7xZZ2rLFJTZrYasD0wFhgDrJo3I5F+eQW4F5gG3OPuczLn046rgS8GjLsTpKMCh5EKW9kbAD0DrOfuC0oet3Rmth1wQPEa08IQTwHXAFcBN2qbY6kzM9sWOIf0K6GvI8NFOt0C0uPtR7j7A7mTGajisKDZwFolDz0PGG7A7sDNJQ8OaeOfpfYe7hRmtivwEVLR36zEoecAvyY1A9e4+6slji0SxsyGAMcCJwBDM6cjUqZ5wInAKXW7LW1mFxFzWuDOg2jtF29/XBU0blvMbGczuw24FTiGcos/wGrAx4CfAo+Z2RHFF6tIxyoeO7odOAkVf+k+Q0nX9u3FtV4n1wSNu8MgYO2AgecBvw8Yt2VmNtLMriQdtrBLRWHXBc4GHjSzAyuKKdKKU4FxuZMQCTaOdK3XyQ2kWxllW3cQ5d9bAHjK3V8PGHfAzGwdMzsPeIA03Z/DFsAVZna7mU3IlINIr8xsT+CI3HmIVOSI4pqvhWJPgGeW+8aBWyusAQgYc8DMbAwwnXQO8uDM6UBaeTnZzI7MnYgIgJmtAlxAWhAs0gQGXFBc+3UxK2DM7m0Aiin324ANc+fSwxDgTDM7S2sDpAPsDmySOwmRim1CuvbrIqIBeOcgYM2AgZ8OGLPfzOx44HLiTlMqw+eAG8ws4r+/SH+NzZ2ASCZ1uvY1A7A8ZjbEzC4hrfasw5TmnsBUM9s8dyLSWHX6EhQpU52ufTUA/XAGcHCm2K0aAVyvmQDJpE5fgiJlqtO1H9YArBwwcOWn/5nZUaRp9ToaAfxCawJERKQXEdsZr9wV23ya2d7A93Pn0aY9gR/kTkIaZ1ruBEQyafy1X/sGwMy2BC6jMx7za9eRZlbXWQypp8Z/CUpjNf7ar3UDYGYrkrZJXCN3LiU6w8zG505CGqPxX4LSWI2/9mvdAACfJ+2y102GAKfnTkIa4xZgZu4kRCo2k3TtN1ptGwAzWx04PnceQXYxs1zbFkuDFKdVHgZ47lxEKuLAYTqptcYNAHAcMZsYdYpv66kAqYK73wT8KHceIhX5UXHNN14tGwAz2wD4Qu48gm0FfCp3EtIYx5FOyhTpZlNI17pQ0wYAmETM/gWdZlLNDqyQmnL3ucBuwJeAjjjJU6REbwBfAXYrrnWhhg1AURDrtttfq94FTMydhDSDuy9w99OA0cCNwJuZUxJp11ukxX7bu/t33H1B7oQ6SR3vMe9L9b/+nwTuBzYCRlLtngMTgZ9VGE8azt0fAd5XPGY7mrRl6hhg1ayJifTPK8C9pMf8Zri7ZrSWoY4NQBWr4+cDZwG/A+5290WnG5rZMNKX4XjSdOn6wbm838xWcHf9GpNKufsbwNTiJSJdpla3AIpV8R8IDvMgMMHdj3b3axcv/pDulbr7FHf/HrA1cHFwPqsDewTHEBGRhqlVA0BapBT56N+pwA7u3q8dotz9RXc/hDRN/1xgXloHICIipapbA/DhwLEvcfdji2nPAXH3a4FDy09pETUAIiJSqro1AKOCxp0FHN3OAO5+HXBhOeksZWMz66bzDkREJLO6NQBRC+4Od/cXShjnGOCJEsbpTfRiQxERaRA1AHCnu19fxkDu/hJwWhlj9UINgIiIlKY2DYCZDQcidsW7u8PHW0gNgIiIlKY2DQBxBbDsM6HvJe0jUDY1ACIiUho1ACU3AO7+GvBQmWMW1ACIiEhp6tQADA8a9+81GTPq7y8iIg1UpwZgdtC4EY8WRoz5TMCYIiLSUHVqAJ4MGndsmYOZ2XrETNc/FTCmiIg0VJ0agKcBDxi31AYgYLyF1ACIiEhpatMAuPs8Yvbb37U49rQse5c41uLUAIiISGlq0wAUZgWMuRHwn2UMZGZjgSPLGKsXTy//LSIiIv1TtwYgYnU9wJfMbMd2BihmEX4CDC4lo6VFND8iItJQdWsAbg4adzDwEzNbuY0xTgS2Limfnqa7+5ygsUVEpIHq1gBcFTj2VsA9A50JMLM1zewS4CsxaQGxf28REWmgWjUA7v4oMbvsLbQVMMXMTu7PwkAzmwg8CBwcmBPA1cHji4hIwwzJnUALrgLeEzj+YOBY4CAzm0w63GcacD9pweDY4jW+eEX7i7s/UEEcERFpkLo2AF+rIM5GwEHFKydN/0vlzOzdwG7ADsD2wGhgWNakRPpnLnAfcA8wHbjV3f+SN6XOVMcGYBrpaYANcydSkStzJyDNYWZDgOOAE4AVMqcj0ophwM7FC+BNMzsRONnd38qXVuep1RoAAHd34JTceVRksrvfljsJaQYzGwncDnwLFX/pHiuQrunbi2tcCrVrAArnAo/mTqICX86dgDRD8cU4HRiXOxeRIOOA6WoC3lbLBsDd36SadQA5XebuU3MnId3PzAYDFwHt7IMhUgcrAxcV13zj1bIBAHD3XwB35c4jSBMaHOkcx6Jf/tIc40jXfOPVtgEoRG6+k9NZ7v5Y7iSk+5nZJsA3c+chUrFvFtd+o9W6AXD3W4Af586jZI8Bk3InIY3xXmBo7iREKjaUdO03Wq0bgMKRQLeslH8Z+JC7v5g7EWmMsbkTEMmk8dd+7RsAd58HHAjMzJxKuxYAB7n7w7kTkUZp/JegNFbjr/2oBsCCxu2Vuz8LTAReqTJuyb7q7tflTkIaZ7vcCYhkUqdrP6SmDgIijpldK2DMPhX75R9M+iVdN5e4+6m5k5BGeiJ3AiKZ1Onaj6ipcwYBEfeb1wsYc7nc/RrgI9RrJuBM4N9yJyGNNS13AiKZ1Onaj6ipL3ZVAwCLmoCd6fw1AW8CR7j7UdqfWjKq05egSJnqdO2rAeiv4nbAeGByzjz68Bywl7ufmzsRabxu3UxLZHnqdO2rARiIYmHgXsB5uXPpYQYwzt1vzZ2IiLvfBVydOw+Ril1dXPt1oQZgoNx9nrt/BtgVuDNzOrOBzwFj3X1m5lxEFvdZ4PncSYhU5HnSNV8nYQ1AxErItc1s/YBxW+Lut7n7TsBHgT9XHH4u6SjKEe5+ju73S6dx99mkDbVEmuDI4pqvhaKWrh0w9BODSFPSZTPSc/kdxd2vALYGjgL+HhzuNdLthxHufoK71+nJBGkYd78M+ALpuhXpRq8B/1Fc63UykZh9AGYYsAXwSMDgN7j7fgHjlsLMDNgB+HDx2raEYZ8BfgVcA/zO3eeWMKZIZcxsc+BCYJfcuYiU6E7gUHePqHWhzOw3wL4BQ29ppM2AXgZWKXnwecDa7v5yyeOGMLPNSJ3W7sAGwPrAu4AhvbzdSfeRZhWv+0hFf6q713EjIpFFzGwQ8Clgb9LRqZtmTUikNTNJj/r9D3Ceu8/Pm87Amdlw4FnKP7DrVWC4uTtmdgcwoeQAAJ9w90sDxq1E8UW4NqkZWBd4iVTwnyrOIBDpema2FjAGWDV3LiL98Apwn7s/lzuRdpnZx4GfBQx9p7vvtPDX7QxiGoADgNo2AMWv+dnFS6SR3P154Pe58xBpoAOCxp0Bbx8GNDUoyMROehpARESkDoraGbWYfiq83QBcR8whOisDJwaMKyIi0s1OJNXQsi0g1XzM3QEws9uIWfk7Hxjl7g8GjC0iItJVzGxr0jT94IDhp7j7e+HtGQCI2w50MHBK0NgiIiLd5hRiij8sVusXnwHYHPhTUECAPdz9lsDxRUREas3MdgduDgyxhbv/GRZrAIrADwEjg4LeA+ykx+dERESWZmZDgTuA7YNCPOzu71n4D4N6/GHE84YLbQ+cGTi+iIhInZ1JXPGHHjW+5wzAO4HHiVl5uNAX3P2MwPFFRERqxcyOBn4QGOI1YOPFN0haYgag+IOLAxMAON3M9gqOISIiUgtFTTw9OMzFPXdHXGIGoEhkS+BhYk4fWugFYLy7PxoYQ0REpKOZ2QjgLuAdgWEcGNnzMKSeawAo3nBtYCKQ/qK/Lv7iIiIijVPUwF8TW/wBru3tJMSlGoDCacHJAIwA7tLtABERaZqi9t1FqoXReq3pvTYA7n4rcH1oOsk7gN8Uix9ERES6XlHzfkP8L3+A64uavnQePdcALPqDNDXxB2DFwMQWdz7wee0TICIi3ah4zv9M4NMVhXwD2GZZ6+2WdQuA4gPfjcqqF58G7jCzPSqMKSIiEq6obXdQXfEH+G5fi+2XOQMAYGbDSE8EbByQWF+uB45z9wcqjisiIlIaM9sWOBnYv+LQj5NW/s9d1huWjvVujwAAIABJREFUOQMAUHzwf5edVT/sD9xnZhea2YYZ4ouIiLTMzDY0swuB+6i++AN8sa/iD8uZAVj0JrNfAB8tK6sBep30mMRVwK/c/R+Z8hAREVkmM1sT+CBwAPB+YKVMqVzu7v+yvDf1twFYDZgGbFFCYu2YD0wmNQNXu/vMvOmIiEiTmdmmwIdJRX9X4o7x7a8/AWPdfc7y3tivBgAW3ce4ExjWXm6legmY1cvrWdLORyIiIu0yYG1g/V5eq2fMq6e5wIT+rp/rdwMAYGafBC5qMTERERGJc4i79/s8nz4XAfZUDHzegFMSERGRSOcNpPjDAGcAYNFGBlcD+w3ogyIiIhLhN8CHB7qR3oAbAAAzW5n0rP4eA/6wiIiIlOVmYH93f22gH2ypAQAws1WB3wI7tTSAiIiItOMOYB93f6WVD7fcAACY2RrAjcCYlgcRERGRgboX2NPdX2x1gAEtAuypCLwP6UhDERERiXcX6Zd/y8Uf2mwAANz9OWB34NJ2xxIREZE+XQrsXtTetrTdAAC4++vu/gngBLQBj4iISNkcOMHdP+Hur5cxYFtrAHod0OyjpM2COmnHQBERkbqaS9rk5/IyBy1lBqCHK0h79YuIiEj7rgJ+WfagpTYAZrYKqQE4qMxxRUREGuwg4JfF4/elKe0WgJltCFyDHgkUERGJcD/wIXd/vIzBSpkBMLNxpMcSVPxFRERibAfcbWY7lzFY2w2Ame0F3AKs1346IiIi0od1gBvNbP92B2p3J8BdSYcQaMW/iIhIdV4HPuDuN7Y6QDtnAYwDfg8MbzW4iIiItOxV0o6At7fy4VZPA9wOuAlYs5WgIiIiUoqXgPe5+/SBfnDADYCZbQ7cRroPISIiInk9D+zq7g8P5EMDagDMbBgwFdhmYLmJiIhIoIeB8QM5GnigTwGcg4q/iIhIpxkJ/PdAPtDvGQAz+wxwbgtJRZhPug0xA3iql9fzXvYhByIi0khmZsBapMfde75GAe8FBmdLcElHuvvZ/XljvxoAM9sBmAKs2GZi7ZgL/Ja0J/Kv3P35jLmIiIgAYGZrAR8CDgD2AVbOmM4bwC79WRS43Aag2N//AWCzcnIbsOtJMw+/c/fXMuUgIiKyXMVauX2AzxX/m8NfgW3d/dW+3tSfNQDfIE/xnw7s6e4fcPdrVPxFRKTTuftcd7/K3fcF9gbuzZDGZqTa3ac+ZwDMbAvSr/+h5eW1XDOB44Gf6T6+iIjUWbF+4GDgJGCTCkPPI80C/GlZb1jeDMAPqa74zwe+Dmzl7j9V8RcRkbrz5BJgS1KNm19R6KGkGr5My5wBMLOPAL8MSKo3LwIfd/cbKoonIiJSOTPbF7gUWKOikAe6+5W95tJbA2BmKwF/pJrpikeAiX1NU4iIiHSL4vb6NaRZgWh/I82sv97zD5Z1C+CTVFP8bwAmqPiLiEhTFDVvAqkGRtuEVNOXstQMQLFg4SFgq+CkLgYOc/eq7oeIiIh0DDMbDFzAMgp0iR4BRvZcW9fbDMAHiC/+U4DDVfxFRKSpihp4OKkmRtqSVNuX0FsD8MXgRB4nLUqYFxxHRESkoxW18EBSbYy0VG1f4hZAseXvtMAE5pK2KLwvMIaIiEitmNlo0kzAsMAwYxffIrjnDMBRgYEdOETFX0REZElFbTyEVCujLFHjF80AFIsRngHWDAp8vrsfHjS2iIhI7ZnZecCng4b/B7DOwvV3izcAewA3BQWdC4xw96eCxhcREak9M1sPeJS4WwH/7O43w5K3AA4ICgZwmoq/iIhI34paeVpgiEW1fvEZgL8CmwYEm0369f9KwNgiIiJdxcxWJc0CrBsw/Ex33wyKGQAzG0VM8QeYpOIvIiLSP0XNnBQ0/KZFzV90C2C/oEB/Bc4PGltERKRbnU+qoRH2g7cbgDFBQS5397eCxhYREelKRe2MOpF3DMCQ4h9GBwW5OmjcMGY2HNgAWL/Ha13gJWBWL69neu6xLFJ3ZrYasD0wlvSFsWrejET65RXgXtKmdve4+5zM+bTjamJ25x0NYKRHDeaw7JMBW/UMsJ67Lyh53NKZ2XaklZEH0NpsyFOkox2vAm7UNsdSZ2a2LXAO6bSysr8XRKq0ALgTOMLdH8idzEAV+/PMBtYqeegFwGoG7Ej6D1S2H7t71GYGbTOzXYGPkIr+ZiUOPQf4NakZuMbdXy1xbJEwZjYEOBY4ARiaOR2RMs0DTgROqdttaTO7iJjTAicMAkYFDAypAHYcM9vZzG4DbgWOodziD7Aa8DHgp8BjZnZE8cUq0rGKx45uB05CxV+6z1DStX17ca3XyTVB444aBGwbMPA84PcB47bMzEaa2ZWkwxZ2qSjsusDZwINmdmBFMUVacSowLncSIsHGka71OrmBNGVftm0HAe8MGPgpd389YNwBM7N1ir2VHyB2t8O+bAFcYWa3m9mETDmI9MrM9gSOyJ2HSEWOKK75Wij2BHgmYOh3DgLWCBi4I7b9NbMxwHTSwQqDM6cDsBMw2cyOzJ2ICICZrQJcQFoQLNIEBlxQXPt1MStgzDW6tgEoptxvAzbMnUsPQ4AzzewsrQ2QDrA7sEnuJEQqtgnp2q+LWjUATweM2W9mdjxwOXGnKZXhc8ANZhZ1/LJIf4zNnYBIJnW69mvVAGSZATCzIWZ2CWm1Zx2mNPcEpprZ5rkTkcaq05egSJnqdO2rAeiHM4CDM8Vu1Qjges0ESCZ1+hIUKVOdrv2wBmClgIErP/3PzI4iTavX0QjgF1oTICIivYjYznilrtjm08z2Br6fO4827Qn8IHcS0jjTcicgkknjr/3aNwBmtiVwGZ3xmF+7jjSzus5iSD01/ktQGqvx136tGwAzW5G0TWLEOoZczjCz8bmTkMZo/JegNFbjr/1aNwDA50m77HWTIcDpuZOQxrgFmJk7CZGKzSRd+41W2wbAzFYHjs+dR5BdzCzXtsXSIMVplYcBnjsXkYo4cJhOaq1xAwAcB3Tzo3Pf1lMBUgV3vwn4Ue48RCryo+Kab7xaNgBmtgHwhdx5BNsK+FTuJKQxjiOdlCnSzaaQrnWhpg0AMAlYOXcSFZhUswMrpKbcfS6wG/AloCNO8hQp0RvAV4DdimtdqGEDUBTEuu3216p3ARNzJyHN4O4L3P00YDRwI/Bm5pRE2vUWabHf9u7+HXdfkDuhTlLHe8z7Uv2v/yeB+4GNgJFUu+fAROBnFcaThnP3R4D3FY/ZjiZtmToGWDVrYiL98wpwL+kxvxnurhmtZahjA1DF6vj5wFnA74C73X3R6YZmNoz0ZTieNF26fnAu7zezFdxdv8akUu7+BjC1eIlIl6nVLYBiVfwHgsM8CExw96Pd/drFiz+ke6XuPsXdvwdsDVwcnM/qwB7BMUREpGFq1QCQFilFPvp3KrCDu/drhyh3f9HdDyFN0z8XmJfWAYiISKnq1gB8OHDsS9z92GLac0Dc/Vrg0PJTWkQNgIiIlKpuDcCooHFnAUe3M4C7XwdcWE46S9nYzLrpvAMREcmsbg1A1IK7w939hRLGOQZ4ooRxehO92FBERBpEDQDc6e7XlzGQu78EnFbGWL1QAyAiIqWpTQNgZsOBiF3x7u7w8RZSAyAiIqWpTQNAXAEs+0zoe0n7CJRNDYCIiJRGDUDJDYC7vwY8VOaYBTUAIiJSmjo1AMODxv17TcaM+vuLiEgD1akBmB00bsSjhRFjPhMwpoiINFSdGoAng8YdW+ZgZrYeMdP1TwWMKSIiDVWnBuBpwAPGLbUBCBhvITUAIiJSmto0AO4+j5j99nctjj0ty94ljrU4NQAiIlKa2jQAhVkBY24E/GcZA5nZWODIMsbqxdPLf4uIiEj/1K0BiFhdD/AlM9uxnQGKWYSfAINLyWhpEc2PiIg0VN0agJuDxh0M/MTMVm5jjBOBrUvKp6fp7j4naGwREWmgujUAVwWOvRVwz0BnAsxsTTO7BPhKTFpA7N9bREQaqFYNgLs/SswuewttBUwxs5P7szDQzCYCDwIHB+YEcHXw+CIi0jBDcifQgquA9wSOPxg4FjjIzCaTDveZBtxPWjA4tniNL17R/uLuD1QQR0REGqSuDcDXKoizEXBQ8cpJ0/9SOTN7N7AbsAOwPTAaGJY1KZH+mQvcB9wDTAdudfe/5E2pM9WxAZhGehpgw9yJVOTK3AlIc5jZEOA44ARghczpiLRiGLBz8QJ408xOBE5297fypdV5arUGAMDdHTgldx4Vmezut+VOQprBzEYCtwPfQsVfuscKpGv69uIal0LtGoDCucCjuZOowJdzJyDNUHwxTgfG5c5FJMg4YLqagLfVsgFw9zepZh1ATpe5+9TcSUj3M7PBwEVAO/tgiNTBysBFxTXfeLVsAADc/RfAXbnzCNKEBkc6x7Hol780xzjSNd94tW0ACpGb7+R0lrs/ljsJ6X5mtgnwzdx5iFTsm8W132i1bgDc/Rbgx7nzKNljwKTcSUhjvBcYmjsJkYoNJV37jVbrBqBwJNAtK+VfBj7k7i/mTkQaY2zuBEQyafy1X/sGwN3nAQcCMzOn0q4FwEHu/nDuRKRRGv8lKI3V+Gs/qgGwoHF75e7PAhOBV6qMW7Kvuvt1uZOQxtkudwIimdTp2g+pqYOAiGNm1woYs0/FfvkHk35J180l7n5q7iSkkZ7InYBIJnW69iNq6pxBQMT95vUCxlwud78G+Aj1mgk4E/i33ElIY03LnYBIJnW69iNq6otd1QDAoiZgZzp/TcCbwBHufpT2p5aM6vQlKFKmOl37agD6q7gdMB6YnDOPPjwH7OXu5+ZORBqvWzfTElmeOl37agAGolgYuBdwXu5cepgBjHP3W3MnIuLudwFX585DpGJXF9d+XagBGCh3n+funwF2Be7MnM5s4HPAWHefmTkXkcV9Fng+dxIiFXmedM3XSVgDELEScm0zWz9g3Ja4+23uvhPwUeDPFYefSzqKcoS7n6P7/dJp3H02aUMtkSY4srjma6GopWsHDP3EINKUdNmM9Fx+R3H3K4CtgaOAvweHe410+2GEu5/g7nV6MkEaxt0vA75Aum5FutFrwH8U13qdTCRmH4AZBmwBPBIw+A3uvl/AuKUwMwN2AD5cvLYtYdhngF8B1wC/c/e5JYwpUhkz2xy4ENgldy4iJboTONTdI2pdKDP7DbBvwNBbGmkzoJeBVUoefB6wtru/XPK4IcxsM1KntTuwAbA+8C5gSC9vd9J9pFnF6z5S0Z/q7nXciEhkETMbBHwK2Jt0dOqmWRMSac1M0qN+/wOc5+7z86YzcGY2HHiW8g/sehUYbu6Omd0BTCg5AMAn3P3SgHErUXwRrk1qBtYFXiIV/KeKMwhEup6ZrQWMAVbNnYtIP7wC3Ofuz+VOpF1m9nHgZwFD3+nuOy38dTuDmAbgAKC2DUDxa3528RJpJHd/Hvh97jxEGuiAoHFnwNuHAU0NCjKxk54GEBERqYOidkYtpp8KbzcA1xFziM7KwIkB44qIiHSzE0k1tGwLSDUfc3cAzOw2Ylb+zgdGufuDAWOLiIh0FTPbmjRNPzhg+Cnu/l54ewYA4rYDHQycEjS2iIhItzmFmOIPi9X6xWcANgf+FBQQYA93vyVwfBERkVozs92BmwNDbOHuf4bFGoAi8EPAyKCg9wA76fE5ERGRpZnZUOAOYPugEA+7+3sW/sOgHn8Y8bzhQtsDZwaOLyIiUmdnElf8oUeN7zkD8E7gcWJWHi70BXc/I3B8ERGRWjGzo4EfBIZ4Ddh48Q2SlpgBKP7g4sAEAE43s72CY4iIiNRCURNPDw5zcc/dEZeYASgS2RJ4mJjThxZ6ARjv7o8GxhAREeloZjYCuAt4R2AYB0b2PAyp5xoAijdcG5gIpL/or4u/uIiISOMUNfDXxBZ/gGt7OwlxqQagcFpwMgAjgLt0O0BERJqmqH13kWphtF5req8NgLvfClwfmk7yDuA3xeIHERGRrlfUvN8Q/8sf4Pqipi+dR881AIv+IE1N/AFYMTCxxZ0PfF77BIiISDcqnvM/E/h0RSHfALZZ1nq7Zd0CoPjAd6Oy6sWngTvMbI8KY4qIiIQratsdVFf8Ab7b12L7Zc4AAJjZMNITARsHJNaX64Hj3P2BiuOKiIiUxsy2BU4G9q849OOklf9zl/WGZc4AABQf/N9lZ9UP+wP3mdmFZrZhhvgiIiItM7MNzexC4D6qL/4AX+yr+MNyZgAWvcnsF8BHy8pqgF4nPSZxFfArd/9HpjxERESWyczWBD4IHAC8H1gpUyqXu/u/LO9N/W0AVgOmAVuUkFg75gOTSc3A1e4+M286IiLSZGa2KfBhUtHflbhjfPvrT8BYd5+zvDf2qwGARfcx7gSGtZdbqV4CZvXyepa085GIiEi7DFgbWL+X1+oZ8+ppLjChv+vn+t0AAJjZJ4GLWkxMRERE4hzi7v0+z6fPRYA9FQOfN+CUREREJNJ5Ayn+MMAZAFi0kcHVwH4D+qCIiIhE+A3w4YFupDfgBgDAzFYmPau/x4A/LCIiImW5Gdjf3V8b6AdbagAAzGxV4LfATi0NICIiIu24A9jH3V9p5cMtNwAAZrYGcCMwpuVBREREZKDuBfZ09xdbHWBAiwB7KgLvQzrSUEREROLdRfrl33LxhzYbAAB3fw7YHbi03bFERESkT5cCuxe1ty1tNwAA7v66u38COAFtwCMiIlI2B05w90+4++tlDNjWGoBeBzT7KGmzoE7aMVBERKSu5pI2+bm8zEFLmQHo4QrSXv0iIiLSvquAX5Y9aKkNgJmtQmoADipzXBERkQY7CPhl8fh9aUq7BWBmGwLXoEcCRUREItwPfMjdHy9jsFJmAMxsHOmxBBV/ERGRGNsBd5vZzmUM1nYDYGZ7AbcA67WfjoiIiPRhHeBGM9u/3YHa3QlwV9IhBFrxLyIiUp3XgQ+4+42tDtDOWQDjgN8Dw1sNLiIiIi17lbQj4O2tfLjV0wC3A24C1mwlqIiIiJTiJeB97j59oB8ccANgZpsDt5HuQ4iIiEhezwO7uvvDA/nQgBoAMxsGTAW2GVhuIiIiEuhhYPxAjgYe6FMA56DiLyIi0mlGAv89kA/0ewbAzD4DnNtCUhHmk25DzACe6uX1vJd9yIGIiDSSmRmwFulx956vUcB7gcHZElzSke5+dn/e2K8GwMx2AKYAK7aZWDvmAr8l7Yn8K3d/PmMuIiIiAJjZWsCHgAOAfYCVM6bzBrBLfxYFLrcBKPb3fwDYrJzcBux60szD79z9tUw5iIiILFexVm4f4HPF/+bwV2Bbd3+1rzf1Zw3AN8hT/KcDe7r7B9z9GhV/ERHpdO4+192vcvd9gb2BezOksRmpdvepzxkAM9uC9Ot/aHl5LddM4HjgZ7qPLyIidVasHzgYOAnYpMLQ80izAH9a1huWNwPwQ6or/vOBrwNbuftPVfxFRKTuPLkE2JJU4+ZXFHooqYYv0zJnAMzsI8AvA5LqzYvAx939horiiYiIVM7M9gUuBdaoKOSB7n5lr7n01gCY2UrAH6lmuuIRYGJf0xQiIiLdori9fg1pViDa30gz66/3/INl3QL4JNUU/xuACSr+IiLSFEXNm0CqgdE2IdX0pSw1A1AsWHgI2Co4qYuBw9y9qvshIiIiHcPMBgMXsIwCXaJHgJE919b1NgPwAeKL/xTgcBV/ERFpqqIGHk6qiZG2JNX2JfTWAHwxOJHHSYsS5gXHERER6WhFLTyQVBsjLVXbl7gFUGz5Oy0wgbmkLQrvC4whIiJSK2Y2mjQTMCwwzNjFtwjuOQNwVGBgBw5R8RcREVlSURsPIdXKKEvU+EUzAMVihGeANYMCn+/uhweNLSIiUntmdh7w6aDh/wGss3D93eINwB7ATUFB5wIj3P2poPFFRERqz8zWAx4l7lbAP7v7zbDkLYADgoIBnKbiLyIi0reiVp4WGGJRrV98BuCvwKYBwWaTfv2/EjC2iIhIVzGzVUmzAOsGDD/T3TeDYgbAzEYRU/wBJqn4i4iI9E9RMycFDb9pUfMX3QLYLyjQX4Hzg8YWERHpVueTamiE/eDtBmBMUJDL3f2toLFFRES6UlE7o07kHQMwpPiH0UFBrg4aN4yZDQc2ANbv8VoXeAmY1cvrmZ57LIvUnZmtBmwPjCV9YayaNyORfnkFuJe0qd097j4ncz7tuJqY3XlHAxjpUYM5LPtkwFY9A6zn7gtKHrd0ZrYdaWXkAbQ2G/IU6WjHq4Abtc2x1JmZbQucQzqtrOzvBZEqLQDuBI5w9wdyJzNQxf48s4G1Sh56AbCaATuS/gOV7cfuHrWZQdvMbFfgI6Siv1mJQ88Bfk1qBq5x91dLHFskjJkNAY4FTgCGZk5HpEzzgBOBU+p2W9rMLiLmtMAJg4BRAQNDKoAdx8x2NrPbgFuBYyi3+AOsBnwM+CnwmJkdUXyxinSs4rGj24GTUPGX7jOUdG3fXlzrdXJN0LijBgHbBgw8D/h9wLgtM7ORZnYl6bCFXSoKuy5wNvCgmR1YUUyRVpwKjMudhEiwcaRrvU5uIE3Zl23bQcA7AwZ+yt1fDxh3wMxsnWJv5QeI3e2wL1sAV5jZ7WY2IVMOIr0ysz2BI3LnIVKRI4prvhaKPQGeCRj6nYOANQIG7ohtf81sDDCddLDC4MzpAOwETDazI3MnIgJgZqsAF5AWBIs0gQEXFNd+XcwKGHONrm0Aiin324ANc+fSwxDgTDM7S2sDpAPsDmySOwmRim1CuvbrolYNwNMBY/abmR0PXE7caUpl+Bxwg5lFHb8s0h9jcycgkkmdrv1aNQBZZgDMbIiZXUJa7VmHKc09galmtnnuRKSx6vQlKFKmOl37agD64Qzg4EyxWzUCuF4zAZJJnb4ERcpUp2s/rAFYKWDgyk//M7OjSNPqdTQC+IXWBIiISC8itjNeqSu2+TSzvYHv586jTXsCP8idhDTOtNwJiGTS+Gu/9g2AmW0JXEZnPObXriPNrK6zGFJPjf8SlMZq/LVf6wbAzFYkbZMYsY4hlzPMbHzuJKQxGv8lKI3V+Gu/1g0A8HnSLnvdZAhweu4kpDFuAWbmTkKkYjNJ136j1bYBMLPVgeNz5xFkFzPLtW2xNEhxWuVhgOfORaQiDhymk1pr3AAAxwHd/Ojct/VUgFTB3W8CfpQ7D5GK/Ki45huvlg2AmW0AfCF3HsG2Aj6VOwlpjONIJ2WKdLMppGtdqGkDAEwCVs6dRAUm1ezACqkpd58L7AZ8CeiIkzxFSvQG8BVgt+JaF2rYABQFsW67/bXqXcDE3ElIM7j7Anc/DRgN3Ai8mTklkXa9RVrst727f8fdF+ROqJPU8R7zvlT/6/9J4H5gI2Ak1e45MBH4WYXxpOHc/RHgfcVjtqNJW6aOAVbNmphI/7wC3Et6zG+Gu2tGaxnq2ABUsTp+PnAW8DvgbndfdLqhmQ0jfRmOJ02Xrh+cy/vNbAV3168xqZS7vwFMLV4i0mVqdQugWBX/geAwDwIT3P1od7928eIP6V6pu09x9+8BWwMXB+ezOrBHcAwREWmYWjUApEVKkY/+nQrs4O792iHK3V9090NI0/TPBealdQAiIlKqujUAHw4c+xJ3P7aY9hwQd78WOLT8lBZRAyAiIqWqWwMwKmjcWcDR7Qzg7tcBF5aTzlI2NrNuOu9AREQyq1sDELXg7nB3f6GEcY4BnihhnN5ELzYUEZEGUQMAd7r79WUM5O4vAaeVMVYv1ACIiEhpatMAmNlwIGJXvLs7fLyF1ACIiEhpatMAEFcAyz4T+l7SPgJlUwMgIiKlUQNQcgPg7q8BD5U5ZkENgIiIlKZODcDwoHH/XpMxo/7+IiLSQHVqAGYHjRvxaGHEmM8EjCkiIg1VpwbgyaBxx5Y5mJmtR8x0/VMBY4qISEPVqQF4GvCAcUttAALGW0gNgIiIlKY2DYC7zyNmv/1di2NPy7J3iWMtTg2AiIiUpjYNQGFWwJgbAf9ZxkBmNhY4soyxevH08t8iIiLSP3VrACJW1wN8ycx2bGeAYhbhJ8DgUjJaWkTzIyIiDVW3BuDmoHEHAz8xs5XbGONEYOuS8ulpurvPCRpbREQaqG4NwFWBY28F3DPQmQAzW9PMLgG+EpMWEPv3FhGRBqpVA+DujxKzy95CWwFTzOzk/iwMNLOJwIPAwYE5AVwdPL6IiDTMkNwJtOAq4D2B4w8GjgUOMrPJpMN9pgH3kxYMji1e44tXtL+4+wMVxBERkQapawPwtQribAQcVLxy0vS/VM7M3g3sBuwAbA+MBoZlTUqkf+YC9wH3ANOBW939L3lT6kx1bACmkZ4G2DB3IhW5MncC0hxmNgQ4DjgBWCFzOiKtGAbsXLwA3jSzE4GT3f2tfGl1nlqtAQBwdwdOyZ1HRSa7+225k5BmMLORwO3At1Dxl+6xAumavr24xqVQuwagcC7waO4kKvDl3AlIMxRfjNOBcblzEQkyDpiuJuBttWwA3P1NqlkHkNNl7j41dxLS/cxsMHAR0M4+GCJ1sDJwUXHNN14tGwAAd/8FcFfuPII0ocGRznEs+uUvzTGOdM03Xm0bgELk5js5neXuj+VOQrqfmW0CfDN3HiIV+2Zx7TdarRsAd78F+HHuPEr2GDApdxLSGO8FhuZOQqRiQ0nXfqPVugEoHAl0y0r5l4EPufuLuRORxhibOwGRTBp/7de+AXD3ecCBwMzMqbRrAXCQuz+cOxFplMZ/CUpjNf7aj2oALGjcXrn7s8BE4JUq45bsq+5+Xe4kpHG2y52ASCZ1uvZDauog4NWAcdcKGLNPxX75B5N+SdfNJe5+au4kpJGe+P/bu/9QPcs6juPv7xRLnEXFQVuDVm5qjBU5HdtEXbGRzdRNSrJfFEm/kAz/yPonRBDbP4LBoFgwKMtYtNzQXGxtbiabS8dqSB0tWTTW1lygTtev8emP6zpnj895zq/n3Nd9n+c8nxfcf4w9dvO/AAAHWklEQVRzP9/r+8DNvt/nuq/7uptOwKwhvXTtl6ipr80CSrxn/p0FYo5L0lZgLb01E7Ae+ELTSVjfeqbpBMwa0kvXfoma+uqMagBguAlYzvRfE/Bf4CuS7vD+1NagXvpP0KxKvXTtuwGYqHw7YAnwZJN5jOElYKWkHzSdiPW9mbqZltl4eunaL9YAvFIgcKMNAAwvDFwJbGg6lza/B66StKfpRMwk7Qe2NJ2HWc225Gu/V5Soqa/MAo4VCNx4AwDpEUFJXwKuAfY1nM5x4KvAlZION5yLWasvAyebTsKsJidJ13wvKVFTj80CBgsEHoiIOQXidkXSbyUtAz4OvFDz8K+TXkU5X9L3fb/fphtJx0kbapn1g6/la74n5Fo6UCD0YKkGIEjP5U8rkn4BLATuAI4UHu406fbDfEnfkdRLTyZYn5G0CbiTdN2azUSngW/ka72X3ESZfQAGA/ggcKBA8F9Lur5A3EpERACLgZvzsaiCsP8AHgW2AtslvV5BTLPaRMQCYCNwddO5mFVoH/B5SSV+8BYVEduAjxQIfUUAF5CeBKi6w/gPMCCpxCLDykXEe0id1nXAu4A5wMXAuR1OF+k+0tF8HCQV/acl9eJGRGbDImIW8EVgFenVqfMaTcisO4dJj/r9Btgg6Uyz6UxeRLwFOEH1L+wScGFIIiL+Ary34gEAbpP0swJxa5H/IxwgNQMXAS+TCv7f8zsIzGa8iHgHaaZwdtO5mE3AKeCgpJeaTmSqIuKTwMMFQr8o6ZKhX7e7KdMArAF6tgHIv+aP58OsL0k6CexoOg+zPrSmUNzdcPZlQDsLDXLTdHoawMzMrBfk2llqMf1OONsA7Co0yPnAvYVim5mZzVT3kmpoCbsAQhIAETEIXFpgoDPAByQ9VyC2mZnZjBIRC0m7xp5TIPzzki6DszMAANsLDATpC6wrFNvMzGymWUeZ4g8ttb61ASix0nDIDRFxXcH4ZmZmPS/XyhsKDjFc64dvAeSBSz0OCGmzoWV+fM7MzGykiDgP2AtcUWiIFyVdMvSPWW1/fKjQoJC+0PqC8c3MzHrZesoVf2ir8e0zAPMp/7KcOyV9r/AYZmZmPSMivg48WHiYBZL+PDxmawOQk9gNXFswgTPA9ZK8sYiZmfW9iFgJbKPcwj+APZLesBav/RYAwP0FE4D0BTfl2QYzM7O+lWvhJsoWf+hQ20c0AJK2Ac8WTuRtwONuAszMrF/lGvg4qSaW9Gyu7W/QaQYA4L7CyQDMB/bnqQ8zM7O+kWvfflItLK1jTR+xBgAgIgI4BCwsnBSkNQF3eWGgmZn1g7zg7wHKT/sDPAcsUodi33EGIJ94d+mssnOAByNiQ34G0szMbMaJiPMiYgNptX8dxR/g7k7FH0a/BYCkx4DNxVIa6XZgb0SsqHFMMzOz4nJt20uqdXXZnGt5Rx1vAQz/MWIu8EdgdoHExvIr4FuSDtU8rpmZWWUiYhHwXWB1zUOfAt4n6choJ4w6AwCQP3hPxUlNxGrgYERszE2ImZlZz4iIuRGxEThI/cUf4J6xij+MMwMAEBHnAk8BSypMbDL+RXpM4hHgUUn/bCgPMzOzUUXE24GPAWuAjwJvbiiV/cDVkv431knjNgAAETEH+B0wp5rcunYGeJLUDGyRdLjZdMzMrJ9FxDzgZlLRv4b6FveN5ihwlaSj4504oQYAICKuBPYA508tt0q9TPqy7ccJYGJfzMzMbGwBDJB+BLcfb20wr3angWslPTORkyfcAABExG3AT7tMzMzMzMr5lKSHJ3rymIsA2+XAdewSaGZmZhN332SKP0xyBgCGdwncTLrfYWZmZs16BLhltA1/RjPpBgAgImaTngx4/6Q/bGZmZlX5A2nF/6nJfrCrBgAgIt5NejJgoKsAZmZmNhUnSCv+/9rNhye1BqBVHvDGnICZmZnV5wRwY7fFH6bQAABIepq0QZC37DUzM6vHIWBJrsFdm1IDAJA341kObJ1qLDMzMxvTVmB5FRvhTbkBAMiLD9YC66qIZ2ZmZiOsA9Z2s+Cvk64XAY4aMOIzwA+BN1Ua2MzMrD/9G7hd0kNVBq28AQCIiKXAL4GLKw9uZmbWP46RfvXvqzpwJbcA2uVElwAHSsQ3MzPrAwdIi/0qL/5QqAEAkPQ3YCnwTaCS+xVmZmZ94BSpdi7NtbSIIrcARgwSMRd4APhE8cHMzMx618+BuyQdKT1QsRmAVpKOSLoVWIVvC5iZmbU7AKySdGsdxR9qagCGSNohaTGwmvQuATMzs372FLBa0mJJO+ocuJZbAKMOHrEC+DZpZiAaS8TMzKw+ArYD90t6oqkkGm0AhpNILxb6LPA5YEHD6ZiZmZXwAvAj4MdT2cO/KtOiAWgVEcuAT5NmBS5tOB0zM7OpeJ70a/8nkvY2nUyradcAtMpPD3wI+DCwApjXZD5mZmbjOAw8AewEdtW1oK8b07oBaBcRs4HLWo7LgYuAC9uOC5rK0czMZqTXgFfbjuPAn4DBoaOqffrr8H800V9AMVfyRAAAAABJRU5ErkJggg==;" vertex="1" parent="ItPSY5wFcEl1Enw_Cite-2">
          <mxGeometry y="33" width="87" height="87" as="geometry" />
        </mxCell>
        <mxCell id="ItPSY5wFcEl1Enw_Cite-1" value="" style="shape=image;verticalLabelPosition=bottom;labelBackgroundColor=default;verticalAlign=top;aspect=fixed;imageAspect=0;image=data:image/png,iVBORw0KGgoAAAANSUhEUgAAAgAAAAIACAYAAAD0eNT6AAAABHNCSVQICAgIfAhkiAAAAAlwSFlzAAAOxAAADsQBlSsOGwAAABl0RVh0U29mdHdhcmUAd3d3Lmlua3NjYXBlLm9yZ5vuPBoAAB50SURBVHic7d15tGx3Wefhz82cMCRMYQoEJCRAICqCoGIDAtqCohJZyiQIdlzdNpOt4LBsYrNUWtG2UQG7xYGxRUARUQG7kVGE0CKCiMwOQMCQEIaQuf/Y97bJJbn33KpdtavOfp619oIkp3717qo6Z3/rfav2LgAAAAAAAAAAAAAAAAAAAAAAAAAAAAAAAAAAAAAAAAAAAAAAAAAAAAAAAAAAAAAAAAAAAAAAAAAAAAAAAAAAAAAAAAAAAAAA5mLP1AUAa3V89bjqW6vb7v13H6n+pHpe9dmJ6gIAVuCo6serz1VXXsv2ub0/c9RENQIAI7pv9d6u/cC///aBhg4BALCFblk9v50f+PffXlXdZt1FAwCLObJ6YnVhix/8921fqM6ujl7nDgAAh+ZQ2/3GAgCwxZZt9xsLAMAWGbPdbywAAFtgVe1+YwEA2EDravcbCwDABpii3W8sAAATmrrdbywAAGu0ae1+YwEAWKFNbvfvdDMWAIBDsC3t/p1uxgIAcADb2u7f6WYsAABXse9SvZ9vfQfjK6rf3Ltdscb7/XwuOQwAk7T7/6r6hqvUcLfqL9dcg7EAALM0Rbv//IYPFh5+DfUcVn1f9ek112QsAMAsTPHp/isawsZNd1DfDav/Xl2+xvp8WwCAXW0T2v07ZSwAAEvatHb/ThkLAMACNr3dv1PGAgCwQ9vU7t8pYwEAuBbb2u7fKWMBALiK3dLu3yljAQBmbze2+3fKWACA2dnt7f6dMhYAYBbm1u7fKWMBAHatObf7d8pYAIBdQ7v/0BgLALDVtPuXYywAwNbR7h+PsQAAG0+7fzWMBQDYSNr962EsAMDG0O5fP2MBACaj3T8tYwEA1kq7f7MYCwCwctr9m8tYAIDRafdvB2MBAEah3b+djAUAWJh2//YzFgBgx7T7dxdjAQAOSLt/dzMWAODLaPfPh7EAANr9M2UsADBT2v2UsQDArGj3sz9jAYBdTLufAzEWANhltPs5FMYCALuAdj+LMhYA2ELa/YzBWABgS2j3swrGAgAbTLufVTMWANgg2v2sk7EAwMS0+5mSsQDABLT71++Y6hHVC6o37d1eUD1873+bK2MBgDXQ7p/GA6uPde2P0cea9wHJWABgRbT7p/O4dtbmvqx67EQ1bgpjAYARafdP5x7VJe38cbukuvsklW4WYwGAJWj3T+9NHfpj+IZJKt08xgIAh0i7fzOc0uKP5+0nqHdTGQsA7IB2/+b4/hZ/TB+z/nI3nrEAwDXQ7t88P9Hij+2PT1DvNjAWANhLu39znd3ij/HZa692uxgLALOm3b/ZntHij/MzJqh3GxkLALOi3b+Zjqvu33DwPqflH/MPVb9ePbQ6fo37sW2MBYBdT7t/M9214UD9xVb3PFxcvbT6ujXt0zYyFgB2Je3+zXNm9ZbW+5xcWb25+q417N+2MhYAdgXt/s1zSvWa1n/g3397fXXHFe/rtjIWALaWdv/mObp6evWlpj/479u+VP10ddQK93ubGQsAW0W7f/OcVP1F0x/wr207pzp5ZXu//YwFgI2m3b+Z7lT9U9Mf5A+2fbw6Y0WPwW5gLABsHO3+zXVGdV7TH9x3up1X3WUlj8TuYSwAbATt/s112+oTTX9QP9Ttn6tbr+Dx2G2MBYBJaPdvtqMb52Q+U21vz7vNnTAWANZGu387/NemP4gvu/3s6I/K7mUsAKyUdv92OKO6tOkP4Mtul1Snj/zY7HbGAsCotPu3yx80/cF7rO1lIz82c2AsACxNu3/73KHhMZz6wD3m6+HUUR+h+TAWABai3b+dfqHxn5e/rp5dnVXdu/rKhnd6t9n7/+9d/eDen3n3Cu7/50Z8fObIWADYEe3+7faBxnlOPlX95+p2C9RwSsO7wLFa0H+3QA1cnbEAcK20+7ffrVv+Obmk4dz8x41Qz3Wq/7J3zWXrOmmEejAWAPaj3b87fHvLPSf/Un3tCuq6Z8ufjfBBK6hrzowFYOa0+3eXJ7f483JpdfcV1naPlvtq4hNXWNtcGQvADGn3705nt/jz88I11PeiJep72hrqmytjAZgJ7f7d62da/Dn6yTXU96Ql6vvpNdQ3d8YCsEtp9+9+T23x5+qX11Dfdy9R31lrqA9jAdhVtPvn4wdb/Dl7T7VnxfWdWF22YH23X3FtXJ2xAGw57f55WfZbAI9aQ42vWKCu16+hLq6ZsQBsGe3+eTqp5Z7DL1YPWHGNt+/QulEXVV+94po4MGMB2ALa/Xyq5Z7Pixs+EHjECmv81oZ2705q+d4V1sGhMRaADaXdTw1f5xvjuT2n+pYV1nnX6h0HuP+/qe61wvtnccYCsCG0+7mq72zc5/pNDX94D1tBrXsaguvPVy+vfr/6peqb89radMYCMCHtfq7JMS0/Brim7UPVU6qbrG9X2ALGArBm2v0cyI+1utfBl6o/aJjNj3HBIHYHY4GZWfV3hvlyt2y4Nvo6vq61zwUNaftXG1L+nB3dcFGa+1W3qo5dcr0Lqw9Wr25otV+55Hr7XK/hHfuq361/oXpl9bvVaxo+tLfJ9lT/puE5vF11/SXXu6j6x+rPqj9u8/d/1Q6rHln9YnXjNd7vH1WPrz66xvuEtdHun96DG/7ArOrxfmt15xHr/d4V1npN22cbPoD4HQ1jiE1zl+ptrW7/P9JwHgaMBWA02v3Te0JDIFr1435hde8R637ZGmq+pu0zDR2ju424L8u4T/W5Vr/flze8E2VgLAAL8un+zfAtrfedzL80nNBnDNer3r3G2q9pe3f1H1p+XLKoW1XnHaTGMbfLW/3JlLaJbwvAIdDu3xyHV+9r/QfN3xxxH06uPjbBPuy/ndtwgqETRty3nfjtJeteZHtvQvT+jAXgILT7N8t9muZg+aWGd+9jObmhNTrFvuy/XVj9bMt/AG8nrtvwQb0p9vMb17B/28hYAPaj3b+ZntZ0B8r7j7wvN63eOOH+7L99snpMq/020QMm3L+fWuF+bTtjAUi7f9M9t+kOIN+3gv05svrl1vOBxp1uf9J4n3nY36Mn3K/nrmifdhNjAWZLu3/z/VLTHUAessL9um/14Qn3bf/t0w3nVhjbd0+4T89cwf7sVsYCzIZ2//b4waY7gJy+4n07tqFN/fkJ9/Gq22XVfxx5H+8y4f78u5H3ZbczFmBX0+7fPreoLm39B4/3r2Pn9rp5w8V4PruC/Vhk+7GR92+KDz9e0vC4cuiMBdh1tPu316+3/gPIOk/1vM8JDV/TO3eBesfefmjE/Xr0BPU/e8T658pYgK2n3b/9rl+9p/U9fy9v2utsHFM9vHpd630XdtXt0oZLAo9hT/W/1lj7+1r/uQ52K2MBtpJ2/+5yy+qcVv8cvrDNOo/+rRs+J/C3rfcP8JUNXxMc64Iyx1YvXkPN72h4rTAuYwG2hnb/7nRUw3nexz4z4OXVm9v8C8ncufrp1hsGXjTyPjy4ekvjH0j+tuEDjEeOXC9XZyywQVwO+Opcqnc+Tmo4u96y57e/oOEqcuctXdF6nV49tGFUcPsV39fXNryzHtONqtu2fKv+oobTLP/T0hWxUy45zEbR7meu9lT3bAigq/oWwSvXtjdsE2MBJqfdzza4TnWH6tRWd1W+61ZnVe9q/LB72xXVzPYzFmDtfLqfTbenOrN6Q8NJdva9ji6pXtN4n7K/Jg9q3A9NPmWFtbL9fFuAtdDuZxtcr/rDDv7a+u1W187cU31v4/xRftuKamR3MRZgZbT72QZHVv+nnb/Gfq/VfqD3podYzzVtF+cPLDtnLMBotPvZJj/Zob/eHrvimo6tXr9AXVfd7rriGtldjAVYinY/2+bYhq8WHurr7qOt/mu9J1dfXKC2fdsjVlwfu5OxAIdMu59t9O0t/vq7+xrqe+US9T1+DfWxexkLcFDa/Wyzp7b46/DRa6jv6UvU91NrqI/dzVhgRIdNXcCI9rX739f6zuR3ZfWChu9n72tRwTKOX+K2txutimu3zN+MTbpGAttp34j1tOpZe/95Hb6toaN8dsYCG0e7n91ikQ8A7tve02rPZX9Uy11H4MdXWBvzZCwwY9r97DaPa7nX57NbzYcB91TPXbK2x6ygLjAWmBmf7me3+vqWf62+tOFiOWO5UfWyEeq6x4g1wf58W2AGtPvZzY5tuELdsq/ZT1RPaLiGwKKu0xC0PzlCPV/IH0nWw1hgF9LuZy5e23iv4fOq32g4t/9OLp17QsMHnp5XfWbEOl690CMBizEW2CW0+5mbR7W61/aHqz+tXlI9Z+/2kr3/7iMrvN+HjfoIwc4YC2wx7X7m6Njq3Nb7ul/l9vF8BZBpGQtsEe1+5u4/Nf2Be6ztiSM/NrAIY4ENp90Pg6Nb7jv3m7K9p+H8AbApjAU2kHY/XN29qkub/iC+6HZJdc/RHxUYh7HABtDuh2v3lKY/kC+6PWkFjweMyVhgItr9sDPPavqD+aFuz1nJIwGrYSywRtr9sHOHV7/T9Af1nW7Pa3ddaIz5MBZYIe1+WMye6ueb/uB+oO2K6mdazbUIYF2MBUam3Q/j+J7qgqY/2F9T0D5zhfsN62YsMALtfhjXzRrC7RVNf+C/suGdy0kr3WOYjrHAArT7YbXu37TnCnhv9U0r30uYnrHADmn3w/oc1hAEXtX6OgJvrh6aoM38GAscgHY/TOeO1TNbze/ge6pfqE5b297A5jIWuArtftgst6p+oDqnxX/Hztm7xq3WXDtsg9mPBbT7YbOd3eK/a2evvVrYPrMcC2j3w+Z7Wov/vj1tgnphW81iLKDdD9vjiS3+e/f4CeqFbbarxwJPqD6/xp26ovrN6sRV7xjsUg9q8d+/jfzAEWyBExuOXes8V8fnG47Rozu8evEad+TK6v9WX7eKnYEZObb6XIf++3dhdcwE9cJu8nUNx7J1Hjtf2Mjd8qevsXjtfhjXIr+/Z09RKOxCU4wFzh6r+NNaz6cbtfthNY6r3tnOfxff0dA5AMazzrHA5dWpYxT9S2soVrsfVutm1ds6+O/iW/MVW1ildY0FnjlGsX+1wgK1+2F9jqqeXH2sL/9d/FjD7+JRk1UH87GOscA5YxR6/goK0+6HaZ1efdve7U4T1wJztcqxwGfGKPDSkYtyMh8A+FerOInQpWMUNlYA0O4HgGs29lhgIwKAc/cDwM6MdW2ByQOAdj8AHLplxwIHDQB7dlDEpdURh157NVyp6JIFbwsAc3ZUdfGCt72s4Yq91+qwBRfeqStWvD4A7FYrPYauOgAAABtIAACAGRIAAGCGBAAAmCEBAABmSAAAgBkSAABghgQAAJghAQAAZkgAAIAZWvQc/zv1nJwOGIDFXFx9onpz9daGK+St2nWqf1vdpTqxaS9hv9I36au+GBAAjOED1Y9Uf7ii9Q+vfrT6ser4Fd3HOh30YkACAADb4srqadXTR173mOr3G9757xYCAAC7zqOr54+43vOrR4243iYQAADYdc6vTqk+M8Ja/6Z6wwjrbJqDBgDfAgBg29yg+p6R1nrCSOtsHQEAgG30gJHWuf9I62wdAQCAbXTrEda4frvjE/8L2UkAuHDlVQDAobl0hDUuG2GNTXXBwX5gJwHgQyMUAgBjGuPY9MXqkyOss4kO+vjsJAC8eoRCAGBMYx2b/mikdTbNQfdrJ18DvEn1wYZZCQBM7SPVHapLRljrtOo97a6vu3+u4WuSnzrQD+3kHMf7WiTfOUJRALCMS6szqw+PtN55e//3viOttwnOarh2wgHt9CIH72r4MOD9880BAKbxxeqR1Z+MvO6bGi4C9PUjr7tul1c/XP2PnfzwoVzl6G3Va6vbVbdpZ+MDAFjWZQ3n6v+ehoP1Kryu+suG0cItVnQfq3Jl9efVw6uX7/RGix7Eb1F9TXXTlu8I/LfquAVv++SGRAjA7nNZwwj6bY1z2t+d+orqjIbLAR/IcQ3HsEV8seEYtowrqnOrd1YfX3KtSZzfkF4W2U6YoF4AqOGUxIsev86foN6rMc8HgBkSAABghgQAAJghAQAAZkgAAIAZEgAAYIYEAACYIQEAAGZIAACAGRIAAGCGBAAAmCEBAABmSAAAgBkSAABghgQAAJihI6YuYElPqy6euggAZumYqQtYxp6pC6jOr06YuggAWKMLqhtMWYARAADMkAAAADMkAADADAkAADBDAgAAzJAAAAAztAkB4HNTFwAAa/bZqQvYhADw0akLAIA1++jUBWxCAPjjqQsAgDWb/Ni3CWcCvHH1wer4qQsBgDW4oDqlOm/KIjahA/Av1ZOnLgIA1uRJTXzwrzp86gL2eld1UXW/NqMrAQBju6J6avXsqQupzQkAVW+p3lidXt1y4loAYExvrx5ZvXjqQvbZ1Hfbp1b3rG7awccUP1ldb8H7+Zmm/xri41s88Dyr+viItSzi+6vTFrztb1XvH7GWRZxZ3X3B2768eseItXDo7t7wHC7iHQ3P4ZROa/gdWsT7G36HpnTLhr9hi/jn6ldGrGUR12s4hizicw3HkAO5ovpk9bbqAwveDwfw8erKBbebT1Dv/t7Z4vV/9QT17u/VLV7/Ayeod3+/0eL1P26Cerm6x7X48/cbE9S7vwe2eP2vnqDe/d21xet/5wT17u/mLV7/1G++lrYJHwIEANZMAACAGRIAAGCGBAAAmCEBAABmSAAAgBkSAABghgQAAJghAQAAZkgAAIAZEgAAYIYEAACYIQEAAGZIAACAGRIAAGCGBAAAmCEBAABmSAAAgBkSAABghgQAAJghAQAAZkgAAIAZEgAAYIYEAACYIQEAAGZIAACAGRIAAGCGBAAAmCEBAABmSAAAgBkSAABghgQAAJghAQAAZkgAAIAZEgAAYIYEAACYIQEAAGZIAACAGRIAAGCGBAAAmCEBAABmSAAAgBkSAABghgQAAJghAQAAZkgAAIAZEgAAYIaOmLoAYG2uU51a3ag6vrpudWX1heqz1XnV3+/9Z2CXEwBgdzq8umt13+o+1Z2rW+3wtv9Qvbd6/d7tr6rLxy8RmJIAALvL6dWjqsdUN11wjVvv3b517z9/pnpZ9YLqzUvWB2wInwGA7XdYdWb1zuo91VNb/OB/TW5YnVW9qXpH9V352wFbzy8xbLcHNxz0X9bQ8l+1u1WvqN5dPWgN9wesiAAA2+mk6qXVK6s7TnD/p1d/VL2qus0E9w8sSQCA7fPI6n3VQ6cupPq2hm7Aw6cuBDg0AgBsj2Or5zV8GO+6E9dyVderXlT9enXMxLUAOyQAwHY4oXpN9dipCzmAs6o/bTjHALDhBADYfDer3lB949SF7MC9qz9vqBnYYAIAbLbjG95VnzF1IYfgq6rXVTeYuhDg2gkAsLmObfik/VdOXcgC7lz9cXXc1IUA10wAgM31vOpeUxexhHtWz526COCaCQCwmc6qHjZ1ESN4VPX9UxcBfDkBADbPnapfnrqIEf1qddrURQBX52JAsFn2VM9umP+vwkXV31UfrS7c+++uX9224SC9ivs9rvq16v4rWBtYkAAAm+WRDV+lG9O51YsbzuH/l9Wl1/JzR1X3qB7ScGa/E0es4X4NI42XjLgmsAQjANgcR1fPGHG9T1b/vuFc/T/ccCnfazv4V13ScMW/J1cnVz9UfWrEep7REDKADSAAwOZ4THWLkdb6rYaLBD23+tICt/9SwyjiDtXvjFTTravvG2ktYEkCAGyGI6qnjLDOpQ2nC35sdcEI653fEEx+oLpshPV+rDp8hHWAJQkAsBm+pfqKJde4tDqz4d3/2J63d+0DjRB24nbVNy9fDrAsAQA2wxit8cdWrxphnWvzhw2dgGUZA8AGEABgesdXD15yjV+tXjhCLQfz/Oo5S67xHQ1fPQQmJADA9O5XHbPE7f+hYba+Lj/ScB6BRR1b3WeUSoCFCQAwvfsuefsfqb4wRiE79MXqJ5Zc435jFAIsTgCA6S0TAN5fvXysQg7BS6sPLHH7ZUMPsCQBAKZ1dMN37Rf1vOqKkWo5FJe33LcN7piTAsGkBACY1ikt97343xurkDXf9xENXwkEJiIAwLSWuUreh1vuw3jL+mD1sSVu7wqBMCEBAKZ1syVu+67RqljcMjUss+/AkgQAmNb1lrjth0erYnEfWuK2zgUAExIAYFrLBIAxzvW/rGVquO5oVQCHTACAaR29xG0vHq2KxV20xG2PHa0K4JAJAAAwQwIAAMyQAAAAMyQAAMAMCQAAMEMCAADMkAAAADMkAADADAkAADBDAgAAzJAAAAAzJAAAwAwJAAAwQwIAAMyQAAAAMyQAAMAMCQAAMEMCAADMkAAAADMkAADADAkAADBDAgAAzJAAAAAzJAAAwAwJAAAwQwIAAMyQAAAAMyQAAMAMCQAAMEMCAADMkAAAADMkAADADAkAADBDAgAAzJAAAAAzJAAAwAwJAAAwQwIAAMyQAAAAMyQAAMAMCQAAMEMCAADMkAAAADMkAADADAkAADBDAgAAzJAAAAAzJAAAwAwJAAAwQwIAAMyQAAAAMyQAAMAMCQAAMEMCAADMkAAAADMkAADADAkAADBDAgAAzJAAAAAzJAAAwAwJAAAwQwIAAMyQAAAAM3TE1AUcwM2rm1aHH+TnjlziPs6obrHE7cdw3BK3vWPTh7jjl7jtKdXXjFXIgm68xG1Pbvn6b7bEbW85wv0v65ZL3PZmLV//yUvc9sYj3P+yTlnitsc3ff13WOK2xzV9/cv8/h/Zweu/rPpU9Ykl7mdl9kxdwH5uUP1o9Yjq1hPXAgBj+Fj1wuqZ1QUT1/L/bVIAuFf18urEqQsBgBU4tzqzesvUhdTmBICvrt5UXWfqQgBghS6q7l29Y+pCNiEAHFn9bcvNwgBgW/x9defq0imLmPoDZDXM+x38AZiLU6uHTV3EJgSAh0xdAACs2eTHvk0IAHeaugAAWLPJj32bEABuOHUBALBmy5yDYBSbEAA24YOIALBOkx/7NiEAAABrJgAAwAwJAAAwQwIAAMyQAAAAM7TJlwPeiXdVl09dBACzdHj1VVMXsc3Or65ccDthgnoBoIZL2C96/Dp/gnqvxggAAGZIAACAGRIAAGCGBAAAmCEBAABmSAAAgBkSAABghgQAAJghAQAAZkgAAIAZEgAAYIYEAACYIQEAAGZIAACAGRIAAGCGjljh2sdWJ1aHH+Tnlgkht6kuPMB/v7L6VPWFJe5jUUc37P+RE9w3AKt3/BK3Paz6ioP8zOUNx7CLlrifa7Vn5PWuUz2henh155HXXsaHq9+tfrE6b4X3c1T1A9Vjqrs1/uMLwPz8TfXi6lca8Q3tmAeou1evqE4acc2xnd8QTv50BWvfrnpldfoK1gaAf6weUp0zxmJjBYCvqt7c0AHYdJdVD6peO+KaJ1Vvr24+4poAsL/PV99QvXvZhcYIAEdW76lOHWGtdTmvOqW6YKT1/nf1TSOtBQAH8nfVXRre0C5sjG8BPLLtOvhX3ah60khr3ScHfwDW5w7VI5ZdZIwA8N0jrDGFsere1v0HYHstfewZIwCcMcIaU7hj43xFb1v3H4DtdZdlFxgjANxwhDWmcFh1vRHWGWMNADgUN1l2gTECwLaeTfDihq8FLutTI6wBAIdi6WPvth68x/CWhjMFLuutI6wBAGs15wDw/JHWeVFLfhUDANZtrgHgndULR1rrg9WvjbQWAKzFHAPAP1VnNlxkYSxPaTgZEABshbkFgNdWX1t9bOR1L6keWD0r4wAAtsAYpwK+qDpmwdt+pHE+iHdtrqjOrf664WqAb1zhfe1zasPZEe/VcG2Ao9ZwnwBsnz3VbRe87ZeqY0esZSEXNRzEF9kWDQ4AsO2OafHj50XL3vncRgAAQAIAAMySAAAAMyQAAMAMCQAAMEMCAADMkAAAADMkAADADAkAADBDAgAAzJAAAAAzJAAAwAwJAAAwQwIAAMyQAAAAM3TEQf77CdWeg/zMwf77wda/eInbA8C2OnqJ2+6pbnCQn7myuuBAC+xfzFnVw6q7LlkcADCti6t3Vi+p/mdXedN91QBwRvWK6nZrLQ0AWIcPVg+p/qb+NQDcuXpLdf2JigIAVu/C6uur9+6pjmxIA6dNWhIAsA7vq844vHpM9dhpawEA1uQm1UcOr36uOmXiYgCA9Tl6T3VudeLUlQAAa/PJPQ1fCThq6koAgLW5+LDq01NXAQCs1acPq942dRUAwFq99bDqhVNXAQCs1Yv2NJwM6I3VvSYuBgBYvTdU9913JsCbV39RnTxdPQDAin204UyAn9h3OeBPVPes/myqigCAlXpdw7H+E3XNl/J9QMPVAO9e3bSDXzIYANg8lzWc6+ftDVcD9CYfAAAAAAAAAAAAAAAAAAAAAAAAAAAAAAAAAAAAAAAAAAAAAAAAAAAAAAAAAAAAAAAAAAAAAAAAAAAAAAAAAAAAAAAAAAAAAGCm/h+o1d3C8ELIUgAAAABJRU5ErkJggg==;" vertex="1" parent="ItPSY5wFcEl1Enw_Cite-2">
          <mxGeometry x="80" width="42" height="42" as="geometry" />
        </mxCell>
        <mxCell id="ItPSY5wFcEl1Enw_Cite-12" value="&lt;font style=&quot;font-size: 17px&quot;&gt;Banks&lt;/font&gt;" style="text;html=1;strokeColor=none;fillColor=none;align=center;verticalAlign=middle;whiteSpace=wrap;rounded=0;" vertex="1" parent="BW0WCOpWz5mmY5giLXIh-1">
          <mxGeometry y="120" width="104" height="30" as="geometry" />
        </mxCell>
        <mxCell id="BW0WCOpWz5mmY5giLXIh-2" value="" style="group" vertex="1" connectable="0" parent="79kG9cvK04CvXiZlhBy5-1">
          <mxGeometry x="120" y="280" width="132" height="147" as="geometry" />
        </mxCell>
        <mxCell id="ItPSY5wFcEl1Enw_Cite-10" value="" style="group" vertex="1" connectable="0" parent="BW0WCOpWz5mmY5giLXIh-2">
          <mxGeometry x="10" width="122" height="117" as="geometry" />
        </mxCell>
        <mxCell id="ItPSY5wFcEl1Enw_Cite-3" value="" style="shape=image;verticalLabelPosition=bottom;labelBackgroundColor=default;verticalAlign=top;aspect=fixed;imageAspect=0;image=data:image/png,iVBORw0KGgoAAAANSUhEUgAAAgAAAAIACAYAAAD0eNT6AAAABHNCSVQICAgIfAhkiAAAAAlwSFlzAAAN1wAADdcBQiibeAAAABl0RVh0U29mdHdhcmUAd3d3Lmlua3NjYXBlLm9yZ5vuPBoAACAASURBVHic7N15tF1Vlff970xCgAABQUB6sEITaZJAEgJIU0gnakQey1fhLaFQFJHC4rEBRTGFPCWgoKJ0BYLw8igiSCcoatGFAIEECAiIgkaQQGikCQQIJPP9Y+2E5Obm5t5z9tzr7LN/nzHOUMg5a84w9jhznrXXXsvcHakfM1sf2B4YA2wErFG83rHY/18DGJIrRxGpvfnAi4u9Xljs/z8J3Avc6+6PZ8tQWmZqADqfmb0D2Iu3C/4YYJ2sSYmIvO15imYAuAf4vbs/lzclWR41AB3KzNYCDgA+CrwPWCFvRiIi/TYfuBm4HLjS3WfnTUd6owaggxS/9D9GKvp7oOl7Eam/BcBkUjPwc3d/NnM+UlAD0AHMbD3gi8BngVUzpyMiEuU14MfAd7RuID81ABmZ2WbAV4B/A1bMnI6ISFXeBP4vcLK7P5I7maZSA5CBmY0Avgl8AhicOR0RkVwWAL8EJrn7g7mTaRo1ABUysyHAl4ETgJUypyMi0ineBE4BTnL3N3In0xRqACpiZuOA84BRuXMREelQjwCHu/vk3Ik0waDcCXQ7M1vFzE4H7kDFX0SkL1sCt5jZOWa2eu5kup1mAAKZ2SjgSmCz3LmIiNTMLOCj7n5H7kS6lWYAgpjZRGAKKv4iIq1YH7jJzA7KnUi3UgMQwMy+TPrlv0ruXEREamxF4P+a2YlmZrmT6Ta6BVAiM1sBOAc4LHcuIiJd5jLgUHd/LXci3UINQEnMbDXgWmD33LmIiHSpu4H3u/vzuRPpBmoASmBmKwG/Ju3fLyIice4G3ufuc3InUndaA9CmYnOfn6PiLyJShXHA1Wam7dPbpAagDcWilAuAiblzERFpkH8Gfl78AJMWqQFozw+Af82dhIhIA30Y+LGeDmidGoAWmdnxwL/nzkNEpME+CZyaO4m60iLAFpjZbsBNqIESEekEH3L3X+VOom7UAAyQma0BzAA2zp3LYt4A/gA8AMwG/gG8ULzeypiXiNTbEGANYM3itS6wLbANaZOeTvEssJ27P507kTpRAzBAZvZz4GOZ03gT+D1wBTAV+KO7q9CLSCWKxXdbATsCBwJ7AytkTQpuIO0RoKLWT2oABsDMDgUuzJjCZOAnwJXu/kLGPEREFilmRg8ADiHvI9HHuPv3M8avFTUA/WRmI4B7gVUzhL8O+La7T8kQW0Sk38xsJ+BrwAczhH8D2NHdZ2SIXTtqAPqheMxkMrBLxaEnA/+ui1lE6qY4Dv0MYLeKQ98P7KDbosunVez982mqLf4vA0cCu6v4i0gdFd9dewCfBV6qMPR2wDEVxqstzQAsh5mtA/wReEdFIW8CPunuf68onohIKDNbn7R+ap+KQs4F3uPuf6soXi1pBmD5Tqe64v/fwL4q/iLSTdx9FrA/8MOKQg4DzqwoVm1pBqAPZvY+0uN20eYDX9LqVRHpdmb2OdLagCr28f+ou19RQZxaUgOwDMVJUw8AmweHWgD8v+7+s+A4IiIdwcz+F+kU1cHBoZ4ERuro4N7pFsCyfY344g9plb+Kv4g0RvGr/LMVhNoAOKmCOLWkGYBemNmWpEdJhgaHOsHdvxUcQ0SkI5nZl4k/zGcBaW+AacFxakcNQC/M7Cbid7P6ubt/PDiGiEhHM7OfkHYQjHQPMN7d5wfHqRXdAujBzKrYyvJx4IjgGCIidfDvwGPBMbYHjgqOUTuaAViMma1Feub/nYFhFgB7uPvkwBgiIrVhZjsCtxH7ZMAc0oLAJwNj1IpmAJZ0KrHFH+A7Kv4iIm9z96nA/wkOsxrp8UMpaAagYGa7ATcDFhjmL8A27v5aYAwRkdoxs6GkxddbBoea6O7XBseoBTUALLrw7gNGBofaz91vCI4hIlJLZrYHaTv0SI+Ttgl+NThOx9MtgOTLxBf/n6v4i4gsm7vfDFwUHGZjYFJwjFpo/AyAmf0T8AdgpcAwLwFbufvTgTFERGrPzN5JWoy9VmCYt0hHBt8fGKPjaQYAziK2+AN8VcVfRGT53P050qxspCHAuWbW6BrY6L+8mX2C+OMppwLnBscQEekmPwFuDY4xgWq2I+5Yjb0FYGZrkKaZ1g0M8xYw1t1nBMYQEek6ZjaStDg7ckv2Rt+ebfIMwLeJLf4A31fxFxEZOHd/mPhzAlYHvhcco2M1cgbAzCYAtxP7zL8eNRERaYOZrUQ6ln1EcKh93f23wTE6TuNmAMxsCOmefGTxBzhKxV9EpHXu/jpwZAWhziqajUZpXAMAHANsFxzjl9ppSkSkfe7+O+CnwWH+CfhGcIyO06hbAGa2CfAgsEpgGB04ISJSIjNbl7Roe43AMG8Co939ocAYHaVpMwA/Irb4A3xDxV9EpDzuPhs4LjjMCsA5ZhZ9e7hjNGYGwMwOBK4IDjMd2NHd5wfHERFplKIwTwF2Cg71KXe/IDhGR2hEA2BmqwEPAxsEhlkAjHf36YExREQay8y2Be4h7eQX5R/AlsWOhF2tKbcATiK2+AP8SMVfRCSOuz8AnB4cZk3gtOAYHaHrZwDMbAfSdryDA8M8SVr4NycwhohI45nZMNJi7k2DQ+3p7tFHE2fV1TMAZjaY9Mx/ZPEH+IKKv4hIPHefCxxVQaizzSxyG+LsuroBAD4P7BAc41fuHr24UERECu5+HXB5cJgtiX/yIKuuvQVgZhuQFv6tFhhmLmm7378FxhARkR7MbH3Sd/zwwDBvANu6+58DY2TTzTMAZxBb/AEmqfiLiFTP3WcBXw8OsyJwdnCMbLpyBsDMPghEb8V7P7CDu78VHEdERHphZoNIi7zHBof6V3e/JDhG5bquAShWiD4EbBIYxoGd3f3OwBgiIrIcZrY9cBexi72fAbZy9xcCY1SuG28BTCK2+AOcq+IvIpKfu98D/DA4zDrAKcExKtdVMwBmth1pO97IXaKeJj3z/2JgDBER6SczW5W0IHDDwDAO7OruUwJjVKprZgCKfaLPJbb4Axyj4i8i0jnc/RXg34PDGOmwoBWC41SmaxoA4LPAhOAYv3X3S4NjiIjIALn7VcA1wWG2Ab4YHKMyXXELoKKzol8HtnH3xwJjiIhIi8xsY9Ii8Mhj318Dtnb3vwbGqES3zAB8j9jiD/AtFX8Rkc7l7o8DJwSHWRk4MzhGJWo/A2Bm+wA3BId5CBjt7m8GxxERkTYUZ8BMA0YHh/qYu/8iOEaoWjcAZrYS8AfgnwLDOLC7u08OjCEiIiUxs/HAHcTOcj9F2hvg5cAYoep+C+DrxBZ/gAtV/EVE6sPd7wLOCQ6zHvBfwTFC1XYGwMxGAvcBkcc1Pkvq8P4RGENEREpmZquT9gZYLzDMAmCCu98dGCNMLWcAimf+zyG2+AN8ScVfRKR+3P0l4D+CwwwCzi3WHdROLRsA4FBgt+AYN7n7xcExREQkiLtfBvwmOMwY4OjgGCFqdwvAzN5JeuZ/rcAwbwCj3P2RwBgiIhLMzDYDHiQ9vhflFeA97v5EYIzS1XEG4LvEFn+Ak1X8RUTqr9iw58TgMKsSfyBR6Wo1A2BmewA3BYf5E7Cdu78RHEdERCpQ7N9/L7B1cKgD3P3q4BilqU0DYGZDgRnAVsGh3ufuNwbHEBGRCpnZLsBk0qE+UZ4g3Qp4JTBGaep0C+BY4ov//6fiLyLSfYpjfM8PDrMR8J/BMUpTixkAM9scuB9YKTDMP0jP/D8bGENERDIxs3eQFpGvExhmPjDW3e8LjFGKuswAnEVs8Qc4VsVfRKR7ufsLxB/nO5i0N0DH19eOT9DMDgb2Cg5zG/Dj4BgiIpKZu18C/E9wmPHA54JjtK2jbwFUNF3zJjDG3R8MjCEiIh2iuK38ALBiYJiXSbeVnwqM0ZZOnwE4mdjiD/BdFX8RkeZw9z8Tf5DPcOD7wTHa0rEzAGa2M2lqPvKRjb8A27j7a4ExRESkwxSPlt8PbBkcan93/3VwjJZ05AyAmQ0BziW2+AN8XsVfRKR53H0ecEQFoc40s8htiFvWkQ0AaZXmNsExfu7u0YdEiIhIh3L3m4GLgsNsBpwQHKMlHXcLwMw2JR3cMCwwzEukxRlPB8YQEZEOV9EBcx252LwTZwDOJLb4A3xNxV9ERNz9OeArwWFWIO0NEH1be0A6agbAzP4FuCw4zFRgZ3dfEBxHRERqoCjMNwO7BYf6jLufFxyj3zqmATCz4cDDwPqBYd4ibdE4IzCGiIjUjJmNBO4DhgaGeYF0+/mZwBj91km3AP4PscUf4Acq/iIi0pO7Pwx8JzjMO4DTgmP0W0fMAJjZOOBOYhuSx0nHNL4aGENERGrKzFYC/gD8U3Covdw9ejvi5co+A2Bmg0nP/EfncpSKv4iILIu7vw4cWUGos80schvifsneAABHA2OCY1zp7tcGxxARkZpz998CPwsOsznwteAYy5X1FoCZbUha+LdqYJg5pKn/vwfGEBGRLmFm65L2BlgjMMwbwCh3fyQwRp9yzwD8kNjiD/ANFX8REekvd58NHBccZkXg7OAYfco2A2BmE4Grg8PcA4x39/nBcUREpIsUewNMAXYKDnWIu18cHKNXWRoAM1sFeAjYODDMAmBHd58WGENERLqUmW1L+iE5JDDMs6S9Af4RGKNXuW4BnEhs8Qc4U8VfRERa5e4PAN8LDrM28fsP9KryGQAzGw1MAwYHhnkSGOnucwJjiIhIlzOzYaQZ600Cwziwu7tPDoyxlEpnAMxsEOmZ/8jiD/AFFX8REWmXu88FPh8cxoBzzGyF4DhLqPoWwBHA+OAY17n7FcExRESkIdz9OiC6rrwH+HJwjCVUdgvAzNYjPfO/emCYuaRn/v8WGENERBrGzNYn7Q2wWmCY14Bt3P0vgTEWqXIG4HvEFn+ASSr+IiJSNnefBRwfHGZl4KzgGItUMgNgZvsBvw4Ocz+wg7u/FRxHREQaqFjHNhUYGxzqE+5+aXCM+AbAzFYmna707sAwDuzs7ncGxhARkYYzs+2Bu4hdzP40aW+AlwJjVHIL4BvEFn+Ac1X8RUQkmrvfQ9rGPtK7gG8Hx4idATCzrYF7gchHG2YDWwFvAhsUr7XJf86BiIh0hwWkHfueBGYV/+5hYMPgmDu7+9SoAGENQLGP8q3Ae0MCvO0V0n+o4cFxREREAF4mPbsf+UQAwAxgbNTatshfyZ8ivvhDOk1QxV9ERKoynPjiDzAK+I+owUNmAMxsbdLzkmuWPriIiEhzvEra3+bxsgeOmgE4DRV/ERGRdq0C/Chi4NJnAMxsT+B/Sh1URESk2Q509yvLHLDUBsDMViRtyLNFaYOKiIjI30m3Ako76K7sWwBfRcVfRESkbBsC3ypzwNJmAMxsC9Kv/xVLGVBEREQWNx8YX2xG1LYyZwDORsVfREQkymDg3OJMgraVMoiZ/SuwZxljiYiIyDKNBT5fxkBt3wIwszVJz/yvXUZCIiIi0qc5pMOCZi33nX0oYwbgVFT8RUREqrIacEa7g7Q1A2Bm7yXt92/tJiIiIiID8kF3v67VD7fcAJjZCqST/rZuNbiIiIi0bCawtbvPbeXD7dwC+BIq/iIiIrlsCnyz1Q+3NANgZu8G/gCs3GpgERERadtbwPbu/sBAP9jqDMCZqPiLiIjkNoS0N8CA1+INuAEws/8H2G+gnxMREZEQOwGfGeiHBnQLwMxWJz3z/66BBhIREZEwL5L2Bpjd3w8MdAbgv1DxFxER6TRrAKcP5AP9ngEwsx2B2yn/BEEREREpxz7u/rv+vLFfDYCZDQGmAaPaTKws84HbgBnAU728nveyjjkUEZFGKxbYrQWs18trFPBe0kE9neBRYFt3f315b+xvA/BF4LslJNaOucBvgauAX7n785nzERERwczWAj4EHADsQ/6n5E5y928s703LbQDMbGPgIWCVkhIbqOuBc4HfuftrmXIQERFZLjMbRmoCPlf8bw7zgFHu/se+3tSfBuBC4NDy8uq36cCX3f2mDLFFRETaYmZ7kQ7MG5Mh/C/d/X/19YY+GwAzG0H69b9CyYn1ZSZwPPAz3ccXEZE6K9YPHAycBGxSYei3gJHu/uiy3rC8Ff3/RXXFfz7wddJzjD9V8RcRkbrz5BJgS1KNm19R6CGkpmOZljkDYGbjgakBSfXmReDj7n5DRfFEREQqZ2b7ApeSntuP5sBYd7+ntz/sawbglJh8lvIIsKOKv4iIdLui1u1Iqn3RDPj2sv6w1wbAzPYH9ghKaHE3ABPc/U8VxBIREcmuqHkTSDUw2j5mtmdvf7DULQAzGwTcB2wbnNTFwGHuXtX9EBERkY5hZoOBC4BPBoe6293H9/yXvc0ATCS++E8BDlfxFxGRpipq4OGkmhhpnJlN7Pkve2sADgtO5HHgQHefFxxHRESkoxW18EBSbYz06Z7/YolbAGb2LuAJ0uMDEeYCu7j7fUHji4iI1I6ZjSbNBAwLCvEWsIG7P7PwX/ScAfhX4oq/A4eo+IuIiCypqI2HkGplhCGkDYkW6dkA/FtQYIAfu/vlgeOLiIjUVlEjfxwY4tDF/2HRLQAz2xG4MyjoXGCEuz8VNL6IiEjtmdl6pCN9o24FjFk4E7/4DEDk4r/TVPxFRET6VtTK0wJDHLrw/yw+A/A0sG5AsNmkX/+vBIwtIiLSVcxsVdIsQERNftLdN4RiBsDM3h0UCGCSir+IiEj/FDVzUtDwG5jZxvD2LYCdggL9FTg/aGwREZFudT6phkbYCeIbgMvd/a2gsUVERLpSUTt/GTT8BHj7mf+oBuDqoHHDmNlwYANg/R6vdYGXgFm9vJ7xZZ2rLFJTZrYasD0wFhgDrJo3I5F+eQW4F5gG3OPuczLn046rgS8GjLsTpKMCh5EKW9kbAD0DrOfuC0oet3Rmth1wQPEa08IQTwHXAFcBN2qbY6kzM9sWOIf0K6GvI8NFOt0C0uPtR7j7A7mTGajisKDZwFolDz0PGG7A7sDNJQ8OaeOfpfYe7hRmtivwEVLR36zEoecAvyY1A9e4+6slji0SxsyGAMcCJwBDM6cjUqZ5wInAKXW7LW1mFxFzWuDOg2jtF29/XBU0blvMbGczuw24FTiGcos/wGrAx4CfAo+Z2RHFF6tIxyoeO7odOAkVf+k+Q0nX9u3FtV4n1wSNu8MgYO2AgecBvw8Yt2VmNtLMriQdtrBLRWHXBc4GHjSzAyuKKdKKU4FxuZMQCTaOdK3XyQ2kWxllW3cQ5d9bAHjK3V8PGHfAzGwdMzsPeIA03Z/DFsAVZna7mU3IlINIr8xsT+CI3HmIVOSI4pqvhWJPgGeW+8aBWyusAQgYc8DMbAwwnXQO8uDM6UBaeTnZzI7MnYgIgJmtAlxAWhAs0gQGXFBc+3UxK2DM7m0Aiin324ANc+fSwxDgTDM7S2sDpAPsDmySOwmRim1CuvbrIqIBeOcgYM2AgZ8OGLPfzOx44HLiTlMqw+eAG8ws4r+/SH+NzZ2ASCZ1uvY1A7A8ZjbEzC4hrfasw5TmnsBUM9s8dyLSWHX6EhQpU52ufTUA/XAGcHCm2K0aAVyvmQDJpE5fgiJlqtO1H9YArBwwcOWn/5nZUaRp9ToaAfxCawJERKQXEdsZr9wV23ya2d7A93Pn0aY9gR/kTkIaZ1ruBEQyafy1X/sGwMy2BC6jMx7za9eRZlbXWQypp8Z/CUpjNf7ar3UDYGYrkrZJXCN3LiU6w8zG505CGqPxX4LSWI2/9mvdAACfJ+2y102GAKfnTkIa4xZgZu4kRCo2k3TtN1ptGwAzWx04PnceQXYxs1zbFkuDFKdVHgZ47lxEKuLAYTqptcYNAHAcMZsYdYpv66kAqYK73wT8KHceIhX5UXHNN14tGwAz2wD4Qu48gm0FfCp3EtIYx5FOyhTpZlNI17pQ0wYAmETM/gWdZlLNDqyQmnL3ucBuwJeAjjjJU6REbwBfAXYrrnWhhg1AURDrtttfq94FTMydhDSDuy9w99OA0cCNwJuZUxJp11ukxX7bu/t33H1B7oQ6SR3vMe9L9b/+nwTuBzYCRlLtngMTgZ9VGE8azt0fAd5XPGY7mrRl6hhg1ayJifTPK8C9pMf8Zri7ZrSWoY4NQBWr4+cDZwG/A+5290WnG5rZMNKX4XjSdOn6wbm838xWcHf9GpNKufsbwNTiJSJdpla3AIpV8R8IDvMgMMHdj3b3axcv/pDulbr7FHf/HrA1cHFwPqsDewTHEBGRhqlVA0BapBT56N+pwA7u3q8dotz9RXc/hDRN/1xgXloHICIipapbA/DhwLEvcfdji2nPAXH3a4FDy09pETUAIiJSqro1AKOCxp0FHN3OAO5+HXBhOeksZWMz66bzDkREJLO6NQBRC+4Od/cXShjnGOCJEsbpTfRiQxERaRA1AHCnu19fxkDu/hJwWhlj9UINgIiIlKY2DYCZDQcidsW7u8PHW0gNgIiIlKY2DQBxBbDsM6HvJe0jUDY1ACIiUho1ACU3AO7+GvBQmWMW1ACIiEhp6tQADA8a9+81GTPq7y8iIg1UpwZgdtC4EY8WRoz5TMCYIiLSUHVqAJ4MGndsmYOZ2XrETNc/FTCmiIg0VJ0agKcBDxi31AYgYLyF1ACIiEhpatMAuPs8Yvbb37U49rQse5c41uLUAIiISGlq0wAUZgWMuRHwn2UMZGZjgSPLGKsXTy//LSIiIv1TtwYgYnU9wJfMbMd2BihmEX4CDC4lo6VFND8iItJQdWsAbg4adzDwEzNbuY0xTgS2Limfnqa7+5ygsUVEpIHq1gBcFTj2VsA9A50JMLM1zewS4CsxaQGxf28REWmgWjUA7v4oMbvsLbQVMMXMTu7PwkAzmwg8CBwcmBPA1cHji4hIwwzJnUALrgLeEzj+YOBY4CAzm0w63GcacD9pweDY4jW+eEX7i7s/UEEcERFpkLo2AF+rIM5GwEHFKydN/0vlzOzdwG7ADsD2wGhgWNakRPpnLnAfcA8wHbjV3f+SN6XOVMcGYBrpaYANcydSkStzJyDNYWZDgOOAE4AVMqcj0ophwM7FC+BNMzsRONnd38qXVuep1RoAAHd34JTceVRksrvfljsJaQYzGwncDnwLFX/pHiuQrunbi2tcCrVrAArnAo/mTqICX86dgDRD8cU4HRiXOxeRIOOA6WoC3lbLBsDd36SadQA5XebuU3MnId3PzAYDFwHt7IMhUgcrAxcV13zj1bIBAHD3XwB35c4jSBMaHOkcx6Jf/tIc40jXfOPVtgEoRG6+k9NZ7v5Y7iSk+5nZJsA3c+chUrFvFtd+o9W6AXD3W4Af586jZI8Bk3InIY3xXmBo7iREKjaUdO03Wq0bgMKRQLeslH8Z+JC7v5g7EWmMsbkTEMmk8dd+7RsAd58HHAjMzJxKuxYAB7n7w7kTkUZp/JegNFbjr/2oBsCCxu2Vuz8LTAReqTJuyb7q7tflTkIaZ7vcCYhkUqdrP6SmDgIijpldK2DMPhX75R9M+iVdN5e4+6m5k5BGeiJ3AiKZ1Onaj6ipcwYBEfeb1wsYc7nc/RrgI9RrJuBM4N9yJyGNNS13AiKZ1Onaj6ipL3ZVAwCLmoCd6fw1AW8CR7j7UdqfWjKq05egSJnqdO2rAeiv4nbAeGByzjz68Bywl7ufmzsRabxu3UxLZHnqdO2rARiIYmHgXsB5uXPpYQYwzt1vzZ2IiLvfBVydOw+Ril1dXPt1oQZgoNx9nrt/BtgVuDNzOrOBzwFj3X1m5lxEFvdZ4PncSYhU5HnSNV8nYQ1AxErItc1s/YBxW+Lut7n7TsBHgT9XHH4u6SjKEe5+ju73S6dx99mkDbVEmuDI4pqvhaKWrh0w9BODSFPSZTPSc/kdxd2vALYGjgL+HhzuNdLthxHufoK71+nJBGkYd78M+ALpuhXpRq8B/1Fc63UykZh9AGYYsAXwSMDgN7j7fgHjlsLMDNgB+HDx2raEYZ8BfgVcA/zO3eeWMKZIZcxsc+BCYJfcuYiU6E7gUHePqHWhzOw3wL4BQ29ppM2AXgZWKXnwecDa7v5yyeOGMLPNSJ3W7sAGwPrAu4AhvbzdSfeRZhWv+0hFf6q713EjIpFFzGwQ8Clgb9LRqZtmTUikNTNJj/r9D3Ceu8/Pm87Amdlw4FnKP7DrVWC4uTtmdgcwoeQAAJ9w90sDxq1E8UW4NqkZWBd4iVTwnyrOIBDpema2FjAGWDV3LiL98Apwn7s/lzuRdpnZx4GfBQx9p7vvtPDX7QxiGoADgNo2AMWv+dnFS6SR3P154Pe58xBpoAOCxp0Bbx8GNDUoyMROehpARESkDoraGbWYfiq83QBcR8whOisDJwaMKyIi0s1OJNXQsi0g1XzM3QEws9uIWfk7Hxjl7g8GjC0iItJVzGxr0jT94IDhp7j7e+HtGQCI2w50MHBK0NgiIiLd5hRiij8sVusXnwHYHPhTUECAPdz9lsDxRUREas3MdgduDgyxhbv/GRZrAIrADwEjg4LeA+ykx+dERESWZmZDgTuA7YNCPOzu71n4D4N6/GHE84YLbQ+cGTi+iIhInZ1JXPGHHjW+5wzAO4HHiVl5uNAX3P2MwPFFRERqxcyOBn4QGOI1YOPFN0haYgag+IOLAxMAON3M9gqOISIiUgtFTTw9OMzFPXdHXGIGoEhkS+BhYk4fWugFYLy7PxoYQ0REpKOZ2QjgLuAdgWEcGNnzMKSeawAo3nBtYCKQ/qK/Lv7iIiIijVPUwF8TW/wBru3tJMSlGoDCacHJAIwA7tLtABERaZqi9t1FqoXReq3pvTYA7n4rcH1oOsk7gN8Uix9ERES6XlHzfkP8L3+A64uavnQePdcALPqDNDXxB2DFwMQWdz7wee0TICIi3ah4zv9M4NMVhXwD2GZZ6+2WdQuA4gPfjcqqF58G7jCzPSqMKSIiEq6obXdQXfEH+G5fi+2XOQMAYGbDSE8EbByQWF+uB45z9wcqjisiIlIaM9sWOBnYv+LQj5NW/s9d1huWjvVujwAAIABJREFUOQMAUHzwf5edVT/sD9xnZhea2YYZ4ouIiLTMzDY0swuB+6i++AN8sa/iD8uZAVj0JrNfAB8tK6sBep30mMRVwK/c/R+Z8hAREVkmM1sT+CBwAPB+YKVMqVzu7v+yvDf1twFYDZgGbFFCYu2YD0wmNQNXu/vMvOmIiEiTmdmmwIdJRX9X4o7x7a8/AWPdfc7y3tivBgAW3ce4ExjWXm6legmY1cvrWdLORyIiIu0yYG1g/V5eq2fMq6e5wIT+rp/rdwMAYGafBC5qMTERERGJc4i79/s8nz4XAfZUDHzegFMSERGRSOcNpPjDAGcAYNFGBlcD+w3ogyIiIhLhN8CHB7qR3oAbAAAzW5n0rP4eA/6wiIiIlOVmYH93f22gH2ypAQAws1WB3wI7tTSAiIiItOMOYB93f6WVD7fcAACY2RrAjcCYlgcRERGRgboX2NPdX2x1gAEtAuypCLwP6UhDERERiXcX6Zd/y8Uf2mwAANz9OWB34NJ2xxIREZE+XQrsXtTetrTdAAC4++vu/gngBLQBj4iISNkcOMHdP+Hur5cxYFtrAHod0OyjpM2COmnHQBERkbqaS9rk5/IyBy1lBqCHK0h79YuIiEj7rgJ+WfagpTYAZrYKqQE4qMxxRUREGuwg4JfF4/elKe0WgJltCFyDHgkUERGJcD/wIXd/vIzBSpkBMLNxpMcSVPxFRERibAfcbWY7lzFY2w2Ame0F3AKs1346IiIi0od1gBvNbP92B2p3J8BdSYcQaMW/iIhIdV4HPuDuN7Y6QDtnAYwDfg8MbzW4iIiItOxV0o6At7fy4VZPA9wOuAlYs5WgIiIiUoqXgPe5+/SBfnDADYCZbQ7cRroPISIiInk9D+zq7g8P5EMDagDMbBgwFdhmYLmJiIhIoIeB8QM5GnigTwGcg4q/iIhIpxkJ/PdAPtDvGQAz+wxwbgtJRZhPug0xA3iql9fzXvYhByIi0khmZsBapMfde75GAe8FBmdLcElHuvvZ/XljvxoAM9sBmAKs2GZi7ZgL/Ja0J/Kv3P35jLmIiIgAYGZrAR8CDgD2AVbOmM4bwC79WRS43Aag2N//AWCzcnIbsOtJMw+/c/fXMuUgIiKyXMVauX2AzxX/m8NfgW3d/dW+3tSfNQDfIE/xnw7s6e4fcPdrVPxFRKTTuftcd7/K3fcF9gbuzZDGZqTa3ac+ZwDMbAvSr/+h5eW1XDOB44Gf6T6+iIjUWbF+4GDgJGCTCkPPI80C/GlZb1jeDMAPqa74zwe+Dmzl7j9V8RcRkbrz5BJgS1KNm19R6KGkGr5My5wBMLOPAL8MSKo3LwIfd/cbKoonIiJSOTPbF7gUWKOikAe6+5W95tJbA2BmKwF/pJrpikeAiX1NU4iIiHSL4vb6NaRZgWh/I82sv97zD5Z1C+CTVFP8bwAmqPiLiEhTFDVvAqkGRtuEVNOXstQMQLFg4SFgq+CkLgYOc/eq7oeIiIh0DDMbDFzAMgp0iR4BRvZcW9fbDMAHiC/+U4DDVfxFRKSpihp4OKkmRtqSVNuX0FsD8MXgRB4nLUqYFxxHRESkoxW18EBSbYy0VG1f4hZAseXvtMAE5pK2KLwvMIaIiEitmNlo0kzAsMAwYxffIrjnDMBRgYEdOETFX0REZElFbTyEVCujLFHjF80AFIsRngHWDAp8vrsfHjS2iIhI7ZnZecCng4b/B7DOwvV3izcAewA3BQWdC4xw96eCxhcREak9M1sPeJS4WwH/7O43w5K3AA4ICgZwmoq/iIhI34paeVpgiEW1fvEZgL8CmwYEm0369f9KwNgiIiJdxcxWJc0CrBsw/Ex33wyKGQAzG0VM8QeYpOIvIiLSP0XNnBQ0/KZFzV90C2C/oEB/Bc4PGltERKRbnU+qoRH2g7cbgDFBQS5397eCxhYREelKRe2MOpF3DMCQ4h9GBwW5OmjcMGY2HNgAWL/Ha13gJWBWL69neu6xLFJ3ZrYasD0wlvSFsWrejET65RXgXtKmdve4+5zM+bTjamJ25x0NYKRHDeaw7JMBW/UMsJ67Lyh53NKZ2XaklZEH0NpsyFOkox2vAm7UNsdSZ2a2LXAO6bSysr8XRKq0ALgTOMLdH8idzEAV+/PMBtYqeegFwGoG7Ej6D1S2H7t71GYGbTOzXYGPkIr+ZiUOPQf4NakZuMbdXy1xbJEwZjYEOBY4ARiaOR2RMs0DTgROqdttaTO7iJjTAicMAkYFDAypAHYcM9vZzG4DbgWOodziD7Aa8DHgp8BjZnZE8cUq0rGKx45uB05CxV+6z1DStX17ca3XyTVB444aBGwbMPA84PcB47bMzEaa2ZWkwxZ2qSjsusDZwINmdmBFMUVacSowLncSIsHGka71OrmBNGVftm0HAe8MGPgpd389YNwBM7N1ir2VHyB2t8O+bAFcYWa3m9mETDmI9MrM9gSOyJ2HSEWOKK75Wij2BHgmYOh3DgLWCBi4I7b9NbMxwHTSwQqDM6cDsBMw2cyOzJ2ICICZrQJcQFoQLNIEBlxQXPt1MStgzDW6tgEoptxvAzbMnUsPQ4AzzewsrQ2QDrA7sEnuJEQqtgnp2q+LWjUATweM2W9mdjxwOXGnKZXhc8ANZhZ1/LJIf4zNnYBIJnW69mvVAGSZATCzIWZ2CWm1Zx2mNPcEpprZ5rkTkcaq05egSJnqdO2rAeiHM4CDM8Vu1Qjges0ESCZ1+hIUKVOdrv2wBmClgIErP/3PzI4iTavX0QjgF1oTICIivYjYznilrtjm08z2Br6fO4827Qn8IHcS0jjTcicgkknjr/3aNwBmtiVwGZ3xmF+7jjSzus5iSD01/ktQGqvx136tGwAzW5G0TWLEOoZczjCz8bmTkMZo/JegNFbjr/1aNwDA50m77HWTIcDpuZOQxrgFmJk7CZGKzSRd+41W2wbAzFYHjs+dR5BdzCzXtsXSIMVplYcBnjsXkYo4cJhOaq1xAwAcB3Tzo3Pf1lMBUgV3vwn4Ue48RCryo+Kab7xaNgBmtgHwhdx5BNsK+FTuJKQxjiOdlCnSzaaQrnWhpg0AMAlYOXcSFZhUswMrpKbcfS6wG/AloCNO8hQp0RvAV4DdimtdqGEDUBTEuu3216p3ARNzJyHN4O4L3P00YDRwI/Bm5pRE2vUWabHf9u7+HXdfkDuhTlLHe8z7Uv2v/yeB+4GNgJFUu+fAROBnFcaThnP3R4D3FY/ZjiZtmToGWDVrYiL98wpwL+kxvxnurhmtZahjA1DF6vj5wFnA74C73X3R6YZmNoz0ZTieNF26fnAu7zezFdxdv8akUu7+BjC1eIlIl6nVLYBiVfwHgsM8CExw96Pd/drFiz+ke6XuPsXdvwdsDVwcnM/qwB7BMUREpGFq1QCQFilFPvp3KrCDu/drhyh3f9HdDyFN0z8XmJfWAYiISKnq1gB8OHDsS9z92GLac0Dc/Vrg0PJTWkQNgIiIlKpuDcCooHFnAUe3M4C7XwdcWE46S9nYzLrpvAMREcmsbg1A1IK7w939hRLGOQZ4ooRxehO92FBERBpEDQDc6e7XlzGQu78EnFbGWL1QAyAiIqWpTQNgZsOBiF3x7u7w8RZSAyAiIqWpTQNAXAEs+0zoe0n7CJRNDYCIiJRGDUDJDYC7vwY8VOaYBTUAIiJSmjo1AMODxv17TcaM+vuLiEgD1akBmB00bsSjhRFjPhMwpoiINFSdGoAng8YdW+ZgZrYeMdP1TwWMKSIiDVWnBuBpwAPGLbUBCBhvITUAIiJSmto0AO4+j5j99nctjj0ty94ljrU4NQAiIlKa2jQAhVkBY24E/GcZA5nZWODIMsbqxdPLf4uIiEj/1K0BiFhdD/AlM9uxnQGKWYSfAINLyWhpEc2PiIg0VN0agJuDxh0M/MTMVm5jjBOBrUvKp6fp7j4naGwREWmgujUAVwWOvRVwz0BnAsxsTTO7BPhKTFpA7N9bREQaqFYNgLs/SswuewttBUwxs5P7szDQzCYCDwIHB+YEcHXw+CIi0jBDcifQgquA9wSOPxg4FjjIzCaTDveZBtxPWjA4tniNL17R/uLuD1QQR0REGqSuDcDXKoizEXBQ8cpJ0/9SOTN7N7AbsAOwPTAaGJY1KZH+mQvcB9wDTAdudfe/5E2pM9WxAZhGehpgw9yJVOTK3AlIc5jZEOA44ARghczpiLRiGLBz8QJ408xOBE5297fypdV5arUGAMDdHTgldx4Vmezut+VOQprBzEYCtwPfQsVfuscKpGv69uIal0LtGoDCucCjuZOowJdzJyDNUHwxTgfG5c5FJMg4YLqagLfVsgFw9zepZh1ATpe5+9TcSUj3M7PBwEVAO/tgiNTBysBFxTXfeLVsAADc/RfAXbnzCNKEBkc6x7Hol780xzjSNd94tW0ACpGb7+R0lrs/ljsJ6X5mtgnwzdx5iFTsm8W132i1bgDc/Rbgx7nzKNljwKTcSUhjvBcYmjsJkYoNJV37jVbrBqBwJNAtK+VfBj7k7i/mTkQaY2zuBEQyafy1X/sGwN3nAQcCMzOn0q4FwEHu/nDuRKRRGv8lKI3V+Gs/qgGwoHF75e7PAhOBV6qMW7Kvuvt1uZOQxtkudwIimdTp2g+pqYOAiGNm1woYs0/FfvkHk35J180l7n5q7iSkkZ7InYBIJnW69iNq6pxBQMT95vUCxlwud78G+Aj1mgk4E/i33ElIY03LnYBIJnW69iNq6otd1QDAoiZgZzp/TcCbwBHufpT2p5aM6vQlKFKmOl37agD6q7gdMB6YnDOPPjwH7OXu5+ZORBqvWzfTElmeOl37agAGolgYuBdwXu5cepgBjHP3W3MnIuLudwFX585DpGJXF9d+XagBGCh3n+funwF2Be7MnM5s4HPAWHefmTkXkcV9Fng+dxIiFXmedM3XSVgDELEScm0zWz9g3Ja4+23uvhPwUeDPFYefSzqKcoS7n6P7/dJp3H02aUMtkSY4srjma6GopWsHDP3EINKUdNmM9Fx+R3H3K4CtgaOAvweHe410+2GEu5/g7nV6MkEaxt0vA75Aum5FutFrwH8U13qdTCRmH4AZBmwBPBIw+A3uvl/AuKUwMwN2AD5cvLYtYdhngF8B1wC/c/e5JYwpUhkz2xy4ENgldy4iJboTONTdI2pdKDP7DbBvwNBbGmkzoJeBVUoefB6wtru/XPK4IcxsM1KntTuwAbA+8C5gSC9vd9J9pFnF6z5S0Z/q7nXciEhkETMbBHwK2Jt0dOqmWRMSac1M0qN+/wOc5+7z86YzcGY2HHiW8g/sehUYbu6Omd0BTCg5AMAn3P3SgHErUXwRrk1qBtYFXiIV/KeKMwhEup6ZrQWMAVbNnYtIP7wC3Ofuz+VOpF1m9nHgZwFD3+nuOy38dTuDmAbgAKC2DUDxa3528RJpJHd/Hvh97jxEGuiAoHFnwNuHAU0NCjKxk54GEBERqYOidkYtpp8KbzcA1xFziM7KwIkB44qIiHSzE0k1tGwLSDUfc3cAzOw2Ylb+zgdGufuDAWOLiIh0FTPbmjRNPzhg+Cnu/l54ewYA4rYDHQycEjS2iIhItzmFmOIPi9X6xWcANgf+FBQQYA93vyVwfBERkVozs92BmwNDbOHuf4bFGoAi8EPAyKCg9wA76fE5ERGRpZnZUOAOYPugEA+7+3sW/sOgHn8Y8bzhQtsDZwaOLyIiUmdnElf8oUeN7zkD8E7gcWJWHi70BXc/I3B8ERGRWjGzo4EfBIZ4Ddh48Q2SlpgBKP7g4sAEAE43s72CY4iIiNRCURNPDw5zcc/dEZeYASgS2RJ4mJjThxZ6ARjv7o8GxhAREeloZjYCuAt4R2AYB0b2PAyp5xoAijdcG5gIpL/or4u/uIiISOMUNfDXxBZ/gGt7OwlxqQagcFpwMgAjgLt0O0BERJqmqH13kWphtF5req8NgLvfClwfmk7yDuA3xeIHERGRrlfUvN8Q/8sf4Pqipi+dR881AIv+IE1N/AFYMTCxxZ0PfF77BIiISDcqnvM/E/h0RSHfALZZ1nq7Zd0CoPjAd6Oy6sWngTvMbI8KY4qIiIQratsdVFf8Ab7b12L7Zc4AAJjZMNITARsHJNaX64Hj3P2BiuOKiIiUxsy2BU4G9q849OOklf9zl/WGZc4AABQf/N9lZ9UP+wP3mdmFZrZhhvgiIiItM7MNzexC4D6qL/4AX+yr+MNyZgAWvcnsF8BHy8pqgF4nPSZxFfArd/9HpjxERESWyczWBD4IHAC8H1gpUyqXu/u/LO9N/W0AVgOmAVuUkFg75gOTSc3A1e4+M286IiLSZGa2KfBhUtHflbhjfPvrT8BYd5+zvDf2qwGARfcx7gSGtZdbqV4CZvXyepa085GIiEi7DFgbWL+X1+oZ8+ppLjChv+vn+t0AAJjZJ4GLWkxMRERE4hzi7v0+z6fPRYA9FQOfN+CUREREJNJ5Ayn+MMAZAFi0kcHVwH4D+qCIiIhE+A3w4YFupDfgBgDAzFYmPau/x4A/LCIiImW5Gdjf3V8b6AdbagAAzGxV4LfATi0NICIiIu24A9jH3V9p5cMtNwAAZrYGcCMwpuVBREREZKDuBfZ09xdbHWBAiwB7KgLvQzrSUEREROLdRfrl33LxhzYbAAB3fw7YHbi03bFERESkT5cCuxe1ty1tNwAA7v66u38COAFtwCMiIlI2B05w90+4++tlDNjWGoBeBzT7KGmzoE7aMVBERKSu5pI2+bm8zEFLmQHo4QrSXv0iIiLSvquAX5Y9aKkNgJmtQmoADipzXBERkQY7CPhl8fh9aUq7BWBmGwLXoEcCRUREItwPfMjdHy9jsFJmAMxsHOmxBBV/ERGRGNsBd5vZzmUM1nYDYGZ7AbcA67WfjoiIiPRhHeBGM9u/3YHa3QlwV9IhBFrxLyIiUp3XgQ+4+42tDtDOWQDjgN8Dw1sNLiIiIi17lbQj4O2tfLjV0wC3A24C1mwlqIiIiJTiJeB97j59oB8ccANgZpsDt5HuQ4iIiEhezwO7uvvDA/nQgBoAMxsGTAW2GVhuIiIiEuhhYPxAjgYe6FMA56DiLyIi0mlGAv89kA/0ewbAzD4DnNtCUhHmk25DzACe6uX1vJd9yIGIiDSSmRmwFulx956vUcB7gcHZElzSke5+dn/e2K8GwMx2AKYAK7aZWDvmAr8l7Yn8K3d/PmMuIiIiAJjZWsCHgAOAfYCVM6bzBrBLfxYFLrcBKPb3fwDYrJzcBux60szD79z9tUw5iIiILFexVm4f4HPF/+bwV2Bbd3+1rzf1Zw3AN8hT/KcDe7r7B9z9GhV/ERHpdO4+192vcvd9gb2BezOksRmpdvepzxkAM9uC9Ot/aHl5LddM4HjgZ7qPLyIidVasHzgYOAnYpMLQ80izAH9a1huWNwPwQ6or/vOBrwNbuftPVfxFRKTuPLkE2JJU4+ZXFHooqYYv0zJnAMzsI8AvA5LqzYvAx939horiiYiIVM7M9gUuBdaoKOSB7n5lr7n01gCY2UrAH6lmuuIRYGJf0xQiIiLdori9fg1pViDa30gz66/3/INl3QL4JNUU/xuACSr+IiLSFEXNm0CqgdE2IdX0pSw1A1AsWHgI2Co4qYuBw9y9qvshIiIiHcPMBgMXsIwCXaJHgJE919b1NgPwAeKL/xTgcBV/ERFpqqIGHk6qiZG2JNX2JfTWAHwxOJHHSYsS5gXHERER6WhFLTyQVBsjLVXbl7gFUGz5Oy0wgbmkLQrvC4whIiJSK2Y2mjQTMCwwzNjFtwjuOQNwVGBgBw5R8RcREVlSURsPIdXKKEvU+EUzAMVihGeANYMCn+/uhweNLSIiUntmdh7w6aDh/wGss3D93eINwB7ATUFB5wIj3P2poPFFRERqz8zWAx4l7lbAP7v7zbDkLYADgoIBnKbiLyIi0reiVp4WGGJRrV98BuCvwKYBwWaTfv2/EjC2iIhIVzGzVUmzAOsGDD/T3TeDYgbAzEYRU/wBJqn4i4iI9E9RMycFDb9pUfMX3QLYLyjQX4Hzg8YWERHpVueTamiE/eDtBmBMUJDL3f2toLFFRES6UlE7o07kHQMwpPiH0UFBrg4aN4yZDQc2ANbv8VoXeAmY1cvrmZ57LIvUnZmtBmwPjCV9YayaNyORfnkFuJe0qd097j4ncz7tuJqY3XlHAxjpUYM5LPtkwFY9A6zn7gtKHrd0ZrYdaWXkAbQ2G/IU6WjHq4Abtc2x1JmZbQucQzqtrOzvBZEqLQDuBI5w9wdyJzNQxf48s4G1Sh56AbCaATuS/gOV7cfuHrWZQdvMbFfgI6Siv1mJQ88Bfk1qBq5x91dLHFskjJkNAY4FTgCGZk5HpEzzgBOBU+p2W9rMLiLmtMAJg4BRAQNDKoAdx8x2NrPbgFuBYyi3+AOsBnwM+CnwmJkdUXyxinSs4rGj24GTUPGX7jOUdG3fXlzrdXJN0LijBgHbBgw8D/h9wLgtM7ORZnYl6bCFXSoKuy5wNvCgmR1YUUyRVpwKjMudhEiwcaRrvU5uIE3Zl23bQcA7AwZ+yt1fDxh3wMxsnWJv5QeI3e2wL1sAV5jZ7WY2IVMOIr0ysz2BI3LnIVKRI4prvhaKPQGeCRj6nYOANQIG7ohtf81sDDCddLDC4MzpAOwETDazI3MnIgJgZqsAF5AWBIs0gQEXFNd+XcwKGHONrm0Aiin324ANc+fSwxDgTDM7S2sDpAPsDmySOwmRim1CuvbrolYNwNMBY/abmR0PXE7caUpl+Bxwg5lFHb8s0h9jcycgkkmdrv1aNQBZZgDMbIiZXUJa7VmHKc09galmtnnuRKSx6vQlKFKmOl37agD64Qzg4EyxWzUCuF4zAZJJnb4ERcpUp2s/rAFYKWDgyk//M7OjSNPqdTQC+IXWBIiISC8itjNeqSu2+TSzvYHv586jTXsCP8idhDTOtNwJiGTS+Gu/9g2AmW0JXEZnPObXriPNrK6zGFJPjf8SlMZq/LVf6wbAzFYkbZMYsY4hlzPMbHzuJKQxGv8lKI3V+Gu/1g0A8HnSLnvdZAhweu4kpDFuAWbmTkKkYjNJ136j1bYBMLPVgeNz5xFkFzPLtW2xNEhxWuVhgOfORaQiDhymk1pr3AAAxwHd/Ojct/VUgFTB3W8CfpQ7D5GK/Ki45huvlg2AmW0AfCF3HsG2Aj6VOwlpjONIJ2WKdLMppGtdqGkDAEwCVs6dRAUm1ezACqkpd58L7AZ8CeiIkzxFSvQG8BVgt+JaF2rYABQFsW67/bXqXcDE3ElIM7j7Anc/DRgN3Ai8mTklkXa9RVrst727f8fdF+ROqJPU8R7zvlT/6/9J4H5gI2Ak1e45MBH4WYXxpOHc/RHgfcVjtqNJW6aOAVbNmphI/7wC3Et6zG+Gu2tGaxnq2ABUsTp+PnAW8DvgbndfdLqhmQ0jfRmOJ02Xrh+cy/vNbAV3168xqZS7vwFMLV4i0mVqdQugWBX/geAwDwIT3P1od7928eIP6V6pu09x9+8BWwMXB+ezOrBHcAwREWmYWjUApEVKkY/+nQrs4O792iHK3V9090NI0/TPBealdQAiIlKqujUAHw4c+xJ3P7aY9hwQd78WOLT8lBZRAyAiIqWqWwMwKmjcWcDR7Qzg7tcBF5aTzlI2NrNuOu9AREQyq1sDELXg7nB3f6GEcY4BnihhnN5ELzYUEZEGUQMAd7r79WUM5O4vAaeVMVYv1ACIiEhpatMAmNlwIGJXvLs7fLyF1ACIiEhpatMAEFcAyz4T+l7SPgJlUwMgIiKlUQNQcgPg7q8BD5U5ZkENgIiIlKZODcDwoHH/XpMxo/7+IiLSQHVqAGYHjRvxaGHEmM8EjCkiIg1VpwbgyaBxx5Y5mJmtR8x0/VMBY4qISEPVqQF4GvCAcUttAALGW0gNgIiIlKY2DYC7zyNmv/1di2NPy7J3iWMtTg2AiIiUpjYNQGFWwJgbAf9ZxkBmNhY4soyxevH08t8iIiLSP3VrACJW1wN8ycx2bGeAYhbhJ8DgUjJaWkTzIyIiDVW3BuDmoHEHAz8xs5XbGONEYOuS8ulpurvPCRpbREQaqG4NwFWBY28F3DPQmQAzW9PMLgG+EpMWEPv3FhGRBqpVA+DujxKzy95CWwFTzOzk/iwMNLOJwIPAwYE5AVwdPL6IiDTMkNwJtOAq4D2B4w8GjgUOMrPJpMN9pgH3kxYMji1e44tXtL+4+wMVxBERkQapawPwtQribAQcVLxy0vS/VM7M3g3sBuwAbA+MBoZlTUqkf+YC9wH3ANOBW939L3lT6kx1bACmkZ4G2DB3IhW5MncC0hxmNgQ4DjgBWCFzOiKtGAbsXLwA3jSzE4GT3f2tfGl1nlqtAQBwdwdOyZ1HRSa7+225k5BmMLORwO3At1Dxl+6xAumavr24xqVQuwagcC7waO4kKvDl3AlIMxRfjNOBcblzEQkyDpiuJuBttWwA3P1NqlkHkNNl7j41dxLS/cxsMHAR0M4+GCJ1sDJwUXHNN14tGwAAd/8FcFfuPII0ocGRznEs+uUvzTGOdM03Xm0bgELk5js5neXuj+VOQrqfmW0CfDN3HiIV+2Zx7TdarRsAd78F+HHuPEr2GDApdxLSGO8FhuZOQqRiQ0nXfqPVugEoHAl0y0r5l4EPufuLuRORxhibOwGRTBp/7de+AXD3ecCBwMzMqbRrAXCQuz+cOxFplMZ/CUpjNf7aj2oALGjcXrn7s8BE4JUq45bsq+5+Xe4kpHG2y52ASCZ1uvZDauog4NWAcdcKGLNPxX75B5N+SdfNJe5+au4kpJGe+P/bu/9QPcs6juPv7xRLnEXFQVuDVm5qjBU5HdtEXbGRzdRNSrJfFEm/kAz/yPonRBDbP4LBoFgwKMtYtNzQXGxtbiabS8dqSB0tWTTW1lygTtev8emP6zpnj895zq/n3Nd9n+c8nxfcf4w9dvO/AAAHWklEQVRzP9/r+8DNvt/nuq/7uptOwKwhvXTtl6ipr80CSrxn/p0FYo5L0lZgLb01E7Ae+ELTSVjfeqbpBMwa0kvXfoma+uqMagBguAlYzvRfE/Bf4CuS7vD+1NagXvpP0KxKvXTtuwGYqHw7YAnwZJN5jOElYKWkHzSdiPW9mbqZltl4eunaL9YAvFIgcKMNAAwvDFwJbGg6lza/B66StKfpRMwk7Qe2NJ2HWc225Gu/V5Soqa/MAo4VCNx4AwDpEUFJXwKuAfY1nM5x4KvAlZION5yLWasvAyebTsKsJidJ13wvKVFTj80CBgsEHoiIOQXidkXSbyUtAz4OvFDz8K+TXkU5X9L3fb/fphtJx0kbapn1g6/la74n5Fo6UCD0YKkGIEjP5U8rkn4BLATuAI4UHu406fbDfEnfkdRLTyZYn5G0CbiTdN2azUSngW/ka72X3ESZfQAGA/ggcKBA8F9Lur5A3EpERACLgZvzsaiCsP8AHgW2AtslvV5BTLPaRMQCYCNwddO5mFVoH/B5SSV+8BYVEduAjxQIfUUAF5CeBKi6w/gPMCCpxCLDykXEe0id1nXAu4A5wMXAuR1OF+k+0tF8HCQV/acl9eJGRGbDImIW8EVgFenVqfMaTcisO4dJj/r9Btgg6Uyz6UxeRLwFOEH1L+wScGFIIiL+Ary34gEAbpP0swJxa5H/IxwgNQMXAS+TCv7f8zsIzGa8iHgHaaZwdtO5mE3AKeCgpJeaTmSqIuKTwMMFQr8o6ZKhX7e7KdMArAF6tgHIv+aP58OsL0k6CexoOg+zPrSmUNzdcPZlQDsLDXLTdHoawMzMrBfk2llqMf1OONsA7Co0yPnAvYVim5mZzVT3kmpoCbsAQhIAETEIXFpgoDPAByQ9VyC2mZnZjBIRC0m7xp5TIPzzki6DszMAANsLDATpC6wrFNvMzGymWUeZ4g8ttb61ASix0nDIDRFxXcH4ZmZmPS/XyhsKDjFc64dvAeSBSz0OCGmzoWV+fM7MzGykiDgP2AtcUWiIFyVdMvSPWW1/fKjQoJC+0PqC8c3MzHrZesoVf2ir8e0zAPMp/7KcOyV9r/AYZmZmPSMivg48WHiYBZL+PDxmawOQk9gNXFswgTPA9ZK8sYiZmfW9iFgJbKPcwj+APZLesBav/RYAwP0FE4D0BTfl2QYzM7O+lWvhJsoWf+hQ20c0AJK2Ac8WTuRtwONuAszMrF/lGvg4qSaW9Gyu7W/QaQYA4L7CyQDMB/bnqQ8zM7O+kWvfflItLK1jTR+xBgAgIgI4BCwsnBSkNQF3eWGgmZn1g7zg7wHKT/sDPAcsUodi33EGIJ94d+mssnOAByNiQ34G0szMbMaJiPMiYgNptX8dxR/g7k7FH0a/BYCkx4DNxVIa6XZgb0SsqHFMMzOz4nJt20uqdXXZnGt5Rx1vAQz/MWIu8EdgdoHExvIr4FuSDtU8rpmZWWUiYhHwXWB1zUOfAt4n6choJ4w6AwCQP3hPxUlNxGrgYERszE2ImZlZz4iIuRGxEThI/cUf4J6xij+MMwMAEBHnAk8BSypMbDL+RXpM4hHgUUn/bCgPMzOzUUXE24GPAWuAjwJvbiiV/cDVkv431knjNgAAETEH+B0wp5rcunYGeJLUDGyRdLjZdMzMrJ9FxDzgZlLRv4b6FveN5ihwlaSj4504oQYAICKuBPYA508tt0q9TPqy7ccJYGJfzMzMbGwBDJB+BLcfb20wr3angWslPTORkyfcAABExG3AT7tMzMzMzMr5lKSHJ3rymIsA2+XAdewSaGZmZhN332SKP0xyBgCGdwncTLrfYWZmZs16BLhltA1/RjPpBgAgImaTngx4/6Q/bGZmZlX5A2nF/6nJfrCrBgAgIt5NejJgoKsAZmZmNhUnSCv+/9rNhye1BqBVHvDGnICZmZnV5wRwY7fFH6bQAABIepq0QZC37DUzM6vHIWBJrsFdm1IDAJA341kObJ1qLDMzMxvTVmB5FRvhTbkBAMiLD9YC66qIZ2ZmZiOsA9Z2s+Cvk64XAY4aMOIzwA+BN1Ua2MzMrD/9G7hd0kNVBq28AQCIiKXAL4GLKw9uZmbWP46RfvXvqzpwJbcA2uVElwAHSsQ3MzPrAwdIi/0qL/5QqAEAkPQ3YCnwTaCS+xVmZmZ94BSpdi7NtbSIIrcARgwSMRd4APhE8cHMzMx618+BuyQdKT1QsRmAVpKOSLoVWIVvC5iZmbU7AKySdGsdxR9qagCGSNohaTGwmvQuATMzs372FLBa0mJJO+ocuJZbAKMOHrEC+DZpZiAaS8TMzKw+ArYD90t6oqkkGm0AhpNILxb6LPA5YEHD6ZiZmZXwAvAj4MdT2cO/KtOiAWgVEcuAT5NmBS5tOB0zM7OpeJ70a/8nkvY2nUyradcAtMpPD3wI+DCwApjXZD5mZmbjOAw8AewEdtW1oK8b07oBaBcRs4HLWo7LgYuAC9uOC5rK0czMZqTXgFfbjuPAn4DBoaOqffrr8H800V9AMVfyRAAAAABJRU5ErkJggg==;" vertex="1" parent="ItPSY5wFcEl1Enw_Cite-10">
          <mxGeometry y="30" width="87" height="87" as="geometry" />
        </mxCell>
        <mxCell id="ItPSY5wFcEl1Enw_Cite-5" value="" style="shape=image;verticalLabelPosition=bottom;labelBackgroundColor=default;verticalAlign=top;aspect=fixed;imageAspect=0;image=data:image/png,iVBORw0KGgoAAAANSUhEUgAAAgAAAAIACAYAAAD0eNT6AAAABHNCSVQICAgIfAhkiAAAAAlwSFlzAAAOxAAADsQBlSsOGwAAABl0RVh0U29mdHdhcmUAd3d3Lmlua3NjYXBlLm9yZ5vuPBoAACAASURBVHic7d13uB5VubDxO5s0SCghhHpo0qSKICIdsaBiw4NYESxY0E+Oil0pVvSIveBREBUVFBArICJVUURRRAFp0iG0CAmk7++Ptbdswt477ztrzawp9++61kWMmbWeeds8M6uBJEmSJEmSJEmSJElqgwm5A1DjPAHYHHgisAmwCjANWDVnUFIJ5gCDQ2UOMB+4H7hvxH/vAW4H7s4Uo1SYCYCWZy3gBcA+wNOBtfOGI9XSfOBfwM1D5Ubgb8Dfh/63VDsmABrNJODFwGuA5wAT84YjNdq/CYnAVcAfgUuBq4GlOYOSTAA00lTg9cC7gQ0zxyK12b+B3w+VS4bK/KwRqXNMAAThc/Aq4NPAOpljkbroYeAi4BzgV8A/8oajLjAB0BOBrwF7Z45D0qNuBc4EfgT8FrsLVAITgG57HfAlYKXcgUga053AGcBphKcEJgNKwgSgm1YE/g94de5AJPXlVuAk4FvATXlDUdOZAHTPasDPgN1zByKpsKXABcAJhKcDDiBU30wAumVtwgCjbXMHIimZe4GvA18hdBdIPTEB6I5VCXcM22eOQ1I5FgI/AY4D/pA5FjWACUA3rEi48/exv9QN5wFHE9YXkEY1kDsAVeIbePGXuuQZwMXAucCumWNRTZkAtN8bCIv8SOqeZxLWETgH2DlzLKoZuwDabSvgckIXgKRuGwROAd4H3JI5FtWACUB7TSAM+tuzhLqXAH8mbGpyDTCbsLa5VBcrE7apnk4YALsysAGwxVDp8vbVjxAGCn4KmJs5FkkleA2P7mWeqlwFvA2YWeF5SGVYC9gLeCdhXYwHSf99qXu5Azgo9oWUVC8rEuYDp/qhuAk4AMeMqL0mAk8DPgD8jvwX5yrLucAm8S+hpDp4O+l+HL6KewWoezYHPkJIfnNfoKsoDwPvJSRCkhpqMmGAT+wPwkJ8PChNIHQVnE4Y+5L7Ql12+Qvw5CSvnKTKvYI0F//nVx24VHNbAd8FFlHuRXgpcHfJbYxXFgDvwS4/qXHOIv4HwF0CpbFtQtiEp8wnAicCzwNOJWz0kyMROJ8wc0JSA6wDLCbuS//lyqOWmumphHU2yroAHz3UzgzgMOCKEtsaqzwAvDzFiyWpXG8m7st+Iy4aJPVjBcLU2Aco5wJ86DLtPR34KdWPR/gyYXyRpJr6IXFf8pdUH7LUCmsBvyD9hXcR8IJR2tuMsP3v3BLaHKv8Dlgv5kWSVI4JhBX5in65r8SVIaUYE4B3EwbRprzwzgOeMkabaxJW9Xs4cZtjlbuAvYu+QJLKsTlxX+w3Vx+y1Eq7AjeT9sL7L8ZfgXMd4EtUM2BwEaHbQ1JNvIC4L/SM6kOWWmt1wij6lBfes1j+1Lz1CTMIqhgj8HnCGAhJmb2b4l/k32WIV2q7KYRpfCkvuu/pse0dgEsStz1WUrJyX6+KpOS+RvEv8XEZ4pW6YAXgeNJdcBcAT+qx7QnAwaTdF2S08kdg7b5eFUlJfZ/iX+BlpxpJSusjpLvg/o3wdKFXqwBfpNxugRuAjfuISVJCP6P4l9dlf6Xy/S/pLrhHF2h/V+DahDEsW+4EtikQl6RI51P8i7t39eFKnTMB+A5pLrbzgS0LxLAS8AXKexpwN713UUhK5CKKf2n3yBCv1EWTSLdg0AURcexBmFpYRhJwP2GZZEkVMQGQmmEaYeBciovtf0fEsTphWeEykoB/A7tExCapDyYAUnNsANxH/IX2RmBqRBwTgMMJswtSJwFzgT0jYpPUIxMAqVleAiwl/kL7jgSx7EL61Qt9EiBVxARAap4vEn+RnQ1MTxDLTODCBPH4JECqmAmA1DxTgD8Tf5E9ImE8JyeIxycBUoVMAKRm2on4aXl30d/iQOOZAHyINN0TJgFSBUwApOb6KvEX2NcljumlpN9d0CRAKoEJgNRcMwiL6MRcXK8i3L2ntDfwYGRcyxbHBEiJmQBIzXYw8RfXp5cQ167AAwli80mAVBITAKnZJgBXEndhPbmk2J5MmG3gkwCphkwApOZ7OXEX1UcI3Qll2BK4PTI+nwRIJTABkJpvBeJ37HtTifFtjkmAVDsmAFI7vI64C+p5Jce3GXBbZIzLFrsDpAgmAFI7TAJuofj3eTGwVskx+iSgBQZyByBJeoxFwHcjjl8BeGGiWMbyT8KMgzsS1rkKcDYmAVLffAIgtcfmxN1Nn15RnHYHSDVgAiC1yx+Ie5w+qaI4TQIayi4ASaqnmG6AVYCdUwWyHNcB+5C2O2Aa8DPsDiiVCYAk1dOphA15itotVSA9cExAA5kASFI93QP8JeL4KhMACEnA3oTZAamsApyL3QGlMAGQpPqKmdOf487Z7oAGMQGQpPo6P+LYNYD/ShVIH3wS0BAmAJJUXxcBCyOO3zZVIH26jjAmIGUSMA34JSYByZgASFJ9zQP+FHH8dqkCKcDugJozAZCkevtHxLGbJYuiGLsDamxi7gAkYH3gpcBOhH7LOpkHXA2cSViYpSorAi8m/MhtSFjU5W7gcuA0wsIrTbA+cCDwVGAm8CCPnsM/M8a1rKcBLwK2BlYiXLAuBM4A5mSMC8LugEVtlCqICMPdAecD6yWqc7g74HmEbhKp05q4EuBk4DPAgh5irEM5B9iglFfiUQPA/wD3jxPHYuBEYFbJscSYBBwLzGfsczgBmJ4rwCHrE+4mx3qt76Pc7XV78UKKf2ZvyBDvWFwxUCpJ0xKAqcBvCsabs9wFbFXC6wHhzvOsPmK5FXhSSbHEmAr8mt7O4a/AannCZEtgdg8xDgJfyBQjwBbjxLW8shCYUH3IY3IXQakETUsAvhERb+5yPeERZEoDhEea/cYyG9g4cSyxjqe/c/gV1Y9HWg24sc84D604xmGTCDsEFv28rlp9yOMyCZASa1IC8GRgSUS8dSgfSvyaHB4Ry4WJY4mxNcXe2yMqjvN7BWK8F1i54jiH3dtjjKOVTTLEuzx2B0gJNSkB+FJErHUp/0r4ekwjLPsaE89+CeOJ8QWKxT+f6rozXlkwxkHg4IpiXFa/TytGlqdmiLcXPgnIzGmAyqENWfqGQyWFlxM/++GwFIEkUPS9nQKcTBg/UKYNgK9EHL9XqkD69FDEsSsmiyItpwhmZgKgHNbOHUAi6yaq57UJ6tiXdPHEWCfi2G2AT6YKZBQDwHeIG3SY67MbkwBMSRZFeq4YmJEJgHKYlzuARGJ+lIdtDuyaoJ4VgFcnqCfWw5HHHw48N0Ugo3gP8Xfwc1MEUkBbEwAwCcjGBEA5XJ07gATmAzclqOe1pJum9fpE9cSIWbUOwmvxTcKiQSntAByToJ5cn91HIo6dlCyK8rhscAYmAMrhx7kDSOBXxD/JSH3Xvjmwc8L6ijgjQR3rAl9PUM+wFQnjCyYnqCvF+RUxmKndKpU5JiDX2A2pEk2aBTCFcPecawR/bFkKPCXB67BfCbEdnyCuGJMJP+QpzuWQRDF9OVE8ORPX08eJa3nlJRnijVHWFMG9qjwJqUpNSgAgPJYba5nYupejEr0Gp5UQ2xzCioI5PYM06zw8CDwhMpbnEhK2FK/rRpGxxOhSAgAmAVJfmpYAQLhQ3NdjjHUoS4EjSdNnP5PyEqBXJIgv1nGkOZffErpKiliD0KecIo7cAyy7lgCASYDUsyYmABA2tPksYY39Ki7iRcrDhL7fHROed8zKf8srv0oYZ1FTgL+Q5nw+XDCGHyVq/7SC7afUxQQATAJKVadNIhTnIopfyPcELk4YSxEDhIV11qW3hUteCPy/gm39lLAa4fIsIWzBexNxo7BHcwWwfeI6hy0l7A9wS0n192pr4I/EL0SzGNid/rZjfiNpBhLeDmxH2J0xp9MpfiH/b/INXkxhM9JuJQxhAO9+1GsZbamwpj4BKOqtFD/fL2eId6QdKB57r+WDlZ3N+N5JmvO5nt7X4d+EMH4gts0lhKlpddDVJwDDfBJQAqcBStVLsfLf8ryeejzh+xxhi+NYmwD/28O/m0iY8pdi057jCFtWK7+yFgv6BR1OAkwApGpNJqz9X7aNgd0qaGd5Bgnb6N6XoK43Ebp+xnMk8LQEbf19qC7Vh0lAYiYAUrVeTPzGP72q4klDL24n9Mmn8E3GXo9/V+ADCdpYQNgxcH6CupSWSUBCJgBStaq8KB8ITK+wvfGcQdiIJ9Ys4CQe370xfejvi04ZHOk9wJUJ6lE5TAISMQGQqrMe8KwK25tOvQaAvZUwmC/WvsCbl/m7LxEGisU6l95miCgvk4AETACk6hxCmjvUftusi7mEeJYkqOszwBOH/rw/ac7z3qF6BhPUpfKZBEQyAZCqc1CGNvcmjKCvi98CxyaoZyXge4Tleb+RoD6Aw0i7G53KZxIQwQRAqsaewBYZ2p1AnsRjPMcAlyeoZwfgT6TZOvgEwsqBah6TgIJMAKRq5ByRfwj1+q4vIuxXMDdBXasnqONG4B0J6lE+JgEF1OlHQWqr6cABEccvAP4WcfyGhK6AOrmeMNo+t8WEjX4eyh2IopkE9MkEQCpf7HS8nxC/fPEhkceX4WvAzzLH8DHg0swxKB2TgD6YAEjli338/y3gFMKuhEUdAKwaGUcZXk/YCTKHy4FPZGpb5TEJ6JEJgFSuzYhbkvd2wtz0B4EfR9SzInHdEGW5h5AgVT31bh7wKsJ4BLWPSUAPTACkcr2WuE15vs2j8+ZPiozlkMjjy3I2abbu7cfbgX9W3KaqZRKwHCYAUnkGCAPMYnx3xJ9/A9wcUdfuPLp4Tt28C7i2orbOBE6sqC3lZRIwDhMAqTzPAdaPOP5i4JoR/3sp8evp121NgGEPEzbgWVhyO7MJuwqqO0wCxmACIJUnxeC/0f4upr/8YKpfjrhXfwY+WmL9g4T3ZHaJbaieTAJGYQIglWMm8IKI4+cBp43y9zcRngwUtR7wjIjjy/YJ4MKS6v4i8MuS6lb9mQQswwRAKsergCkRx5/K2IvTnBRRL9R3MCCEbo7XEmY9pPQP4P2J61TzmASMYAIglaOMx//DfkjcynX7AzMiji/bTcDhCetbQEjIHklYp5rLJGCICYCU3pOB7SOOv46wa95Y5gGnR9Q/FXhZxPFV+BHwQKK6fg/8JVFdageTAEwApDKkuPtf3kC/kyLbOCTy+LJ9lnRPKfYiDH6URup8EmACIKU1mbDTXVFLgZN7+HcXATdEtLMzsG3E8WV6LnBo4jq/DGyauE41X6eTABMAKa0XA2tEHH8OcGsP/26Qdq4JsCbhCUjM6omjmU54alLXKZDKp7NJgAmAlFaZg/+WdSKPLhNcxGuAiRHHpzYBOAFYq6T6dwPeV1LdarZOJgEmAFI66wHPijj+fuCnffz724ALItpbC9g34vjUDgOeX3IbRxO6P6RldS4JMAGQ0oldZe9kwpS1fpwU0R7UZzDglsCnK2hnIuF1nl5BW2qeTiUBJgBSOrF96v08/h92OjAnos0XEjdmIYVJhF0PV6qovU2pJtlQM3UmCTABkNLYg7id9q6k2Fz1Rwhz5ouKnbWQwkeAnSpu8y3ELdWsdutEEmACIKURO/jvmxHHnhTZ9iGRx8fYHXh3prZPANbO1Lbq7zpgH+COhHVOI4zz2SVhnYWZAEjxpgEHRBy/EPhBxPG/47HbBvdrB+BJEccXtSqhPz7X1LxZlDPlUO3xT2Bv0j4JWAU4C9gxYZ2F1GkKkNRUBwIrRxw/D/hqZAyTI48/BHhHZB39+gqwYcVtLus5wJuA4zPHofoa7g44nzDTJ4VVgbMJycXfE9WpDruIsDhMkbJHhnhjvZXi5/vlxLFcHBFLXcq9xCcR/TigpPMoUuYBW5R7utFOp/j5vSRDvG20GWHqbcrP3l1k/OzZBSDF2YywwEzTzQSeV1Fb6wPfSFDPIPCrBPWsBHyXMBtBGksZYwLWIjwJ+K+EdfbMBECK81ra04d8SAVtDBAGLa6WoK6vA/sBlyWoayfgyAT1qN3KGBOwESEJSPGd6IsJgFTcAPDq3EEktB/lj4o/gnAXFet6wuyBxYQFmB5OUOcHqNEULdVWGVMEtwZOoeJxeSYAUnH7Eh5nt8VE4JUl1v9k4KMJ6llMSLzmDv3va4D3JKh3gDArYJUEdandykgC9qXiwagmAFJxsXP/6+h1JdU7lbDaX4qBhkcBf1jm774K/DxB3RsDX0hQj9qvjCTg9aRJZntiAiAVszphGd222Zpy5if/L7Btgnp+C3xqlL8fJPx43p2gjUOAlyWoR+1XxsDAT1L+pliACYBU1KuBKbmDKMkhiet7NmHaZqy5hNjG2gJ5NuGpzGCCto6nXd07Kk/qgYEDhFkpmyaqb9yGJPWvjY//h72SdMnNGoRR/ylmShxGGPw3nrNIM8VwNeBE2jPDQ+W6DngGaZ5AQfj8nUbJG2SZAEj92w7YPncQJUrZvfFVYJ0E9ZxBuCvqxTuBaxO0+Uzg8AT1pLA04lh/56txLWEg3wOJ6nsSJQ8K9IMh9e8NuQOowCEJ6jgUeGmCem4fqqtX84BXAYsStH0sIeHLbV7EsdOSRaHl+SthQa25y/uHPToIeHOiuh7HBEDqTx22z63CvsStTrYJcFyCOJYS5vnf3+dxfwI+lqD9KcD3CbMYcnoo4tg1kkWhXvweeBEwP1F9nwW2TFTXY5gASP15Ed34QV2BcBddxETCLn8xGyQN+xxwXsFjP0bYIyPW1qRJJmLEJAB13+egjX4DvJyxB6z2Y0Xge1S7V4caxs2Aei8xmwH9MqLdppVrKTYI7phE7V9F/J33xsC/E8SyhDDIK5c3jRFXL+WKDPEqeBfpvo/Hpg7O7YCl3q1HmNJW1P2U2J83hqMId7BFbA48Dbi0j2N2At5fsL2RFhBmI8Q+Rr2JsM3xCZH1DBAWMtqO/rsjUrgm4tjtgFnAPYliUe+OIzyB6WcMy1jeTdgz4IIEdallfALQeyn6BOADEW0OAl8s2G6MwyPiHaS/UcjTCHOiU9ztpB59f2qiuE5PHFev1ukjxtHK26oPWUMmEbqxUnz+/gVMrzR6NYIJQPkJwNURbQ4S1sKv2kzCXXTRmOfQ+1zkEyPaGVl+Rfr59zOAWxLFd1Di2HoVE/9fcU2DnGYQutRSfP4+W3HsagATgHITgD0i2hsErizQZiqnjxNXL6WXDYL2j2xjuNxPeSvwPYswqyA2xjmELVyr9u0CsY4sbVy6ukm2JUznjP38LQaekiIgZwFIvYld+e+bSaIo5qTI4w9Zzv+/GvD1yDaGHQrcmqiuZZ1Lmm6YVal417Yh50ce/xnyT2fssr+RpmtrBcKYlkkJ6lJL+ASgvCcA0wjTsIq2t4C8UwcnAneOElevZQmwwTj1fyyi7pHlxDSnO66phNkFKeLdu4J4R1qTsLhRTMyfrDhmPd53SPP5e3fVgau+TADKSwBeFNHWIPCjYqeY1GeIO4fxZi/cEFn3IGGN/xTrBvTiScSNixgu/1dRvCP9LCLeQUIyt1/lUWuk6cA/iP/8PQSsGxOIXQDS8u0cefy3kkQRJzaGsV6DGcATIuteTBhYF7PYTT/+Cnw4QT07JKijX73uhzCWAcKMiKcliEXFzCUsErQgsp7pRC5QZQKgploccWy/q3OtFtHWHcA5Ecen8nfgjxHHzxjj72dG1DnsE/S31kAKxxHfp756ikD69BPit52dRphp8cz4cFTQlcBHE9RzMBGJqAmAmmp2xLF39fnv741o69ukWQ40hW9HHDvWIjL3RdQJ8AfS/BD2a3iPgTkRdaTa9a0fCwjdObFWJmyd/F6cHpjLpwh7VsQYwGmBontjANaj+JSufpd0fWHBdpZSr3XYZwCPkH4MQNH5zXMJqw3m9N8U/958JUO8ENZluLvHGHspvyNPd4bC1MAFxL+HL6k6cNVL1xIAgAvp/1xvo//pM1MITxz6bevswmdWnm/R/3k8TBiBPpYjC9Q5SH22VT6ZYvHvliPYIW8cJ64iZSmhe+GZ+GS4ah8i/v37O75vndbFBGBXwliAfs714IJtvbnPdhYCOxZsq0xPINx593MuxyynztUI/dL91HlGwnOKtSphz4B+4v9JlkgfNUAYN5EyCRgutxPWjngD4bfhCYSxHjNaUuo2f34S4QIe+751YZtyjaGLCQD0t9tWzLStCfQ+f3cpcFhEW2U7kN4Tp7PpbdOwXek9sfgD9VvPfCvCWI9e4r+GPAMAl7U9aR4fd7UsJKyPcRXhaeL3gI8Tnq48g7CBUlWeFXEew+VqwiJB6qCuJgAQVqobb8vXBYRd8WIHO61AmHYz3mIs99OMTPx5hMGQY53HUuBrhO6PXu1ImM8/3mftB4w9oyC3bYA/M378vyLNzIdU3kH+C2mby52EWTxHA/sCq/T0rhRzRoJ4X1VifKqxLicAELL1DxPuLmcTRmj/Bfg0sEnitjYljLz9C+GCfx9hINX7qdfFYXlWIVxALiS8ZnMJC5QcT1gsp4iphOV8zyEkGA8N1XkizficTSIkcD8jdAs8RNiB7RTgOfnCGtMEQndE7gtlV8pi4PeEG4qdSdvvvjHFB+kOl2vwKUAndT0BkLpqNcK88twXxy6W2wn7S+xBmmTgowlickZAB5kASN21Lv0PZLSkLbcBxxK3U+R04qd4XhLRvhrKBEDqts2BW8h/Iex6WQycCew1/ts1piMSxPDUgm2roUwAJK1PmillljTlcuCl9Nc9sBJxu3cOEgbbqkNMACRBmKL4G/Jf/CyPlisJffO9zkR6e2R7ixh/C2+1jAmApGErAB8h7EOR++JnebT8HthlnPdt2FTiu3M+0kM7agkTAEnL2ge4jvwXPsujZSnwfcLAzfHErvFwCy4P3BkmAJJGMwk4nP6XgLaUW+YMvS9jzdtfeejfxLSx7xh1q2VMACSNZz3g88A88l/8LI+WSwj7LYzms5F1nzpGvWoZEwBJvViTsGqmXQP1KQ8CrxvlvdqY/jc8G1nm06zVSVWQCYCkfu0KHEdY1nop+S+EXS+nEB79j3RaZJ1jbkwWuzmK6uMiil/I9wQuThiLpOZZgzBCfUvCokKbEy5GqxC2TG7DgLLJwLTcQSzHNcB/E/bQgDCQ87yI+s4fquNxTADawwRAknozg5AITB/686bAFkNlOPmZmi26MGDzFcDPCYnXDRRfYngJYcbB7CSRqZbsApCkNFYgbG99OPBD4kfjFymLgfcOxXNMZF1vTvjaqIZMACSpHJMJT0q/CNxDtYnA5whbmseM0fh1+pdEdWICIEnlmwy8CDidMMq+iiTgW4Ru2qLHL8LZAK1mAiBJ1VqDsOTuA5SfBDwYefzLlg2+DaM6JUnK4V7gSMIujP9D2MWvLMtOD+zXs5NEoVryCYAk5TUNeD/1XHb51mWD9QmAJElpzAM+SZhO+N3MsSzrv4CtRv6FCYAkSWndDrwGeD5wY+ZYRnrM5kAmAJIkleMXwDbAN3IHMmSvkf/DBECSpPI8ArwROJjQRZDTLiP/hwmAJEnl+w7wFOBvGWNYk7CoEGACIElSVa4h3IWfnTGGXYf/YAIgSVJ15hFWEvxBpvb/0w1gAiBJUrUWAq8m7C1QtacO/8EEQJKk6i0l7DZ4TMXtbk3Y7dAEQJKkjI4GPl9he1MZGghoAiBJUl7vpNqVA7cBEwBJknIbBF4PnFNRe9uCCYAkSXWwCHgpcG0FbfkEQJKkGnkIOICwemCZNgUTAEmS6uQq4B0lt7ExmABIklQ3XwdOLrH+VYFVTQAkSaqfw4BbS6x/IxMASZLq5yHK7QrY0ARAkqR6Oh04q6S6TQAkSaqx/wfML6HeWSYAkiTV1w3Ap0uod6YJgCRJ9XYc8EDiOlc3AZAkqd4eBL6SuE6fAEiS1ACfJ8wMSMUEQJKkBriPsEBQKi4EJElSQ3weWJKorikmAJIkNcPtwHmJ6ppsAiBJUnN8N1E9JgCSJDXIGaQZDGgCIElSgzxMSAJimQBIktQwpyWoY6IJgCRJzXIhsCi2EhMASZKa5SHgT7GVmABIktQ8v4mtwARAkqTmMQGQJKmDfg8sjanABECSpOaZR1gZsDATAEmSmunamINNACRJaiYTAEmSOsgEQJKkDro+5mATAEmSmmlOzMEmAJIkNVPUroAmAJIkNZMJgCRJHWQCIElSB5kASJLUQVFbApsASJLUQSYAkiR1kAmAJEkdZAIgSVIHmQBIktRBJgCSJHWQCYAkSR1kAiBJUgeZAEiS1EETcwcgqWe7Ac8HNgNWzRyL1AQLgbuAi4Ezidw+V6qri4DBgmWPDPGqd08k7v21WCxwP/B22qfwa2IXgFRvuwCXYpImxZoBfAH4BjAhcyy1YAIg1ddawI+B1XIHIrXIG4B35g6iDkwApPo6kpAESErrKGDN3EHkZgIg1dMU4KDcQUgttTLw8txB5GYCINXTjoQfKUnl2Dt3ALmZAEj1tG7uAKSWWy93ALmZAEj1NC93AFLLzc0dQG4mAFI9XZs7AKnlrskdQG4mAFI93QhcmTsIqcXOzB1AbiYAUn19NHcAUkv9Hvh17iByMwGQ6us04ITcQUgt8yDwesJyuJ1mAiDV22HAibmDkFriNmAf4B+5A6kDEwCp3hYS7laeS9gQaEnecKRGuh34BLAN8KfMsdSG2wFLzXD2UFkd2JiwsYmk8S0E7gBuwEf+j2MCIDXL/UNFkqLYBSBJUgeZAEiS1EEmAJIkdZAJgCRJHWQCIElSB5kASJLUQSYAkiR1kAmAJEkdZAIgSVIHmQBIktRBJgCSJHWQCYAkSR1kAiBJUgeZAEiS1EEmAJIkdZAJgCRJHWQCIElSB5kASJLUQSYAkiR1kAmAJEkdZAIgSVIHmQBIktRBJgCSJHWQCYAkSR1kAiBJUgeZAEiS1EEmAJIkdZAJgCRJHWQCIElSB5kASJLUQRNzByCVZE3gEODZwHrA5KzRSPXxMHAN8FPgVGBhSe1sCBwM7AOsQ57rzVLgbuASzZab3gAAIABJREFU4DvAPzLEIJXuImCwYNkjQ7xleivwIMVfD4ulK+V6YFfSGgCOBubX4PxGlsXAV4Apic83t5jXRC1hAhB8kvw/NBZLk8p8YF/SmAB8twbnNF45j3Y9ESz8WjgGQG3y38D7cgchNcwU4BRCV1msw4FXJ6inTPsAx+YOog5MANQWKwCfzh2E1FCrAUdG1rFqgjqq8jbgCbmDyM0EQG2xB36hpRivIK5//IXAjESxlG0S4Xw7zQRAbfG03AFIDbcysFXE8TunCqQiu+QOIDcTALXFrNwBSC2wVsSxayaLohpNizc5EwC1xZzcAUgtcH/EsU37Dj6QO4DcTADUFlfmDkBquIWEBYKKatp3sGnxJmcCoLY4FzN6KcbZhAW0ijoTWJQolir8MHcAuZkAqC0eJiwCJKl/Swir98W4DTg+PpRK/AT4Y+4gcjMBUJt8FjgrdxBSA70buCJBPe8FLk9QT5n+BRyaO4g6MAFQmywBXkLY9EPS8i0ADgM+l6i+R4BnAb9MVF9qfwB2B+7JHYiUknsBPNZewI9wUyCLZbRyC/Alwo59ZXkh8HNC91zOc11IWP//INp501v4tZmQI1qV4iKKX8j3BC5OGEvdzKA5K5RJZRreHveRitudRVhoqGoPE853MEPbVSl8bjn2Z5aq9gDOEJByugcfu9dOGx+HSJKk5fAJQH0MELbj3JCwHOc6hMdmawGrEx6fTRsqq41y/LrVhClJagPHAFRvFWBrYNuh/25G2MVuI+J24opxHnAp8HfgasJqYAsyxSJJ6l3hMQAmAOWaBuxI2CXraUN/LnPUbSqLgKuAPxHm9F5GWDZzSc6gJEmPYwJQE9MJI/GfDuwDPIn2dLM8CFxCmC1wAWEVLRMCScrLBCCjrQnzXZ9HuNOflDecytwP/JqwfvjZwJ15w5GkTmrzFMfaGSDc5X8OuJ78C3rUoSwBfgscQRjPIEmqRsxvt3q0I/AZwgpauS+4dS9/Av4HWLvQKy1J6pUJQEnWJGyScQ35L6pNLIsJa4K/DJjc52svSVo+E4CEJgDPJqwjv4D8F9G2lLuBTwGb9v5WSJKWwwQggRWBNxHmwee+WLa5LAV+QZglIUmKYwIQYU3gY4R1qnNfHLtW/gy8mvZMlZSkqpkAFDALOBaYR/4LYdfLTcDhwNRx3zFJ0rJMAPqwDvAF8u9RbXl8uZnQDdOVtRQkKZYJQA+mAe8lrGiX+0JnGb/8C3gNLlQlSctjAjCOScBbCaPQc1/YLP2VywiLLkmSRlf4N7btd1j7AF8GtswdSI+WALcBNw799x7gjqH/zgYeAeYSnmKMtQ7/ikNlNWAlwnbCa/Po1sIbApsAa5R1EokNAqcS1mO4LXMsklQ3he/k25oArAccR1iApo4WERYX+hthl70rCcsK3wwsrCiGVQiJwGbA9oTtibcDNqio/X7NAz5BWI2xqtdIkuquE4/yezFAWIL2IfI/vh5ZbgdOA94J7AJMKesFSGAmsB/wccKuf3WbJXEV4TWUJMX9nrbGFoTtanNfoAYJj+l/DrwdeGKZJ12BScCehLUSLiN0PeR+fZcQunZWLvG8JakJOp0ArEDoH36EvBelO4GvEZYRbvO69zOBg4Azyf+a3wTsVe7pSlKtdTYB2AC4iHwXoNmENQV2I3Q/dM10wjiLH5Nv34QlhHEBLiIkqYs6mQC8FHiA6i84C4AzgBfhgjUjzSKs5ncFeRKBK2nObA9JSqVTCcAU4BtUf4G5DfgQYSqdxrcj8C2q7yKYCxxS/ulJUm10JgGYApxLtReVS4ADcMOaImYBHyAkT1W+Z98mrIEgSW3XmQTgs1R3ETmbMPpd8aYAbwRuoLr37wpgowrOTZJy6kQCsBFhAZ2yLxw/BXao5pQ6ZyJh+9+rqSYJuIewGqQktVUnEoAjKfdicQEuMFOVicAbqKZrYBHwlmpOS5Iq14kE4JeUc4G4CnhOheehR61I2KFxDuUnAp+hm1M1JbVb4d/FJu0FcBmwU8L65gBHA18BFiesV/1bC/gU5W8BfDpwGOGpgKT2m0+YjdRmjbqTL+o80twJLiVMUVuz2vDVg12BP1P+0wCLxdKd8gBhbNf+tHMDvJjXpjFSzAC4EXhG1YGrL8NLOz9M/h8Oi8XSrnI+7bv5i3k9GmNnip/kEuDzwLTKo1ZRm1OfzZ0sFkt7yrXADNoj5rVolJ/Q/wnejPP5m2oAeAehHy/3j4bFYmlPOZX2KPw6NK0/ZB3CXeETevz3pxEWoHmgtIhUhe2BH9D8rZUl1cMgYcnyK3IHksBg0QObNi3qTkIf/mXL+XdzCPPMhzcMUrP9BXgK8M3cgUhqhQnAgbmDyK1pCQDAv4DdCZu+XAwsHPH/3QAcC2wBnFB1YCrVPOBQwlTBtk/rkVS+J+cOILemdQGMZgph45cFhJHjar8dCFsyb5g7EEmNdTlp15bJpTNdAKNZQHjM78W/O/5M6BL4Te5AJDXW7NwB5NaGBEDddC+wL/D13IFIaqTf5w4gNxMANdliwkY/RxPxGExS5yyhXVMBCzEBUNMNAscAr8M9HST15v+Af+YOIrc2DAKUhr0YOIUwMFSSRnMpYTp5W2YTFX76WVUCsCZhTv5TCUsw3k9YgOFHwB0VxaBu2JcwQ2Cl3IFIqpVB4LuEbsM2DRqvbQIwidA/+05g6ij//yLCGv1H0Z5sTPntBfwcmJ6wzgcJ/YaSmmMxYQG5i4GTCFP/2qaW458mA7+itzWJLwRWzhOmWurppN1R8GvVhi9JPYn5XSvNiX0G8v0yg1En7UdYJyJVEvDSasOXpOWqXQJwQMFg9igrIHXW/oSuphQJwBxg42rDl6Rx1SoB2IjwQ1kkmJPLCEid93rSPQX4A2FsiyTVQW0SgInAbyOCuTV1QNKQj5MuCTi62tAlaUy1SQA+HBnMotQBSUMmENYISJEALCTsJS5JudUiAdia+AFX83BxIpVnKvA70iQBV+GCQ5Lyy54ArEDYWCH2R7WNczRVL2sCt5EmCfhkxbFL0rKyJwDvigxiuHwgVUDSOJ5GmumBi4AnVRy7JI2UNQHYmPDoPvbH9F5gZoqApB68nTRJ629xUy1J+WRNAM6MDGC4vCZFMFIfUg0KPLTqwCVpSLYEYN/IxofLD2IDkQpYGbiB+M/vffj0SlIeWRKAycDVkY0PArcQdgiUctiVsGFI7Of4S1UHLklkSgCOiGx4kPDDu1tMEFICnyD+s7wI2LLqwCV1XuUJwAzg/siGB4FPFQ1AjbEr8AXCYLnLgXOAY4BNcwa1jEnAZcR/nn9RdeCSOq/yBOBTkY0OAv8EViwagGpvPcLFfrynP5+nPp+B7UizadAzqg5cUqdVmgCsS/y0v6X4Q9lmGwE309tn4TxgpSxRPt6niU8ALsPVLCVVp9IE4PjIBgeBrxdpWI0wAFxKf5+Hr2SJ9PFWAm4i/vO9X9WBS+qsyhKAjQkbocQ06II/7fZmij0RemKOYEexH/EJwOX4FEBSNSpLAL4W2dgg8JZCp6gmmELY0rnI5+LTGeIdS4rFrV5YedSSuqiSBGAt4OHIxv5M2DhI7fQ2in82LskQ71g2J/5J1x8qj1pSF1WSAKQYILVX4VNU3U2l+N3/IHBN9SGP60vEf953rzxqSV1TegIwA3gwsqGzok5RdRe7uc4V1Yc8rjWAOcSd088qj1pS15SeAMSu+rcU2CHqFFVnKwJ3EPcZ+XblUS/f+4n/3Ls6oKQylZoADBC/Ycqp0aeoOnsHcZ+PQeB5lUe9fNOA2cSdl3sESCpTqQnA8yMbWAJsHX2KqquVgDuJ+4xcTX0Hh36QuHP7NzC98qgldUWpCcDZkQ2cEX9+qrEUm0K9ovKoe7cKYbvfmPN7c+VRS+qK0hKATQh38DENPDXJKaqOpgF3E/f5+Duhm6nOjiLuHP9afciSOqK0BOCYyMrPTXN+qqn3EH/3f2DlUfdvFvAIcefpIFhJZSglAZhA/OC/5yQ7RdVNirv/q6j/3f+wE4g7189XH7KkDiglAdgrsuLrac6Pu/r3PuLv/g+oPOritiFM6yt6rrOBSZVHLantCv8GTxyn0oMjg/oq4QdT7TMdeGdkHX+nWQNErwIuAJ5e8PhZwKG4RLBUpaWEJ5V35A6kSSYTtwraPMLqgWqn2Klxg8BLKo863oHEn7fFYqm+3AB8iHZOyY15XUb13MhK67iqm9JIMS3uSprZPTSF+HO3WCz5yo3AtrRL4ddjrB/h2LszE4D2OhxYPbKOD9PM7qEFwCm5g5BU2MaErrxNM8dRCxNG+bsVCP0laxas8xbCi9zEH3iNb1VCBh2TAFwB7EjIQJtoJ+Cy3EFIinIxsGfuIBIp/Fs62hOAXSl+8Qc4GS/+bfUO4u/+j6K5F3+APxKWLpbUXHtQfEBva4yWAMRuyuIj0nZalbDlb4w/AT9PEEtup+UOQFK0Jg5ETmq0BODZEfVdD/wt4njV17uIn9lxJM2++x/WpOmLkka3Ve4Acls2AZgFbB9R348jjlV9rQb8v8g6/gSclSCWOvgLYVqRpOZq45TAviybADxzlL/rhwlAOx1BSAJifIh23P0P87MuNduduQPIbdmL/bMi6pqNq5y10Uzi+/4vJWwr3SY/yx2ApCgX5g4gt2UTgN0j6vo1jv5voyOAlSPrOCpFIDXze2Bu7iAkFTIPB6w/JgGYRdziCL+KjEX1MxN4a2Qdv6Od20IvxDsIqak+gV0Aj0kAdmH0hYF6MUg7f+S77j3E3/0fmSKQmvp17gAk9e17wCdzB1EHyyYARV2Duy21zRrAWyLr+C1wXoJY6soEQGqOucB7gYNo14DkwkZuB/y0iHp+FxuIaud9xN/9fyhFIDX2D8KumUVnSNyBjyGlMj0M3EZY+vc04J684dTTBOABiu8q9LrqQ1aJ1iIMkonZdeviyqPO4xyKv0ZfyxCvpHaJ3g1wA+LmefsEoF3eC6wUWUfb7/6HXRpx7JbJopCkgvajeBbxAMUHD6p+1ib+7r/N/f7Lei7FX6fZGeKV1C7RTwC2i2j8ShxQ0SbvJ/7u/5gUgTTE5RHHziIMtpSkyg0nANtE1OHmP+2xDnBoZB3nAhcliKUp7iHuTt5uAElZDCcAMQsA/TVFIKqFDwArRtbx0RSBNMzfI441AZCUxXACsHFEHVelCETZrQO8PrKOc+jO6P+RYhKAzm9JKimPAWAVQl9kUf9MFIvy+hDxd/9HJ4ijiWISgCcmi0KS+rQ9xUcR/jtDvEpvfWA+cSP/f1F51PXxLIq/bo6hkRQjahbAhhEN3xBxrOrjg8CUyDq6NPJ/WTdHHLt2sigkqQ8DhL7fom5MFYiy2QB4bWQdPwcuSxBLU91K8amwM4FJCWORpJ4MAGtGHH9rqkCUzYeAyZF1fCRFIA32CMWnAk4gbgyOJBUyQFj3vShXMmu2DYGDI+v4CfDHBLE0XUwyHPMdlKRCBojrg7wrVSDK4kji7v4HgY8liqXp7o041nEAkio3QNxSpD4BaK6NgFdH1nEmcUvhtsn9Ecf6BEBS5QaA6RHHu7dycx1F/N1/l0f+L+u+iGNjxuFIUiGxCcBDqQJRpTYl/u7/DFwGeqSYJwBTk0UhST0aIG7nt4dTBaJKHQlMjDh+kG6u+T+emEWxYmdhSFLffALQPZsBr4is40d497+shRHHug6ApMoNEPf40ScAzXMUcXf/S3Hk/2gWRBxrAiCpcgM8uiNgEUtSBaJKbAa8LLKOH+L69aPxCYCkRhmg+BKmap5jiLv7X4Kr/o3FJwCSGmWAsBSp2m8r4u/+TwGuThBLG8U8STMBkFS5mB8tNctRxHf32Pc/tpiR/CYAkio3QBjUVVTM42RVZ2vggMg6vg9ckyCWtopJABxMK6lyA8T9+ExLFUgF1gK2Af6L7j35OJq4c16M8/6XZ0rEsU6nlVS5AWBuxPErpwqkJKsQHn1fT9i46G+EXdvuAr4KrJ8vtMpsB7wkso7vAdcliKXNYhKAmO+gJBX2D8JMgCJlmwzx9moHwsV+vPjnAQfmCrAip1P8/R0EFgGbVB5183yU4q/xOzPEK6kdCv++t/UJwBOB8wiP+8ezEmFk+9tKjyiPbYEXR9bxHeCGBLG03eoRx9oFIKlyA8T9+MxKFUhCA8CpwGo9/vsJwBeBw0qLKJ+PEtf3vwj4eKJY2i4mAbALQFLlBojb0reO+5i/hNDv3Y8JwJdpVxKwA/DCyDq+DdyYIJYumBlx7IPJopCkHk0E7o44vo4JwP4FjxtOAiAMEGy6o4lb5Gkh3v33Y42IY/cB1ksViDphNiE5vzJ3IGq2D1J8EMEXM8S7PH8lbtDbUpo/JmBHwnnEvA7HVx51s91L3OttsRQpNwJvBFZAXRXz+eENEQefWcHJ9et64r9US2l2d8DPiTv/BcAGlUfdXNPJfyGwdLucRX0HZatchT83A8R1AdRxeljM+Qxr8piAnYH9Ius4AbglQSxdYbKk3J5DmNHUtUXOFGlbimcQ86jfZkKfJF1W3cTugLOIO+f5dGOBpJSeS/47QItlEHgt6pqYzwsrEddfvE7559eXLQlL16b6QjWpO2AX4s/3y4+rVcvzdvL/8Fssg7hfRxfFfF4AuCOigj1LPrkivkTaL1VTkoBziDvPR3A0ehHHk/+H32IZLpujLin8WRnuL4qZ693vnPsqvAu4IGF9TRgTsBvw7Mg6/g+4PUEsXVPnJbHVPZvmDkDNMJwAXB9Rx5NSBJLYQsJAuPMT1jmcBNR1TMAxkcfPBz6dIpAO2ip3ANIIk3IHoGYYTgCuiqijjk8AIGxz/HzSJwFfpH5JwG7AMyLr+Bre/RexHjAjdxDSCM7gUV+eTfF+hHnUexGKlYDfkLaPrW6zA84n7nweAdatPOp2eDH5+3wtluFyN/X+PVZ6hT8vw08AYpaTXIn6PgWA9j8J2B3YO7KOrxAGgqp/u+QOQBrhq8CS3EGoee6ieCZRhwvh8rT1ScAFxJ3DXOq5p0NTXED+uz6LZZAwBXA66pqYz8x/xEwh+36JJ5dS25KAZ/QY43jlU5VH3R4TCQlU7h9+i+UmYDPURTGfm/84JqKSf5V3bsm1KQm4sGC8w2UusGblUbfHTuT/4bd0uywBvkXcbpRqtsKfn4kjKvldRAAbEvYFuCGijqoMjwn4OfD0RHUOjwmA6lbSexbxizB9ibCtqIp5ZsSxDwMnpwpEnTOP8Mj/l8BtmWNRC6xC3BK6b6k+5ChNfxJwUWSsDwGzKoq1rWI+P2dniFdS+8RcBx7jrxEVnVHSyZWpqUnAvgni/HjJMbbdSoTFk4q+/u+tPmRJLZQsAfhqREVzCIOimqaJScClkfF59x/vOcS9BztVH7KkFkqWAOwfWVmqPvWqNSkJeF6C2D5SQlxd8xXikmUXa5GUQrIEYBXCOvpFK2vyVrJNSQL+EBnTHGD1xDF1zQBxO2j+pPqQJbVUsgQA4JKIyu7k0f0FmqjuScDzE8RzdKJYumw34t6D/6k+ZEktlTQB+HBkhbulP79K1TkJuCwyjjm4cU0KxxH3PmxbfciSWippAhC7uMkXH19l49QxCXhRghg+HNG+ggHCwldF34OYrbclaVlJE4AJxP3A3QtMSX2GGdQpCZgA/DGy7QeA1Qq0rcfah7j34djqQ5bUYkkTAIDPRVa6f9rzy6YuSUDs7IxB4IN9tqnRfYe498Hpf5JSSp4A7B5ZaZtGOedOAiYAf4ls717CDA/FmU5YQ6Ho+3AL4f2UpFSSJwADhBH9RStdCKyT9BTzypkEHJCgrfcXP3WN8Dri3ofPVR+ypJZLngBAGMwXU/Ex6c6vFnIkAROIW555kHD3v3L02QvgcuLei92rD1lSy5WSAOwYWfFdtGMw4EhVJwEHJqj/PWlOvfNiu8VupdlrZEiqp1ISAIi/+zwozfnVSlVJwABwZWS99+DdfyqnEfdeHF15xJK6oLQE4F2RlV+e5vxqp4ok4OUJ6jwi/al30obAIoq/D4uBDSqPWlIXlJYArEXcD98gYevaNiozCVgB+EdkXbMJo9YVL3Za7C+qD1lSR5SWAAD8KLKBC+PPr7amAxeRPgk4PUE97yzxvLtkLWAece/FiyqPWlJXlJoA7BnZwCCwR/Qp1lcZTwJiy51DcSneZ4h7L+4AJlUetaSuKDUBALgispFz486v9uqWBBxe7ul2xixgLnHvxUcqj1pSl5SeAMQugDIIPDPqFOuvLknAHcCKJZ9rV/wvce/FAuC/Ko9aUpeUngCsSBhUFtPQ5bR/GdQ6JAEpth0WbAQ8Qtx7cULVQUvqnNITAAibycRenF5e+BSbI2cS4N1/Oj8g7r1YDGxeedSSuqaSBGBVwpayMY3dSDcuULmSgMOqOLkO2JkwGyPmvTi18qgldVElCQDAxyIbGwSOKnSKzVN1EnAL7Vt6OYcJwCXEvRdLge2rDlxSJ1WWAMwkbjvUQeBhYOMiZ9lAVSYBb67onNrutcS/Fy78I6kqlSUAAMdGNjgI/KRIww1VRRJwMzC5qhNqsTUI+yfEvh/u+iepKpUmAKsRtpiN/ZE8oEjjDVV2EnBodafSaicR/178tOqgJXVapQkAwLsjGx0kbBc8s2gADVRWEvAvvPtPYW/iB/4tArasOG5J3VZ5AjCV8Ng59uJ1ctEAGqqMJOD1lZ5BO00HriP+vfhy1YFL6rzKEwCAQyIbHi4vjAmigVImATfh3X8KJxL/XswhLB0sSVXKkgAMAJdGNj5IGHS1bkwgDZQqCTik4rjb6MWkScbeXXXgkkSmBADgKcCSyAAGgV8TEoouiU0CrgcmVh51u6xDmlH/NxG6xSSpatkSAIDjIwMYLu9LEUzDTAcuotjr9eoM8bbJROAC0nx29682dEn6j6wJwEzSTAtcCOyRIqCGKfIk4Ne0f2Olsn2aNBf/H1UduCQNWYniv13zUgVxUEQQI8tddHP71OnAefT2Gv0VWCtPmK3xYuKn/A0C9wFrVxy7JA1bl7jrbTI/iwhkZPkD3VzTfhLwKWA+o78uSwgL1czIFF9bbE4YsZ/is3pItaFL0mPsQfHfr+tSBrIe8bsFDpcTUwbWMOsDRwCnEzal+SVhK+atcgbVEjOBa0nzGT0Hu2Ek5fU2iv+GXZQ6mNdFBLNs+UDq4NRpU4ALSfPZfAjYqNLoJenxTqf479g3UwczgbAWeoof2aXAq1IHqE6aAHyHdMnpYdWGL0mPM4243XlLWbtkDeD2iKBGlvmENdqlGB8h3cX/9Ipjl6TRHEzcb9m+ZQW2F7A4Mrjh8m9gp7ICVeu9nXQX/5uB1asNX5IeZwLwN4r/li0kzD4rzSciglu23AtsW2awaqVDSTPdbxBYQFj5UpJyO4S437OLyw5wEsVXuRut3EmYwiX14pWkWaZ6uLy92vAlaVSzgLuJ+z37UBWBrgXcFhnoyHIr8MQqAlejvZzwiCvV5+50nPInKb8B4Gzifs+WAk+oKuCdGXtxmyLlbuBJVQWvxnkD6cafDAL/BFar9AwkaXRfIP43rfTH/8t6Q4KgR5b7CYmFNNI7SNfnP0gYe7JZpWcgSY83AfgMaX7XDqk29OCLBQIdrzwIPKPSM1CdHU3az9d8YM8qT0CSRrEK8EPS/K7dTBifV7kVgDP7DHZ5ZQHw2ipPQrUzmbBHQsrP1VLcbllSfs8Grifdb1vWRcxWImz2k/LHehD4OA7S6qLVgfNJ/3k6usJzkKRl7Qr8grS/azcAU6s8idGsORRI6h/tU6jByakymwLXkP5z9F1MJiVVawrhov9h4CrS/64NAvst22iuH7pNCWsErJO43iuAA4AbE9erenkB8G3K2Rr5YkLXkiSVaQJhhtHqwIaEKX5lORPYf7QActmCsDvbWonrfZAwLuCMxPUqvxUIGfKHKffLIkltcTfwZMJieo+xQvWx/Md9wHnAy0j76H4KcCBhpOPw9q9qvjUJWexr8RG9JPViCfAiwr4Bj5P7LuoK4HmELQ1TmgB8kNDNsEniulW95wNX4rRPSerHBwkDpWttR8KiK2UMfJgHHF7dqSihFQkrX6Vc3MdisVi6UL5KgzwJuIvyXoyfkH7QocqzG3Ad+b9EFovF0rRyCvmf8PdtC+AWyntR5hCeBuQc+6DxrUa460+5k5/FYrF0pXwLmEhDbUzalY9GK5cC21V1QurZqyj3KZDFYrG0tSwFjqEFZgG/pdwXaxHweWBmReeksW1PmBGS+wtksVgsTSz3Ay+mRaYS+jGqeOGOIEwfVLXWIzyu8nG/xWKxFCu/BTaihSYQ1vmv4kW8EXgljg+owgzgo4QZGrm/PBaLxdLEci/wBho42K9fBwOPUM2Leg1wECYCZVidcOGfQ/4vj8VisTSxzAU+Q8e6r3cg3KVX9SL/k7DqnF0D8dYGPkFYpjn3l8disViaWO4CPgasQSJNW1J1BmG3tsftalSiu4Hjga8N/Vm924Ew7fJlmEhJUr8eBM4iXPfOARanrLxpCQA8uszv0VT7mH4BcCrwdeB3FbbbNFMIo1HfCuyRORZJaooFhMXPrgX+BPwGuJwwSLoUTUwAhu1B2BJ24wxtXzvU9neB2zK0X0dPJYzVeAXlbNO7PL8CPkuJXxZJSuwBwl44cwlPmP396sMqwInk65NZDJwLvIn02xo3wbbAUcDfyfcePAy8jWYns5KkgvYHZpN3gMYSwu6D/wNsVu7pZjMR2AU4ljBIMvegmMuAJ5Z6xpKk2lsL+D75L0rD5SbgG8CBJBy1mcEWhP78H1Of6XvzgHfR4PWuJUnp7QvcQP6L1MiylLC+wEnAWwhL39bx4jUd2Bt4P2H3xLvJ/9otW84BnlDS+UtSZ7S133RF4MOEJX4nZY5lLAuBq4fK34b+ewNhN8Q5JbY7gTAvf0NCV8XWI8pG1PczcTvwXuB7uQORpDao6499KlsB/ws8L3cgfXrUG4faAAAB60lEQVQQuJmQDNxH2K9guMwhJA8QRpAOm0S4gweYRthWd/URZS1gA2B9mjUnfz5hdP8nCSNlJUnq2TOBK8j/+NrSe1kK/Agf90uSIg0Qlva9jfwXN8v45dfATqO/jZIkFTOVMKr9FvJf6CyPLZcSntZIklSaycBrCEsv5r7wdb1cArxg/LdLkqS0JhO6Bv5C/gthl8pi4Azgact/iyRJKteOwHeAReS/QLa1/JuwodIWPb4nkiRVZmPgU8Ad5L9gtqVcBryZR6cqSpJUWxOB5wOnEbZqzH0RbVq5F/g8sF2/L7wkSXUxkzB74HxC/3Xui2tdy78J3SjPo76rMEqSVMgs4A3AL/HJwCBhz4ATCbsyTo14XSVJFWn7UsBVWBXYhzB//Vm0dyvgkRYDlxMW7PnZ0J+XZo1IktQXE4D0NiIkAnsAOwObZ40mjUWEaZIXE7pALgQeyhqRJCmKCUD5ZhISgZ0Jy9tuTdiUp64W8egOhX8kjN6/grApjySpJUwA8liFsFPhNsCWhA1vNhgqa1QUw52E7YdvHPrvdcBVwDWEJECS1GImAPUzDdgQWJuwje/MobI6sDJhHv3w6PrVePQ9XELYRhjgkaE/D5f7CQP1ZhM2Q5rNo1sKS5IkSZIkSZIkSZIkSZIa6v8DOxEoP/vjEPUAAAAASUVORK5CYII=;" vertex="1" parent="ItPSY5wFcEl1Enw_Cite-10">
          <mxGeometry x="80" width="42" height="42" as="geometry" />
        </mxCell>
        <mxCell id="iWIH0G1DpRzMX9rk1HO6-0" value="&lt;font style=&quot;font-size: 17px&quot;&gt;SKAT&lt;/font&gt;" style="text;html=1;strokeColor=none;fillColor=none;align=center;verticalAlign=middle;whiteSpace=wrap;rounded=0;" vertex="1" parent="BW0WCOpWz5mmY5giLXIh-2">
          <mxGeometry y="117" width="104" height="30" as="geometry" />
        </mxCell>
        <mxCell id="BW0WCOpWz5mmY5giLXIh-3" value="" style="group" vertex="1" connectable="0" parent="79kG9cvK04CvXiZlhBy5-1">
          <mxGeometry x="150" y="460" width="126" height="154" as="geometry" />
        </mxCell>
        <mxCell id="ItPSY5wFcEl1Enw_Cite-11" value="" style="group" vertex="1" connectable="0" parent="BW0WCOpWz5mmY5giLXIh-3">
          <mxGeometry x="10" width="116" height="117" as="geometry" />
        </mxCell>
        <mxCell id="ItPSY5wFcEl1Enw_Cite-8" value="" style="shape=image;verticalLabelPosition=bottom;labelBackgroundColor=default;verticalAlign=top;aspect=fixed;imageAspect=0;image=data:image/png,iVBORw0KGgoAAAANSUhEUgAAAgAAAAIACAYAAAD0eNT6AAAABHNCSVQICAgIfAhkiAAAAAlwSFlzAAAN1wAADdcBQiibeAAAABl0RVh0U29mdHdhcmUAd3d3Lmlua3NjYXBlLm9yZ5vuPBoAACAASURBVHic7N15tF1Vlff970xCgAABQUB6sEITaZJAEgJIU0gnakQey1fhLaFQFJHC4rEBRTGFPCWgoKJ0BYLw8igiSCcoatGFAIEECAiIgkaQQGikCQQIJPP9Y+2E5Obm5t5z9tzr7LN/nzHOUMg5a84w9jhznrXXXsvcHakfM1sf2B4YA2wErFG83rHY/18DGJIrRxGpvfnAi4u9Xljs/z8J3Avc6+6PZ8tQWmZqADqfmb0D2Iu3C/4YYJ2sSYmIvO15imYAuAf4vbs/lzclWR41AB3KzNYCDgA+CrwPWCFvRiIi/TYfuBm4HLjS3WfnTUd6owaggxS/9D9GKvp7oOl7Eam/BcBkUjPwc3d/NnM+UlAD0AHMbD3gi8BngVUzpyMiEuU14MfAd7RuID81ABmZ2WbAV4B/A1bMnI6ISFXeBP4vcLK7P5I7maZSA5CBmY0Avgl8AhicOR0RkVwWAL8EJrn7g7mTaRo1ABUysyHAl4ETgJUypyMi0ineBE4BTnL3N3In0xRqACpiZuOA84BRuXMREelQjwCHu/vk3Ik0waDcCXQ7M1vFzE4H7kDFX0SkL1sCt5jZOWa2eu5kup1mAAKZ2SjgSmCz3LmIiNTMLOCj7n5H7kS6lWYAgpjZRGAKKv4iIq1YH7jJzA7KnUi3UgMQwMy+TPrlv0ruXEREamxF4P+a2YlmZrmT6Ta6BVAiM1sBOAc4LHcuIiJd5jLgUHd/LXci3UINQEnMbDXgWmD33LmIiHSpu4H3u/vzuRPpBmoASmBmKwG/Ju3fLyIice4G3ufuc3InUndaA9CmYnOfn6PiLyJShXHA1Wam7dPbpAagDcWilAuAiblzERFpkH8Gfl78AJMWqQFozw+Af82dhIhIA30Y+LGeDmidGoAWmdnxwL/nzkNEpME+CZyaO4m60iLAFpjZbsBNqIESEekEH3L3X+VOom7UAAyQma0BzAA2zp3LYt4A/gA8AMwG/gG8ULzeypiXiNTbEGANYM3itS6wLbANaZOeTvEssJ27P507kTpRAzBAZvZz4GOZ03gT+D1wBTAV+KO7q9CLSCWKxXdbATsCBwJ7AytkTQpuIO0RoKLWT2oABsDMDgUuzJjCZOAnwJXu/kLGPEREFilmRg8ADiHvI9HHuPv3M8avFTUA/WRmI4B7gVUzhL8O+La7T8kQW0Sk38xsJ+BrwAczhH8D2NHdZ2SIXTtqAPqheMxkMrBLxaEnA/+ui1lE6qY4Dv0MYLeKQ98P7KDbosunVez982mqLf4vA0cCu6v4i0gdFd9dewCfBV6qMPR2wDEVxqstzQAsh5mtA/wReEdFIW8CPunuf68onohIKDNbn7R+ap+KQs4F3uPuf6soXi1pBmD5Tqe64v/fwL4q/iLSTdx9FrA/8MOKQg4DzqwoVm1pBqAPZvY+0uN20eYDX9LqVRHpdmb2OdLagCr28f+ou19RQZxaUgOwDMVJUw8AmweHWgD8v+7+s+A4IiIdwcz+F+kU1cHBoZ4ERuro4N7pFsCyfY344g9plb+Kv4g0RvGr/LMVhNoAOKmCOLWkGYBemNmWpEdJhgaHOsHdvxUcQ0SkI5nZl4k/zGcBaW+AacFxakcNQC/M7Cbid7P6ubt/PDiGiEhHM7OfkHYQjHQPMN7d5wfHqRXdAujBzKrYyvJx4IjgGCIidfDvwGPBMbYHjgqOUTuaAViMma1Feub/nYFhFgB7uPvkwBgiIrVhZjsCtxH7ZMAc0oLAJwNj1IpmAJZ0KrHFH+A7Kv4iIm9z96nA/wkOsxrp8UMpaAagYGa7ATcDFhjmL8A27v5aYAwRkdoxs6GkxddbBoea6O7XBseoBTUALLrw7gNGBofaz91vCI4hIlJLZrYHaTv0SI+Ttgl+NThOx9MtgOTLxBf/n6v4i4gsm7vfDFwUHGZjYFJwjFpo/AyAmf0T8AdgpcAwLwFbufvTgTFERGrPzN5JWoy9VmCYt0hHBt8fGKPjaQYAziK2+AN8VcVfRGT53P050qxspCHAuWbW6BrY6L+8mX2C+OMppwLnBscQEekmPwFuDY4xgWq2I+5Yjb0FYGZrkKaZ1g0M8xYw1t1nBMYQEek6ZjaStDg7ckv2Rt+ebfIMwLeJLf4A31fxFxEZOHd/mPhzAlYHvhcco2M1cgbAzCYAtxP7zL8eNRERaYOZrUQ6ln1EcKh93f23wTE6TuNmAMxsCOmefGTxBzhKxV9EpHXu/jpwZAWhziqajUZpXAMAHANsFxzjl9ppSkSkfe7+O+CnwWH+CfhGcIyO06hbAGa2CfAgsEpgGB04ISJSIjNbl7Roe43AMG8Co939ocAYHaVpMwA/Irb4A3xDxV9EpDzuPhs4LjjMCsA5ZhZ9e7hjNGYGwMwOBK4IDjMd2NHd5wfHERFplKIwTwF2Cg71KXe/IDhGR2hEA2BmqwEPAxsEhlkAjHf36YExREQay8y2Be4h7eQX5R/AlsWOhF2tKbcATiK2+AP8SMVfRCSOuz8AnB4cZk3gtOAYHaHrZwDMbAfSdryDA8M8SVr4NycwhohI45nZMNJi7k2DQ+3p7tFHE2fV1TMAZjaY9Mx/ZPEH+IKKv4hIPHefCxxVQaizzSxyG+LsuroBAD4P7BAc41fuHr24UERECu5+HXB5cJgtiX/yIKuuvQVgZhuQFv6tFhhmLmm7378FxhARkR7MbH3Sd/zwwDBvANu6+58DY2TTzTMAZxBb/AEmqfiLiFTP3WcBXw8OsyJwdnCMbLpyBsDMPghEb8V7P7CDu78VHEdERHphZoNIi7zHBof6V3e/JDhG5bquAShWiD4EbBIYxoGd3f3OwBgiIrIcZrY9cBexi72fAbZy9xcCY1SuG28BTCK2+AOcq+IvIpKfu98D/DA4zDrAKcExKtdVMwBmth1pO97IXaKeJj3z/2JgDBER6SczW5W0IHDDwDAO7OruUwJjVKprZgCKfaLPJbb4Axyj4i8i0jnc/RXg34PDGOmwoBWC41SmaxoA4LPAhOAYv3X3S4NjiIjIALn7VcA1wWG2Ab4YHKMyXXELoKKzol8HtnH3xwJjiIhIi8xsY9Ii8Mhj318Dtnb3vwbGqES3zAB8j9jiD/AtFX8Rkc7l7o8DJwSHWRk4MzhGJWo/A2Bm+wA3BId5CBjt7m8GxxERkTYUZ8BMA0YHh/qYu/8iOEaoWjcAZrYS8AfgnwLDOLC7u08OjCEiIiUxs/HAHcTOcj9F2hvg5cAYoep+C+DrxBZ/gAtV/EVE6sPd7wLOCQ6zHvBfwTFC1XYGwMxGAvcBkcc1Pkvq8P4RGENEREpmZquT9gZYLzDMAmCCu98dGCNMLWcAimf+zyG2+AN8ScVfRKR+3P0l4D+CwwwCzi3WHdROLRsA4FBgt+AYN7n7xcExREQkiLtfBvwmOMwY4OjgGCFqdwvAzN5JeuZ/rcAwbwCj3P2RwBgiIhLMzDYDHiQ9vhflFeA97v5EYIzS1XEG4LvEFn+Ak1X8RUTqr9iw58TgMKsSfyBR6Wo1A2BmewA3BYf5E7Cdu78RHEdERCpQ7N9/L7B1cKgD3P3q4BilqU0DYGZDgRnAVsGh3ufuNwbHEBGRCpnZLsBk0qE+UZ4g3Qp4JTBGaep0C+BY4ov//6fiLyLSfYpjfM8PDrMR8J/BMUpTixkAM9scuB9YKTDMP0jP/D8bGENERDIxs3eQFpGvExhmPjDW3e8LjFGKuswAnEVs8Qc4VsVfRKR7ufsLxB/nO5i0N0DH19eOT9DMDgb2Cg5zG/Dj4BgiIpKZu18C/E9wmPHA54JjtK2jbwFUNF3zJjDG3R8MjCEiIh2iuK38ALBiYJiXSbeVnwqM0ZZOnwE4mdjiD/BdFX8RkeZw9z8Tf5DPcOD7wTHa0rEzAGa2M2lqPvKRjb8A27j7a4ExRESkwxSPlt8PbBkcan93/3VwjJZ05AyAmQ0BziW2+AN8XsVfRKR53H0ecEQFoc40s8htiFvWkQ0AaZXmNsExfu7u0YdEiIhIh3L3m4GLgsNsBpwQHKMlHXcLwMw2JR3cMCwwzEukxRlPB8YQEZEOV9EBcx252LwTZwDOJLb4A3xNxV9ERNz9OeArwWFWIO0NEH1be0A6agbAzP4FuCw4zFRgZ3dfEBxHRERqoCjMNwO7BYf6jLufFxyj3zqmATCz4cDDwPqBYd4ibdE4IzCGiIjUjJmNBO4DhgaGeYF0+/mZwBj91km3AP4PscUf4Acq/iIi0pO7Pwx8JzjMO4DTgmP0W0fMAJjZOOBOYhuSx0nHNL4aGENERGrKzFYC/gD8U3Covdw9ejvi5co+A2Bmg0nP/EfncpSKv4iILIu7vw4cWUGos80schvifsneAABHA2OCY1zp7tcGxxARkZpz998CPwsOsznwteAYy5X1FoCZbUha+LdqYJg5pKn/vwfGEBGRLmFm65L2BlgjMMwbwCh3fyQwRp9yzwD8kNjiD/ANFX8REekvd58NHBccZkXg7OAYfco2A2BmE4Grg8PcA4x39/nBcUREpIsUewNMAXYKDnWIu18cHKNXWRoAM1sFeAjYODDMAmBHd58WGENERLqUmW1L+iE5JDDMs6S9Af4RGKNXuW4BnEhs8Qc4U8VfRERa5e4PAN8LDrM28fsP9KryGQAzGw1MAwYHhnkSGOnucwJjiIhIlzOzYaQZ600Cwziwu7tPDoyxlEpnAMxsEOmZ/8jiD/AFFX8REWmXu88FPh8cxoBzzGyF4DhLqPoWwBHA+OAY17n7FcExRESkIdz9OiC6rrwH+HJwjCVUdgvAzNYjPfO/emCYuaRn/v8WGENERBrGzNYn7Q2wWmCY14Bt3P0vgTEWqXIG4HvEFn+ASSr+IiJSNnefBRwfHGZl4KzgGItUMgNgZvsBvw4Ocz+wg7u/FRxHREQaqFjHNhUYGxzqE+5+aXCM+AbAzFYmna707sAwDuzs7ncGxhARkYYzs+2Bu4hdzP40aW+AlwJjVHIL4BvEFn+Ac1X8RUQkmrvfQ9rGPtK7gG8Hx4idATCzrYF7gchHG2YDWwFvAhsUr7XJf86BiIh0hwWkHfueBGYV/+5hYMPgmDu7+9SoAGENQLGP8q3Ae0MCvO0V0n+o4cFxREREAF4mPbsf+UQAwAxgbNTatshfyZ8ivvhDOk1QxV9ERKoynPjiDzAK+I+owUNmAMxsbdLzkmuWPriIiEhzvEra3+bxsgeOmgE4DRV/ERGRdq0C/Chi4NJnAMxsT+B/Sh1URESk2Q509yvLHLDUBsDMViRtyLNFaYOKiIjI30m3Ako76K7sWwBfRcVfRESkbBsC3ypzwNJmAMxsC9Kv/xVLGVBEREQWNx8YX2xG1LYyZwDORsVfREQkymDg3OJMgraVMoiZ/SuwZxljiYiIyDKNBT5fxkBt3wIwszVJz/yvXUZCIiIi0qc5pMOCZi33nX0oYwbgVFT8RUREqrIacEa7g7Q1A2Bm7yXt92/tJiIiIiID8kF3v67VD7fcAJjZCqST/rZuNbiIiIi0bCawtbvPbeXD7dwC+BIq/iIiIrlsCnyz1Q+3NANgZu8G/gCs3GpgERERadtbwPbu/sBAP9jqDMCZqPiLiIjkNoS0N8CA1+INuAEws/8H2G+gnxMREZEQOwGfGeiHBnQLwMxWJz3z/66BBhIREZEwL5L2Bpjd3w8MdAbgv1DxFxER6TRrAKcP5AP9ngEwsx2B2yn/BEEREREpxz7u/rv+vLFfDYCZDQGmAaPaTKws84HbgBnAU728nveyjjkUEZFGKxbYrQWs18trFPBe0kE9neBRYFt3f315b+xvA/BF4LslJNaOucBvgauAX7n785nzERERwczWAj4EHADsQ/6n5E5y928s703LbQDMbGPgIWCVkhIbqOuBc4HfuftrmXIQERFZLjMbRmoCPlf8bw7zgFHu/se+3tSfBuBC4NDy8uq36cCX3f2mDLFFRETaYmZ7kQ7MG5Mh/C/d/X/19YY+GwAzG0H69b9CyYn1ZSZwPPAz3ccXEZE6K9YPHAycBGxSYei3gJHu/uiy3rC8Ff3/RXXFfz7wddJzjD9V8RcRkbrz5BJgS1KNm19R6CGkpmOZljkDYGbjgakBSfXmReDj7n5DRfFEREQqZ2b7ApeSntuP5sBYd7+ntz/sawbglJh8lvIIsKOKv4iIdLui1u1Iqn3RDPj2sv6w1wbAzPYH9ghKaHE3ABPc/U8VxBIREcmuqHkTSDUw2j5mtmdvf7DULQAzGwTcB2wbnNTFwGHuXtX9EBERkY5hZoOBC4BPBoe6293H9/yXvc0ATCS++E8BDlfxFxGRpipq4OGkmhhpnJlN7Pkve2sADgtO5HHgQHefFxxHRESkoxW18EBSbYz06Z7/YolbAGb2LuAJ0uMDEeYCu7j7fUHji4iI1I6ZjSbNBAwLCvEWsIG7P7PwX/ScAfhX4oq/A4eo+IuIiCypqI2HkGplhCGkDYkW6dkA/FtQYIAfu/vlgeOLiIjUVlEjfxwY4tDF/2HRLQAz2xG4MyjoXGCEuz8VNL6IiEjtmdl6pCN9o24FjFk4E7/4DEDk4r/TVPxFRET6VtTK0wJDHLrw/yw+A/A0sG5AsNmkX/+vBIwtIiLSVcxsVdIsQERNftLdN4RiBsDM3h0UCGCSir+IiEj/FDVzUtDwG5jZxvD2LYCdggL9FTg/aGwREZFudT6phkbYCeIbgMvd/a2gsUVERLpSUTt/GTT8BHj7mf+oBuDqoHHDmNlwYANg/R6vdYGXgFm9vJ7xZZ2rLFJTZrYasD0wFhgDrJo3I5F+eQW4F5gG3OPuczLn046rgS8GjLsTpKMCh5EKW9kbAD0DrOfuC0oet3Rmth1wQPEa08IQTwHXAFcBN2qbY6kzM9sWOIf0K6GvI8NFOt0C0uPtR7j7A7mTGajisKDZwFolDz0PGG7A7sDNJQ8OaeOfpfYe7hRmtivwEVLR36zEoecAvyY1A9e4+6slji0SxsyGAMcCJwBDM6cjUqZ5wInAKXW7LW1mFxFzWuDOg2jtF29/XBU0blvMbGczuw24FTiGcos/wGrAx4CfAo+Z2RHFF6tIxyoeO7odOAkVf+k+Q0nX9u3FtV4n1wSNu8MgYO2AgecBvw8Yt2VmNtLMriQdtrBLRWHXBc4GHjSzAyuKKdKKU4FxuZMQCTaOdK3XyQ2kWxllW3cQ5d9bAHjK3V8PGHfAzGwdMzsPeIA03Z/DFsAVZna7mU3IlINIr8xsT+CI3HmIVOSI4pqvhWJPgGeW+8aBWyusAQgYc8DMbAwwnXQO8uDM6UBaeTnZzI7MnYgIgJmtAlxAWhAs0gQGXFBc+3UxK2DM7m0Aiin324ANc+fSwxDgTDM7S2sDpAPsDmySOwmRim1CuvbrIqIBeOcgYM2AgZ8OGLPfzOx44HLiTlMqw+eAG8ws4r+/SH+NzZ2ASCZ1uvY1A7A8ZjbEzC4hrfasw5TmnsBUM9s8dyLSWHX6EhQpU52ufTUA/XAGcHCm2K0aAVyvmQDJpE5fgiJlqtO1H9YArBwwcOWn/5nZUaRp9ToaAfxCawJERKQXEdsZr9wV23ya2d7A93Pn0aY9gR/kTkIaZ1ruBEQyafy1X/sGwMy2BC6jMx7za9eRZlbXWQypp8Z/CUpjNf7ar3UDYGYrkrZJXCN3LiU6w8zG505CGqPxX4LSWI2/9mvdAACfJ+2y102GAKfnTkIa4xZgZu4kRCo2k3TtN1ptGwAzWx04PnceQXYxs1zbFkuDFKdVHgZ47lxEKuLAYTqptcYNAHAcMZsYdYpv66kAqYK73wT8KHceIhX5UXHNN14tGwAz2wD4Qu48gm0FfCp3EtIYx5FOyhTpZlNI17pQ0wYAmETM/gWdZlLNDqyQmnL3ucBuwJeAjjjJU6REbwBfAXYrrnWhhg1AURDrtttfq94FTMydhDSDuy9w99OA0cCNwJuZUxJp11ukxX7bu/t33H1B7oQ6SR3vMe9L9b/+nwTuBzYCRlLtngMTgZ9VGE8azt0fAd5XPGY7mrRl6hhg1ayJifTPK8C9pMf8Zri7ZrSWoY4NQBWr4+cDZwG/A+5290WnG5rZMNKX4XjSdOn6wbm838xWcHf9GpNKufsbwNTiJSJdpla3AIpV8R8IDvMgMMHdj3b3axcv/pDulbr7FHf/HrA1cHFwPqsDewTHEBGRhqlVA0BapBT56N+pwA7u3q8dotz9RXc/hDRN/1xgXloHICIipapbA/DhwLEvcfdji2nPAXH3a4FDy09pETUAIiJSqro1AKOCxp0FHN3OAO5+HXBhOeksZWMz66bzDkREJLO6NQBRC+4Od/cXShjnGOCJEsbpTfRiQxERaRA1AHCnu19fxkDu/hJwWhlj9UINgIiIlKY2DYCZDQcidsW7u8PHW0gNgIiIlKY2DQBxBbDsM6HvJe0jUDY1ACIiUho1ACU3AO7+GvBQmWMW1ACIiEhp6tQADA8a9+81GTPq7y8iIg1UpwZgdtC4EY8WRoz5TMCYIiLSUHVqAJ4MGndsmYOZ2XrETNc/FTCmiIg0VJ0agKcBDxi31AYgYLyF1ACIiEhpatMAuPs8Yvbb37U49rQse5c41uLUAIiISGlq0wAUZgWMuRHwn2UMZGZjgSPLGKsXTy//LSIiIv1TtwYgYnU9wJfMbMd2BihmEX4CDC4lo6VFND8iItJQdWsAbg4adzDwEzNbuY0xTgS2Limfnqa7+5ygsUVEpIHq1gBcFTj2VsA9A50JMLM1zewS4CsxaQGxf28REWmgWjUA7v4oMbvsLbQVMMXMTu7PwkAzmwg8CBwcmBPA1cHji4hIwwzJnUALrgLeEzj+YOBY4CAzm0w63GcacD9pweDY4jW+eEX7i7s/UEEcERFpkLo2AF+rIM5GwEHFKydN/0vlzOzdwG7ADsD2wGhgWNakRPpnLnAfcA8wHbjV3f+SN6XOVMcGYBrpaYANcydSkStzJyDNYWZDgOOAE4AVMqcj0ophwM7FC+BNMzsRONnd38qXVuep1RoAAHd34JTceVRksrvfljsJaQYzGwncDnwLFX/pHiuQrunbi2tcCrVrAArnAo/mTqICX86dgDRD8cU4HRiXOxeRIOOA6WoC3lbLBsDd36SadQA5XebuU3MnId3PzAYDFwHt7IMhUgcrAxcV13zj1bIBAHD3XwB35c4jSBMaHOkcx6Jf/tIc40jXfOPVtgEoRG6+k9NZ7v5Y7iSk+5nZJsA3c+chUrFvFtd+o9W6AXD3W4Af586jZI8Bk3InIY3xXmBo7iREKjaUdO03Wq0bgMKRQLeslH8Z+JC7v5g7EWmMsbkTEMmk8dd+7RsAd58HHAjMzJxKuxYAB7n7w7kTkUZp/JegNFbjr/2oBsCCxu2Vuz8LTAReqTJuyb7q7tflTkIaZ7vcCYhkUqdrP6SmDgIijpldK2DMPhX75R9M+iVdN5e4+6m5k5BGeiJ3AiKZ1Onaj6ipcwYBEfeb1wsYc7nc/RrgI9RrJuBM4N9yJyGNNS13AiKZ1Onaj6ipL3ZVAwCLmoCd6fw1AW8CR7j7UdqfWjKq05egSJnqdO2rAeiv4nbAeGByzjz68Bywl7ufmzsRabxu3UxLZHnqdO2rARiIYmHgXsB5uXPpYQYwzt1vzZ2IiLvfBVydOw+Ril1dXPt1oQZgoNx9nrt/BtgVuDNzOrOBzwFj3X1m5lxEFvdZ4PncSYhU5HnSNV8nYQ1AxErItc1s/YBxW+Lut7n7TsBHgT9XHH4u6SjKEe5+ju73S6dx99mkDbVEmuDI4pqvhaKWrh0w9BODSFPSZTPSc/kdxd2vALYGjgL+HhzuNdLthxHufoK71+nJBGkYd78M+ALpuhXpRq8B/1Fc63UykZh9AGYYsAXwSMDgN7j7fgHjlsLMDNgB+HDx2raEYZ8BfgVcA/zO3eeWMKZIZcxsc+BCYJfcuYiU6E7gUHePqHWhzOw3wL4BQ29ppM2AXgZWKXnwecDa7v5yyeOGMLPNSJ3W7sAGwPrAu4AhvbzdSfeRZhWv+0hFf6q713EjIpFFzGwQ8Clgb9LRqZtmTUikNTNJj/r9D3Ceu8/Pm87Amdlw4FnKP7DrVWC4uTtmdgcwoeQAAJ9w90sDxq1E8UW4NqkZWBd4iVTwnyrOIBDpema2FjAGWDV3LiL98Apwn7s/lzuRdpnZx4GfBQx9p7vvtPDX7QxiGoADgNo2AMWv+dnFS6SR3P154Pe58xBpoAOCxp0Bbx8GNDUoyMROehpARESkDoraGbWYfiq83QBcR8whOisDJwaMKyIi0s1OJNXQsi0g1XzM3QEws9uIWfk7Hxjl7g8GjC0iItJVzGxr0jT94IDhp7j7e+HtGQCI2w50MHBK0NgiIiLd5hRiij8sVusXnwHYHPhTUECAPdz9lsDxRUREas3MdgduDgyxhbv/GRZrAIrADwEjg4LeA+ykx+dERESWZmZDgTuA7YNCPOzu71n4D4N6/GHE84YLbQ+cGTi+iIhInZ1JXPGHHjW+5wzAO4HHiVl5uNAX3P2MwPFFRERqxcyOBn4QGOI1YOPFN0haYgag+IOLAxMAON3M9gqOISIiUgtFTTw9OMzFPXdHXGIGoEhkS+BhYk4fWugFYLy7PxoYQ0REpKOZ2QjgLuAdgWEcGNnzMKSeawAo3nBtYCKQ/qK/Lv7iIiIijVPUwF8TW/wBru3tJMSlGoDCacHJAIwA7tLtABERaZqi9t1FqoXReq3pvTYA7n4rcH1oOsk7gN8Uix9ERES6XlHzfkP8L3+A64uavnQePdcALPqDNDXxB2DFwMQWdz7wee0TICIi3ah4zv9M4NMVhXwD2GZZ6+2WdQuA4gPfjcqqF58G7jCzPSqMKSIiEq6obXdQXfEH+G5fi+2XOQMAYGbDSE8EbByQWF+uB45z9wcqjisiIlIaM9sWOBnYv+LQj5NW/s9d1huWjvVujwAAIABJREFUOQMAUHzwf5edVT/sD9xnZhea2YYZ4ouIiLTMzDY0swuB+6i++AN8sa/iD8uZAVj0JrNfAB8tK6sBep30mMRVwK/c/R+Z8hAREVkmM1sT+CBwAPB+YKVMqVzu7v+yvDf1twFYDZgGbFFCYu2YD0wmNQNXu/vMvOmIiEiTmdmmwIdJRX9X4o7x7a8/AWPdfc7y3tivBgAW3ce4ExjWXm6legmY1cvrWdLORyIiIu0yYG1g/V5eq2fMq6e5wIT+rp/rdwMAYGafBC5qMTERERGJc4i79/s8nz4XAfZUDHzegFMSERGRSOcNpPjDAGcAYNFGBlcD+w3ogyIiIhLhN8CHB7qR3oAbAAAzW5n0rP4eA/6wiIiIlOVmYH93f22gH2ypAQAws1WB3wI7tTSAiIiItOMOYB93f6WVD7fcAACY2RrAjcCYlgcRERGRgboX2NPdX2x1gAEtAuypCLwP6UhDERERiXcX6Zd/y8Uf2mwAANz9OWB34NJ2xxIREZE+XQrsXtTetrTdAAC4++vu/gngBLQBj4iISNkcOMHdP+Hur5cxYFtrAHod0OyjpM2COmnHQBERkbqaS9rk5/IyBy1lBqCHK0h79YuIiEj7rgJ+WfagpTYAZrYKqQE4qMxxRUREGuwg4JfF4/elKe0WgJltCFyDHgkUERGJcD/wIXd/vIzBSpkBMLNxpMcSVPxFRERibAfcbWY7lzFY2w2Ame0F3AKs1346IiIi0od1gBvNbP92B2p3J8BdSYcQaMW/iIhIdV4HPuDuN7Y6QDtnAYwDfg8MbzW4iIiItOxV0o6At7fy4VZPA9wOuAlYs5WgIiIiUoqXgPe5+/SBfnDADYCZbQ7cRroPISIiInk9D+zq7g8P5EMDagDMbBgwFdhmYLmJiIhIoIeB8QM5GnigTwGcg4q/iIhIpxkJ/PdAPtDvGQAz+wxwbgtJRZhPug0xA3iql9fzXvYhByIi0khmZsBapMfde75GAe8FBmdLcElHuvvZ/XljvxoAM9sBmAKs2GZi7ZgL/Ja0J/Kv3P35jLmIiIgAYGZrAR8CDgD2AVbOmM4bwC79WRS43Aag2N//AWCzcnIbsOtJMw+/c/fXMuUgIiKyXMVauX2AzxX/m8NfgW3d/dW+3tSfNQDfIE/xnw7s6e4fcPdrVPxFRKTTuftcd7/K3fcF9gbuzZDGZqTa3ac+ZwDMbAvSr/+h5eW1XDOB44Gf6T6+iIjUWbF+4GDgJGCTCkPPI80C/GlZb1jeDMAPqa74zwe+Dmzl7j9V8RcRkbrz5BJgS1KNm19R6KGkGr5My5wBMLOPAL8MSKo3LwIfd/cbKoonIiJSOTPbF7gUWKOikAe6+5W95tJbA2BmKwF/pJrpikeAiX1NU4iIiHSL4vb6NaRZgWh/I82sv97zD5Z1C+CTVFP8bwAmqPiLiEhTFDVvAqkGRtuEVNOXstQMQLFg4SFgq+CkLgYOc/eq7oeIiIh0DDMbDFzAMgp0iR4BRvZcW9fbDMAHiC/+U4DDVfxFRKSpihp4OKkmRtqSVNuX0FsD8MXgRB4nLUqYFxxHRESkoxW18EBSbYy0VG1f4hZAseXvtMAE5pK2KLwvMIaIiEitmNlo0kzAsMAwYxffIrjnDMBRgYEdOETFX0REZElFbTyEVCujLFHjF80AFIsRngHWDAp8vrsfHjS2iIhI7ZnZecCng4b/B7DOwvV3izcAewA3BQWdC4xw96eCxhcREak9M1sPeJS4WwH/7O43w5K3AA4ICgZwmoq/iIhI34paeVpgiEW1fvEZgL8CmwYEm0369f9KwNgiIiJdxcxWJc0CrBsw/Ex33wyKGQAzG0VM8QeYpOIvIiLSP0XNnBQ0/KZFzV90C2C/oEB/Bc4PGltERKRbnU+qoRH2g7cbgDFBQS5397eCxhYREelKRe2MOpF3DMCQ4h9GBwW5OmjcMGY2HNgAWL/Ha13gJWBWL69neu6xLFJ3ZrYasD0wlvSFsWrejET65RXgXtKmdve4+5zM+bTjamJ25x0NYKRHDeaw7JMBW/UMsJ67Lyh53NKZ2XaklZEH0NpsyFOkox2vAm7UNsdSZ2a2LXAO6bSysr8XRKq0ALgTOMLdH8idzEAV+/PMBtYqeegFwGoG7Ej6D1S2H7t71GYGbTOzXYGPkIr+ZiUOPQf4NakZuMbdXy1xbJEwZjYEOBY4ARiaOR2RMs0DTgROqdttaTO7iJjTAicMAkYFDAypAHYcM9vZzG4DbgWOodziD7Aa8DHgp8BjZnZE8cUq0rGKx45uB05CxV+6z1DStX17ca3XyTVB444aBGwbMPA84PcB47bMzEaa2ZWkwxZ2qSjsusDZwINmdmBFMUVacSowLncSIsHGka71OrmBNGVftm0HAe8MGPgpd389YNwBM7N1ir2VHyB2t8O+bAFcYWa3m9mETDmI9MrM9gSOyJ2HSEWOKK75Wij2BHgmYOh3DgLWCBi4I7b9NbMxwHTSwQqDM6cDsBMw2cyOzJ2ICICZrQJcQFoQLNIEBlxQXPt1MStgzDW6tgEoptxvAzbMnUsPQ4AzzewsrQ2QDrA7sEnuJEQqtgnp2q+LWjUATweM2W9mdjxwOXGnKZXhc8ANZhZ1/LJIf4zNnYBIJnW69mvVAGSZATCzIWZ2CWm1Zx2mNPcEpprZ5rkTkcaq05egSJnqdO2rAeiHM4CDM8Vu1Qjges0ESCZ1+hIUKVOdrv2wBmClgIErP/3PzI4iTavX0QjgF1oTICIivYjYznilrtjm08z2Br6fO4827Qn8IHcS0jjTcicgkknjr/3aNwBmtiVwGZ3xmF+7jjSzus5iSD01/ktQGqvx136tGwAzW5G0TWLEOoZczjCz8bmTkMZo/JegNFbjr/1aNwDA50m77HWTIcDpuZOQxrgFmJk7CZGKzSRd+41W2wbAzFYHjs+dR5BdzCzXtsXSIMVplYcBnjsXkYo4cJhOaq1xAwAcB3Tzo3Pf1lMBUgV3vwn4Ue48RCryo+Kab7xaNgBmtgHwhdx5BNsK+FTuJKQxjiOdlCnSzaaQrnWhpg0AMAlYOXcSFZhUswMrpKbcfS6wG/AloCNO8hQp0RvAV4DdimtdqGEDUBTEuu3216p3ARNzJyHN4O4L3P00YDRwI/Bm5pRE2vUWabHf9u7+HXdfkDuhTlLHe8z7Uv2v/yeB+4GNgJFUu+fAROBnFcaThnP3R4D3FY/ZjiZtmToGWDVrYiL98wpwL+kxvxnurhmtZahjA1DF6vj5wFnA74C73X3R6YZmNoz0ZTieNF26fnAu7zezFdxdv8akUu7+BjC1eIlIl6nVLYBiVfwHgsM8CExw96Pd/drFiz+ke6XuPsXdvwdsDVwcnM/qwB7BMUREpGFq1QCQFilFPvp3KrCDu/drhyh3f9HdDyFN0z8XmJfWAYiISKnq1gB8OHDsS9z92GLac0Dc/Vrg0PJTWkQNgIiIlKpuDcCooHFnAUe3M4C7XwdcWE46S9nYzLrpvAMREcmsbg1A1IK7w939hRLGOQZ4ooRxehO92FBERBpEDQDc6e7XlzGQu78EnFbGWL1QAyAiIqWpTQNgZsOBiF3x7u7w8RZSAyAiIqWpTQNAXAEs+0zoe0n7CJRNDYCIiJRGDUDJDYC7vwY8VOaYBTUAIiJSmjo1AMODxv17TcaM+vuLiEgD1akBmB00bsSjhRFjPhMwpoiINFSdGoAng8YdW+ZgZrYeMdP1TwWMKSIiDVWnBuBpwAPGLbUBCBhvITUAIiJSmto0AO4+j5j99nctjj0ty94ljrU4NQAiIlKa2jQAhVkBY24E/GcZA5nZWODIMsbqxdPLf4uIiEj/1K0BiFhdD/AlM9uxnQGKWYSfAINLyWhpEc2PiIg0VN0agJuDxh0M/MTMVm5jjBOBrUvKp6fp7j4naGwREWmgujUAVwWOvRVwz0BnAsxsTTO7BPhKTFpA7N9bREQaqFYNgLs/SswuewttBUwxs5P7szDQzCYCDwIHB+YEcHXw+CIi0jBDcifQgquA9wSOPxg4FjjIzCaTDveZBtxPWjA4tniNL17R/uLuD1QQR0REGqSuDcDXKoizEXBQ8cpJ0/9SOTN7N7AbsAOwPTAaGJY1KZH+mQvcB9wDTAdudfe/5E2pM9WxAZhGehpgw9yJVOTK3AlIc5jZEOA44ARghczpiLRiGLBz8QJ408xOBE5297fypdV5arUGAMDdHTgldx4Vmezut+VOQprBzEYCtwPfQsVfuscKpGv69uIal0LtGoDCucCjuZOowJdzJyDNUHwxTgfG5c5FJMg4YLqagLfVsgFw9zepZh1ATpe5+9TcSUj3M7PBwEVAO/tgiNTBysBFxTXfeLVsAADc/RfAXbnzCNKEBkc6x7Hol780xzjSNd94tW0ACpGb7+R0lrs/ljsJ6X5mtgnwzdx5iFTsm8W132i1bgDc/Rbgx7nzKNljwKTcSUhjvBcYmjsJkYoNJV37jVbrBqBwJNAtK+VfBj7k7i/mTkQaY2zuBEQyafy1X/sGwN3nAQcCMzOn0q4FwEHu/nDuRKRRGv8lKI3V+Gs/qgGwoHF75e7PAhOBV6qMW7Kvuvt1uZOQxtkudwIimdTp2g+pqYOAiGNm1woYs0/FfvkHk35J180l7n5q7iSkkZ7InYBIJnW69iNq6pxBQMT95vUCxlwud78G+Aj1mgk4E/i33ElIY03LnYBIJnW69iNq6otd1QDAoiZgZzp/TcCbwBHufpT2p5aM6vQlKFKmOl37agD6q7gdMB6YnDOPPjwH7OXu5+ZORBqvWzfTElmeOl37agAGolgYuBdwXu5cepgBjHP3W3MnIuLudwFX585DpGJXF9d+XagBGCh3n+funwF2Be7MnM5s4HPAWHefmTkXkcV9Fng+dxIiFXmedM3XSVgDELEScm0zWz9g3Ja4+23uvhPwUeDPFYefSzqKcoS7n6P7/dJp3H02aUMtkSY4srjma6GopWsHDP3EINKUdNmM9Fx+R3H3K4CtgaOAvweHe410+2GEu5/g7nV6MkEaxt0vA75Aum5FutFrwH8U13qdTCRmH4AZBmwBPBIw+A3uvl/AuKUwMwN2AD5cvLYtYdhngF8B1wC/c/e5JYwpUhkz2xy4ENgldy4iJboTONTdI2pdKDP7DbBvwNBbGmkzoJeBVUoefB6wtru/XPK4IcxsM1KntTuwAbA+8C5gSC9vd9J9pFnF6z5S0Z/q7nXciEhkETMbBHwK2Jt0dOqmWRMSac1M0qN+/wOc5+7z86YzcGY2HHiW8g/sehUYbu6Omd0BTCg5AMAn3P3SgHErUXwRrk1qBtYFXiIV/KeKMwhEup6ZrQWMAVbNnYtIP7wC3Ofuz+VOpF1m9nHgZwFD3+nuOy38dTuDmAbgAKC2DUDxa3528RJpJHd/Hvh97jxEGuiAoHFnwNuHAU0NCjKxk54GEBERqYOidkYtpp8KbzcA1xFziM7KwIkB44qIiHSzE0k1tGwLSDUfc3cAzOw2Ylb+zgdGufuDAWOLiIh0FTPbmjRNPzhg+Cnu/l54ewYA4rYDHQycEjS2iIhItzmFmOIPi9X6xWcANgf+FBQQYA93vyVwfBERkVozs92BmwNDbOHuf4bFGoAi8EPAyKCg9wA76fE5ERGRpZnZUOAOYPugEA+7+3sW/sOgHn8Y8bzhQtsDZwaOLyIiUmdnElf8oUeN7zkD8E7gcWJWHi70BXc/I3B8ERGRWjGzo4EfBIZ4Ddh48Q2SlpgBKP7g4sAEAE43s72CY4iIiNRCURNPDw5zcc/dEZeYASgS2RJ4mJjThxZ6ARjv7o8GxhAREeloZjYCuAt4R2AYB0b2PAyp5xoAijdcG5gIpL/or4u/uIiISOMUNfDXxBZ/gGt7OwlxqQagcFpwMgAjgLt0O0BERJqmqH13kWphtF5req8NgLvfClwfmk7yDuA3xeIHERGRrlfUvN8Q/8sf4Pqipi+dR881AIv+IE1N/AFYMTCxxZ0PfF77BIiISDcqnvM/E/h0RSHfALZZ1nq7Zd0CoPjAd6Oy6sWngTvMbI8KY4qIiIQratsdVFf8Ab7b12L7Zc4AAJjZMNITARsHJNaX64Hj3P2BiuOKiIiUxsy2BU4G9q849OOklf9zl/WGZc4AABQf/N9lZ9UP+wP3mdmFZrZhhvgiIiItM7MNzexC4D6qL/4AX+yr+MNyZgAWvcnsF8BHy8pqgF4nPSZxFfArd/9HpjxERESWyczWBD4IHAC8H1gpUyqXu/u/LO9N/W0AVgOmAVuUkFg75gOTSc3A1e4+M286IiLSZGa2KfBhUtHflbhjfPvrT8BYd5+zvDf2qwGARfcx7gSGtZdbqV4CZvXyepa085GIiEi7DFgbWL+X1+oZ8+ppLjChv+vn+t0AAJjZJ4GLWkxMRERE4hzi7v0+z6fPRYA9FQOfN+CUREREJNJ5Ayn+MMAZAFi0kcHVwH4D+qCIiIhE+A3w4YFupDfgBgDAzFYmPau/x4A/LCIiImW5Gdjf3V8b6AdbagAAzGxV4LfATi0NICIiIu24A9jH3V9p5cMtNwAAZrYGcCMwpuVBREREZKDuBfZ09xdbHWBAiwB7KgLvQzrSUEREROLdRfrl33LxhzYbAAB3fw7YHbi03bFERESkT5cCuxe1ty1tNwAA7v66u38COAFtwCMiIlI2B05w90+4++tlDNjWGoBeBzT7KGmzoE7aMVBERKSu5pI2+bm8zEFLmQHo4QrSXv0iIiLSvquAX5Y9aKkNgJmtQmoADipzXBERkQY7CPhl8fh9aUq7BWBmGwLXoEcCRUREItwPfMjdHy9jsFJmAMxsHOmxBBV/ERGRGNsBd5vZzmUM1nYDYGZ7AbcA67WfjoiIiPRhHeBGM9u/3YHa3QlwV9IhBFrxLyIiUp3XgQ+4+42tDtDOWQDjgN8Dw1sNLiIiIi17lbQj4O2tfLjV0wC3A24C1mwlqIiIiJTiJeB97j59oB8ccANgZpsDt5HuQ4iIiEhezwO7uvvDA/nQgBoAMxsGTAW2GVhuIiIiEuhhYPxAjgYe6FMA56DiLyIi0mlGAv89kA/0ewbAzD4DnNtCUhHmk25DzACe6uX1vJd9yIGIiDSSmRmwFulx956vUcB7gcHZElzSke5+dn/e2K8GwMx2AKYAK7aZWDvmAr8l7Yn8K3d/PmMuIiIiAJjZWsCHgAOAfYCVM6bzBrBLfxYFLrcBKPb3fwDYrJzcBux60szD79z9tUw5iIiILFexVm4f4HPF/+bwV2Bbd3+1rzf1Zw3AN8hT/KcDe7r7B9z9GhV/ERHpdO4+192vcvd9gb2BezOksRmpdvepzxkAM9uC9Ot/aHl5LddM4HjgZ7qPLyIidVasHzgYOAnYpMLQ80izAH9a1huWNwPwQ6or/vOBrwNbuftPVfxFRKTuPLkE2JJU4+ZXFHooqYYv0zJnAMzsI8AvA5LqzYvAx939horiiYiIVM7M9gUuBdaoKOSB7n5lr7n01gCY2UrAH6lmuuIRYGJf0xQiIiLdori9fg1pViDa30gz66/3/INl3QL4JNUU/xuACSr+IiLSFEXNm0CqgdE2IdX0pSw1A1AsWHgI2Co4qYuBw9y9qvshIiIiHcPMBgMXsIwCXaJHgJE919b1NgPwAeKL/xTgcBV/ERFpqqIGHk6qiZG2JNX2JfTWAHwxOJHHSYsS5gXHERER6WhFLTyQVBsjLVXbl7gFUGz5Oy0wgbmkLQrvC4whIiJSK2Y2mjQTMCwwzNjFtwjuOQNwVGBgBw5R8RcREVlSURsPIdXKKEvU+EUzAMVihGeANYMCn+/uhweNLSIiUntmdh7w6aDh/wGss3D93eINwB7ATUFB5wIj3P2poPFFRERqz8zWAx4l7lbAP7v7zbDkLYADgoIBnKbiLyIi0reiVp4WGGJRrV98BuCvwKYBwWaTfv2/EjC2iIhIVzGzVUmzAOsGDD/T3TeDYgbAzEYRU/wBJqn4i4iI9E9RMycFDb9pUfMX3QLYLyjQX4Hzg8YWERHpVueTamiE/eDtBmBMUJDL3f2toLFFRES6UlE7o07kHQMwpPiH0UFBrg4aN4yZDQc2ANbv8VoXeAmY1cvrmZ57LIvUnZmtBmwPjCV9YayaNyORfnkFuJe0qd097j4ncz7tuJqY3XlHAxjpUYM5LPtkwFY9A6zn7gtKHrd0ZrYdaWXkAbQ2G/IU6WjHq4Abtc2x1JmZbQucQzqtrOzvBZEqLQDuBI5w9wdyJzNQxf48s4G1Sh56AbCaATuS/gOV7cfuHrWZQdvMbFfgI6Siv1mJQ88Bfk1qBq5x91dLHFskjJkNAY4FTgCGZk5HpEzzgBOBU+p2W9rMLiLmtMAJg4BRAQNDKoAdx8x2NrPbgFuBYyi3+AOsBnwM+CnwmJkdUXyxinSs4rGj24GTUPGX7jOUdG3fXlzrdXJN0LijBgHbBgw8D/h9wLgtM7ORZnYl6bCFXSoKuy5wNvCgmR1YUUyRVpwKjMudhEiwcaRrvU5uIE3Zl23bQcA7AwZ+yt1fDxh3wMxsnWJv5QeI3e2wL1sAV5jZ7WY2IVMOIr0ysz2BI3LnIVKRI4prvhaKPQGeCRj6nYOANQIG7ohtf81sDDCddLDC4MzpAOwETDazI3MnIgJgZqsAF5AWBIs0gQEXFNd+XcwKGHONrm0Aiin324ANc+fSwxDgTDM7S2sDpAPsDmySOwmRim1CuvbrolYNwNMBY/abmR0PXE7caUpl+Bxwg5lFHb8s0h9jcycgkkmdrv1aNQBZZgDMbIiZXUJa7VmHKc09galmtnnuRKSx6vQlKFKmOl37agD64Qzg4EyxWzUCuF4zAZJJnb4ERcpUp2s/rAFYKWDgyk//M7OjSNPqdTQC+IXWBIiISC8itjNeqSu2+TSzvYHv586jTXsCP8idhDTOtNwJiGTS+Gu/9g2AmW0JXEZnPObXriPNrK6zGFJPjf8SlMZq/LVf6wbAzFYkbZMYsY4hlzPMbHzuJKQxGv8lKI3V+Gu/1g0A8HnSLnvdZAhweu4kpDFuAWbmTkKkYjNJ136j1bYBMLPVgeNz5xFkFzPLtW2xNEhxWuVhgOfORaQiDhymk1pr3AAAxwHd/Ojct/VUgFTB3W8CfpQ7D5GK/Ki45huvlg2AmW0AfCF3HsG2Aj6VOwlpjONIJ2WKdLMppGtdqGkDAEwCVs6dRAUm1ezACqkpd58L7AZ8CeiIkzxFSvQG8BVgt+JaF2rYABQFsW67/bXqXcDE3ElIM7j7Anc/DRgN3Ai8mTklkXa9RVrst727f8fdF+ROqJPU8R7zvlT/6/9J4H5gI2Ak1e45MBH4WYXxpOHc/RHgfcVjtqNJW6aOAVbNmphI/7wC3Et6zG+Gu2tGaxnq2ABUsTp+PnAW8DvgbndfdLqhmQ0jfRmOJ02Xrh+cy/vNbAV3168xqZS7vwFMLV4i0mVqdQugWBX/geAwDwIT3P1od7928eIP6V6pu09x9+8BWwMXB+ezOrBHcAwREWmYWjUApEVKkY/+nQrs4O792iHK3V9090NI0/TPBealdQAiIlKqujUAHw4c+xJ3P7aY9hwQd78WOLT8lBZRAyAiIqWqWwMwKmjcWcDR7Qzg7tcBF5aTzlI2NrNuOu9AREQyq1sDELXg7nB3f6GEcY4BnihhnN5ELzYUEZEGUQMAd7r79WUM5O4vAaeVMVYv1ACIiEhpatMAmNlwIGJXvLs7fLyF1ACIiEhpatMAEFcAyz4T+l7SPgJlUwMgIiKlUQNQcgPg7q8BD5U5ZkENgIiIlKZODcDwoHH/XpMxo/7+IiLSQHVqAGYHjRvxaGHEmM8EjCkiIg1VpwbgyaBxx5Y5mJmtR8x0/VMBY4qISEPVqQF4GvCAcUttAALGW0gNgIiIlKY2DYC7zyNmv/1di2NPy7J3iWMtTg2AiIiUpjYNQGFWwJgbAf9ZxkBmNhY4soyxevH08t8iIiLSP3VrACJW1wN8ycx2bGeAYhbhJ8DgUjJaWkTzIyIiDVW3BuDmoHEHAz8xs5XbGONEYOuS8ulpurvPCRpbREQaqG4NwFWBY28F3DPQmQAzW9PMLgG+EpMWEPv3FhGRBqpVA+DujxKzy95CWwFTzOzk/iwMNLOJwIPAwYE5AVwdPL6IiDTMkNwJtOAq4D2B4w8GjgUOMrPJpMN9pgH3kxYMji1e44tXtL+4+wMVxBERkQapawPwtQribAQcVLxy0vS/VM7M3g3sBuwAbA+MBoZlTUqkf+YC9wH3ANOBW939L3lT6kx1bACmkZ4G2DB3IhW5MncC0hxmNgQ4DjgBWCFzOiKtGAbsXLwA3jSzE4GT3f2tfGl1nlqtAQBwdwdOyZ1HRSa7+225k5BmMLORwO3At1Dxl+6xAumavr24xqVQuwagcC7waO4kKvDl3AlIMxRfjNOBcblzEQkyDpiuJuBttWwA3P1NqlkHkNNl7j41dxLS/cxsMHAR0M4+GCJ1sDJwUXHNN14tGwAAd/8FcFfuPII0ocGRznEs+uUvzTGOdM03Xm0bgELk5js5neXuj+VOQrqfmW0CfDN3HiIV+2Zx7TdarRsAd78F+HHuPEr2GDApdxLSGO8FhuZOQqRiQ0nXfqPVugEoHAl0y0r5l4EPufuLuRORxhibOwGRTBp/7de+AXD3ecCBwMzMqbRrAXCQuz+cOxFplMZ/CUpjNf7aj2oALGjcXrn7s8BE4JUq45bsq+5+Xe4kpHG2y52ASCZ1uvZDauog4NWAcdcKGLNPxX75B5N+SdfNJe5+au4kpJGe+P/bu/9QPcs6juPv7xRLnEXFQVuDVm5qjBU5HdtEXbGRzdRNSrJfFEm/kAz/yPonRBDbP4LBoFgwKMtYtNzQXGxtbiabS8dqSB0tWTTW1lygTtev8emP6zpnj895zq/n3Nd9n+c8nxfcf4w9dvO/AAAHWklEQVRzP9/r+8DNvt/nuq/7uptOwKwhvXTtl6ipr80CSrxn/p0FYo5L0lZgLb01E7Ae+ELTSVjfeqbpBMwa0kvXfoma+uqMagBguAlYzvRfE/Bf4CuS7vD+1NagXvpP0KxKvXTtuwGYqHw7YAnwZJN5jOElYKWkHzSdiPW9mbqZltl4eunaL9YAvFIgcKMNAAwvDFwJbGg6lza/B66StKfpRMwk7Qe2NJ2HWc225Gu/V5Soqa/MAo4VCNx4AwDpEUFJXwKuAfY1nM5x4KvAlZION5yLWasvAyebTsKsJidJ13wvKVFTj80CBgsEHoiIOQXidkXSbyUtAz4OvFDz8K+TXkU5X9L3fb/fphtJx0kbapn1g6/la74n5Fo6UCD0YKkGIEjP5U8rkn4BLATuAI4UHu406fbDfEnfkdRLTyZYn5G0CbiTdN2azUSngW/ka72X3ESZfQAGA/ggcKBA8F9Lur5A3EpERACLgZvzsaiCsP8AHgW2AtslvV5BTLPaRMQCYCNwddO5mFVoH/B5SSV+8BYVEduAjxQIfUUAF5CeBKi6w/gPMCCpxCLDykXEe0id1nXAu4A5wMXAuR1OF+k+0tF8HCQV/acl9eJGRGbDImIW8EVgFenVqfMaTcisO4dJj/r9Btgg6Uyz6UxeRLwFOEH1L+wScGFIIiL+Ary34gEAbpP0swJxa5H/IxwgNQMXAS+TCv7f8zsIzGa8iHgHaaZwdtO5mE3AKeCgpJeaTmSqIuKTwMMFQr8o6ZKhX7e7KdMArAF6tgHIv+aP58OsL0k6CexoOg+zPrSmUNzdcPZlQDsLDXLTdHoawMzMrBfk2llqMf1OONsA7Co0yPnAvYVim5mZzVT3kmpoCbsAQhIAETEIXFpgoDPAByQ9VyC2mZnZjBIRC0m7xp5TIPzzki6DszMAANsLDATpC6wrFNvMzGymWUeZ4g8ttb61ASix0nDIDRFxXcH4ZmZmPS/XyhsKDjFc64dvAeSBSz0OCGmzoWV+fM7MzGykiDgP2AtcUWiIFyVdMvSPWW1/fKjQoJC+0PqC8c3MzHrZesoVf2ir8e0zAPMp/7KcOyV9r/AYZmZmPSMivg48WHiYBZL+PDxmawOQk9gNXFswgTPA9ZK8sYiZmfW9iFgJbKPcwj+APZLesBav/RYAwP0FE4D0BTfl2QYzM7O+lWvhJsoWf+hQ20c0AJK2Ac8WTuRtwONuAszMrF/lGvg4qSaW9Gyu7W/QaQYA4L7CyQDMB/bnqQ8zM7O+kWvfflItLK1jTR+xBgAgIgI4BCwsnBSkNQF3eWGgmZn1g7zg7wHKT/sDPAcsUodi33EGIJ94d+mssnOAByNiQ34G0szMbMaJiPMiYgNptX8dxR/g7k7FH0a/BYCkx4DNxVIa6XZgb0SsqHFMMzOz4nJt20uqdXXZnGt5Rx1vAQz/MWIu8EdgdoHExvIr4FuSDtU8rpmZWWUiYhHwXWB1zUOfAt4n6choJ4w6AwCQP3hPxUlNxGrgYERszE2ImZlZz4iIuRGxEThI/cUf4J6xij+MMwMAEBHnAk8BSypMbDL+RXpM4hHgUUn/bCgPMzOzUUXE24GPAWuAjwJvbiiV/cDVkv431knjNgAAETEH+B0wp5rcunYGeJLUDGyRdLjZdMzMrJ9FxDzgZlLRv4b6FveN5ihwlaSj4504oQYAICKuBPYA508tt0q9TPqy7ccJYGJfzMzMbGwBDJB+BLcfb20wr3angWslPTORkyfcAABExG3AT7tMzMzMzMr5lKSHJ3rymIsA2+XAdewSaGZmZhN332SKP0xyBgCGdwncTLrfYWZmZs16BLhltA1/RjPpBgAgImaTngx4/6Q/bGZmZlX5A2nF/6nJfrCrBgAgIt5NejJgoKsAZmZmNhUnSCv+/9rNhye1BqBVHvDGnICZmZnV5wRwY7fFH6bQAABIepq0QZC37DUzM6vHIWBJrsFdm1IDAJA341kObJ1qLDMzMxvTVmB5FRvhTbkBAMiLD9YC66qIZ2ZmZiOsA9Z2s+Cvk64XAY4aMOIzwA+BN1Ua2MzMrD/9G7hd0kNVBq28AQCIiKXAL4GLKw9uZmbWP46RfvXvqzpwJbcA2uVElwAHSsQ3MzPrAwdIi/0qL/5QqAEAkPQ3YCnwTaCS+xVmZmZ94BSpdi7NtbSIIrcARgwSMRd4APhE8cHMzMx618+BuyQdKT1QsRmAVpKOSLoVWIVvC5iZmbU7AKySdGsdxR9qagCGSNohaTGwmvQuATMzs372FLBa0mJJO+ocuJZbAKMOHrEC+DZpZiAaS8TMzKw+ArYD90t6oqkkGm0AhpNILxb6LPA5YEHD6ZiZmZXwAvAj4MdT2cO/KtOiAWgVEcuAT5NmBS5tOB0zM7OpeJ70a/8nkvY2nUyradcAtMpPD3wI+DCwApjXZD5mZmbjOAw8AewEdtW1oK8b07oBaBcRs4HLWo7LgYuAC9uOC5rK0czMZqTXgFfbjuPAn4DBoaOqffrr8H800V9AMVfyRAAAAABJRU5ErkJggg==;" vertex="1" parent="ItPSY5wFcEl1Enw_Cite-11">
          <mxGeometry y="30" width="87" height="87" as="geometry" />
        </mxCell>
        <mxCell id="ItPSY5wFcEl1Enw_Cite-9" value="" style="shape=image;verticalLabelPosition=bottom;labelBackgroundColor=default;verticalAlign=top;aspect=fixed;imageAspect=0;image=data:image/png,iVBORw0KGgoAAAANSUhEUgAAAgAAAAIACAYAAAD0eNT6AAAABHNCSVQICAgIfAhkiAAAAAlwSFlzAAAPSwAAD0sBYWNNEQAAABl0RVh0U29mdHdhcmUAd3d3Lmlua3NjYXBlLm9yZ5vuPBoAACAASURBVHic7d13mGVVlbDxt7qbHJvQNFEwoCIGREBETAgIgqICAmZFRkdnjAimAR0RdNQxhxmdT8cs6oDIKOggKElBkYzknHOm6aa/P3aVNE1VV9W9e+19wvt7nv3oo7DOOufeumudtPcIkqTa5gIvB3YAHgPMXuz/XwFYunRSQ1oFmBEQdwFwA3AF8GvgcOD8gO1IkhRmFeDTwL3AQsdAYwHwHWCdaR57SZKqeDxwLvULaFfGtcCW0/oEJEkqbCPgRuoXza6Ne4BnTuNzkCSpmGWBc6hfLLs6rgBWm/Kn0WMzaycgST2zP7B37SQ6bBVgKeDY2ok03UjtBCSpR5Yj3atetXYiHfcAsAHpNosmEPGKhiRpfDti8S9hGWDX2kk0nQ2AJJXz4toJ9IjHehI2AJJUzoa1E+iRDWon0HQ2AJJUjk+nlzOndgJNZwMgSeXcWjuBHrG+TcIDJEnlXFk7AWmMDYAklXNM7QSkMTYAklTOb4FbaichgQ2AJJV0D3Bo7SR6YmHtBJrOBkCSyvoy8MfaSUg2AJJU1gPAK0mL1iiOVwAmYQMgSeVdCzwbrwSoIhsASarjemBb4J3ATZVzUQ+5GqAk1bc0sB2wE7ARsHbw9m4LivtkYN2g2NN1EbBx7SQkSeq6HYB7SffemzD+Fru7kiSpacXfBkCSpGA7APdRv+DbAEiSVMiONLP4LwQuCNxvSZJ6q8nF3wZAkqQAL6HZxd8GQJKkzNpQ/BcC50cdgK5wIiBJ0lS9BPgfYNnaiWh4NgCSpKnYiXYV/4W1E2g6GwBJ0mR2An5Oe4q/pmBW7QQkSY02dua/TO1ElJdXACRJE9mZ9hZ/bwFMwgZAkjSenUmX/dtY/DUFNgCSpMVZ/HvABkCStKjdKH/Z/wbgloLbkyRJi3gpcD9lJ+y5AdiUtHhPzrjnZD42kiR10iuBedQp/gAXZo59dsZjI0lSJ9Uu/gAXZY5vAyBJ0hK8ivrFH2wAJEkqpinFH+DizNs5a8hjI0lSJ+1Oc4o/2ABIkhSuRvG/kYmLP8AlmbdnAyBJ0iJ2Bx6kfPF/6iR55W4Azhzg2EiS1El70MziD3Bp5u3aAEiSRLOLP+RvAP46jWMjSVIn7Umziz/AZZm3bwMgSeq1NhR/gMsz52ADIEnqrbYUf8jfAJwxQA6SJLVem4o/wBWZc7EBkCT1zqtpV/GH/A3AX4bIRZKk1mlj8Qe4MnNONgCSpN7Yi3YWf7ABkCRpIG0u/gBXZc7tz5nykiSpsfYC5tPe4g9wdeb8bAAkSZ22N+0v/mADIEnSlL0JWED7iz/ANZnzPD0gR0mSqutS8QcbAEmSJvVmulX8Aa7NnO9pgblKklRcF4s/2ABIkjShrhZ/gOsy520DIEnqhLdQp/g/rcTOkb8B+FOhvCVJCtP14g9wfeb8bQAkSa22L+WL/63A5iV2bhE3ZMrdBkCS1Hp9Kf6QvwH4Y9n0JUnKo0/FH9ItBxsASVKvvZV+FX/I3wCcWjZ9SZKG08fiD3ATNgCSpJ56K/AQ/Sv+YAMgSeqp/ehv8Qe4mbz7dkrZ9CVJmr6+F3+AW7ABkCT1yD9g8Yf8DcDJZdOXJGnqLP4PuxUbAElSD7wNi/+ibAAkSZ33biz+i7uNvPt7Utn0JUlasndTtvCPFf9nldi5IdgASJI66z1Y/CdyOzYAkqQOsvgv2R3k3fcTy6YvSdKjvReL/2RsACRJnVKj+N9Gu4o/wJ3kPQZ/KJu+JEkPex8W/6myAZAkdcIHKF/8bwaeUWLnAuR+C+D4otlLkoRn/oO4kLzH48dl05ck9d0B1Dnz36zEzgU6jrzH5LNl05ck9dn78cx/UB8m73HZuWz6kqS++iDli/8ttP/Mf8xTyDc98u3AcmXTlyT10f545p/Dz8hzbD5aOnFJUv/kvnTdtzP/RT2B4V8HvARYqXTikqR++Qh1iv8zS+xcJbsBCxjs2NwDPL18ypKkPqnxtP9twBYldq6yV5GK+XSOzc3A82skK0nqj3/BM/9ozyDN5jeVY/MLYMMqWUpSJSPAjsAXgb8CV5MWgbkGOBv4BumS6sxaCXbQQVj8SxkBdgL+m3SGv+gxuR74D2DbatlJUiXbAWcytQJyIfDKOml2ysFY/GuaDTwJWLl2IpJUy0eA+Uy/mHwBrwYM6mNY/CVJFR3KcEXlJ8Cs4lm3W43i35cH/iRJUzBs8R8bhwNLFc69rSz+kqSqchX/sfFTbAIm83Es/pKkinIX/7HxM2wCJmLxlyRVFVX8x8YvgWWK7U07WPwlSVVFF/+xcTQ2AWP+FYu/JKmiUsV/bPwvsGyRPWsui78kqarSxd8mAD6BxV+SVFGt4j82fkX/mgCLvySpqtrFf2z8mv40AYdQp/hvWWLnJEnN15TiPzaOAZYL3eP6LP6SpKqaVvz70AR8Eou/JKmiphb/sXE8sELUzldSo/jfjsVfkjSq6cV/bJwArBh0DEqrccwt/pKkv2tL8R8bv6f9TYDFX5JUVduKf9ubgBHg81j8JUkVtbX4j40/ACtlPypxLP6SpOraXvzHxom0owkYAb6AxV+SVFFXiv/YOAlYOesRysviL0mqrmvFv+lNwAjwRSz+kqSKulr8x8bpwOxsR2t4Fn9JUnWfo3whOgGYX3ibpwCrZDpmwxgBvkz5Y+7CPpKkv6tx5v8jYBawJ/Bg4W3/GVgty5EbzAjwpXHyih63A1sV2D9JUgvULP5jXk1/mgCLvySpuiYU/zF7Uf52wF+A1Qc6coOpddnf4i9J+rsmFf8xbwQWFM7pDMo0ARZ/SVJ1TSz+Y95EnSZgjSkducGMAF8pvE8Wf0nSIzS5+I+p0QT8lZgmwOIvSaquDcV/zJtpfxNg8ZckVdem4j/mLZRvAs4D5g6R85gR4KuFc7f4S5IeoY3Ff8y+lG8CzgfWHiJni78kqbo2F/8xbwUeKrwPgzYBI8DXCudq8ZckPUIXiv+YGk3ABcA608jR4i9Jqq5LxX/MfjS3CRgBvl44N4u/JOkRulj8x7yrwr79jSU3ATOAb1fIy+IvSfq7Lhf/Me8O2o/JmoB1x8nF4i9Jqq4PxX/MewbMd5hxIbDeIjnULP7PHuLYSa0yUjsBqeEOBQ4svM0fA68lLeJTw3uBzxbe5uXAC4GrgG8Bbyi8/TuAlwCnFt5uCesBzyNdaSm5SNOg7gFuAP4EnElqziSpqM9R/iz0u8DMEjs3iQMov+8Xk5qfGmf+XbvsvxTwetJ6DKWPZ85xHfARYNW8h0eSJtany/4TeT/1C0D06OJl/yfT/sK/+LgR2CnnQZKk8Vj8H7Y/9X/8o8YddK/4P590Cb32sY0YC4DX5TtUkvRIFv9H+wD1f/xzjy4W/02BO6l/bCPHPFKTI0lZWfwndjD1f/xzjS4W/xHgJOof2xLjPNIzDpKUhcV/ch+j/o//sKOLxR9gF+of25JjnzyHTVLfWfyn7uPU//EfdHS1+AP8gPrHt+T4eZ7DJqnPLP7T96/ULwDTHV0u/gBXUP8YlxzX5jlskvrK4j+4T1C/CEx1dL34zyA9HFf7OJccC+jG35GkCiz+wzuE+oWg78UfYEXqH+caY3aOgyepXyz++XyS+oVgonE3aQrcrrMBkKQpsPjnV+OYWvwfZgMgSZOw+Mc5jPoFoY/FH2wAJGmJLP7xPkX9otC34g82AJI0IYt/GSPAF7H4l2YDIEnjsPiXNQJ8CYt/STYAkrQYi38dI8CXsfiXYgMgSYuw+Nc1AnyFMsX/+YX2qalsACRplMW/GaKbAIt/YgMgSVj8m2YE+CoW/0g2ABqIP1rqkkOBAwtv88fAa4H5hbfbFguBd5AagbdlinkP8FLghEzx9Gi/At6ZMd7ngV0zxpOkv/PMv9lGgK/jmX+EiCsAP8mcY8RyxV4BkGTxb4kZwLex+OdmAyCplz5H+eL/XWBmiZ3roJkM9mDg1cDmFfJtAxsASb1j8W+vfyYt1TuVY34ksE6dNFvBBkBSr1j8228t0iJCl/LoY30f8FNgu2rZtYcNgKTesPh3z+OBHYDdSZf6V6ybTqvYAEjqBR/4kx7JBkADmVE7AWkafM9fkjKxAVBbWPwlKSMbALWBxV+SMrMBUNNZ/CUpgA2AmsziL0lBbADUVBZ/SQpkA6AmsvhLUjAbADWNxV+SCrABUJNY/CWpEBsANYXFX5IKsgFQE1j8JakwGwDVZvGXpApsAFSTxV+SKrEBUC0Wf0mqyAZANVj8JakyGwCVZvGXpAawAVBJFn9JaggbAJVi8ZekBrEBUAkWf0lqGBsARbP4S1ID2QAoksVfkhrKBkBRLP6S1GA2AIpg8ZekhrMBUG4Wf0lqARsA5WTxl6SWmFU7AXWGxV+5zQK2BF4ErAesVjedKbkXuA44FTgOuKtuOpIU61BgYeHxI2xgu2oF4P2kQlr6e5VzPAB8A9gw69F5tBUDcv9J5hx/EJDj7Mw5Spomi79yejJwNvWLd85xL/CunAdpMTYAkoqz+CunZwF3Ur9gR42D8h2qR7ABkFSUxV85rQ3cQP0iHT1en+uALcIGQFIxFn/l9m3qF+cS41ZgjTyH7O9sADQQXwPUdPm0v3J7DPC62kkUMht4d+0kJLAB0PRY/BXhVfTrt2iv2glI0K8/Og3H4q8oW9dOoLDHAXNrJyHZAGgqLP6KtG7tBCpYr3YCkg2AJmPxV7RVaydQgQ+wqTobAC2JxV+KMVI7AckGQBOx+EtSh9kAaDwWf0nqOBsALc7iL0k9YAOgRVn8JaknbAA0xuIvST1iAyCw+EtS79gAyOIvST1kA9BvFn9J6ikbgP6y+EtSj9kA9JPFX112OWmmvVzjfUWzlwqxAegfi78kyQagZyz+kiTABqBPLP6SpL+zAegHi78k6RFsALrP4i9JehQbgG6z+EuSxmUD0F0Wf0nShGwAusniL0laIhuA7rH4S5ImZQPQLRZ/SdKU2AB0h8VfkjRlNgDdYPGXJE2LDUD7WfwlSdNmA9BuFn9J0kBsANrL4i9JGpgNQDtZ/CVJQ7EBaB+LvyRpaDYA7WLxlyRlYQPQHhZ/SVI2NgDtYPGXJGVlA9B8Fn9JUnY2AM1m8ZckhbABaC6LvyQpjA1AM1n8JUmhbACax+IvSQpnA9AsFn9JUhE2AM1h8ZckFWMD0AwWf0lSUTYA9Vn8JUnF2QDUZfGXJFVhA1CPxV+SVI0NQB0Wf0lSVTYA5Vn8JUnV2QCUZfGXJDWCDUA5Fn9JUmPYAJRh8ZckNYoNQDyLvySpcWbVTqDjLP79tjawM/B4YB1gubrpTOpu4GrgfOBXwO1105EUyQYgjsW/v54JfBLYnvZeZXsQ+AnwEeDyuqlIitDWH6ems/j30wzgEOA0YEfa/fe1FPAa4ALgzZVzkRTAKwD5Wfz7aQbwfWCv2olktgzwLWB94GOVc5GUUZvPUJrI4t9fH6d7xX9RBwH71E5CUj42APlY/PvracAHaycRbAT4KrBG7UQk5WEDkIfFv98OpR9/S6tQ/nsuKUgffrSiWfz7bQ7pgb++eB0ws3YSkoZnAzAci792ol8FcQ6wee0kJA3PBmBwFn8BPKF2AhX0cZ+lzrEBGIzFX2PWqp1ABWvXTkDS8GwAps/ir0UtXTuBCpapnYCk4dkATI/FX5LUCTYAU2fxlyR1hg3A1Fj8JUmdYgMwOYu/JKlzbACWzOIvSeokG4CJWfwlSZ1lAzA+i78kqdNsAB7N4i9J6jwbgEey+EuSemFW7QQaxOKvptgYuDlTrK2BozPFktQhNgCJxV9NcjtwW6ZYd2WKI6ljvAVg8Zck9VDfrwBY/B9tBNgCeDmwKWn996WqZjS5h4AbgUuAo4ATgAerZiRJDdfnBsDi/2jbA58CNqudyBD+GbgS+CjwPVJzIElaTF9vAVj8H2kmcBhwLO0u/mM2AL4D/BJYpXIuktRIfWwALP6PNAJ8FzigdiIBdgJ+AyxfOxFJapq+NQAW/0f7ELB37SQCbQF8q3YSktQ0fWoALP6PtiHpXnnX7QXsWDsJSWqSvjQAFv/x/QuwTO0kCvlE7QQkqUn60ABY/Me3FPCK2kkU9CzSDHuSJLrfAFj8J/ZsYNXaSRS2fe0EJKkputwAWPyXbMPaCVTwmNoJSFJTdLUBsPhPbs3aCVQwt3YCktQUXWwALP5T08dZIGfWTkCSmqJrDYDFX5KkKehSA2DxlyRpirrSAFj8JUmahi40ABZ/SZKmqe0NgMVfkqQBtLkBsPhLkjSgtjYAFn9JkobQxgbA4i9J0pDaNhmMxb/ZrgPuyxRrBv2crliSimhTA2Dxb77XAL/LFGs2cGumWJKkxbTlFoDFX5KkjNrQAFj8JUnKrOkNwL9Rvvh/j3Qp2+IvSeqsJjcAbwLeX3ibPx7d7oLC25UkqaimNgBPBr5ReJue+UuSeqOpDcAhwFIFt+eZvySpV5rYAKwD7FZwez7wJ0nqnSY2ADsDI4W25WV/SVIvNbEBeEah7XjZX5LUW01sANYqsA3P/CVJvdbEBiC6KHvmL0nqvSY2ANcFxvbMX5IkmtkAnBIU1zN/SZJGNbEBOAa4P3NMz/wlSVpEExuAO4GvZYznmb8kSYtpYgMA8EnghgxxPPOXJGkcs2onMIGbgV2A3wPLDRjDM39JXTMHWB1YCVgZWBVYo2pGaq2mNgAAp5OmBP4RMHua/+5ngQOw+Etql1WBJwKbjP7nY0nTo68HzAWWqZeauqbJDQDAscCzgS8D20/hn78S+ADp7F+Smmx1YCtgy9GxGanIN8H2wJHAmcBZwF+BS4CFNZNSXk1vAAAuBHYAng/sPfrfN+Th9QLuIN0qOJJ0z/+B8ilK0rR8D1izdhJLsCrwstEx5i7gZNLv7QnAacC88qkplzY0AGNOGB2Q8l6TVPzvrZaRJA2mycV/IisBO44OSL+9pwBHA78gXSFQizT1LYDJzCfNGGjxl6Q6lge2Az4HXAycCxxKum1bakVXDaGtDYAkqVk2AQ4kXRW4HDgMeELNhLRkNgCSpNw2IL2J9TfgRODpddPReNr0DIAkqV1GgG1qJ6HxeQVAkqQesgGQpIk9Edi5dhJSBBsASXq0TYD/Bs4hPekudY7PAEjSw54KfATYHU+Q1HE2AJKUFtT5KPAOYGblXKQibAAk9dlywD8DHyKtrif1hg2ApL7ahzRZzfq1E5FqsAGQ1DcbAV/j4TntpV7yIRdJfTELeBdpeVuLv3rPBkBSHzwT+BPweWDFyrkojyfVTqDtbAAkddkI6az/FGCzyrkor9+RPltXHhyQDYCkrloL+F/SWf/SlXNRfsuQPttfkz5rTZMPAUrqopcB3yK9398F1wNXAdcCVwI3ArcDt42OeaP/3O3AQmAV0gneMsDqo2M1YG1gLunNh7nAnGJ7EGcH4HTgtcAJlXNpFRsASV2zPnAE7bw0fDvwF+DPpGmILyAtqXtH0PaWJ91LfzLwlNH/3Jz2vRq5HvB/pFkcD6ucS2vYAEjqmjbN5HcF6az1eOBE4KLC27+X1HD8ZbH/fV3gOcDWpOV8N6f5x3UmcCipkXkrcH/ddJrPBkCSylkAnAocNTrOq5vOhK4BDh8dkG4hvAh4MbALsE6lvKbitcDjgVeQbp1oAjYAkhRrAXAc8EPgf0iX+dvmFh5uCGYAzwX2BvYgNQdN82zSa58vB86onEtj+RaAJMW4B/gU6f70DsD/o53Ff3EPAb8H3k56qHAX4Ec8/CBiU6wP/AHYuXYiTWUDIEn5zAd+AryKVBwPpNuXoR8EjiZdDdiAtKLiVVUzeqQVSA+Evrp2Ik1kAyBJw7sb+CLwBFKx+TlwV9WMyrsB+ATwWFIDdHrddP5uKeD7pAcDtQgbAEka3I3Ax4ANSbPSXV4zmYaYT2qAtgC2JT3/UNtM4BvA/rUTaRIbAEmavtuA95Muex9MekhOj3YisB3p7YHTKucyAnya9HkJ3wKQpOl4kPQw30eAmyrnsrgVgZ1IT+ivQ5rk50bgfOCX1H3l8P+ArYDdSQ9GblQxl4OA+0bzkHrpA6QpQ3OOF2bMb3ZAft/PmN+Y7wTkuWbG/LYNyO/DGfODVJhy55h7PER60v2xmfc9h9nAv5Em9VnSPvwReEGdFB9hOdJ36G7qfp5vj97RpvMWgCQt2UWkwrkXcGndVB5lM+BM0u2I5Sb5Z7ckraD3DdKDcbXcBxwCbEparKmGEeDLpEmDessGQJLGtwD4DPB00nvvTbMdcDLTn7d/P9KrirV//y8HXkp6a+K6CtufQbqd8/IK226E2l8ASWqis0nz4O9POmNtmieQZuVbdsB/fzfgk/nSGcpPSFcDDp/sHwwwi3RrZ+sK267OBkCSHraQtJrcs6j/1PqSfIl0738Y+wPPzJBLDrcCewJvAO4svO1lSVM0b1B4u9XZAEhSciuwK/BBmjet7aKeB+yYIc4M0hwGTfLfpFsufyq83bWAI0lvUvSGDYAkpeVwtyBNa9t0+2SMtROwRsZ4OVxOanK+WHi7zwC+S4/qYm92VJIm8FXgOTTvCf+J5FzcZiZpkp6meYA0s+IbKfsMxm6k6Yx7wQZAUl8tAP4ReAep4LTBUsC6mWM2cW6DMd8hvYJ5Q8FtHkhP3gywAZDUR/cCrwC+VjuRaZpD/t/tuZnj5fYn0lP65xfa3gjp9cDOPxRoAyCpb24CXgQcVTuRAURM4FNzUqCpugzYhnLzMcwmPQ8ws9D2qrABkFRbyTVJLiEVkj8W3KbyuI300OIxhbb3POCjhbZVhQ2ApJpeRZrUpoSLSD/qFxXanvK7l3R//ohC2/sIzVg/IYQNgKRa1gK+Xmhbl5Gmzr220PYU5wFgD8rMHDgT+C9ghQLbKs4GQFItX6XMO+hXk151u6rAtlTGfOA1pGWOo21ER18NtAGQVMNrgVcW2M61pAf+2vKOv6buQdKVgOMKbOufgGcX2E5RNgCSSlsN+GyB7dwObI/3/LvsftIzAX8O3s5M4JvAMsHbKcoGQFJp/0Z6nz3SAtJVhvOCt1PKM4CDKPfwW5vcTVrD4crg7TyFtE5EZ9gASCrpucCbCmznXbRjXv8lWQV4N3AhcAZwMGmhnNx2AvYFlguIXcp1pCbgruDtHAg8LngbxZR8/7aEOcDLgM2BdYDl66YzqYXAjaTO9dfASaQzF6mLZgBfIM20Fukro6Ot5gAfJjVKKxXY3mOA/wQOJd2a+SLpdbu2OQvYG/gFcSe3ywCfJr2+qobYEPgeqXgubPG4EngzZWaf+kBA/i/MmN/sgPy+nzG/Md8JyHPNjPltG5DfhwfM5S0BuSw+jqW9JzbLAx8C7iD+OC1pXAO8gfhGLcrHiD9Gzyu2N1qi3YF7qPsHk3v8gfh7pDYAedgATM3KwPUBuSw6rqF5S9tO1bakNxVK/L5Mdfwf7bzcPQP4FbHH5nQ6cAu97Tvwj8BPaP6l/ul6LqkJaOuPmbS495Em/onyEPB64ObAbUQYu6R8POl98yZ5EenZg31qJzJND5EeAI2c92Fz4HWB8YtocwPwYsrcT6xlY9JMV229nCmNWQN4T/A2PkM6Y22TOaR32Penub/FK5GunH2Fdv0W3UK6jfFQ4DYOAZYNjB+uqV+6ySxNmkK0TV/IQbyA9HSu1GYHEvsw259p36ItTwFOBZ5TO5Ep+kfSw3UlHkrM5XfAvwfGX5f0zFZrtbUB2Jd23psaxEF0bPIJ9cpcUvGIcg+wFzAvcBu5bUa6xde0S/6TGVuJb+XaiUzDh4GzA+MfQDohbaW2NgBtuyc1jLmke3FSG72X2PfLDwYuDoyf21NJbyrMrp3IgLYmPWC3Yu1EpugB0tsnUa9Xb0B69qSV2tgArEr6EvbJzrUTkAawGvC2wPjnkJ4DaosNgd/Q/od7nwP8gDKvK+dwGrHzQnyQlt6ObmMDsCHtzHsYbbtUKAG8k7h7xg8B+5EWhGmD5YH/IfZNiJJ2JU3p3BYfIe6tgMfS0qvSbSyk0e/HN9Hc2glI07QM8I7A+N8ETgmMn9s3SfP5d8l7gFfUTmKK7iK9ihrlvYGxw7SxAViqdgIV9HGf1W6vJq5Zv4l2LcryetIUtV30LWD92klM0U+BE4NiPx3YJih2mDY2AJKa758CYx8C3BoYP6e5xL6KVtts4Bu1k5iihaRFoqLmBoh82yWEDYCk3LYGnhUU+yraU3AgLayzWu0kgu0EvLJ2ElP0F+BHQbF3p2XPeNgASMrtLYGxPw7cHxg/py1JRaEPPkN73oc/CJgfEHdpWjZxmw2ApJxWAPYMin0R8O2g2BEOo7tTlS9uI2Ibv5wuJr3GGGE/WlRXW5OopFbYk7hX/w4m5swtwnbkXR2zDQ6gPe/Df5yY79IGtGipYBsASTlFrZB2CXH3biO8s/D27iBNjPS/wFGk5WpvKJzDY4DdCm9zUJeQVpKN0Jo3PmwAJOUyl7izny8Ru7JbTusBuxTYzi2kNwy2JT1o+FTgpcDLgC1In8empPnwS02X3KYn4T8XFHcPWvI8hA2ApFz2JGZ62Lto173/NxF7Kfx+4NPA40kT0JzIxM3RucAngU1IEzPdFJgXwPNJDVAb/Bn4fUDc2cD2AXGza8v9mmj3khaNyGUVbK7UP3sExf026RJ3W0TOjnct8HLSJf7peBD4KnDE6Ngic15jZpAmgfpsUPzcPk/MVau9gKMD4mZlkUoOJF1CyzWuK5u+VN1axKxt/xDp8n9brE/clL8XAFsx/eK/qGtJZ+m/zJLR+HYKjJ3bUcT8Xr+cFizjbgMgKYediPk9OZb0+l9bvJSYV/9uJxWVqzPEuo/0oNrZGWKN57mkxY/aYD7wnYC4K5GezWg0GwBJOewaFPe7QXGjbBUU903AhRnj3U16Yv++jDHHLEPcLYYI/0WaJji3HQNiZmUDIGlYSxPz0NO9wC8C4kbaPCDm70n37XO7lDRVcYTNguJGuAg4KSDuv1XfxgAAFV1JREFUSwJiZmUDIGlYzyZm8p+jSGeqbbEs8KSAuB8KiDnmMODOgLhPD4gZKWJOgE1JEwM1lg2ApGFFzXjXpol/IP3Y5166+3Jizk7H3E7M0+obBcSMdDiwICDuDgExs7EBkDSsFwTEvAP4dUDcSOsExIy49L+4IwNirh8QM9L1wMkBcRs9H4ANgKRhLEu6BZDb0bRn1b8xcwNinhIQs8Q21gyIGS2i2do6IGY2NgCShrEZqQnI7TcBMaOtEhCzxJwi15F/muW2vAa4qIgrTusD6wbEzcIGQNIwol57+7+guG1zfYFtPEj+KYJnkv95iGjnAVcExN0yIGYWNgCShhHx43YBcFVA3GgREwAtFxBzPLmvNNxOaiza5piAmFFN8tBsACQNI2LCl98GxCxhXkDMiAcLx3NN5ngRZ9Il/C4gZsQzMlnYAEga1ArAYwPitrUBuCEgZqnX6U7IHC+ikJYQ8SbA5jS01jYyKUmtsAkxvyGR771HujYgZqmFdY4g73S4P80Yq6QryX/7aUUa+lqkDYCkQW0aEPNq4OaAuCVENAAvJl1piXYR8ONMsY6jvU0cxFwFiJghcmg2AJIGtUlAzL8GxCzlBuDGzDGXA96eOeZEPkSagGkY9wPvyZBLTWcExLQBkNQpjwuI+ZeAmCWdHhDzQ8BqAXEXdxnwagafEnchsC9wVraM6ojIf+OAmEOzAZA0qIgHAM8MiFnSaQExZxO3at/ijgFeBdw1zX/vPuANwPezZ1ReRAPgFQBJnRLxhHqbbwEAnBgU9zXAAUGxF3ck6d31Y6f4zx8PPAf4blRChV0D3Jo55hMzx8vCBkDSIFYDVs4ccx5p9bs2+wPTP3ueqk8CHyRmwqHFnQ/sCGwLfIk0OdN9o//fvaP//5dIC0G9kPY3bou7OHO8tUmzIzbKrNoJSGqltQNiXkP+OelLe4C0jsErA2LPIDUBmwL/RP6z1PGcyCOvaixPagC67jLyznI5g7RAUompnafMKwCSBhGx8l0bp/8dz4+C4+8DXEK6JZD7Ksxk+lD8AS4NiBnxNzMUrwBIGsScgJhXB8Ss4UjS4jqRS+KuChwGfJx0D/5XpKJ1PWkehbtJVyOGfa2vry4PiLlWQMyh2ABIGkREcevKFYB5wLeB/Qtsa2lgh9ExnvtI8/JfTnq//Qzg98RMW9wlEcfHBkBSJ6waEPPKgJi1/DvpPv2ylfNYjvQK2pOAl4z+bwtJr1seDfwQOLdOao2We3lkaOAtAJ8BkDSIlQJi3hIQs5brgG/WTmICI8AzgA8D55AmX3oz9ZuVJoloAFYJiDkUGwBJg4h4+KxrD5gdAtxZO4kp2Az4FulWwXuxEYCYZrRxx9UGQNIgIhaouW/yf6RVrgcOqp3ENMwBPgtcCOxdOZfaIppRGwBJnRDx/FDXrgAAfJn2rW+wPvAD4NfAYyrnUssD5F0eGWwAJHVExKxmXbsCADCftMDO3bUTGcCOpHnx+3g1YCGpCcjJBkBSJ9gATN3FwLtrJzGglUlXAz5HA6eyDWYDIEnjiJiP/sGAmE3xLcqt6BfhPcDPiXn2o6lyNzxLZY43NBsASYOYFxCzcT+Qmb0X+GXtJIbwMtLcAX1pAnI/5xLxNzMUGwBJg4j4MVs6IGaTLAD2AI6pncgQng/8L2mCoa7LfQXABkBSJ+S+PwqwTEDMprkf2I1URNvqecB36Xb9mEH+KwARfzND6fIHKClOxNlM4x6SCnI/8HLgK7UTGcKrgENrJxFoZfI/5+IVAEmdcH9AzNUCYjbVfOCdwNuJOZYl7A/sUjuJIBHT9jbuc7YBkDSI2wJirhEQs+m+DmwBnF07kQGMkFY9XLtyHhFmB8SM+JsZig2ApEHcHBBz9YCYbXAOsDlproC7KucyXavT7tcbJxJxNapxi13ZAEgaRMSPWR+vAIx5EPgCsCnwHdItgrbYHdi1dhKZrRsQ0wZAUidE/JhtEBCzba4E3gg8EfgP2jOF8Kfp1kyBEd/FiKtmQ7EBkDSIiB+zjQJittWlwD8A6wD7AcfT7KsCTyI1Ll2xTkBMrwBI6oSrA2JuGBCz7e4C/hN4IWm53n1Irw+eTvOmTj6A7tSUDQNiRvzNDCViSU9J3XcLcCfpfelc5gAr0p7L3qXdBvxwdED6/V6fVKzWJh27lUivsK03OrYBli+U3xOAlwJHFdpepCdnjncvcGPmmEOzAZA0qMuBp2WOuQnwp8wxu2o+cNnomMjywA6k+QZ2KJDT22l/A7A88JjMMS8nLTHcKF25XCOpvMsDYuZuKPruXuAIYMfRcUHw9l5M+yd0ehL5a+OSmrRqbAAkDSriR+2pATFrWwt4G/AL0jv/NwIXAr8D/oX06l8JxwJbEbsOwVKkaY7bLOI7eHlAzKHZAEgaVMTZZJeuAKxImi//UuBrpHflnwKsSbpf/gLgY8BZwE+BxxfI6U7Ssr7fD9zGKwJjl7BlQMzoKy8DsQGQNKizAmJuQTeeTVoPOAE4kMkfwhshLa5zBqk4R1sA7Av8MSj+trS7tmwVEDPib2Vobf6QJNV1NvkfbFqB9l8FWAs4GXjmNP+9FYGfU2aBnfuBPYH7AmKvSrqP3kbLEnML4JyAmEOzAZA0qLuIube5TUDMUkaAw0mv5w1iJuny/MbZMprYlcTN4791UNxoWwJLZ455NXBr5phZ2ABIGkbEpc02NwB7ki6BD2Nl4DMZcpmKw0hvCuTW1isA2wXEbOTlf7ABkDSc0wJibkd7f5s+mCnOrsCzMsVaktuB3wbEzf0efSkvDogZ8TeSRRcetslhfdJynLkslTFWm2xMeso4h5wzzLXN08m3dvgTM8WZyEkBMdcgFb+2TQi0Aemzy2V30pS/0Y4k/8OHbWwAViI9hJpbxN9IFjYAyf6jQ8P5eu0EOuI3tROYhtNIc9Lnbnp3on0NQO5bFxFno+P5a0DMOQExo+1A/u/xAuLethhaWy+zSWqGe4gpIDsHxIy2VuZ4gz5IOF3XBcRs41XQiPkLziLfVdHsbAAkDSviEucWtO8y8oqZ461B/ifSxxOxtHOJvHNairSQUW6NvfwPNgCShndcQMwRYI+AuJFyv1M/A5ibOeZ4Vg+I2bba8kLS/AW5RfxtZNO2D0lS8xwHPBAQ99UBMSPdExBz7YCYi1svIOYtATEj7RMQ80FsACR13D3AHwLibk6aM78tIopezreTJhIx82IjJ76ZwIqkqZhzOwm4IyBuNjYAknI4JiDmCPCWgLhRIlZHLLGy3m4BMW8KiBllD/I/vwHw64CYWdkASMohaonZN9KeJ8ovDYj5AvK/XbCo1YDtA+L+LSBmlDcGxf1VUNxsbAAk5XAecH5A3LUos0JeDreS/5W6pYGPZI65qA+TFsDJrZGL34zjKQw/dfN4LqXBUwCPaWMDELF6VdNF7HPE/N9N18fvTkmHB8V9R1DcCKcGxNyPmBkdH0/csW1LA/Au0q2m3H4cEDO7NjYA19ZOoIJrAmJGTP7RdBHH8f6AmE03USP1w6DtvZC0SlsbRMz6tjTwM9JUtbmsOBpzmYwxx9xJC85+Sbc/XhMU+0dBcbNqYwNwBf07ez0vIGbE5dqmi9hnG6mHXQCcG7TNdwXFzS3iYUhIl6p/QJ6CvTRpyeGIp/8Bfkd6Ba7p3gYsHxD3b7SjAWqt/wEW9mhErQr2twbsW6kxj5iJPvZqwL6VHkta8OajQdt8kPbMDHgZccf+ZIZ7KHANUoGO/H784xD5lbICcCMx+39wud3op12o/yNYapxBzD0qgA80YP9Kje9lOmaLW4U0CU7t/Ss1LmfJ38f1gPlB227LYlOfJ/YzuBLYm+n9LswAXgtcHZzbfGDdaeRVy/7E7P9DwOMK7kdvHU/9H8MSI3JFsOVIPya19zF63AdsmOeQjeuHDdjHUuNfpnA8jg7a9jzgsVPYfm1Po8xncRppnoQ1l5DLXOCtpBOJEjlFvQ6a0/LADcTsf9QtIC1mQ+I+xKaMf891sJZgG9KDbLX3NXLsl+1oje9x9OMqwLVMbcKU3QJz+K8pbL8JTqXc5zIfOB04Avgi8BXgSFLRX1Awj4W0Y/2GyCufexbcj957Dund25o/ilHjcGBWvkO1RK+huwXsXzMepyV5R8F9qjHmAztN8VjMIjULEXk8CGwyxTxqejX1P7PS4wqavwrgGsBtxOz/jTR//zvnCcCZ1P/y5xrzSA+RRN33n8jziL8/WHLcCbwu6xGa3Kcz5d60MR/Yd5rH4uOB+TR+hjXSPfezqf/ZlRz/kOXIxfoicft/WMH90CJmku6FnUP9P4JBxz2kV3M2znxspmN50sxgV1D/eAw6bib9kc/JfGym6q2kz7L2ccg1bgR2HOA4zCG9rhuVV8Ta7bntSf3Pr9Row9n/xqQTrIj9n0fMqoqhSp9llvB4YAvSwy+Rc2jncD/pUukVwO9p1kx1mwGbAusAsyvnMpl7gKtI02+eRLrvWdO6wEGky8ArV85lUDcC3wQ+RbqaMoj/ZPpXDqbqb6SH7eYFxc/lONJERl23N82f/OYYYIeg2N8hbk2BMF1sAKSmWIY0z/iTSM1o0xe1GWtIzwVOIb3SNIwnkiaxippw7GDgY0Gxc9kU+AvN/+yHcSyDXSUq6Q3AtwPjP4N0K1qSNOqXxF12vp92PBD4Iepfoo8a95CuujbZHNKtwahj0IZnUiSpuGeRriRE/fieSnoGqMlmkG4F1C7WEeON+Q5TmB8QewwiVhOUpE74BbE/wO8vtysDW4duvWWzkPSMR9PtSuwxaMPER5JUzVOJnZBmHunB36bbnO68IXISaSbRJlsLuJ7Y49CWVSolqZqfEftDfB4xK7vltjPtn3nzLJr/ZtAM4LfEHocjiu2NJLXYk4l7B3tsfLPY3gxnV9o78+bFpNsZTRe1KuXYmE+6siVJmoIvEF+gouYdyG0H4A7qF/TpjNNo/twqkB7Ki1qRcmx8tdjeSFIHzAZuIvaH+X7ac1/2qbRn1s1fAivEHIas1iX+YctbSWsKSJKmocSiSVcCa5faoSGtQppBr3aBn2g8SJpwqemvWgKsRJl1Yd5VaockqUtmkR4ii/6RPp12nLGOeRtwO/UL/qLjUmDryJ3OaCZwFPHH5Fy6PaujJIXaivh7tAtJBaENZ65j1iYtCBY5cdJUxr2ks/42vFUx5rPEH5cFwDaldkiSuurzlClmX6d9a55sTmpeSjcC84DvAhvE72JW+1Pm+Hy51A5JUpctD1xCmR/uzxfap9yeAXyN+LcF7iCdQbet8ENaBr5Eo3QN6XkNSVIGL6HcWe7BZXYpxIo8vNxuxHMCHy23K1m9kdgZJhcdu5TZJUnqj69Q5ge8zYVuUdvgcQF4NWWeI1kIfKPQPklSryxLmbcCxsanad8zAYt6DjYArye9nlji+3IR6QqMJCnAZpSdGvfLpLni26jvDcAHKXfb6AHSA5mSpEDvo1wDsBA4nOavZjeevjYAI8C/U/Y7sn+RPZOknhsBfk7ZH/iTgTVL7FxGW5P/OHy46B5M33LADyj73TiCdt8qkqRWWRm4gLI/9BcDTymxc5lsTP5j8A9F92B6NgD+TNnvxN/wlT9JKu6JlF8l7y7SU+VtsCL574E39RW35wLXU/a7cDftagglqVN2p/wseA8BnyGtVdB0p5Fvv+eRVmlskhHgn0m5lf4O7Flg/yRJS/BByv74j40/AU8osH/DyHlsji2c+2TmAEdS57Nv+rMQktQbX6VOIbgT2K/A/g1qVeBm8uzriwrnviQ7AtdS5zP/VoH9kyRN0Szg19QpCAuBn5FW6GuitzP8/v2oeNbjW4k0216tz/lYXOJXkhpnZeB06hWH24B9aeYrYf/B4Pt1LunY1rYHcDX1Pt8/04zjIEkaxxrAOdQrEguB44GnB+/ndM0CDmP6+3ISMLdCvot6HPAr6n6m55K+W5KkBlubNC97zYIxH/g6zZs8aG/gCibP/27SqohLV8kyWQn4GHAvdT/Li4F1gvdVkpTJY5haoYsetwEfolmLxCxLWiTn56S168dWyrsJOIE01XLNs/5lgfcAN1L/87sS2DB0byVJ2W0EXEL9IrKQVMzeRzPXFJhJKrq1LUV6huJK6n9eC4FLSd8hSVILrQucR/1iMjauJ71DvlrkTrfMKsD7aU7hXwicT/ruSJJabA5wBvWLyqLjbuBLNH8ioUgbklbtu5P6n8ei4wzSd0aS1AGzSfe3axeXxcdDwHGkh/OWCdv75liWtJbC0Tz87EGTxvGkyZMkSR2yDOWXip3OuIX05sCLSPflu2KEtDTx10gPRdY+zhON79GPJkySemkEOIT6xWaycT3wFWAnmvng4GSWA15KamhqTt4z1fFxmjmBkyQpszcD91O/8Exl3Eua5vjdwDNp5iqEs4BnAe8CjgDuof5xm8q4D3hDwPHoHLsjSV2yFfBTYL3aiUzT3cCpwMnAmcBZpFfWHiq0/ZnAY4GnkBqSbUjHcoVC28/lStJy0qfVTqQNbAAkdc0c4MfACyrnMax7SK87XgJcNjquIN1KuGV03D/FWLNIx2Ud0qyKa4/+942BJ4+Ott8r/y3pwcubayfSFjYAkrpoFvBJ0rvoXf6duweYR3oQDx5uCJYl3bNf9D+76iHgU8BHgQWVc5EkNcR2tOOBNcdg4zrgJUiSNI5VgR9Sv1g58o6fAasjSdIk9gVup37hcgw3bgXeiCRJ0zAXOJz6Rcwx2DiK9r3hIUlqkF3x2YA2jWuBV437SUqSNE2zgc+TnqKvXeAc448HgE8DK0/wGUqSNLCNSZeWaxc7xyPHb4BNlvC5SZKUxc7A2dQvfH0fZwDbT/JZSZKU1QxgD+AC6hfCvo1zgdePfgaSJFUxk7SgzMXUL4xdHxcA+2DhlyQ1yAzSGwMnU79Qdm2cTjrjnznlT0OSpAqeBxxJmm++dvFs65hPmsFv62kee0mSqlsXOAC4nPoFtS3jauAwYMNpH21JkhpmJrALcATpffXaRbZp4z7SrIs74v19SVJHrUq6n30U/W4G5pPe3389Tt4jSeqZ1YG3AD+lH4sP3QL8mFT0V81w/FTISO0EJKnDZgHbkNas3x54+uj/1mYPAn8hnen/Cvgj6cFItYwNgCSVsyLwbFJTsA2wFc2/VH47cArpVcgTgT8B91bNSFnYAEhSPSOkJ+OfBjx19D83AR4LLFc4l7uBS4HzgDNJ0yKfA1xROA8VYgMgSc20FrARqUHYAJhDer5g0bEUsArpKfulgRVG/927SA/kLQDuJK14eMti43rgKuAy0iuNN4XvkRrl/wPGB1D7RiwgRAAAAABJRU5ErkJggg==;" vertex="1" parent="ItPSY5wFcEl1Enw_Cite-11">
          <mxGeometry x="76" width="40" height="40" as="geometry" />
        </mxCell>
        <mxCell id="BW0WCOpWz5mmY5giLXIh-0" value="&lt;font style=&quot;font-size: 17px&quot;&gt;Investment platforms&lt;/font&gt;" style="text;html=1;strokeColor=none;fillColor=none;align=center;verticalAlign=middle;whiteSpace=wrap;rounded=0;" vertex="1" parent="BW0WCOpWz5mmY5giLXIh-3">
          <mxGeometry y="124" width="104" height="30" as="geometry" />
        </mxCell>
        <mxCell id="BW0WCOpWz5mmY5giLXIh-4" value="" style="group" vertex="1" connectable="0" parent="79kG9cvK04CvXiZlhBy5-1">
          <mxGeometry x="650" y="320.5" width="104" height="131.5" as="geometry" />
        </mxCell>
        <mxCell id="79kG9cvK04CvXiZlhBy5-5" value="" style="shape=image;verticalLabelPosition=bottom;labelBackgroundColor=default;verticalAlign=top;aspect=fixed;imageAspect=0;image=data:image/png,iVBORw0KGgoAAAANSUhEUgAAAgAAAAIACAYAAAD0eNT6AAAABHNCSVQICAgIfAhkiAAAAAlwSFlzAAAOxAAADsQBlSsOGwAAABl0RVh0U29mdHdhcmUAd3d3Lmlua3NjYXBlLm9yZ5vuPBoAACAASURBVHic7N13nF1V1f/xz8ykk0BIgdADAglVFLGAgFIUKQooqNgee31U7L/HhmIBBXvDhl1UiggKCghIEZAOgdBDkxZIQnoymfn9se6QyWRmcufOWnuf8n2/Xvs1IcCevc7dZ599z9ln7TZEpOhGAVMbZRowEdig8XNir3+eAIxp/BzR+PuOxr/rbQOgvdc/rwAW9/rneb3+vLjx7wHmN8qCRpnf52fPn58EHgOWtxauiKTQlrsBIjXWBmwCbAFsBmze+POmjZ9TgY2BDXM1cJieAB4FHsQmBA8BjwAP9/r5KNCVq4EidaYJgEisEcDWwAxgG+BZjbJN4+/H5GtaISwH7gHuapS7e/35IaA7X9NEqk0TABEfI4Ede5WZjbI9dgtfhm4ZqycFdwI3ATc2/rwqY7tEKkETAJGhmwg8B3h2r7ITutCnshS4FZsM3NQoNwNP52yUSNloAiAyuDHYxX4P4PmNn9uhc6douoF7sUnB1cCVwLVoIaLIgDSIiaxpGvDiXmVX7Pa+lM9ybBJwJXBF4+cTWVskUiCaAEjdbQW8FNgHu+Bvl7c5EuwO4N/A5cCl2PoCkVrSBEDqZgrwImAv4ABg97zNkczuBS7sVeYN/p+LVIcmAFJ1HdgF/2DgIGzBXvug/4fUVSdwDfCPRrkGvW0gFaYJgFTRVODlwCHAy4BJeZsjJTUfuAj4G/AXYG7e5oj40gRAqmIr4HDgUOAlWAIeES9d2NqBc4Az0NoBqQBNAKTMdgWOwC78u2Vui9RHN/Z2wZnAWdjCQpHS0QRAymYG8LpGmZm5LSIAs7CJwB+BWzK3RaRpmgBIGWwFvBZ4PfqmL8V2I/Ar4PfYRkcihaUJgBTVWOx5/ruA/VFflXLpAv4J/Bp7VLAob3NE1qZBVYqkHdgTeBNwDDA+b3NEXCwFzsUmA39DrxZKQWgCIEWwKfA24B3Y7X6RqnoA+BnwE+CRzG0REcmiHcvE90dgBbayWkWlLqUTe6XwAPRFTDJRx5PUpmDf9N8NTM/bFJFCuB34IbZ4cEHmtkiNaAIgqewG/C/2bH9M5raU0Urg8UZ5BMtZP79PWdD4+05gIfbseVnjz5296lrUqK/HSNZcbzGR1WPDWOzzGtP4+w0apefPG/b552nAJsDoYUdcP4uB32KTgRszt0VqQBMAiTQCS9Tzv8DemdtSZIuBOdjz4Yca5X7gQexi/zjwZK7GtWgKNhnYAti4z89NgW2xSYP07wrgJCwFcVfmtkhFaQIgEdbDFvUdC2yduS1FsRy71XsHlkb2nsbPu6nvYrAp2PbLvcu2jZ/rZ2xXkczGJgK/wfqQiBtNAMTTRti3/fcCkzO3JZdV2KB9E5Yh7rbGz3vR619DsRGwI7Z7Y0/ZGRiVs1EZ/Rf4NvAj4OnMbZGK0ARAPEwHPgn8D/V6vt+JXeivA25olFuAJTkbVWEjgR1YPSHYrVHqNNlcAJwCfIv63jkSkQLYDvg59XmNbz6WyOWzwEuxRx2S3/bAW4AfY3dbusjfV6LLMuCn2CMTEZFkdsReWVpJ/oEwsvwXy1PwIWB3LHeBFN8E7P3647B37eeTvy9FlVVYH32Wx4ETERnI9tgmJ6vIP/BFlDnYM9ajsJXqUg0jsRTTxwFXYo9ucvc177Ic+D7qtyLibAvsuWPVvvGvBC7H1i/sjtbE1MV47A7Bt7HFmbn7ofdE4BQsF4OISMs2Ab6LDSq5Bzavch/wA+CV6Bm+mO2A92OPC5aSv496lIXAV4BJjsdJRGpgAnA8ljEu90A23LIKuBjLSTDT8yBJJY0HjsYedT1N/v473DIf+AwwzvMgiUj1jADehb1elHvgGm65Flu8p2ei0qrRrH5UUPZz4iHs3NZCVhFZyxFYApvcA1WrpQu4Cvumv7nzsRHpwF79/C7wGPn7e6vlKuBFzsdGREpqJvB38g9MrZZZ2Oru7ZyPi8hAOrA7A7+ivI/JzkFpukVqaxL22lAZX4l6ALvoKwmK5LYBtr31pZQvAdES4EusuROkiFRYB/A+YC75B6ChlJXAn4FDGjGIFM10bMHdHeQ/X4ZSHsbSeOs1WJEKeyGWrz73gDOUci/wabSYT8qjDdgP+BPlSpN9KbbXgohUyERsJXNZbvcvx55RHoW+7Uu5TcMSTd1P/vOqmbICGyuUI0Ok5NqANwKPkn9gaabcD3wC2wpWpEpGAK8GLqIcawXuxBY6ikgJbYsNNrkHkmbKtcDrsUFSpOpmAt/BsvXlPvfWVX6NJuQipdGOJfwo+uDSBVwAHBZzGEQKb30sWdV/yX8+DlbmNdqpJEIiBbYTlugj94AxWFkG/AQtNhLpMRZ7M+ce8p+fg5VLgW2CjoGItGgk8DmKvWnPXGx/gY2DjoFI2XUArwWuI//5OlBZCLwHvTIoUgg7UewB4xHs9qE2IxFp3oHAP8l//g5Uzgc2C4teRAbVhj3rX0z+waC/MhfL1jchKH6ROtgL280y9/ncX5mPjUEiktB0ijsoPA2cgKVIFREfBwDXkP/87q+cC2wSF7qI9Hg7xVzh/zT2jH9iXOgitdYGHA7cTP7zvW95FHhVXOgi9TYR+AP5T/S+ZTHwNWBKXOgi0ks78DqKuX33z9B6HxFXewFzyH9y9y4rge9hqU5FJL0O7Bn8Y+QfD3qXWdjiZBEZhnZsBX3RNhS5ENglMG4Rad562ILbpeQfG3rKUmzsEpEWTKN4rwHdARwaGbSItGwbbAfC3ONE7/JrYHxk0CJVsw/FSg+6EPuGMTowZhHx8QLgSvKPG72/OOwWGrFIBbQB/4/ibNvbCZyCNgMRKZt24H+Ah8k/jnRjjwTeExmwSJlNwt6nzX2i9pSL0axdpOzWx3YeLMqXij9gaxZEpOHZwL3kPzm7sfd5XxcbrogktgdwPfnHl27gcpQoTASwzT8Wkf+k7AJ+gd2JEJHqGQEcSzESif0dbSgkNdYBnIhdeHOfjPdgm4+ISPVtCZxN/nHn/dGBihTRhthuWrlPwE7gZJS5S6SOjgAeJN/48zAwKjxKkQLZHnstJvfF/ybsuaCI1Nf6wE/JNw69Jj5EkWJ4MfA4eS/8K7Dd+jTzFpEeBwEPkX48+m6K4ERyeyf5U/peDcyIDlRESmky6Tcc+1eSyEQy6cCes+e88HcCXwZGBscqIuX3OuBJ0oxN1yaKSSS5scCZ5L34z8FSC4uINGsT4K/Ej0//ThWQSEqTgSvIe/H/PTAxOlARqax3Epun5NR0oYiksTUwm3wX/gXAm8KjFJE62BG4hZix6m0J4xAJtyt5VtP2lKuAbcOjFJE6GQN8G9+xaglKCSwVsj/50myuBD6PpfsUEYnwBuBpfMasLyVuu0iYI4Fl5Ln4Pwa8JDxCERFLZnYjwxuzZmOLpEVK703YN/AcF/9rga3iQxQRecZwHgk8iK2TEim9j5BvQ58fAaPjQxQR6ddR2B3IZsesK4DpORoq4u148lz4lwJvTRCfiMi6TAK+A8xj4DHrDuC9WGI0KQjtx9y6rwEfz/B77wdeDVyX4XeLiAxkDLAfsDMwFViFvRF1JbZmoCtf00R8tAHfJM83/4uBjeNDFBERkd7agO+R/sLfBXwV3T4TERFJrh04hfQX/2XYu7ciIiKSWBvwA9Jf/J9C7/eLiIhkkeu2/73AzATxiYiISD9OJP3F/yq02E9ERCSbr5D+4n8mMC5FcCIiIrK2HEl+TsYWG4qIiEgG/0vaC38n8IEkkYmIiEi/3kra3P5LgcOSRCYiIiL9ehVpd/VbBByYJDIRkWobBbwW+B223fCiRpnd+LujG/+NyFr2w76Np7r4zwf2TBKZiEi1vRq4h3WPu3cDR2ZqoxTU7sBC0l38n2j8ThERaV0HcBJDH4O/jhZcC7A18AjpLv6PArskiUxEpNpaufj3lBMztFcKZDL2fCjVxf9+YLskkYmIVNurGf6YfHjyVkshjAUuJ93F/15gmySRiYhU2yjseb7HuKyFgTXTgWXcS3XxvxXYJElkIiLV91r8xuejErddMvsGaS/+U9OEJSJSC7/Hb4z+TeK2S0ZvI93F/y5g0zRhiYjUxp34jdOzE7ddMtkHWE6ai/+DwPQkUYmI1Ivna9sLE7ddMtgGe/8+xcX/MWBmmrBERGrHcwKwIHHbJbENgTtIc/F/AtgpTVgiIrXkOZ7fnrjthVGHTEjtwG+B7RP8rqeBVwCzEvwuEZG6us6xrmsd65KC+RppvvkvxtYYiIhIrKPxG7tfk7jtksiRpNnadzlwUKKYRETqbiT2ltVwx+57UCKgSno2thVk9MW/EzgsUUwiImKOZPjj96uSt1rCTcJSPKa49f++RDGJiMiavk7rY/cJGdorwdqAP5Pm4n9SophERGRt7bS2zutE6rEIvnb+jzQX/3OwPQVERCSvw2luTcBd6LZ/Ze0LrCT+4v8fYL1EMYmIyLqNxDb2+Q32bv/CRrm98Xevafw3UkEbAw8Tf/G/t/G7REREJLMO4GLiL/5PohS/IiIihfE54i/+K4D9UgUkIiIig9uL+Of+XcAbUgUkIiISbUTuBgzTRGxxR3QcJ2D7CYgUVQewGbA1tg311sBGwFRgMjAFGI+dM2DZz3oWsi7G7nABzMcWTj0JzG2Ux4A5wH2Nnw8Dq+JCEZEU2nI3YJh+B7w++HdcBLwcDXhSHBsBzwV27VVmkm6F80psZfUtwM2Ncj3weKLfLyI193bin/vPwb45ieQ0A3gHcCrptrVupdzRaOPbG20WEXG3Nbb1buRgthR4XqqARHoZBxyAPXq6nfwX9lbLfcAp2LvZ67seIRGppXbgEuIHr7cnikcEYAK20PRsYBn5L97eZRmWovsYbC2CiMiQfYL4weqHyaKROusAXgmcASwh/0U6VVkCnI7toql02iLSlB2xW/ORg9NVwOhUAUktbQZ8EltjkvtinLv8F3vUsc1wDqiIVNsILAd/5GD0GLB5qoCkdvbGboOvIv+Ft2hlVePY7N3y0RWRyorO9rcSeEmqYKQ2OoCjgavJf5EtS7kKWzioxwMiwg7EL4z6XLJopA7asGfcN5H/glrWchvwZjQREKmtduAKYgeay9EgI34ORxd+z3Ij2sNdpJY+RuzgshDYNlk0UmXPAS4l/wWzquUq4AVNfxoiMqiipwLeFvsmNS7wd7wZ+HVg/VJ9k7FHSO9Hd5KidWH7cnwcW7QrksvWwL7A9ti+Gk8BdwIXYHtoyDC0Af8k9hvF75JFI1XUBrwb20An97fjupV5wDsp/pcYqZ79GTwZ3UrgL8DOmdpXCW8idgCZw+qd0USG6lnAheS/ENa9XIZthCQSbQyWJK7ZvrkSuzOoSeoQbYjd3osaNDrR+8bSmnbs9nN0QiqV5ssS4KONz0YkwihsZ9hW+udPMrS31H5E7IDxpXShSIVMA84j/wVPpf9yEUrkJTF+zvD65v+mb3I5vZDYTGlXk27fdKmO1wBPkv8ipzJ4mQscOcBnKNKKlzD8frkMbZG9Th3YO79Rg8NS9CHI0IzActXnvrCpDK2cgib64uNf+PTJ81I3vGw+QOyg8H/pQpEKmErrz/1U8pfLgE3W+lRFmrcF9uqpV588NG3zB1ek1YmTsHcoJwfVfwuwO7YyU2RdXgCcCWyauyFDtBBLoXsf9qbLHOAR7PFFT+kElmOL58DybIzG7nZMbpQp2JqH6Y2yDZaSe0KCGDw9jD0SuCZ3Q6SU3gz80rG+e4CdsPNPevk+cd8EOoE90oUiJfdq7OKY+xvsusoiLFfG8Vj64W2IndS3Ya8/HtH4nRcDizPEPdSyuNFmkaE6Hv/++MmkEZTATtg386gB4KR0oUjJfZTibtfbCVwJfAZ4PvaNPbcR2N2SzwH/xtqY+zj1V1YBxwYdA6muk/Dviwsp353FUJcQd+Lfg6VpFBlMG/Bd8l+o+paVwPnAW7HHZEU3GXg78HdiJ/Wtlm9RrEefUmxR29B7PlYotSOIO9m7gAPThSIl1QGcSv6LU+9yE7YoNmpNTApTgA8CN5P/ePYuP0N7NkhzjiTu2vTChHEU0khgNnEn+qnpQpGSGgmcRv6LUje2MOgXVHPHuxcCv8JizH2cu7HPXK8JyrpMJu6x1mUJ4yik9xN3gj+BfQMRGchI4CzyX4zmAV+lHs8FNwNOpBgbKJ2FJgGybr8nrg++MmEchTKB2Hz/r00XipRQB7YbZM4L0EIsyVAdN6WagK2Gzj0ROJ1iLKaU4tqZuLsAt1LTx1ERr1f0lIsTxiHl00beZ/7Lga9T7uf7XqYAJ5P30cDP0MJAGVzk/jRvSxhHIWyCvcMccTA7gd3ShSIllHO1/1nAtvEhls72wDnk+1y+FR+ilNhU4Cli+t6DwNh0oeT3PeJO5B8ljEPK56PkucDcBxyUIL6yOwS4nzyfkfIEyGA+SFzf+0TCOLLaCtsZKeIgLsDSl4r059WkT/KzCvg2MD5BfFUxAbtLk+OzUsZAGcgI4l5pnUc58nwM28+IO4E/mjAOKZcXkD697/3AvimCq6iXYrdHU35mi7EsiyL92Z+4vndCwjiy2I647GB3YRuaiPQ1DdsUJuWF5PfUc3W/t0nAn0j72T0EbJwiOCmlM4jpd4uwtQaVFfk+ZaG2WZTCGAFcSrqLx0q02UeEd5H2TYErgFFJIpOy2Zq4x9hfSRhHUjsQ90zvwoRxSLl8m3QXjYeBPdOEVUt7Af8l3ef5jTRhSQmdTEyfW0hFE9j9lpgDthJL1CDS12tId7G4nnpk8sttc+BG0n2uWhQo/dmQuNcCj08YRxLbEZdJ6XsJ45Dy2AyYS5qLxN+B9dOEJdgbFeeS5rN9CtgiTVhSMv9HTJ9bgE0wKuNUYg7UEvStS9bWDlxEmgvEqdQ0lWdmI7DNhVJ8xhdifUqkt7HEvaVyXLowYm1J3OKdExPGIeXxMdJcGL6PUsjm1A78kDSftV4xlv68m5j+Np+K3AWIOkGfpqKLJWRYtgeWEn9B+Aa6+BdBG/BN4j/vJdijTJHeRhC3pf2nE8YRYiPiBuPKLZSQYWsjza3/n6KLf5G0AT8g/nO/BH3usraoxcaPAmMSxuHuS8QcmMrcHhFXUbfjepdT0fPgImonzZqAd6YKSEqjjbg3U96RMA5X44hbhf2ZhHFIOWxM/N7yf0V7xxfZCOB8YvvAPOzOpkhvRxHT32ZT0i8cUTsnzcU2CxHpLXKPiW7gFmCDZNFIqyYQnyfglGTRSFm0EbdRUOmy3HYAdxNzMD6eMA4ph+cSu3Pcw+h10zLZHHiEuP7QCeyWLBopi9cR098uSRiDi6jbIY9gjxZEeovM9b8C2DtdKOLkRcTuHXA5WhAoa2oHbiOmv+2RMI5h+xcxB+FDKYOQUjicuEG+G3hfulDE2YeI7RuvTBeKlMQxxPS101IGMRy7EXMA5qJv/7KmduAm4gb436cLRYKcTlz/uAHdBZA1dRCTF2AlJUlJ/XNiTrYvpAxCSuG1xA3uD2J70Uu5TQTuJ66fvCZdKFIS7yCmr30xZRCtmEJM4p9lwLSEcUjxdQC3E3OirQL2TReKBNuPuEWisyjpa1oSZjQx21Y/AoxKGMeQfYqYk+wnKYOQUoj89v+thHFIGt8jrr/oLoD09Wli+trRKYMYinbgPvwD7gJ2TBiHlMNVxJxgc7DtZqVaJgAPENNnrkkYh5TDJGAh/n3t4pRBDMUriDm5zkkZhJTC3sT0tW7goIRxSFqHEtdvXpwwDimH7xLT13ZOGUSzziIm2JckjEHK4Wxi+tpZKYOQLM5FfUfS2Bpbve/d176TMohmbIIlTPEO9NqUQUgpbIllYvPua8vRdq91sC22qNi7/6wCtkoYh5TDH/Hva0/jlA7fa/Xq24GRTnX1dnJAnVJu78TeAPD2HeCugHqlWO4GfhhQbzvwtoB6pdy+HVDnBAq0GLAdWzjlPcuZg3ZekzWNAB7Cv68tBKYmjEPymoJ9i/LuRw8SMzmVcovYnOqypBEMYn/8g+sGPpEyCCmFVxLT145LGIMUw5eJ6UsHpwxCSuE9+PezLuxxVna/xj+45WjPbVnbGfj3tXlom9862hBYgH9/+mPKIKQUxhPT17Jnxx1PzLuOOomkrwnAEvz72ldSBiGF8jX8+9NilEdC1haRiGoOmbNQvhX/oLqBA1MGIaXwBvz72Qps73ipp82I2TL4tSmDkFLYAbtt793XXpoyiL4u6adBwy33otzasraId/9/kTIAKaSIR5hnJo1AyuJSKjSGTSdmRvPphDFIOYwn5t3tF6QMQgppT/z71RK0dbms7fX497WFZHrk9MkWGruushLYNGUQUgoRq/9vThqBFNmt+PcvvQ0gfY3BFh1797U3t9qg4dxqf90w/t+BnIttoyjSW0R+/h8H1Cnl9NOAOl8RUKeU2zLgDwH1HhVQ56Bm4j+L0axZBnIP/nealPhHekzFP2f7vUkjkLJ4Ef7XzRXY7oPJHOccQDfKoiX9m4F/Xzs/aQRSBhfi388KkahFCud2/PvaW1ppSKuPACJec/kZtqGGSG/7BNR5WkCdUm4Rt2b3DqhTyu/XAXUmewywK/6zF82WZSCn4tvPOkl8u0xKYSr2BcSzr0WsLZDy2wL/vrYcmJii8cc5N7wb+E+Khksp3YVvX7sibfOlRK7Bt6/dnrb5UiIX4H8d/Z+hNqKVRwCHt/D/rMufAuqU8tsIeJZznXr+LwM5z7m+GdjOgyJ9/TagzvDHANvgP2vpwpIKifR1EP79bY+kEUiZRKzQflnSCKQsJuKfhnrIjwGGegfgiCH+9824GtvUQKSvZzvXtxi4wblOqY5rsSx+nnZ1rk+qYT72GMDTKIaYM2WoE4CI2/8Rq2+lGrwHz6uxRYAi/VmJTQI87eJcn1RHxKPvQwPqBGyVbCe+tyxWod3YZGA349vfjk/bfCmhr+Db565P23wpkYn473HyJEPIpzOUOwCvGErFTboSeMi5TqmGDmwRlafrnOuT6vHuIzug3U2lfxGPASZhG1w1ZagTAG+6/S8D2Rx7puXpJuf6pHq8N4kaA0xzrlOqI+IxwCHeFXZgtxa8b/9v4t1QqYx98e1vTwNtSSOQMmoHFuHb9/ZKGoGUyQb4vw0wq9lf3uwdgBfinz3tX8AjznVKdUx3ru827OQQGUwXMNu5zm2c65PqWABc6lznjjTZ55qdAETs0veXgDqlOqY713efc31SXd47+U13rk+q5dyAOpt6G6DZCUDE83/vrFtSLd6PhzQBkGbNca5PawBkMH8NqLOpBFTNTAAm45+QZQ7+t9mkWrwfOd3vXJ9Ul/dkcbJzfVIt9+C/b8Q+wMh1/UfNTAD2a/K/Gwp9+5d1mepcn9abSLMeda5P+wHIupzjXN8Emkh73syFff/ht2UtmgDIunh/a5rrXJ9Ul3df0R0AWZeIxwD7res/aGYCcIBDQ3pbAVzsXKdUj/fe1k851yfV9aRzfRs61yfVcwX+/W7YE4Ct8N+O9V/Ye7YigxntXJ8mANIs774yxrk+qZ5V+GcF3BMYO9h/sK4JwDpnEC3QfuzSDO8JwHLn+qS6vPuKd0ZLqaZ/Otc3mnUkoVrXBGBvv7Y8428BdUr1eA+aK5zrk+ryngB4T2almrwnADDML/F34puicM5wGiO14r3zpPdGVlJdHfj2PW1BLc26D9++9+/BftlgdwA2BrZrPY5+afW/iIhI/7zvAuzOIOsABpsARNz+j7jFIdXkfctez2GlWVp/Irl4XyNHYpOAfg02AXixc0PAXnUQaYYmAJKLJgCSy4X4b1r2ooH+RcoJwH3Af53rlOrSQizJxbuvaAGqNOsx/NMCD3kCMAbY1bkR+vYvQ+E9AfDeW0Cqy7uvLHOuT6rNe3vgIU8AnksTGwkM0eXO9Um1zXOuT/nYpVne+1AoCZUMxaAr91swDdimv38x0ARgnZsItEB3AGQovNNiKh+7NMu7r3j3Zam2KwPq3LO/v0w1AVgA3OZcp1Sb94Ys2pNdmuXdVzQBkKG4B3jcuc5+HwMMNAF4vvMvvxLocq5Tqs170JzuXJ9U19bO9WknShkq78cA/b4K2N8EYENgW+dfHnFLQ6rNe09270Fdqmu6c32POdcn1ed9zdyFfrKh9jcB2A1oc/7lWgAoQzXHuT5NAKRZ/S6YGob7nOuT6vO+AzAOmNH3L/ubADzb+Rd3Av9xrlOqb45zfTux7s2vRDqAmc51agIgQ3Ut/vkjduv7FykmADcBi53rlOqb41zfeugugKzbtti3JU+aAMhQLQVmOdfZ1ARgrf9omK5zrk/q4SH8Z8Deya2kenZ2rm8Z/utZpB5udK7vOX3/ou8EYBSwo/MvvcG5PqmHVcAdznUOuCmGSIN3H7kdvQElrUk+AZiJ/6YpmgBIq25yrm8v5/qkerz3QPHuw1If3hOAycDmvf+i7wRgJ+dfuAq4xblOqQ/vvvMCtCugDGw0/knQNP5Jq27Cf2fANdb49Z0A7OD8y24HljjXKfVxs3N9Y+nnNphIw/OwjdA83epcn9THAuBe5zrXeMMlegLgPYBLvVyP/wz45c71SXV4941urA+LtMr7McCgEwDv91+9X2OQenkcuMu5zoOc65PqeIVzfbNRGmAZHu8JwBrJgHpPAEYA2zn/Mk0AZLi8d5F8PtoZUNa2EbYNuielQJfh8t5Eb8AJwDbYIhhP2gFQhst7AtABHO5cp5TfkfhnilQKdBku71ehNwIm9fcvDsWeWXmVpfSz+YDIEM3At192A39PGoGUwUX49zPvTdWkfkYBK/Htl89sDdx7xvss54bPxl4DFBmOO/BfCbsfNhMWAZgG7Otc573A3c51Sv2swD8t+jOPAfo+AvDkfetC6sv7G/sI4HXOdUp5vR7/u5V/c65P6mu2c33PLPaPnABo9itezg+o8x0BdUo5vT2gzvMC6pR68p4APHO3v/cEwPt5lSYA4uWfwHLnqmykMwAAIABJREFUOncBXuhcp5TPXvhnQF0KXOJcp9TXnc71bdnzh/ZeP6c7/5J7nOuT+lpEzF2A9wbUKeXynoA6z0MZUMWP9x2Arfr+xab4r4DdxLnRUm/H4N9HVwBbpAxCCmVzrA9496ujUwYhlbc5vv2zC0uL/owXOv+ChUCb7zGQmlsPuxPgPVifmDIIKZRv4N+fFmN9VcRLB/4T1e1g9SOANbYIdDCn8UtEvCwm5jHAu4ENA+qVYptMzELQc7G+KuJlFfCQc51bQdwE4EHn+kQAfhlQ5wbARwLqlWL7ODAhoN5fBNQp8oBzfWtMADZzrlwTAInwN2L61odRYqA6mQK8L6Deh4B/BNQrcr9zfVtC3ATA+3aFCNitsF8E1Dse+FRAvVJMnyPm2//PUPZTiREyAehxKb4LDP7HubEiPbYAOvFfvLWCPjtlSSXtQMzK/1X083qViJN34Ntfz4PVdwA2dm6s9/MKkR4PYgutvI0ETgqoV4rlG9hn7e1s/L+lifTwvqau8chzHr6zi5mIxNkb/29wPeWQhHFIWocT12/2ShiH1M+u+PbXZ9ZSjcISA3hWrteqJNq/iRnI7yfm+bDktT426EX0masTxiH1NA3fPrucRq4e7yxDz1QsEugoYgbzbuC7CeOQNH5IXH85ImEcUk8d2DoTz347EeC5zpXqFUBJoQO4jZgBfRXw0nShSLAD8B88e8otrLmpmkiUJ/Dtu9sDvNy50uuiohfp42hiBvVu7FXWyelCkSAbYguoovrJkelCkZrz/sKzVzswybmRjzvXJzKQ04GbgureDPhRUN2SRhvwc+I2fLoBOCuobpG+vK+tG7VjqVA9Pelcn8hAuoDPB9b/GuCDgfVLrGOxlf9RPo99kxJJwXsCMDViAjDfuT6RwZyNJbKKcjKwT2D9EmMv4ITA+i8GzgmsX6Qv7wnAhHYaKwEdPeVcn8i6HEtcCtYRwGn4b5glcbYEziAm4Q9YXzs2qG6RgSxwri9kAuDdSJF1uQF71htlE2wrYu+7ZeJvfeybuXd2095+TNzaE5GBLHSub4IeAUhVfIbYvrcTdidgRODvkOEZiX3z3zXwd8wjdt2JyEBCJgDeWc90B0ByeBz4RPDvOAi706D3vounHdsp8oDg3/Mx7H1skdSedq5vfYCL8H238OXOjRRpVhtwIXHvfPeUn6Fsl0XShr2yGf25X4w+d8nnCHz787kAVzpXundU9CJN2A5YQvzF4JvoYlAEbcC3iP+8lwDbJopJpD/749un/wVwo3Olz4uKXqRJHyX+gtCN5ZfX44B82oFTSPNZfyRRTCIDeT6+ffoGgNnOle4YFb1Ik9pJ8yigG/gVWhiYw0jgt6T5jP+BJnqS3w749us7wH+LzOlBwYsMxWbAXNJcIC5ArwimNAH4G2k+2yeATdOEJTKobfDt2/eA/w5Dke/figzFkaS5SHRj74UrWVC8LbEd+FJ8pl3Aq9KEJbJOW+Dbvx8Ae3fas1LvxEIiw/EN0k0CHgf2SxNWLe0NPEK6z/NracISacom+Pbv/4IlF/Cs1DuvgMhwjAAuId1FYyXwyRSB1cy7gBWk+xz/idZ2SLFMwbePPwH+r0yNi4pepEUbAw+R7uLRjW1V7L3Vdh1NwbbcTfnZPQhslCI4kSGYiG8/nwew3LnS0VHRiwzD84HFpL+Q6JFA6w4AHibtZ7YY2CNFcCJDtB6+fX0RQKdzpbptJkV1KP79fV2lC3tXff0E8VXF+sC3sV33Un5Wq7BsayJFNBrf/r4MbIDyrFTZ0aTIjiXtRaWnPIBNQGRwh5P+cU1P+WCC+ERa1Y7/hFcTAKmdFKljByrnAjPiQyydHbAtl3N9LifHhygyLCETgJXOleoRgBRdG7ahT66LzQpsL4Gp0YGWwEbAd0i7wr9v+Qn64iLFNwr/cYhlzpVqEaCUQTvwO/JddLqxRTgnUM+3BSYBx2Hbh+f8DE4HOmJDFXExFt++vwT8V0avFxW9iLORpH/FrL+yAPg69cgkuAV2u/1p8h/3s7A+IFIGE/Dt/wvB/0TUamcpk5HA78l/MerGbsn9GtgzNOI89gJ+Q95b/b3L79HFX8olJA/AU86VbhgVvUiQDvKuCeiv3Ap8mHInpNkYe+tiFvmPZ+/yU3TbX8rHOxPgXLD85Z6VlnnAkvpqI+/bAQOVTmxr43dSjkWDGwHvBi4ifc6FZsrJaMGflNM0fM+FR8HeT/asdHpQ8CIpHEv6BDTNllXA1cAXsMcERbiFPQq7vf9F4D8U99h1ovf8pdyehe85cR/AHc6V7hgVvUgiR5A+bXArZQlwKfBl4NXAttjbDVHage2A1wBfAf6F/14iEWUx2tZXym8XfM+LWSNovArgSJsBSdmdBbwUOBPYLHNbBjMW2KdReiwGZgP3AnOwWf4jwJONMhfL/bGSRi5wYDx2N2EUMLlX2RS7o7d1o+xA+c7vh4AjsbsTImXmfe4tBbgC31lF78FIpMymYM/fc3+DVWmtXIo9NxWpgpfie378q53GLMBR2b4hiAxkLnAQcCJ2wkh5/BjbTfDR3A0RceJ9bV3Sjh4BiAymE/gU9oz9ycxtkXWbi20o9G7sMYdIVYx1rm9ZO6ufA3rZwLk+kSI4C9gJOC93Q2RAFwG7AWfnbohIAO9r68J2YL5zpUoEJFX1GLal78fxf3QmrVsKfBQ4EHg4c1tEonjvGTIvYgIw0bk+kSLpAk4CdsYWCEpelwHPBb6B1mlItXl/uZ6vOwAirbkXeBmWoc/7HJJ1mwe8HdgXe+1RpOo0ARApkG4sr/y22J72q/I2pxa6sA2TZgI/R9/6pT5KMQHQIwCpmyeBD2GZuv6euS1Vdgl2u//N2B4mInVSignAFOf6RMridixvwKuAGzO3pUpuAF6JJUK5KXNbRHKZ7FzffLDXZjyzC93n3EiRMmoDDsMuXrkz4pW1zMK+7UfubyBSFg/he37tBLCJc6V6PUpktXZs85x/k/+CWpZyJZa/Xxd+EdMGrMD3PJsKMAL/LTy1DkBkbS/GEgoVdcvcnGVV49js1fLRFamuKfieb530mmDPda58ZsABEKmKzYBPYo/Lcl94c5eHgROw3QZFpH874XvePdK78lnOlb/EOXiRKuoADgH+gG3jm/tinKosBk4DDm4cAxEZ3P74noNrLKb9p3Plr/OOXqTi1sPOmzOxdTS5L9LeZUkjttc2YhWR5h2D7/l4Adjzf+hzO8DBls71iVRdz7fi07Bdv/bCtrM9DNgxY7uG414sXfKFwPnAwrzNESkt72vqI7B6AvCgc+VbONcnUidLWX3h/BSWaXBvbBHhnsAMbFVwkXQDdwBXAJc3yt1ZWyRSHVs51/cAxE0AdAdAxM/djXJq45+nAM8Bno1lH9wFu0swOlF7lgG3AbcAt2LPE2/AFhOLiD/vCcCDEDcB8G6siKw2F3uGd0Gvv2sDNsVW0/eUjbDsYVOxScMEYH1s4d1IYHzj/10ErMRexXsau1U/F3gCS3P8GDAHe2vhXuz2YXdQbCKytpA7AD2eg+8Cg6ecGysiIlJXT+N7jd65d+VTnSvvxr5piIiISOsm43993gBWZwKai38K322d6xMREakb72vpgkZ5ZgLQjT3b87Sdc30iIiJ1430tvafnD+39/aUTTQBERESGJ8kEwPudXU0AREREhsf7WvrMtT7yDsD2zvWJiIjUjfe1tN87AHc5/xJNAERERIbHexFgv1/2t8b/VYNpzg0XERGpi83wvy5v3lN57zsAD+D/KuBOzvWJiIjUxS7O9S0CHu75h94TgFXAnc6/zLvxIiIidbHzuv+TIbmNXmm82/v8y1nOv0x3AERERFoTMQF4Rt8JwO3Ov8y78SIiInWRdALgfQdgZ4q3b7mIiEjRdQA7ONe5xjU+egIwHniWc50iIiJVtx0wzrnONe7y950A3Iv/mwDPc65PRESk6nZ3rm8hMKf3X/SdAHQCtzj/Uu8gREREqs77y/ON9HoDANaeAADc4PxLNQEQEREZGu9r5419/yLVBKC/3yMiIiJrawd2c65zrWt7ignA+vjnMhYREamqGcAE5zrXugMwop//6BZsLUB//65Vz8c/y6BInY0GNsXyem8BTAEmAhv2Kj3/vF7j/xkPjGz8eVyjDoDlwJLGn1di6UIBFgPzGmV+rz/PA57E0oc/3CgrnOMTqbM9nOtbSZ8cAND/RX4pMBvfBAR7Ar9xrE+kDjYFZmLfBmZgG3Zt3vh7z422RrN6MgCwUQt1PMrqycC9wB2NMht4ZLgNFKmZvZzrm4VN9Ncw0Lf8a/CfAIhI/yZia2V2x867nov++jkbNUTTGqW/hUsLsDuAs7E7jNcB12N3FURkbd7XzKv7+8uBJgBXAW9z/OU7Y4PZ0451ipTRBOyR2O69StWTZW2A3dLsfVuzG9uX/Lpe5RpWP34QqauJwI7OdfY7ARjIrvjvQXygQxAiZTMeOAA4Abgcuw3nfW5VpXQC1wLfBo4CJrVwvEXK7mD8z62ZQ2lAB5Y1yLMBnx/aMRAppdHAy4BvYLe5V5H/wlrW0ondGTgZ+wLRe52CSFV9Cd/zaB4tvIr/T+dGXDDUBoiUxObAu4A/Y7ewc184q1oWAmcB7wQ2a+qTESmfS/A9b/7eSiO+6tyIJWgGL9WxE/BFVqfXVElfbgCOw/95qUguY4Fl+J4nX2ilIYc6N6Ib2LeVhogUxHTgQ9iz/NwXP5U1yyxsMjCkZ50iBXMA/ufGAa00ZCL2DM6zIS3NREQy2hT4JPZtM/dFTqW5cj3wCWCTfj5PkSL7Mr7nwgpWJwIbsuudG3Npqw0RSagDmzX/ETuBcl/QVForq7C1R0exOgOiSJH9G99z4MrhNOZbzo1ZzjBmIyLBZmCv6z1K/ouXim95BHu9cBdEimkC/l84ThhOg45wbkw3cNBwGiTirB04DLiQ/BcplfjShd0VOATtUirFErHu7pDhNGgKdsJ4Nuhbw2mQiJMJwP8Cd5H/oqSSp9wBfABL1iSS2/fw7d+dWBbOYbnJuVF3DLdBIsOwJZZYZj75L0AqxSjzgZOwviGSyz349ushpf8dyEnOjeqm+rnPpXimY8+Al5L/gqNSzLIC+BWwPSJpzcC/P3/Jo2EvD2jY+zwaJtKEbYBTsP2wc19gVMpRVmFvgCingKTyYfz78b4eDRuH/7emczwaJjKIHYHTUC5+ldZLJ/A7YAdEYp2Pb99dCIzyapz3CunFWMpDEW+bAT/FP4mVSn3LSuDHWFIoEW/j8f+SfW4zv7jZ12C8N/IZh+2YJuJlA+ArwJ3A27FkPiIeRmAbEN2FPVddP29zpGIOAsY419nUNbutycp2w1KhevoF8FbnOqV+RmFrSj6NvbZaJyuAhxrlfuAJ4Cls+8/eP5/CvhUswZJxgX3jWNb48xhW35Hr+XM7sCEwqZ+fU4GtsF0QN8fxVmNJzMUmAj/EPgOR4fg18EbnOmfSxBt3zU4A2rABZovhtKiPJ4Fp2K1akVa8HPgO1V61vQSY3SizsDscDwAPsjpjYU5t2Hm8BfYa3Qxs/cUOjT+Py9e0cHdguSS01bm0aiTwGDa59nI3sJ1jfYDNdr2frb3Eu5FSC1sBZ5L/2bB3eQjb7/7/gIOBrWl+kl5E7VgMB2N3aP4MPEz+4+xdTkc5BKQ1Ebv/fTOioYcENFRZAWUoxgCfxRaR5h70h1uWABcBxwOvpF4LzDYFXoXdRv8n1cjNsBibuI12PE5Sfd7Z/7ppcfvfdRmL/8D7AOX+hiPp7I/d2so90LdaVgCXAV/E7nx5L/opszHAfthk6HLKvQPjnejOpjSnHbvr59n/FhC4Jucc58Z2Ay+OaqxUwgbYK1jee1KkKA8BP8LunmkXzOaNxzZGOYVyPjLoAn6A7TchMpB98e97p0c2+B0BDf5uZIOl1A7GFrvlHtCHUq4HvgA8D93d8tAG7IHdHbiR/J/vUMr9aPdTGdgP8O9zb4ps8FT8E6w8gt7ZljVNAn5J/gG82TILW+S2dcTBkDVsg60DuY38n3uz5VR8V3lL+Y0AHse3ny0HJkY3/GLnRndjz3dFwJ4Fez8XiygPYZsL6RFWPjsBxwH3kb8/rKs8iu4GyGoH4d/H/pai4R8IaPiPUzRcCm0UcCLFzt2/AjgDy2LZbBZNideO5YQ4k2Jv+rQK+Cr27rfU28/x71/vSNHwzfAfpOejvQHqbGvgSvIP0AOVh4ET0LveZTAN+CTFvivwHwIStUhpjMWydHr2qU7sEX0SEYP10akaL4XyNmznqtyDcn/lH9gKfq1RKZ8OLL+C90ZmXuVp4C1h0UuRHYN/f7ooZQDHBgTw15QBSHZjsf0gcg/EfctK4LfY/hdSDbtjW0MXcYfIn6GcEHXzd/z70XtSBrAJ/ifTyka9Un1bANeQf/DtXRZh753r1mx1TccWbi4if3/rXW7A3m6Q6tsM/2vnCmByyiAg5tbax5JGIDkchG0ElXvQ7X3h/yoZTiDJZgrwNYqVUnoutpBRqu1T+Pedc5JG0PC2Fhs7WLk1aQSSUhv2/nZRVvkvxTbN2CgyaCm0adgdgWXk74/d2LnxGZRAqspux7/fHJM0goaJxGzi8aKUQUgS47DX53IPsN1YsozvY7fiRMAeSZ1CcfYgOJ1qb6NcV3vj31cWkTHNeMSg/ouUAUi4TbDXnnIPqt3A2egZvwxsBnAu+ftpN7ZGZlpsuJLYr/HvJ79LGkEfRwzQqOGUJVgqWCm/XYA55B9Mb8f2FRBpxv7AzeTvtw8Bzw2OVdKYTMwd86zZJUdgufy9g/pQyiAkxMuxrSlzDqBPYn1pRHCsUj0jgHfhn699qGUhcFhwrBLvo8RMELPnKPkG/oHNShqBeHsfed+57sLer9adJBmuKdhjyZzbUXcC7w6OU+K0AbPx7xdfSRnEQHYhptPvmzIIcfNZ8g2U3diJpr4j3vYH7iJv3/6/8Cglwn7494UuYPuUQQzmWvwDPD1pBDJcbcBJ5BscV2D5+pVVTaKMwXYfXE6+fv4dtBFV2ZyNfz+4PGkE6/A+/APsBLZKGYS0bATwS/INitcCO4ZHKWJ2BW4kX3//OQV49itN2YaYx6FvTxnEukwkJr3m11MGIS0ZQ8wMt5nSCXwJba8q6eXevvosYHR4lDJcJ+P/2S8AxqcMohk/xT/QeRQwUHnGKCwNZY4B8D5gn/gQRQb1IvKtDTgfPfIqsvHYVvfen/v3UgbRrN2J6eTvSxmENG0McB55Br6foImhFMf65NvZ8q/oTkBRfYCYz3yXlEEMRcQOb3egRS9FMxr4G+kHu4Vkynst0oS3kGeDoXOxu3FSHB3Anfh/1oVa/NdXxAZB3cCrUwYhgxoF/IX0g9xsYOcE8YkMx0xsU7PU58ff0J2AIjmamM/5jSmDGKpxwFP4B31NyiBkQLme+f8G3fKX8pgA/IH058mf0YLYooh4Nf5xSrDm42vEdO79UgYha2nHNp5IOaCtQGtApLw+CKwk7TnzK7SdcG4HEvPZfillEK3akphO//eUQchaIlI+D1aeRJM+Kb8DiLkrOlgp5CrxGrkI/890BSXawvyPxHRs7YyVx6dJO4DNRtv2SnXMIGZB2GDlU0kik772IObz/HXKIIZrL2IOwhkpgxDAdkRLOXBdAGyYJDKRdCYR881woNIFvCNJZNJb1ALpPVIG4eE/xHTq3VIGUXOHk3ZXvx+jrXulukYSkzBtoNIJvDJJZAKWCydi18jLUgbh5RhiOvWZKYOosd1J+07zF9OEJZJVG7aNa6rzahH60pRK1Lf/I1IG4aUDuBv/g9EFPDthHHW0CfAgaQaoLuAjacISKYwPkG4fgYcp0QKyknouMd/+Z1PiRHhRqRC1FiDOWOBq0gxMy4HXpQlLpHCOwVZ3pzjXrsXytEiMqG//b00ZhLdxWPIC74PSBTwnYRx10Y5NrlIMSIuw92VF6uwVwBLSnHOnoRwBEfYg5tv/Q1QgxfNnienM56cMoiZSPZtcBLwkTUgihXcA6SYBx6UJqVYuJOaz+ljKIKJMwjZxiThAL00YR9UdQcwsVhd/kXVLNQlYBRySKKY6iMr6Nw9LKV0JJxBzkK5Bt7Q8bEvMvtV9y2KU3U9kIPsQ92Wpd3kK2CZRTFXWRkzO/24qdqdmMrCAmAN1ZMI4qmgMcD26+IsUQapJwI3Ygl9p3WuJ+WwWUMFkaF8k5mDdhpLHDMepxA82y4GXpQpIpOQOJs3bAT9OFVAFjSQuvfPxCeNIZgPiNsV4b8I4quSdxA8yq7CZsog07xjS5Ako9WtmGX2ImM9jITAlYRxJfYaYg/Y4NsGQ5u1EmkVH2s5XpDUfJv78XAzMTBVQRUzCdiuN+Dy+nDCO5CYATxBz4L6eMI6yG409A4weXD6fKiCRivoy8efptVTgffOEvkXM57AAWy9XaZ8g5uAtB56VMI4yO4n4QeUHyaIRqa420mwg9NVUAZXcDOLWZ3w+YRzZrAc8SswB1EZB67YP8c8W/4EWZop4GUlcspmesgrlVWnGOcQc/yeA9RPGkVXks639E8ZRNpOI3+TndmBiqoBEamIScavOe8r96NwdzMuJO/a12hBtDJbnOOoCpOdZ/TuN2AFkLpZUSET8zSDuTaqe8ptk0ZTLaOImYA9i18RaeR9xnfiTCeMoi8OJHThWoFuIItEOAFYSey4fmiya8oja06YbeFfCOApjFHAXMQd0EbBFulAKbwNsT/DIQeP9yaIRqbcPEnsuP0iNnkc3YWviXpm+hRqvlzqSuE78p4RxFN2PiR0wfp8uFBHBbtVHntN6i2e1vxB3nGufIfUy4g7uQQnjKKp9id3lbxYwPlk0IgKWU+UO4s7rVcDeyaIprlcRd4zPThhHYT2HuNfS5lDvi9NobK+EqA68CNgxWTQi0tvOWCa/qPP7Duq9YdD6xL01tRzYPl0oxfZb4jrxNxPGUTTHE3dcu7F85SKSz1uIPce/kC6Uwvk+ccf1pIRxFN5WxC2y6ASeny6UwtgGWEpcB/5pulBEZBC/Iu48X4ItgqubvYi7M/0Y2rtmLZ8nrhPfjGXTqpOziTue92LPIEUkvw2wx51R5/sZySIphlHArcQdz3emC6U8xmIXlqiD/pl0oWQXmbGqE5sdi0hx7Etsiu8D04WS3XHEHccbgY5kkZRMZLKa5cCu6ULJZhSWDTHqOH4pXSgiMgRfI+68v4163EXdjbjNfrqxRE4yiL8RO/uqeprgjxN3/K6n+sdPpKyit/k+Nl0oWYzGHhdHHb+6PUppyQzs23rUh3B8ulCSmwzMJ+a4LcdeOxKR4no2camCnwI2TBdKcicQd91Zii3MliYcR9wHsZLqvhVwEpo4idRd5IXsqwnjSOlF2PqmqOP2/9KFUn6jsQxzUR/GbVRv96XNiXuV8g6qd7xEqmoscDcxY8FiYNN0oSQxjtisijdSj/UTrl5A7KrW76QLJYmfEnOcuoD9E8YhIsP3UuJSgP8oYRwpnELcdWYVdndBWvA94j6YLuCV6UIJtT1xz/2U8EeknKISBHUCMxPGESl6m/ST04VSPROAB4j7cB4HNkkWTZw/EXN8ngAmJYxDRPxMwRbuRYwNpyWMI8qmwFziri/3Aesli6aiDiZ2hvYPoD1ZNP52JO5RyfsSxiEi/j5EzNjQRbnfCmoHLiD22nJosmgq7jRiP6iPpgvF3e+IOSazgBEJ4xARfyOJSwz264RxeIvMl1L2Y1M4U7Db0VEf1grKmd72WcQ9+z8oYRwiEifqLmonsG3COLy8gNhcM3OBjZJFUxNvJXbG9gA20SiTnxBzLM5NGYSIhDuPmLHihymDcDCJ2I2TuoE3pgqmTtqIf2ZzbuP3lMHmxMxiV1KdFb4iYnYk5m7hMsqTF6CduIlQTzk/WTQ1NB1YQOwH+KlUwQzTt4iJ/ycpgxCRZH5GzJhRllfdPkPsteMpYItk0dTUG4n9EFcC+ySLpjUTgUX4x74M2DJhHCKSznRi7houBDZIF0ZL9iM21W83cHSyaGrut8R+kI9it9iL6iPExF217IgisqYfEDN2fChlEEO0JZbzJfKacWqyaIQNsCQLkR/o9VhO7aJpJybP91Jgs4RxiEh6mxCzZ8hdFDOfyhjgP8ReK+4B1k8VkJgXE39L51fJomneocTE+vWUQYhINt8kZgw5OGUQTfo5sdeIlSjXfzZfJvbD7QY+kCya5pyPf4yLgakpgxCRbDYm5i7AeSmDaMKHib8+fD5ZNLKWkcA1xH7AK4B9UwW0DjOI2eHreymDEJHsfoT/ONKFbUxWBPsRlyStp1yBsqVmtx22CjXyg55LMTJeRbz614llFBSR+tiOmD1EvpkyiAFsDzxJ7DVhAbB1qoBkcO8g9sPuBmYDG6YKqB+jiFnJ+oeUQYhIYZxBzJelUSmD6GMScEc/7fIub0oVkDTnD8R/6JeSr3Mf2WQbh1pekDIIESmMPYgZUw5PGUQvI4GLmmzjcMrpqQKS5k0C7iX+wz8lVUB9/GUIbWy2XJw0AhEpmn/hP66cnTSC1aIyHfYud1L8pEe19RxiVrf2LR9LFVDDxsQsaMk1UxeRYng1/uPKCmzMSulTTm0frCwCdk4VkLTmDcR3hC7gzakCwiYc3jH8F7tlJiL1NQJ4GP/x5SMJY3g9MW9H9S167l8SUekue5fl2KsmKdwS0P4vJGq7iBTb8fiPLzcnavuB2B2H6PG+CG83SJNGApcR3ykWYI8dIu0c0O5OYKvgdotIOWxBTFbVHYPbvQswP6DdfcsV5H2zQVowDbvNHd05/ovtshXluIA2/zmwvSJSPufiP858LrC9WwOPBLS5b3kE2DQwDgm0L/HZoLqxHAEbBcUQcfu/iDm7RSSfiD1Goh4DTMNW40eP6yuAvYJikESOJb6jdAM3Ya8iepoR0M5HgA7ndopIuXVg26B7jzczndu5Aba7gtpFAAANvklEQVRTa4oxvWj7wEiLfkmaDvNvYLxjuz8b0EYtZhGR/nwH//Hm047tG0eatV3dwG8d2y2ZjSfmVnp/5R/AaKd23xDQPmX+E5H+vBD/8eZ6p7aNIU2Wv27gRmyyIRUynZhbXP2VMxn+O/bTA9p1F9A2zHaJSDW1AXfjP+5MH2a7RhGTCbW/8jD2VoRU0O5YNqcUHel0hjcJeG9Am/Tuv4gMJiInwHuG0Z4O4LSANvVXFgPPH0ZbpQQOJ2YbzP7KH2h9v+g/B7THe0GOiFTLDviPO62+djwS+yKVYqzuBA5psZ1SMqneDOgG/sTQJwGjgKed23HrENsgIvV0G75jz9MMPZFOB/A753YMVrTiv2a+TbrO9UeGNgl4aUAbvjqE3y8i9XUi/uPPS4bw+zuA3wS0YaBy8hDaJhXRQbqFJd3Yc6xm1wScEPD7ldBCRJrxYvzHnxOa/N0jsS9MqcblM4H2IRwbqZD1gP+QrrOdTXOvCN7o/HsfR8l/RKQ5HcAT+I5BNzbxe8cA5zj/3sHK1eh1v9qbBswhXae7mMGTBU3Bf2vLn7d2aESkpryTp3UBkwf5feOwHCqpxuH7gI1bPDZSMTsC80jX+S4D1h+gLa8M+H1HDOPYiEj9vAb/ceiwAX7XBsDlAb9voLIA20lQ5Bn7AktI1wmvwb7t9+X9/L8TO8FERJo1Ef8tgk/s5/dMJe1j2EVoPZQM4EBgGek6493As/q04Qrn33GNx4ERkdq5Dt+x6Io+9W+F7aSaarxdDrzC48BIdR1Omi2Ee8p/gWc3fvdo/Ccg/c26RUTW5ev4X4B7Ft3tBDzoXP9gpRN7rCGyTm8kXbbAbmz9wd7APgF1H+R8bESkHg7GfzzaB9t0aG5A3QOVVcAxzsdGKu7d+K/GH6wsAc5zrnMlMMH7wIhILUzA/27o+aRda9UFvMP7wEg9fJB0HTWi/Nv/kIhIjVxF/nFsOOXj/odE6uRz5O/ErZavBRwPEakP73UAKctnA46H1FBEat4U5aiIgyEitXE0+cexVso3Iw6G1FMb8H3yd+qhlm0iDoaI1MY25B/Hhlp+gI3ZIm7aKdckYC46CURkeNpIu2J/uOW7aNyTQF8kfydvppwXdQBEpFbOJ/941kxpdsdBkWH5JPk7+7rKF8OiF5E6OZ7845ku/lIoHyFtnoChlsPjQheRGjmC/OPZQKUL+HBc6CIDexdpMwYOpWwfGLeI1McM8o9nA138PxAYt8g6vZ60ewc0U5YDIyKDFpHaGEHaTdKaKZ3AWyKDFmnWYcBS8p8UPWVWbLgiUjOzyD+u9f6Cc2RsuCJD8wrS5rgerJwRHKuI1MsZ5B/XuoHFwMuDY62N9twNqJDzsN2zFuRuCHBH7gaISKXcnrsB2K6pBwF/z92QqtAEwNclwF7A/ZnbMTvz7xeRask9ptyHja2XZW6HyDpNA/5DvttktwK7hUcpInWwI3Ad+cazq4GNw6MUcbQecDb5TpoVwHHoLo+ItKYNe9V5MfnGsbOAcdGBikToAL5NvpOnG7gCbQokIkMzDfgreceub2NjqEipfYi8CYMWYDN5EZF1OQp4knzjVReWbl2kMg4n7620buCPwOToQEWklDYATiHvGLUUODo6UJEcng88St4T7EHsdUURkR6vAB4g79j0KDZGilTW1sAt5D3RuoHfAlODYxWRYpsK/Ib849HN2NgoUnljgV+Q/6R7Clsb0BYarYgU0VHA4+Qfh36HvTUlUivvwl7Xy30CXgJsFxuqiBTEptjrdbnHnZVosZ/U3N7Af8l/Mi7GTka9diNSTe3Yl46nyT/ePA7sFxuuSDlsBlxJ/pOyG8u69bzYcEUksd2Bq8g/vnRjuUk2jQ1XpFxGACeQ/+Tsxt7D/RVKvylSdpOwhDqd5B9XurHXDEeFRixSYm8gf76AnjIPeyygE1akXEZgt/ufIP840o293//20IhFKmI34B7yn7Q9ZTa2DaeIFN9LgJvIP270lAeAPSIDFqmaScCfyH/y9i5/AraMDFpEWrYllu0z9zjRu/wR2DAyaJEqexuwkPwnck9ZAnwVmBgZtIg0bSJ2Thbl0WE3Nma9NTJokbqYDlxO/pO6d3kKWx8wNi5sERnEKOw5/2PkHw96l2tQXhERVyOA4yjOat6e8iA2CI0Ii1xEemvHsvjdS/7zv3dZhb1xoEXDIkFeCNxN/pO9b7kdG5SUVlgkzgHAjeQ/3/uWB4B9A+MWkYYNsPzZuU/6/soV2CAlIn72x86t3Od3f+U0tCZIJLmjsGfxuQeA/soN6I6AyHAdAPyb/Odzf+Vp7PGfiGSyNXAB+QeDgcr1wKux55Yism7t2DlzPfnP34HKBcA2UQdARIbmKIqT9au/Mgt4M1osKDKQduAwin3hn4e2EBcppI2x53G5B4nByp3AO9HrgyI9xmIX1bvIf34OVv6A9gcRKbyDgfvJP2AMVuZjrwxtEXQMRIpuGvZqb5Hv3HVj25UfGXMIRCTCOGx3waLlDehbVmDpQveMOQwihfNcbFe8peQ//wYrXY12rh9zGEQk2p7AreQfTJop16J1AlJNPc/3i7xgt3e5C3hpyJEQkaRGY7cal5N/YGmm3A98Dtg84FiIpLQ58FlgDvnPq2bKcuCL2JghIhWyLfBX8g8yzZZV2Demo4CRAcdDJEIH9v7+H4GV5D+Pmi0XATsFHA8RKZDDgHvIP+AMpTyKLRrcOeB4iHjYDrvT9gD5z5ehlAexR28iUhNjsNvsRdpCtJnSBVwCvAVLiSyS0wZYX7wE65u5z4+hlCXYGKBXckVqakvgN5Rv8OrGVlGfAbwGDWKSzlisz51B8Vfy91e6sHN+S+8DIyLltDv2LSb34NRqWYI9cz0MbUcq/jqAF2OvxS0gf39vtVwF7OV8bESkIo7AsvXlHqiGU+YCPwJehlYzS+tGAQcCP6T4yXrWVe7G9hcQERnUSOB9WAaw3APXcMvTwJ+wRU5TPA+SVNIU4E3Y3aQyf9PvKY8AH0B3xURkiMYBn6S4Ww4PtazCkg0dhz3yEAHb1e5D2CunK8jfTz3KQiwTqLL4iciwbAh8BVhE/oHNs9wF/ABb0DXZ7WhJ0U3GPvMfUPwNeIZaFmMX/kluR0tEBLs9ehzVuDXaX7kHW+R1FHrFsErGYYl5TsDuAK0if1/zLsuwvrup0zETEenXRsDXqN4dgd5lBXAZ8AXgIOwuiJTDJOAVWErby6nObf3+ymLgJLRNr4gkNhU4EVtol3sgjC5dwO3AL4D3AruhTYuKYATwHOwz+SUwm3LmtBhqWQh8HZuMi7SkLXcDpBI2xN4a+CD1GpAWY7eUrwZuxHZdnI3lfxd/I4GZwC7YBOwF2GLO9XI2KrEngO8C38cW54q0TBMA8TQaeC3waWD7zG3JpRPLozALuA24rvHn+7BvbtKcTYEdsc1pen4+l/pmfLwf+CbwEyzplciwaQIgEUZgq6yPBZ6fuS1FMQ9bcX5Pr3Jv4+fDGduVSxt2kX9Wo2zT68/boTUXPa7FLvx/xCaXIm40AZBoe2LvWB+JnpkPZBmrJwUPAI8DDzV+PozthPg49my7DNqxRWkbA5v1+rkRsBWrL/hjcjWw4FYBfwa+hS1iFAmhCYCksiXwfuCd6NtdK1YBj2GZ3Z7AXsVcAMxv/Hy6z8+FwHLWvF08r9efF2Or48GyxPV+jt7781mv8e8nYK9Grt/n58TGzw2wRaGbYBf8jmHEWlcLgJ9hz/jn5G2K1IEmAJLaaOCVwLuwd7NF6u464MfA77BXa0WS0ARActoReDfwNmB85raIpLQMOAe78F+YuS1SU5oASBGsDxwD/A/2apdIVV0LnIp925+fuS1Sc5oASNHMxCYCbwGm5W2KiIt52I6UPwJuyNwWkWdoAiBFNQI4GNua9VC0YlzKZRnwN+A3wF9ZveBSpDA0AZAyGAccArwZeDmWEU6kaLqAf2Pf9n8LzM3bHJHBaQIgZbMxlm3wKCzHQHve5kjNdQFXYRf9P2CvaYqUgiYAUmZTsMcER6E7A5JO72/6p1PPTI5SAZoASFVMAV6F5Rg4AHtsIOJlCXAR9uren7FkTCKlpgmAVNEY4MXYROAI6rsxkQzPY8A/sIv+eShJj1SMJgBSB7tijwgOxCYGdd1RTga3DLgMuAD4O3Bz3uaIxNIEQOqm5+7AgY3ybLSQsK66sYv8Bf+/vXtnaSAIozD8EhHEEG+ghUSb2IiFgngjrT9bsBAEEey8QWyMWKTQaJCA9+LM4AaCaDTuxj0PfMxAmmmSObtkvgm1B7RTXZHZH3IAsLwroe6D2ygYrKHLb+z/eQHO0Q17O8AuPqpnOeYAYNaphIJAFdhEgWAs1RVZr1rAIfrH/j7a+O9TXZFZhjgAmH2ugC4t2gC2gHVgEXUqtOx4Bk752PAPgBP01G9mXTgAmH3fMDpZsJqoFaCY5qJy5BGooWt0Yx2ho3pm9kUOAGa/Zxa9LVhKjMv4quNexY3+GD3Nx/EMP9mb/ZgDgFl/FYAysABUwhjnFRwOHoCLULVQcV5HXffMrA8cAMzSNYUCwnyoMjCH3ibMANNhHLTv6hvQQB3zGsA1cIU29TpwGcabtBZolneD9qNilkdDKAjEMDAJTHSpUXSKYQQ1OyqiI43jdPY6iJ8ntVEjnOgVuAOeUAe8+HkrzJvonvtmYn6LNvxYfk1vlmHvXVlsDFKw5l4AAAAASUVORK5CYII=;" vertex="1" parent="BW0WCOpWz5mmY5giLXIh-4">
          <mxGeometry x="8.5" width="87" height="87" as="geometry" />
        </mxCell>
        <mxCell id="79kG9cvK04CvXiZlhBy5-6" value="&lt;font style=&quot;font-size: 17px&quot;&gt;User with CPR number&lt;/font&gt;" style="text;html=1;strokeColor=none;fillColor=none;align=center;verticalAlign=middle;whiteSpace=wrap;rounded=0;" vertex="1" parent="BW0WCOpWz5mmY5giLXIh-4">
          <mxGeometry y="101.5" width="104" height="30" as="geometry" />
        </mxCell>
        <mxCell id="BW0WCOpWz5mmY5giLXIh-6" value="" style="endArrow=classic;html=1;rounded=0;fontSize=24;" edge="1" parent="79kG9cvK04CvXiZlhBy5-1">
          <mxGeometry width="50" height="50" relative="1" as="geometry">
            <mxPoint x="280" y="530" as="sourcePoint" />
            <mxPoint x="370" y="460" as="targetPoint" />
          </mxGeometry>
        </mxCell>
        <mxCell id="BW0WCOpWz5mmY5giLXIh-7" value="" style="endArrow=classic;html=1;rounded=0;fontSize=24;" edge="1" parent="79kG9cvK04CvXiZlhBy5-1">
          <mxGeometry width="50" height="50" relative="1" as="geometry">
            <mxPoint x="250" y="360" as="sourcePoint" />
            <mxPoint x="350" y="360" as="targetPoint" />
          </mxGeometry>
        </mxCell>
        <mxCell id="BW0WCOpWz5mmY5giLXIh-8" value="" style="endArrow=classic;html=1;rounded=0;fontSize=24;" edge="1" parent="79kG9cvK04CvXiZlhBy5-1">
          <mxGeometry width="50" height="50" relative="1" as="geometry">
            <mxPoint x="350" y="200" as="sourcePoint" />
            <mxPoint x="410" y="280" as="targetPoint" />
          </mxGeometry>
        </mxCell>
        <mxCell id="BW0WCOpWz5mmY5giLXIh-10" value="" style="endArrow=classic;html=1;rounded=0;fontSize=24;" edge="1" parent="79kG9cvK04CvXiZlhBy5-1">
          <mxGeometry width="50" height="50" relative="1" as="geometry">
            <mxPoint x="520" y="370" as="sourcePoint" />
            <mxPoint x="640" y="370" as="targetPoint" />
          </mxGeometry>
        </mxCell>
        <mxCell id="BW0WCOpWz5mmY5giLXIh-13" value="&lt;span style=&quot;font-size: 17px&quot;&gt;sends bank data&lt;/span&gt;" style="text;html=1;strokeColor=none;fillColor=none;align=center;verticalAlign=middle;whiteSpace=wrap;rounded=0;" vertex="1" parent="79kG9cvK04CvXiZlhBy5-1">
          <mxGeometry x="373" y="220" width="104" height="30" as="geometry" />
        </mxCell>
        <mxCell id="BW0WCOpWz5mmY5giLXIh-14" value="&lt;span style=&quot;font-size: 17px&quot;&gt;sends tax data&lt;/span&gt;" style="text;html=1;strokeColor=none;fillColor=none;align=center;verticalAlign=middle;whiteSpace=wrap;rounded=0;" vertex="1" parent="79kG9cvK04CvXiZlhBy5-1">
          <mxGeometry x="244" y="371.25" width="104" height="30" as="geometry" />
        </mxCell>
        <mxCell id="BW0WCOpWz5mmY5giLXIh-15" value="&lt;span style=&quot;font-size: 17px&quot;&gt;sends investment data&lt;/span&gt;" style="text;html=1;strokeColor=none;fillColor=none;align=center;verticalAlign=middle;whiteSpace=wrap;rounded=0;" vertex="1" parent="79kG9cvK04CvXiZlhBy5-1">
          <mxGeometry x="321" y="500" width="104" height="30" as="geometry" />
        </mxCell>
        <mxCell id="BW0WCOpWz5mmY5giLXIh-16" value="&lt;span style=&quot;font-size: 17px&quot;&gt;views personal financial data&lt;/span&gt;" style="text;html=1;strokeColor=none;fillColor=none;align=center;verticalAlign=middle;whiteSpace=wrap;rounded=0;" vertex="1" parent="79kG9cvK04CvXiZlhBy5-1">
          <mxGeometry x="518" y="383" width="120" height="30" as="geometry" />
        </mxCell>
      </root>
    </mxGraphModel>
  </diagram>
</mxfile>
